<svg width="1024" height="231" viewBox="0 0 1024 231" fill="none" xmlns="http://www.w3.org/2000/svg">
<g filter="url(#filter0_d_131_296)">
<rect y="160.019" width="1024" height="70" rx="20" fill="white"/>
</g>
<path d="M37.322 199.019L33.878 194.525H32.562V199.019H31.344V189.219H32.562V193.377H33.864L37 189.219H38.568L34.984 193.937L38.89 199.019H37.322ZM45.9702 191.459H46.9222V199.019H45.9282L45.8022 197.871C45.4475 198.291 45.0135 198.618 44.5002 198.851C43.9962 199.075 43.4408 199.187 42.8342 199.187C41.7235 199.187 40.7948 198.814 40.0482 198.067C39.3015 197.311 38.9282 196.369 38.9282 195.239C38.9282 194.11 39.3015 193.172 40.0482 192.425C40.7948 191.669 41.7235 191.291 42.8342 191.291C43.4502 191.291 44.0102 191.408 44.5142 191.641C45.0275 191.875 45.4615 192.201 45.8162 192.621L45.9702 191.459ZM40.9302 197.241C41.4622 197.773 42.1295 198.039 42.9322 198.039C43.7348 198.039 44.3975 197.773 44.9202 197.241C45.4428 196.709 45.7042 196.042 45.7042 195.239C45.7042 194.437 45.4428 193.769 44.9202 193.237C44.3975 192.705 43.7348 192.439 42.9322 192.439C42.1295 192.439 41.4622 192.71 40.9302 193.251C40.4075 193.783 40.1462 194.446 40.1462 195.239C40.1462 196.033 40.4075 196.7 40.9302 197.241ZM54.1772 199.019L51.5872 195.631H50.5092V199.019H49.3192V191.459H50.5092V194.525H51.6012L53.9392 191.459H55.3812L52.6232 195.085L55.6612 199.019H54.1772ZM62.4378 191.459H63.0958V199.019H61.9758V193.615L57.5658 199.019H56.8798V191.459H58.0138V196.821L62.4378 191.459ZM72.5767 195.267C72.5767 195.37 72.5674 195.515 72.5487 195.701H66.0947C66.1881 196.401 66.4774 196.966 66.9627 197.395C67.4481 197.815 68.0454 198.025 68.7547 198.025C69.2774 198.025 69.7394 197.913 70.1407 197.689C70.5514 197.456 70.8781 197.129 71.1207 196.709H72.3667C72.0494 197.493 71.5734 198.105 70.9387 198.543C70.3041 198.973 69.5761 199.187 68.7547 199.187C67.6627 199.187 66.7481 198.809 66.0107 198.053C65.2734 197.297 64.9047 196.359 64.9047 195.239C64.9047 194.11 65.2734 193.172 66.0107 192.425C66.7481 191.669 67.6627 191.291 68.7547 191.291C69.8841 191.291 70.8034 191.674 71.5127 192.439C72.2221 193.205 72.5767 194.147 72.5767 195.267ZM68.7547 192.425C68.3067 192.425 67.8961 192.514 67.5227 192.691C67.1587 192.869 66.8554 193.125 66.6127 193.461C66.3701 193.788 66.2067 194.166 66.1227 194.595H71.3727C71.2887 194.157 71.1254 193.774 70.8827 193.447C70.6401 193.111 70.3367 192.859 69.9727 192.691C69.6087 192.514 69.2027 192.425 68.7547 192.425ZM87.4105 199.019H86.2625L85.1845 193.405L82.5105 198.865H82.2445L79.5845 193.405L78.5065 199.019H77.3585L78.8005 191.459H79.7945L82.3845 196.751L84.9605 191.459H85.9545L87.4105 199.019ZM92.5064 199.187C91.7597 199.187 91.0784 199.019 90.4624 198.683C89.8464 198.338 89.3657 197.867 89.0204 197.269C88.6751 196.663 88.5024 195.986 88.5024 195.239C88.5024 194.101 88.8804 193.158 89.6364 192.411C90.4017 191.665 91.3584 191.291 92.5064 191.291C93.2624 191.291 93.9437 191.464 94.5504 191.809C95.1664 192.145 95.6471 192.617 95.9924 193.223C96.3471 193.821 96.5244 194.493 96.5244 195.239C96.5244 196.369 96.1417 197.311 95.3764 198.067C94.6111 198.814 93.6544 199.187 92.5064 199.187ZM90.5044 197.255C91.0364 197.778 91.7037 198.039 92.5064 198.039C93.3184 198.039 93.9857 197.778 94.5084 197.255C95.0404 196.723 95.3064 196.051 95.3064 195.239C95.3064 194.427 95.0404 193.76 94.5084 193.237C93.9857 192.705 93.3184 192.439 92.5064 192.439C91.7037 192.439 91.0364 192.705 90.5044 193.237C89.9817 193.76 89.7204 194.427 89.7204 195.239C89.7204 196.051 89.9817 196.723 90.5044 197.255ZM104.661 191.291C105.772 191.291 106.691 191.669 107.419 192.425C108.156 193.172 108.525 194.115 108.525 195.253C108.525 196.383 108.161 197.321 107.433 198.067C106.705 198.814 105.781 199.187 104.661 199.187C103.644 199.187 102.776 198.875 102.057 198.249C101.348 197.615 100.932 196.798 100.811 195.799H99.5229V199.033H98.3329V191.459H99.5229V194.679H100.825C100.881 194.194 101.016 193.741 101.231 193.321C101.455 192.901 101.735 192.542 102.071 192.243C102.407 191.945 102.794 191.711 103.233 191.543C103.681 191.375 104.157 191.291 104.661 191.291ZM104.661 198.039C105.034 198.039 105.384 197.969 105.711 197.829C106.047 197.68 106.332 197.484 106.565 197.241C106.798 196.999 106.98 196.705 107.111 196.359C107.251 196.014 107.321 195.645 107.321 195.253C107.321 194.451 107.064 193.783 106.551 193.251C106.047 192.71 105.417 192.439 104.661 192.439C103.896 192.439 103.261 192.71 102.757 193.251C102.253 193.783 102.001 194.451 102.001 195.253C102.001 195.776 102.113 196.252 102.337 196.681C102.57 197.101 102.888 197.433 103.289 197.675C103.7 197.918 104.157 198.039 104.661 198.039ZM119.745 197.913H120.795V201.021H119.703V199.019H110.337V191.459H111.499V197.913H114.467V191.459H115.615V197.913H118.569V191.459H119.745V197.913ZM128.076 191.459H128.734V199.019H127.614V193.615L123.204 199.019H122.518V191.459H123.652V196.821L128.076 191.459ZM138.215 195.267C138.215 195.37 138.206 195.515 138.187 195.701H131.733C131.827 196.401 132.116 196.966 132.601 197.395C133.087 197.815 133.684 198.025 134.393 198.025C134.916 198.025 135.378 197.913 135.779 197.689C136.19 197.456 136.517 197.129 136.759 196.709H138.005C137.688 197.493 137.212 198.105 136.577 198.543C135.943 198.973 135.215 199.187 134.393 199.187C133.301 199.187 132.387 198.809 131.649 198.053C130.912 197.297 130.543 196.359 130.543 195.239C130.543 194.11 130.912 193.172 131.649 192.425C132.387 191.669 133.301 191.291 134.393 191.291C135.523 191.291 136.442 191.674 137.151 192.439C137.861 193.205 138.215 194.147 138.215 195.267ZM134.393 192.425C133.945 192.425 133.535 192.514 133.161 192.691C132.797 192.869 132.494 193.125 132.251 193.461C132.009 193.788 131.845 194.166 131.761 194.595H137.011C136.927 194.157 136.764 193.774 136.521 193.447C136.279 193.111 135.975 192.859 135.611 192.691C135.247 192.514 134.841 192.425 134.393 192.425ZM146.987 199.187C146.25 199.187 145.578 199.019 144.971 198.683C144.374 198.338 143.903 197.862 143.557 197.255C143.221 196.649 143.053 195.977 143.053 195.239C143.053 194.11 143.427 193.172 144.173 192.425C144.929 191.669 145.867 191.291 146.987 191.291C147.883 191.291 148.658 191.539 149.311 192.033C149.974 192.528 150.422 193.186 150.655 194.007H149.479C149.255 193.522 148.919 193.139 148.471 192.859C148.033 192.579 147.538 192.439 146.987 192.439C146.213 192.439 145.564 192.71 145.041 193.251C144.528 193.783 144.271 194.446 144.271 195.239C144.271 195.762 144.388 196.238 144.621 196.667C144.855 197.087 145.177 197.423 145.587 197.675C146.007 197.918 146.474 198.039 146.987 198.039C147.538 198.039 148.028 197.899 148.457 197.619C148.896 197.33 149.232 196.933 149.465 196.429H150.669C150.436 197.269 149.983 197.941 149.311 198.445C148.649 198.94 147.874 199.187 146.987 199.187ZM156.341 191.291C157.47 191.291 158.399 191.665 159.127 192.411C159.864 193.158 160.233 194.101 160.233 195.239C160.233 196.369 159.864 197.311 159.127 198.067C158.399 198.814 157.47 199.187 156.341 199.187C155.202 199.187 154.264 198.795 153.527 198.011V201.721H152.337V191.459H153.149L153.387 192.621C153.741 192.201 154.171 191.875 154.675 191.641C155.188 191.408 155.743 191.291 156.341 191.291ZM156.257 198.039C157.059 198.039 157.722 197.773 158.245 197.241C158.767 196.709 159.029 196.042 159.029 195.239C159.029 194.437 158.767 193.769 158.245 193.237C157.722 192.705 157.059 192.439 156.257 192.439C155.454 192.439 154.787 192.71 154.255 193.251C153.732 193.783 153.471 194.446 153.471 195.239C153.471 195.762 153.587 196.238 153.821 196.667C154.063 197.097 154.399 197.433 154.829 197.675C155.258 197.918 155.734 198.039 156.257 198.039ZM169.114 195.267C169.114 195.37 169.105 195.515 169.086 195.701H162.632C162.725 196.401 163.015 196.966 163.5 197.395C163.985 197.815 164.583 198.025 165.292 198.025C165.815 198.025 166.277 197.913 166.678 197.689C167.089 197.456 167.415 197.129 167.658 196.709H168.904C168.587 197.493 168.111 198.105 167.476 198.543C166.841 198.973 166.113 199.187 165.292 199.187C164.2 199.187 163.285 198.809 162.548 198.053C161.811 197.297 161.442 196.359 161.442 195.239C161.442 194.11 161.811 193.172 162.548 192.425C163.285 191.669 164.2 191.291 165.292 191.291C166.421 191.291 167.341 191.674 168.05 192.439C168.759 193.205 169.114 194.147 169.114 195.267ZM165.292 192.425C164.844 192.425 164.433 192.514 164.06 192.691C163.696 192.869 163.393 193.125 163.15 193.461C162.907 193.788 162.744 194.166 162.66 194.595H167.91C167.826 194.157 167.663 193.774 167.42 193.447C167.177 193.111 166.874 192.859 166.51 192.691C166.146 192.514 165.74 192.425 165.292 192.425ZM177.095 197.899H178.117V201.021H177.025V199.019H170.935V201.021H169.843V197.899H170.655C170.879 197.694 171.051 197.405 171.173 197.031C171.294 196.649 171.401 196.07 171.495 195.295C171.597 194.511 171.719 193.233 171.859 191.459H177.095V197.899ZM172.923 192.509C172.839 193.76 172.75 194.735 172.657 195.435C172.573 196.126 172.475 196.658 172.363 197.031C172.251 197.395 172.106 197.685 171.929 197.899H175.933V192.509H172.923ZM183.067 199.187C182.33 199.187 181.658 199.019 181.051 198.683C180.454 198.338 179.983 197.862 179.637 197.255C179.301 196.649 179.133 195.977 179.133 195.239C179.133 194.11 179.507 193.172 180.253 192.425C181.009 191.669 181.947 191.291 183.067 191.291C183.963 191.291 184.738 191.539 185.391 192.033C186.054 192.528 186.502 193.186 186.735 194.007H185.559C185.335 193.522 184.999 193.139 184.551 192.859C184.113 192.579 183.618 192.439 183.067 192.439C182.293 192.439 181.644 192.71 181.121 193.251C180.608 193.783 180.351 194.446 180.351 195.239C180.351 195.762 180.468 196.238 180.701 196.667C180.935 197.087 181.257 197.423 181.667 197.675C182.087 197.918 182.554 198.039 183.067 198.039C183.618 198.039 184.108 197.899 184.537 197.619C184.976 197.33 185.312 196.933 185.545 196.429H186.749C186.516 197.269 186.063 197.941 185.391 198.445C184.729 198.94 183.954 199.187 183.067 199.187ZM194.173 191.459V192.537H191.359V199.019H190.197V192.537H187.383V191.459H194.173ZM200.466 195.099C200.849 195.239 201.152 195.473 201.376 195.799C201.61 196.126 201.726 196.495 201.726 196.905C201.726 197.512 201.502 198.016 201.054 198.417C200.616 198.819 200.065 199.019 199.402 199.019H195.608V191.459H199.36C199.986 191.459 200.494 191.641 200.886 192.005C201.278 192.36 201.474 192.817 201.474 193.377C201.474 193.629 201.432 193.867 201.348 194.091C201.264 194.315 201.148 194.516 200.998 194.693C200.849 194.861 200.672 194.997 200.466 195.099ZM200.298 193.587C200.298 193.279 200.196 193.037 199.99 192.859C199.785 192.673 199.519 192.579 199.192 192.579H196.77V194.581H199.192C199.528 194.581 199.794 194.493 199.99 194.315C200.196 194.129 200.298 193.886 200.298 193.587ZM199.262 197.899C199.496 197.899 199.706 197.853 199.892 197.759C200.088 197.657 200.238 197.521 200.34 197.353C200.443 197.185 200.494 196.999 200.494 196.793C200.494 196.579 200.443 196.387 200.34 196.219C200.238 196.042 200.088 195.907 199.892 195.813C199.706 195.72 199.491 195.673 199.248 195.673H196.77V197.899H199.262ZM210.087 191.459H211.039V199.019H210.045L209.919 197.871C209.565 198.291 209.131 198.618 208.617 198.851C208.113 199.075 207.558 199.187 206.951 199.187C205.841 199.187 204.912 198.814 204.165 198.067C203.419 197.311 203.045 196.369 203.045 195.239C203.045 194.11 203.419 193.172 204.165 192.425C204.912 191.669 205.841 191.291 206.951 191.291C207.567 191.291 208.127 191.408 208.631 191.641C209.145 191.875 209.579 192.201 209.933 192.621L210.087 191.459ZM205.047 197.241C205.579 197.773 206.247 198.039 207.049 198.039C207.852 198.039 208.515 197.773 209.037 197.241C209.56 196.709 209.821 196.042 209.821 195.239C209.821 194.437 209.56 193.769 209.037 193.237C208.515 192.705 207.852 192.439 207.049 192.439C206.247 192.439 205.579 192.71 205.047 193.251C204.525 193.783 204.263 194.446 204.263 195.239C204.263 196.033 204.525 196.7 205.047 197.241ZM221.958 195.099C222.341 195.239 222.644 195.473 222.868 195.799C223.102 196.126 223.218 196.495 223.218 196.905C223.218 197.512 222.994 198.016 222.546 198.417C222.108 198.819 221.557 199.019 220.894 199.019H217.1V191.459H220.852C221.478 191.459 221.986 191.641 222.378 192.005C222.77 192.36 222.966 192.817 222.966 193.377C222.966 193.629 222.924 193.867 222.84 194.091C222.756 194.315 222.64 194.516 222.49 194.693C222.341 194.861 222.164 194.997 221.958 195.099ZM221.79 193.587C221.79 193.279 221.688 193.037 221.482 192.859C221.277 192.673 221.011 192.579 220.684 192.579H218.262V194.581H220.684C221.02 194.581 221.286 194.493 221.482 194.315C221.688 194.129 221.79 193.886 221.79 193.587ZM220.754 197.899C220.988 197.899 221.198 197.853 221.384 197.759C221.58 197.657 221.73 197.521 221.832 197.353C221.935 197.185 221.986 196.999 221.986 196.793C221.986 196.579 221.935 196.387 221.832 196.219C221.73 196.042 221.58 195.907 221.384 195.813C221.198 195.72 220.983 195.673 220.74 195.673H218.262V197.899H220.754ZM228.178 193.839C228.971 193.839 229.62 194.082 230.124 194.567C230.628 195.043 230.88 195.669 230.88 196.443C230.88 197.199 230.628 197.82 230.124 198.305C229.62 198.781 228.971 199.019 228.178 199.019H225.14V191.459H226.302V193.839H228.178ZM232.252 191.459H233.442V199.019H232.252V191.459ZM228.024 197.955C228.518 197.955 228.915 197.815 229.214 197.535C229.512 197.255 229.662 196.891 229.662 196.443C229.662 195.986 229.512 195.617 229.214 195.337C228.915 195.048 228.518 194.903 228.024 194.903H226.302V197.955H228.024ZM245.067 191.459H245.725V199.019H244.605V193.615L240.195 199.019H239.509V191.459H240.643V196.821L245.067 191.459ZM251.468 199.187C250.73 199.187 250.058 199.019 249.452 198.683C248.854 198.338 248.383 197.862 248.038 197.255C247.702 196.649 247.534 195.977 247.534 195.239C247.534 194.11 247.907 193.172 248.654 192.425C249.41 191.669 250.348 191.291 251.468 191.291C252.364 191.291 253.138 191.539 253.792 192.033C254.454 192.528 254.902 193.186 255.136 194.007H253.96C253.736 193.522 253.4 193.139 252.952 192.859C252.513 192.579 252.018 192.439 251.468 192.439C250.693 192.439 250.044 192.71 249.522 193.251C249.008 193.783 248.752 194.446 248.752 195.239C248.752 195.762 248.868 196.238 249.102 196.667C249.335 197.087 249.657 197.423 250.068 197.675C250.488 197.918 250.954 198.039 251.468 198.039C252.018 198.039 252.508 197.899 252.938 197.619C253.376 197.33 253.712 196.933 253.946 196.429H255.15C254.916 197.269 254.464 197.941 253.792 198.445C253.129 198.94 252.354 199.187 251.468 199.187ZM256.817 191.459H263.229V199.019H262.053V192.551H258.007V199.019H256.817V191.459ZM269.038 199.187C268.291 199.187 267.61 199.019 266.994 198.683C266.378 198.338 265.897 197.867 265.552 197.269C265.206 196.663 265.034 195.986 265.034 195.239C265.034 194.101 265.412 193.158 266.168 192.411C266.933 191.665 267.89 191.291 269.038 191.291C269.794 191.291 270.475 191.464 271.082 191.809C271.698 192.145 272.178 192.617 272.524 193.223C272.878 193.821 273.056 194.493 273.056 195.239C273.056 196.369 272.673 197.311 271.908 198.067C271.142 198.814 270.186 199.187 269.038 199.187ZM267.036 197.255C267.568 197.778 268.235 198.039 269.038 198.039C269.85 198.039 270.517 197.778 271.04 197.255C271.572 196.723 271.838 196.051 271.838 195.239C271.838 194.427 271.572 193.76 271.04 193.237C270.517 192.705 269.85 192.439 269.038 192.439C268.235 192.439 267.568 192.705 267.036 193.237C266.513 193.76 266.252 194.427 266.252 195.239C266.252 196.051 266.513 196.723 267.036 197.255ZM275.947 191.459H280.903V199.019H279.713V192.495H276.941L276.549 196.317C276.446 197.316 276.19 198.025 275.779 198.445C275.368 198.856 274.752 199.061 273.931 199.061H273.721V197.941H273.987C274.416 197.941 274.743 197.82 274.967 197.577C275.191 197.325 275.331 196.929 275.387 196.387L275.947 191.459ZM286.338 193.839C287.131 193.839 287.78 194.082 288.284 194.567C288.788 195.043 289.04 195.669 289.04 196.443C289.04 197.199 288.788 197.82 288.284 198.305C287.78 198.781 287.131 199.019 286.338 199.019H283.3V191.459H284.462V193.839H286.338ZM286.184 197.955C286.678 197.955 287.075 197.815 287.374 197.535C287.672 197.255 287.822 196.891 287.822 196.443C287.822 195.986 287.672 195.617 287.374 195.337C287.075 195.048 286.678 194.903 286.184 194.903H284.462V197.955H286.184ZM294.603 195.029C295.294 195.403 295.639 196.019 295.639 196.877C295.639 197.325 295.513 197.727 295.261 198.081C295.018 198.427 294.673 198.697 294.225 198.893C293.786 199.089 293.292 199.187 292.741 199.187C291.938 199.187 291.276 198.982 290.753 198.571C290.24 198.161 289.95 197.61 289.885 196.919H290.963C291.038 197.274 291.234 197.554 291.551 197.759C291.868 197.955 292.265 198.053 292.741 198.053C293.245 198.053 293.66 197.937 293.987 197.703C294.314 197.47 294.477 197.162 294.477 196.779C294.477 196.425 294.337 196.131 294.057 195.897C293.786 195.664 293.441 195.547 293.021 195.547H291.901V194.581H293.021C293.413 194.581 293.726 194.483 293.959 194.287C294.202 194.082 294.323 193.821 294.323 193.503C294.323 193.158 294.178 192.878 293.889 192.663C293.6 192.449 293.217 192.341 292.741 192.341C292.321 192.341 291.971 192.435 291.691 192.621C291.411 192.808 291.234 193.06 291.159 193.377H290.081C290.118 192.967 290.254 192.603 290.487 192.285C290.73 191.968 291.047 191.725 291.439 191.557C291.84 191.38 292.284 191.291 292.769 191.291C293.544 191.291 294.183 191.492 294.687 191.893C295.191 192.295 295.443 192.799 295.443 193.405C295.443 194.133 295.163 194.675 294.603 195.029ZM302.898 191.459H304.172L300.574 199.327C300.294 199.943 300.018 200.419 299.748 200.755C299.477 201.091 299.174 201.334 298.838 201.483C298.502 201.642 298.091 201.721 297.606 201.721H296.892V200.643H297.508C298.012 200.643 298.39 200.541 298.642 200.335C298.894 200.13 299.174 199.71 299.482 199.075L299.748 198.501L296.388 191.459H297.69L300.378 197.185L302.898 191.459ZM312.395 195.267C312.395 195.37 312.386 195.515 312.367 195.701H305.913C306.006 196.401 306.296 196.966 306.781 197.395C307.266 197.815 307.864 198.025 308.573 198.025C309.096 198.025 309.558 197.913 309.959 197.689C310.37 197.456 310.696 197.129 310.939 196.709H312.185C311.868 197.493 311.392 198.105 310.757 198.543C310.122 198.973 309.394 199.187 308.573 199.187C307.481 199.187 306.566 198.809 305.829 198.053C305.092 197.297 304.723 196.359 304.723 195.239C304.723 194.11 305.092 193.172 305.829 192.425C306.566 191.669 307.481 191.291 308.573 191.291C309.702 191.291 310.622 191.674 311.331 192.439C312.04 193.205 312.395 194.147 312.395 195.267ZM308.573 192.425C308.125 192.425 307.714 192.514 307.341 192.691C306.977 192.869 306.674 193.125 306.431 193.461C306.188 193.788 306.025 194.166 305.941 194.595H311.191C311.107 194.157 310.944 193.774 310.701 193.447C310.458 193.111 310.155 192.859 309.791 192.691C309.427 192.514 309.021 192.425 308.573 192.425ZM319.762 191.459V192.537H316.948V199.019H315.786V192.537H312.972V191.459H319.762ZM328.022 195.267C328.022 195.37 328.013 195.515 327.994 195.701H321.54C321.633 196.401 321.923 196.966 322.408 197.395C322.893 197.815 323.491 198.025 324.2 198.025C324.723 198.025 325.185 197.913 325.586 197.689C325.997 197.456 326.323 197.129 326.566 196.709H327.812C327.495 197.493 327.019 198.105 326.384 198.543C325.749 198.973 325.021 199.187 324.2 199.187C323.108 199.187 322.193 198.809 321.456 198.053C320.719 197.297 320.35 196.359 320.35 195.239C320.35 194.11 320.719 193.172 321.456 192.425C322.193 191.669 323.108 191.291 324.2 191.291C325.329 191.291 326.249 191.674 326.958 192.439C327.667 193.205 328.022 194.147 328.022 195.267ZM324.2 192.425C323.752 192.425 323.341 192.514 322.968 192.691C322.604 192.869 322.301 193.125 322.058 193.461C321.815 193.788 321.652 194.166 321.568 194.595H326.818C326.734 194.157 326.571 193.774 326.328 193.447C326.085 193.111 325.782 192.859 325.418 192.691C325.054 192.514 324.648 192.425 324.2 192.425ZM331.024 196.331V196.023C331.024 195.697 331.057 195.407 331.122 195.155C331.197 194.903 331.318 194.675 331.486 194.469C331.654 194.255 331.794 194.096 331.906 193.993C332.018 193.881 332.191 193.727 332.424 193.531C332.62 193.373 332.774 193.247 332.886 193.153C332.998 193.051 333.119 192.92 333.25 192.761C333.39 192.593 333.488 192.411 333.544 192.215C333.609 192.019 333.642 191.8 333.642 191.557C333.642 191.203 333.558 190.89 333.39 190.619C333.231 190.349 333.007 190.143 332.718 190.003C332.429 189.854 332.102 189.779 331.738 189.779C331.206 189.779 330.753 189.933 330.38 190.241C330.016 190.54 329.82 190.946 329.792 191.459H328.658C328.695 190.591 329.008 189.91 329.596 189.415C330.193 188.911 330.907 188.659 331.738 188.659C332.167 188.659 332.564 188.729 332.928 188.869C333.301 189 333.628 189.187 333.908 189.429C334.188 189.672 334.407 189.98 334.566 190.353C334.725 190.717 334.804 191.119 334.804 191.557C334.804 191.837 334.771 192.099 334.706 192.341C334.65 192.575 334.58 192.775 334.496 192.943C334.421 193.102 334.309 193.265 334.16 193.433C334.011 193.601 333.885 193.732 333.782 193.825C333.679 193.909 333.539 194.026 333.362 194.175C333.194 194.315 333.073 194.418 332.998 194.483C332.933 194.539 332.835 194.637 332.704 194.777C332.583 194.908 332.494 195.029 332.438 195.141C332.382 195.244 332.331 195.375 332.284 195.533C332.237 195.683 332.214 195.846 332.214 196.023V196.331H331.024ZM330.94 199.019V197.535H332.298V199.019H330.94Z" fill="#4B5258"/>
<g filter="url(#filter1_d_131_296)">
<rect y="80.019" width="1024" height="70" rx="20" fill="white"/>
</g>
<path d="M35.88 113.839C36.3093 114.063 36.65 114.394 36.902 114.833C37.154 115.262 37.28 115.738 37.28 116.261C37.28 117.101 36.958 117.796 36.314 118.347C35.6793 118.898 34.8767 119.173 33.906 119.173C32.9727 119.173 32.198 118.902 31.582 118.361C30.966 117.82 30.6347 117.124 30.588 116.275H31.792C31.8387 116.798 32.058 117.222 32.45 117.549C32.842 117.866 33.3273 118.025 33.906 118.025C34.326 118.025 34.6993 117.95 35.026 117.801C35.3527 117.642 35.6047 117.428 35.782 117.157C35.9687 116.877 36.062 116.564 36.062 116.219C36.062 115.687 35.8893 115.253 35.544 114.917C35.1987 114.581 34.7553 114.413 34.214 114.413H33.08V113.335H34.214C34.69 113.335 35.082 113.19 35.39 112.901C35.7073 112.602 35.866 112.224 35.866 111.767C35.866 111.291 35.684 110.908 35.32 110.619C34.956 110.32 34.4847 110.171 33.906 110.171C33.3927 110.171 32.9493 110.316 32.576 110.605C32.212 110.885 31.9973 111.254 31.932 111.711H30.756C30.8213 110.936 31.148 110.302 31.736 109.807C32.3333 109.303 33.0567 109.051 33.906 109.051C34.8207 109.051 35.572 109.303 36.16 109.807C36.7573 110.302 37.056 110.941 37.056 111.725C37.056 112.024 37.0093 112.313 36.916 112.593C36.8227 112.864 36.6873 113.106 36.51 113.321C36.3327 113.536 36.1227 113.708 35.88 113.839ZM45.6967 111.459H46.6487V119.019H45.6547L45.5287 117.871C45.1741 118.291 44.7401 118.618 44.2267 118.851C43.7227 119.075 43.1674 119.187 42.5607 119.187C41.4501 119.187 40.5214 118.814 39.7747 118.067C39.0281 117.311 38.6547 116.368 38.6547 115.239C38.6547 114.11 39.0281 113.172 39.7747 112.425C40.5214 111.669 41.4501 111.291 42.5607 111.291C43.1767 111.291 43.7367 111.408 44.2407 111.641C44.7541 111.874 45.1881 112.201 45.5427 112.621L45.6967 111.459ZM40.6567 117.241C41.1887 117.773 41.8561 118.039 42.6587 118.039C43.4614 118.039 44.1241 117.773 44.6467 117.241C45.1694 116.709 45.4307 116.042 45.4307 115.239C45.4307 114.436 45.1694 113.769 44.6467 113.237C44.1241 112.705 43.4614 112.439 42.6587 112.439C41.8561 112.439 41.1887 112.71 40.6567 113.251C40.1341 113.783 39.8727 114.446 39.8727 115.239C39.8727 116.032 40.1341 116.7 40.6567 117.241ZM56.0419 119.187C55.3045 119.187 54.6325 119.019 54.0259 118.683C53.4285 118.338 52.9572 117.862 52.6119 117.255C52.2759 116.648 52.1079 115.976 52.1079 115.239C52.1079 114.11 52.4812 113.172 53.2279 112.425C53.9839 111.669 54.9219 111.291 56.0419 111.291C56.9379 111.291 57.7125 111.538 58.3659 112.033C59.0285 112.528 59.4765 113.186 59.7099 114.007H58.5339C58.3099 113.522 57.9739 113.139 57.5259 112.859C57.0872 112.579 56.5925 112.439 56.0419 112.439C55.2672 112.439 54.6185 112.71 54.0959 113.251C53.5825 113.783 53.3259 114.446 53.3259 115.239C53.3259 115.762 53.4425 116.238 53.6759 116.667C53.9092 117.087 54.2312 117.423 54.6419 117.675C55.0619 117.918 55.5285 118.039 56.0419 118.039C56.5925 118.039 57.0825 117.899 57.5119 117.619C57.9505 117.33 58.2865 116.933 58.5199 116.429H59.7239C59.4905 117.269 59.0379 117.941 58.3659 118.445C57.7032 118.94 56.9285 119.187 56.0419 119.187ZM66.2495 119.019L63.6595 115.631H62.5815V119.019H61.3915V111.459H62.5815V114.525H63.6735L66.0115 111.459H67.4535L64.6955 115.085L67.7335 119.019H66.2495ZM72.149 119.187C71.4023 119.187 70.721 119.019 70.105 118.683C69.489 118.338 69.0083 117.866 68.663 117.269C68.3176 116.662 68.145 115.986 68.145 115.239C68.145 114.1 68.523 113.158 69.279 112.411C70.0443 111.664 71.001 111.291 72.149 111.291C72.905 111.291 73.5863 111.464 74.193 111.809C74.809 112.145 75.2896 112.616 75.635 113.223C75.9896 113.82 76.167 114.492 76.167 115.239C76.167 116.368 75.7843 117.311 75.019 118.067C74.2536 118.814 73.297 119.187 72.149 119.187ZM70.147 117.255C70.679 117.778 71.3463 118.039 72.149 118.039C72.961 118.039 73.6283 117.778 74.151 117.255C74.683 116.723 74.949 116.051 74.949 115.239C74.949 114.427 74.683 113.76 74.151 113.237C73.6283 112.705 72.961 112.439 72.149 112.439C71.3463 112.439 70.679 112.705 70.147 113.237C69.6243 113.76 69.363 114.427 69.363 115.239C69.363 116.051 69.6243 116.723 70.147 117.255ZM79.0584 111.459H84.0144V119.019H82.8244V112.495H80.0524L79.6604 116.317C79.5577 117.316 79.3011 118.025 78.8904 118.445C78.4797 118.856 77.8637 119.061 77.0424 119.061H76.8324V117.941H77.0984C77.5277 117.941 77.8544 117.82 78.0784 117.577C78.3024 117.325 78.4424 116.928 78.4984 116.387L79.0584 111.459ZM89.449 113.839C90.2424 113.839 90.891 114.082 91.395 114.567C91.899 115.043 92.151 115.668 92.151 116.443C92.151 117.199 91.899 117.82 91.395 118.305C90.891 118.781 90.2424 119.019 89.449 119.019H86.411V111.459H87.573V113.839H89.449ZM89.295 117.955C89.7897 117.955 90.1864 117.815 90.485 117.535C90.7837 117.255 90.933 116.891 90.933 116.443C90.933 115.986 90.7837 115.617 90.485 115.337C90.1864 115.048 89.7897 114.903 89.295 114.903H87.573V117.955H89.295ZM98.6382 119.019L96.0482 115.631H94.9702V119.019H93.7802V111.459H94.9702V114.525H96.0622L98.4002 111.459H99.8422L97.0842 115.085L100.122 119.019H98.6382ZM104.538 119.187C103.791 119.187 103.11 119.019 102.494 118.683C101.878 118.338 101.397 117.866 101.052 117.269C100.706 116.662 100.534 115.986 100.534 115.239C100.534 114.1 100.912 113.158 101.668 112.411C102.433 111.664 103.39 111.291 104.538 111.291C105.294 111.291 105.975 111.464 106.582 111.809C107.198 112.145 107.678 112.616 108.024 113.223C108.378 113.82 108.556 114.492 108.556 115.239C108.556 116.368 108.173 117.311 107.408 118.067C106.642 118.814 105.686 119.187 104.538 119.187ZM102.536 117.255C103.068 117.778 103.735 118.039 104.538 118.039C105.35 118.039 106.017 117.778 106.54 117.255C107.072 116.723 107.338 116.051 107.338 115.239C107.338 114.427 107.072 113.76 106.54 113.237C106.017 112.705 105.35 112.439 104.538 112.439C103.735 112.439 103.068 112.705 102.536 113.237C102.013 113.76 101.752 114.427 101.752 115.239C101.752 116.051 102.013 116.723 102.536 117.255ZM120.356 117.899H121.378V121.021H120.286V119.019H114.196V121.021H113.104V117.899H113.916C114.14 117.694 114.313 117.404 114.434 117.031C114.556 116.648 114.663 116.07 114.756 115.295C114.859 114.511 114.98 113.232 115.12 111.459H120.356V117.899ZM116.184 112.509C116.1 113.76 116.012 114.735 115.918 115.435C115.834 116.126 115.736 116.658 115.624 117.031C115.512 117.395 115.368 117.684 115.19 117.899H119.194V112.509H116.184ZM128.342 111.459H129.504V119.019H128.342V115.673H124.296V119.019H123.134V111.459H124.296V114.553H128.342V111.459ZM138.981 115.267C138.981 115.37 138.972 115.514 138.953 115.701H132.499C132.592 116.401 132.882 116.966 133.367 117.395C133.852 117.815 134.45 118.025 135.159 118.025C135.682 118.025 136.144 117.913 136.545 117.689C136.956 117.456 137.282 117.129 137.525 116.709H138.771C138.454 117.493 137.978 118.104 137.343 118.543C136.708 118.972 135.98 119.187 135.159 119.187C134.067 119.187 133.152 118.809 132.415 118.053C131.678 117.297 131.309 116.359 131.309 115.239C131.309 114.11 131.678 113.172 132.415 112.425C133.152 111.669 134.067 111.291 135.159 111.291C136.288 111.291 137.208 111.674 137.917 112.439C138.626 113.204 138.981 114.147 138.981 115.267ZM135.159 112.425C134.711 112.425 134.3 112.514 133.927 112.691C133.563 112.868 133.26 113.125 133.017 113.461C132.774 113.788 132.611 114.166 132.527 114.595H137.777C137.693 114.156 137.53 113.774 137.287 113.447C137.044 113.111 136.741 112.859 136.377 112.691C136.013 112.514 135.607 112.425 135.159 112.425ZM145.713 109.037V109.933H142.045V109.037H145.713ZM146.315 111.459H146.973V119.019H145.853V113.615L141.443 119.019H140.757V111.459H141.891V116.821L146.315 111.459ZM159.376 117.899H160.398V121.021H159.306V119.019H153.216V121.021H152.124V117.899H152.936C153.16 117.694 153.332 117.404 153.454 117.031C153.575 116.648 153.682 116.07 153.776 115.295C153.878 114.511 154 113.232 154.14 111.459H159.376V117.899ZM155.204 112.509C155.12 113.76 155.031 114.735 154.938 115.435C154.854 116.126 154.756 116.658 154.644 117.031C154.532 117.395 154.387 117.684 154.21 117.899H158.214V112.509H155.204ZM165.419 119.187C164.672 119.187 163.991 119.019 163.375 118.683C162.759 118.338 162.278 117.866 161.933 117.269C161.587 116.662 161.415 115.986 161.415 115.239C161.415 114.1 161.793 113.158 162.549 112.411C163.314 111.664 164.271 111.291 165.419 111.291C166.175 111.291 166.856 111.464 167.463 111.809C168.079 112.145 168.559 112.616 168.905 113.223C169.259 113.82 169.437 114.492 169.437 115.239C169.437 116.368 169.054 117.311 168.289 118.067C167.523 118.814 166.567 119.187 165.419 119.187ZM163.417 117.255C163.949 117.778 164.616 118.039 165.419 118.039C166.231 118.039 166.898 117.778 167.421 117.255C167.953 116.723 168.219 116.051 168.219 115.239C168.219 114.427 167.953 113.76 167.421 113.237C166.898 112.705 166.231 112.439 165.419 112.439C164.616 112.439 163.949 112.705 163.417 113.237C162.894 113.76 162.633 114.427 162.633 115.239C162.633 116.051 162.894 116.723 163.417 117.255ZM174.909 111.459H181.321V119.019H180.145V112.551H176.099V119.019H174.909V111.459ZM187.731 111.291C188.861 111.291 189.789 111.664 190.517 112.411C191.255 113.158 191.623 114.1 191.623 115.239C191.623 116.368 191.255 117.311 190.517 118.067C189.789 118.814 188.861 119.187 187.731 119.187C186.593 119.187 185.655 118.795 184.917 118.011V121.721H183.727V111.459H184.539L184.777 112.621C185.132 112.201 185.561 111.874 186.065 111.641C186.579 111.408 187.134 111.291 187.731 111.291ZM187.647 118.039C188.45 118.039 189.113 117.773 189.635 117.241C190.158 116.709 190.419 116.042 190.419 115.239C190.419 114.436 190.158 113.769 189.635 113.237C189.113 112.705 188.45 112.439 187.647 112.439C186.845 112.439 186.177 112.71 185.645 113.251C185.123 113.783 184.861 114.446 184.861 115.239C184.861 115.762 184.978 116.238 185.211 116.667C185.454 117.096 185.79 117.432 186.219 117.675C186.649 117.918 187.125 118.039 187.647 118.039ZM198.992 111.459H199.65V119.019H198.53V113.615L194.12 119.019H193.434V111.459H194.568V116.821L198.992 111.459ZM209.131 115.267C209.131 115.37 209.122 115.514 209.103 115.701H202.649C202.743 116.401 203.032 116.966 203.517 117.395C204.003 117.815 204.6 118.025 205.309 118.025C205.832 118.025 206.294 117.913 206.695 117.689C207.106 117.456 207.433 117.129 207.675 116.709H208.921C208.604 117.493 208.128 118.104 207.493 118.543C206.859 118.972 206.131 119.187 205.309 119.187C204.217 119.187 203.303 118.809 202.565 118.053C201.828 117.297 201.459 116.359 201.459 115.239C201.459 114.11 201.828 113.172 202.565 112.425C203.303 111.669 204.217 111.291 205.309 111.291C206.439 111.291 207.358 111.674 208.067 112.439C208.777 113.204 209.131 114.147 209.131 115.267ZM205.309 112.425C204.861 112.425 204.451 112.514 204.077 112.691C203.713 112.868 203.41 113.125 203.167 113.461C202.925 113.788 202.761 114.166 202.677 114.595H207.927C207.843 114.156 207.68 113.774 207.437 113.447C207.195 113.111 206.891 112.859 206.527 112.691C206.163 112.514 205.757 112.425 205.309 112.425ZM214.841 115.029C215.532 115.402 215.877 116.018 215.877 116.877C215.877 117.325 215.751 117.726 215.499 118.081C215.256 118.426 214.911 118.697 214.463 118.893C214.024 119.089 213.53 119.187 212.979 119.187C212.176 119.187 211.514 118.982 210.991 118.571C210.478 118.16 210.188 117.61 210.123 116.919H211.201C211.276 117.274 211.472 117.554 211.789 117.759C212.106 117.955 212.503 118.053 212.979 118.053C213.483 118.053 213.898 117.936 214.225 117.703C214.552 117.47 214.715 117.162 214.715 116.779C214.715 116.424 214.575 116.13 214.295 115.897C214.024 115.664 213.679 115.547 213.259 115.547H212.139V114.581H213.259C213.651 114.581 213.964 114.483 214.197 114.287C214.44 114.082 214.561 113.82 214.561 113.503C214.561 113.158 214.416 112.878 214.127 112.663C213.838 112.448 213.455 112.341 212.979 112.341C212.559 112.341 212.209 112.434 211.929 112.621C211.649 112.808 211.472 113.06 211.397 113.377H210.319C210.356 112.966 210.492 112.602 210.725 112.285C210.968 111.968 211.285 111.725 211.677 111.557C212.078 111.38 212.522 111.291 213.007 111.291C213.782 111.291 214.421 111.492 214.925 111.893C215.429 112.294 215.681 112.798 215.681 113.405C215.681 114.133 215.401 114.674 214.841 115.029ZM224.071 117.899H225.093V121.021H224.001V119.019H217.911V121.021H216.819V117.899H217.631C217.855 117.694 218.028 117.404 218.149 117.031C218.27 116.648 218.378 116.07 218.471 115.295C218.574 114.511 218.695 113.232 218.835 111.459H224.071V117.899ZM219.899 112.509C219.815 113.76 219.726 114.735 219.633 115.435C219.549 116.126 219.451 116.658 219.339 117.031C219.227 117.395 219.082 117.684 218.905 117.899H222.909V112.509H219.899ZM233.152 111.459H234.104V119.019H233.11L232.984 117.871C232.629 118.291 232.195 118.618 231.682 118.851C231.178 119.075 230.622 119.187 230.016 119.187C228.905 119.187 227.976 118.814 227.23 118.067C226.483 117.311 226.11 116.368 226.11 115.239C226.11 114.11 226.483 113.172 227.23 112.425C227.976 111.669 228.905 111.291 230.016 111.291C230.632 111.291 231.192 111.408 231.696 111.641C232.209 111.874 232.643 112.201 232.998 112.621L233.152 111.459ZM228.112 117.241C228.644 117.773 229.311 118.039 230.114 118.039C230.916 118.039 231.579 117.773 232.102 117.241C232.624 116.709 232.886 116.042 232.886 115.239C232.886 114.436 232.624 113.769 232.102 113.237C231.579 112.705 230.916 112.439 230.114 112.439C229.311 112.439 228.644 112.71 228.112 113.251C227.589 113.783 227.328 114.446 227.328 115.239C227.328 116.032 227.589 116.7 228.112 117.241ZM245.023 119.019L242.433 115.631H241.355V119.019H240.165V111.459H241.355V114.525H242.447L244.785 111.459H246.227L243.469 115.085L246.507 119.019H245.023ZM249.013 111.459H253.969V119.019H252.779V112.495H250.007L249.615 116.317C249.513 117.316 249.256 118.025 248.845 118.445C248.435 118.856 247.819 119.061 246.997 119.061H246.787V117.941H247.053C247.483 117.941 247.809 117.82 248.033 117.577C248.257 117.325 248.397 116.928 248.453 116.387L249.013 111.459ZM261.924 111.459H262.582V119.019H261.462V113.615L257.052 119.019H256.366V111.459H257.5V116.821L261.924 111.459ZM270.201 111.459H271.363V119.019H270.201V115.673H266.155V119.019H264.993V111.459H266.155V114.553H270.201V111.459ZM280.84 115.267C280.84 115.37 280.831 115.514 280.812 115.701H274.358C274.452 116.401 274.741 116.966 275.226 117.395C275.712 117.815 276.309 118.025 277.018 118.025C277.541 118.025 278.003 117.913 278.404 117.689C278.815 117.456 279.142 117.129 279.384 116.709H280.63C280.313 117.493 279.837 118.104 279.202 118.543C278.568 118.972 277.84 119.187 277.018 119.187C275.926 119.187 275.012 118.809 274.274 118.053C273.537 117.297 273.168 116.359 273.168 115.239C273.168 114.11 273.537 113.172 274.274 112.425C275.012 111.669 275.926 111.291 277.018 111.291C278.148 111.291 279.067 111.674 279.776 112.439C280.486 113.204 280.84 114.147 280.84 115.267ZM277.018 112.425C276.57 112.425 276.16 112.514 275.786 112.691C275.422 112.868 275.119 113.125 274.876 113.461C274.634 113.788 274.47 114.166 274.386 114.595H279.636C279.552 114.156 279.389 113.774 279.146 113.447C278.904 113.111 278.6 112.859 278.236 112.691C277.872 112.514 277.466 112.425 277.018 112.425ZM286.62 111.291C287.749 111.291 288.678 111.664 289.406 112.411C290.143 113.158 290.512 114.1 290.512 115.239C290.512 116.368 290.143 117.311 289.406 118.067C288.678 118.814 287.749 119.187 286.62 119.187C285.481 119.187 284.543 118.795 283.806 118.011V121.721H282.616V111.459H283.428L283.666 112.621C284.021 112.201 284.45 111.874 284.954 111.641C285.467 111.408 286.023 111.291 286.62 111.291ZM286.536 118.039C287.339 118.039 288.001 117.773 288.524 117.241C289.047 116.709 289.308 116.042 289.308 115.239C289.308 114.436 289.047 113.769 288.524 113.237C288.001 112.705 287.339 112.439 286.536 112.439C285.733 112.439 285.066 112.71 284.534 113.251C284.011 113.783 283.75 114.446 283.75 115.239C283.75 115.762 283.867 116.238 284.1 116.667C284.343 117.096 284.679 117.432 285.108 117.675C285.537 117.918 286.013 118.039 286.536 118.039ZM295.725 119.187C294.978 119.187 294.297 119.019 293.681 118.683C293.065 118.338 292.584 117.866 292.239 117.269C291.894 116.662 291.721 115.986 291.721 115.239C291.721 114.1 292.099 113.158 292.855 112.411C293.62 111.664 294.577 111.291 295.725 111.291C296.481 111.291 297.162 111.464 297.769 111.809C298.385 112.145 298.866 112.616 299.211 113.223C299.566 113.82 299.743 114.492 299.743 115.239C299.743 116.368 299.36 117.311 298.595 118.067C297.83 118.814 296.873 119.187 295.725 119.187ZM293.723 117.255C294.255 117.778 294.922 118.039 295.725 118.039C296.537 118.039 297.204 117.778 297.727 117.255C298.259 116.723 298.525 116.051 298.525 115.239C298.525 114.427 298.259 113.76 297.727 113.237C297.204 112.705 296.537 112.439 295.725 112.439C294.922 112.439 294.255 112.705 293.723 113.237C293.2 113.76 292.939 114.427 292.939 115.239C292.939 116.051 293.2 116.723 293.723 117.255ZM306.41 115.099C306.792 115.239 307.096 115.472 307.32 115.799C307.553 116.126 307.67 116.494 307.67 116.905C307.67 117.512 307.446 118.016 306.998 118.417C306.559 118.818 306.008 119.019 305.346 119.019H301.552V111.459H305.304C305.929 111.459 306.438 111.641 306.83 112.005C307.222 112.36 307.418 112.817 307.418 113.377C307.418 113.629 307.376 113.867 307.292 114.091C307.208 114.315 307.091 114.516 306.942 114.693C306.792 114.861 306.615 114.996 306.41 115.099ZM306.242 113.587C306.242 113.279 306.139 113.036 305.934 112.859C305.728 112.672 305.462 112.579 305.136 112.579H302.714V114.581H305.136C305.472 114.581 305.738 114.492 305.934 114.315C306.139 114.128 306.242 113.886 306.242 113.587ZM305.206 117.899C305.439 117.899 305.649 117.852 305.836 117.759C306.032 117.656 306.181 117.521 306.284 117.353C306.386 117.185 306.438 116.998 306.438 116.793C306.438 116.578 306.386 116.387 306.284 116.219C306.181 116.042 306.032 115.906 305.836 115.813C305.649 115.72 305.434 115.673 305.192 115.673H302.714V117.899H305.206ZM318.463 111.459H319.625V119.019H318.463V115.673H314.417V119.019H313.255V111.459H314.417V114.553H318.463V111.459ZM329.102 115.267C329.102 115.37 329.093 115.514 329.074 115.701H322.62C322.713 116.401 323.003 116.966 323.488 117.395C323.973 117.815 324.571 118.025 325.28 118.025C325.803 118.025 326.265 117.913 326.666 117.689C327.077 117.456 327.403 117.129 327.646 116.709H328.892C328.575 117.493 328.099 118.104 327.464 118.543C326.829 118.972 326.101 119.187 325.28 119.187C324.188 119.187 323.273 118.809 322.536 118.053C321.799 117.297 321.43 116.359 321.43 115.239C321.43 114.11 321.799 113.172 322.536 112.425C323.273 111.669 324.188 111.291 325.28 111.291C326.409 111.291 327.329 111.674 328.038 112.439C328.747 113.204 329.102 114.147 329.102 115.267ZM325.28 112.425C324.832 112.425 324.421 112.514 324.048 112.691C323.684 112.868 323.381 113.125 323.138 113.461C322.895 113.788 322.732 114.166 322.648 114.595H327.898C327.814 114.156 327.651 113.774 327.408 113.447C327.165 113.111 326.862 112.859 326.498 112.691C326.134 112.514 325.728 112.425 325.28 112.425ZM334.28 119.187C333.533 119.187 332.852 119.019 332.236 118.683C331.62 118.338 331.139 117.866 330.794 117.269C330.448 116.662 330.276 115.986 330.276 115.239C330.276 114.1 330.654 113.158 331.41 112.411C332.175 111.664 333.132 111.291 334.28 111.291C335.036 111.291 335.717 111.464 336.324 111.809C336.94 112.145 337.42 112.616 337.766 113.223C338.12 113.82 338.298 114.492 338.298 115.239C338.298 116.368 337.915 117.311 337.15 118.067C336.384 118.814 335.428 119.187 334.28 119.187ZM332.278 117.255C332.81 117.778 333.477 118.039 334.28 118.039C335.092 118.039 335.759 117.778 336.282 117.255C336.814 116.723 337.08 116.051 337.08 115.239C337.08 114.427 336.814 113.76 336.282 113.237C335.759 112.705 335.092 112.439 334.28 112.439C333.477 112.439 332.81 112.705 332.278 113.237C331.755 113.76 331.494 114.427 331.494 115.239C331.494 116.051 331.755 116.723 332.278 117.255ZM343.816 111.851C344.89 111.851 345.772 112.192 346.462 112.873C347.153 113.545 347.498 114.408 347.498 115.463C347.498 116.555 347.139 117.451 346.42 118.151C345.702 118.842 344.778 119.187 343.648 119.187C342.463 119.187 341.516 118.814 340.806 118.067C340.106 117.311 339.756 116.303 339.756 115.043C339.756 113.102 340.106 111.65 340.806 110.689C341.506 109.728 342.72 109.037 344.446 108.617L346.686 108.085V109.261L344.474 109.793C343.494 110.017 342.729 110.386 342.178 110.899C341.628 111.412 341.273 112.094 341.114 112.943C341.777 112.215 342.678 111.851 343.816 111.851ZM343.648 118.039C344.395 118.039 345.02 117.796 345.524 117.311C346.028 116.816 346.28 116.205 346.28 115.477C346.28 114.74 346.028 114.124 345.524 113.629C345.02 113.134 344.395 112.887 343.648 112.887C342.892 112.887 342.262 113.134 341.758 113.629C341.254 114.114 341.002 114.726 341.002 115.463C341.002 115.827 341.068 116.168 341.198 116.485C341.338 116.802 341.525 117.073 341.758 117.297C341.992 117.521 342.272 117.703 342.598 117.843C342.925 117.974 343.275 118.039 343.648 118.039ZM354.969 119.019H353.625L351.469 115.869L349.285 119.019H347.983L350.755 115.085L348.207 111.459H349.537L351.469 114.259L353.443 111.459H354.745L352.183 115.043L354.969 119.019ZM359.436 119.187C358.689 119.187 358.008 119.019 357.392 118.683C356.776 118.338 356.295 117.866 355.95 117.269C355.605 116.662 355.432 115.986 355.432 115.239C355.432 114.1 355.81 113.158 356.566 112.411C357.331 111.664 358.288 111.291 359.436 111.291C360.192 111.291 360.873 111.464 361.48 111.809C362.096 112.145 362.577 112.616 362.922 113.223C363.277 113.82 363.454 114.492 363.454 115.239C363.454 116.368 363.071 117.311 362.306 118.067C361.541 118.814 360.584 119.187 359.436 119.187ZM357.434 117.255C357.966 117.778 358.633 118.039 359.436 118.039C360.248 118.039 360.915 117.778 361.438 117.255C361.97 116.723 362.236 116.051 362.236 115.239C362.236 114.427 361.97 113.76 361.438 113.237C360.915 112.705 360.248 112.439 359.436 112.439C358.633 112.439 357.966 112.705 357.434 113.237C356.911 113.76 356.65 114.427 356.65 115.239C356.65 116.051 356.911 116.723 357.434 117.255ZM371.427 117.899H372.449V121.021H371.357V119.019H365.267V121.021H364.175V117.899H364.987C365.211 117.694 365.383 117.404 365.505 117.031C365.626 116.648 365.733 116.07 365.827 115.295C365.929 114.511 366.051 113.232 366.191 111.459H371.427V117.899ZM367.255 112.509C367.171 113.76 367.082 114.735 366.989 115.435C366.905 116.126 366.807 116.658 366.695 117.031C366.583 117.395 366.438 117.684 366.261 117.899H370.265V112.509H367.255ZM379.762 111.459H380.42V119.019H379.3V113.615L374.89 119.019H374.204V111.459H375.338V116.821L379.762 111.459ZM392.225 119.019H391.077L389.999 113.405L387.325 118.865H387.059L384.399 113.405L383.321 119.019H382.173L383.615 111.459H384.609L387.199 116.751L389.775 111.459H390.769L392.225 119.019ZM397.321 119.187C396.574 119.187 395.893 119.019 395.277 118.683C394.661 118.338 394.18 117.866 393.835 117.269C393.49 116.662 393.317 115.986 393.317 115.239C393.317 114.1 393.695 113.158 394.451 112.411C395.216 111.664 396.173 111.291 397.321 111.291C398.077 111.291 398.758 111.464 399.365 111.809C399.981 112.145 400.462 112.616 400.807 113.223C401.162 113.82 401.339 114.492 401.339 115.239C401.339 116.368 400.956 117.311 400.191 118.067C399.426 118.814 398.469 119.187 397.321 119.187ZM395.319 117.255C395.851 117.778 396.518 118.039 397.321 118.039C398.133 118.039 398.8 117.778 399.323 117.255C399.855 116.723 400.121 116.051 400.121 115.239C400.121 114.427 399.855 113.76 399.323 113.237C398.8 112.705 398.133 112.439 397.321 112.439C396.518 112.439 395.851 112.705 395.319 113.237C394.796 113.76 394.535 114.427 394.535 115.239C394.535 116.051 394.796 116.723 395.319 117.255ZM410.143 119.187C409.406 119.187 408.734 119.019 408.127 118.683C407.53 118.338 407.059 117.862 406.713 117.255C406.377 116.648 406.209 115.976 406.209 115.239C406.209 114.11 406.583 113.172 407.329 112.425C408.085 111.669 409.023 111.291 410.143 111.291C411.039 111.291 411.814 111.538 412.467 112.033C413.13 112.528 413.578 113.186 413.811 114.007H412.635C412.411 113.522 412.075 113.139 411.627 112.859C411.189 112.579 410.694 112.439 410.143 112.439C409.369 112.439 408.72 112.71 408.197 113.251C407.684 113.783 407.427 114.446 407.427 115.239C407.427 115.762 407.544 116.238 407.777 116.667C408.011 117.087 408.333 117.423 408.743 117.675C409.163 117.918 409.63 118.039 410.143 118.039C410.694 118.039 411.184 117.899 411.613 117.619C412.052 117.33 412.388 116.933 412.621 116.429H413.825C413.592 117.269 413.139 117.941 412.467 118.445C411.805 118.94 411.03 119.187 410.143 119.187ZM421.821 117.899H422.843V121.021H421.751V119.019H415.661V121.021H414.569V117.899H415.381C415.605 117.694 415.778 117.404 415.899 117.031C416.02 116.648 416.128 116.07 416.221 115.295C416.324 114.511 416.445 113.232 416.585 111.459H421.821V117.899ZM417.649 112.509C417.565 113.76 417.476 114.735 417.383 115.435C417.299 116.126 417.201 116.658 417.089 117.031C416.977 117.395 416.832 117.684 416.655 117.899H420.659V112.509H417.649ZM431.532 115.267C431.532 115.37 431.522 115.514 431.504 115.701H425.05C425.143 116.401 425.432 116.966 425.918 117.395C426.403 117.815 427 118.025 427.71 118.025C428.232 118.025 428.694 117.913 429.096 117.689C429.506 117.456 429.833 117.129 430.076 116.709H431.322C431.004 117.493 430.528 118.104 429.894 118.543C429.259 118.972 428.531 119.187 427.71 119.187C426.618 119.187 425.703 118.809 424.966 118.053C424.228 117.297 423.86 116.359 423.86 115.239C423.86 114.11 424.228 113.172 424.966 112.425C425.703 111.669 426.618 111.291 427.71 111.291C428.839 111.291 429.758 111.674 430.468 112.439C431.177 113.204 431.532 114.147 431.532 115.267ZM427.71 112.425C427.262 112.425 426.851 112.514 426.478 112.691C426.114 112.868 425.81 113.125 425.568 113.461C425.325 113.788 425.162 114.166 425.078 114.595H430.328C430.244 114.156 430.08 113.774 429.838 113.447C429.595 113.111 429.292 112.859 428.928 112.691C428.564 112.514 428.158 112.425 427.71 112.425ZM434.418 111.459H439.374V119.019H438.184V112.495H435.412L435.02 116.317C434.917 117.316 434.66 118.025 434.25 118.445C433.839 118.856 433.223 119.061 432.402 119.061H432.192V117.941H432.458C432.887 117.941 433.214 117.82 433.438 117.577C433.662 117.325 433.802 116.928 433.858 116.387L434.418 111.459ZM448.21 111.459H449.162V119.019H448.168L448.042 117.871C447.688 118.291 447.254 118.618 446.74 118.851C446.236 119.075 445.681 119.187 445.074 119.187C443.964 119.187 443.035 118.814 442.288 118.067C441.542 117.311 441.168 116.368 441.168 115.239C441.168 114.11 441.542 113.172 442.288 112.425C443.035 111.669 443.964 111.291 445.074 111.291C445.69 111.291 446.25 111.408 446.754 111.641C447.268 111.874 447.702 112.201 448.056 112.621L448.21 111.459ZM443.17 117.241C443.702 117.773 444.37 118.039 445.172 118.039C445.975 118.039 446.638 117.773 447.16 117.241C447.683 116.709 447.944 116.042 447.944 115.239C447.944 114.436 447.683 113.769 447.16 113.237C446.638 112.705 445.975 112.439 445.172 112.439C444.37 112.439 443.702 112.71 443.17 113.251C442.648 113.783 442.386 114.446 442.386 115.239C442.386 116.032 442.648 116.7 443.17 117.241ZM457.383 111.459V112.537H454.569V119.019H453.407V112.537H450.593V111.459H457.383ZM461.857 113.839C462.651 113.839 463.299 114.082 463.803 114.567C464.307 115.043 464.559 115.668 464.559 116.443C464.559 117.199 464.307 117.82 463.803 118.305C463.299 118.781 462.651 119.019 461.857 119.019H458.819V111.459H459.981V113.839H461.857ZM461.703 117.955C462.198 117.955 462.595 117.815 462.893 117.535C463.192 117.255 463.341 116.891 463.341 116.443C463.341 115.986 463.192 115.617 462.893 115.337C462.595 115.048 462.198 114.903 461.703 114.903H459.981V117.955H461.703ZM473.445 115.029C474.135 115.402 474.481 116.018 474.481 116.877C474.481 117.325 474.355 117.726 474.103 118.081C473.86 118.426 473.515 118.697 473.067 118.893C472.628 119.089 472.133 119.187 471.583 119.187C470.78 119.187 470.117 118.982 469.595 118.571C469.081 118.16 468.792 117.61 468.727 116.919H469.805C469.879 117.274 470.075 117.554 470.393 117.759C470.71 117.955 471.107 118.053 471.583 118.053C472.087 118.053 472.502 117.936 472.829 117.703C473.155 117.47 473.319 117.162 473.319 116.779C473.319 116.424 473.179 116.13 472.899 115.897C472.628 115.664 472.283 115.547 471.863 115.547H470.743V114.581H471.863C472.255 114.581 472.567 114.483 472.801 114.287C473.043 114.082 473.165 113.82 473.165 113.503C473.165 113.158 473.02 112.878 472.731 112.663C472.441 112.448 472.059 112.341 471.583 112.341C471.163 112.341 470.813 112.434 470.533 112.621C470.253 112.808 470.075 113.06 470.001 113.377H468.923C468.96 112.966 469.095 112.602 469.329 112.285C469.571 111.968 469.889 111.725 470.281 111.557C470.682 111.38 471.125 111.291 471.611 111.291C472.385 111.291 473.025 111.492 473.529 111.893C474.033 112.294 474.285 112.798 474.285 113.405C474.285 114.133 474.005 114.674 473.445 115.029ZM482.787 111.459H483.739V119.019H482.745L482.619 117.871C482.264 118.291 481.83 118.618 481.317 118.851C480.813 119.075 480.257 119.187 479.651 119.187C478.54 119.187 477.611 118.814 476.865 118.067C476.118 117.311 475.745 116.368 475.745 115.239C475.745 114.11 476.118 113.172 476.865 112.425C477.611 111.669 478.54 111.291 479.651 111.291C480.267 111.291 480.827 111.408 481.331 111.641C481.844 111.874 482.278 112.201 482.633 112.621L482.787 111.459ZM477.747 117.241C478.279 117.773 478.946 118.039 479.749 118.039C480.551 118.039 481.214 117.773 481.737 117.241C482.259 116.709 482.521 116.042 482.521 115.239C482.521 114.436 482.259 113.769 481.737 113.237C481.214 112.705 480.551 112.439 479.749 112.439C478.946 112.439 478.279 112.71 477.747 113.251C477.224 113.783 476.963 114.446 476.963 115.239C476.963 116.032 477.224 116.7 477.747 117.241ZM490.994 119.019L488.404 115.631H487.326V119.019H486.136V111.459H487.326V114.525H488.418L490.756 111.459H492.198L489.44 115.085L492.478 119.019H490.994ZM499.931 111.459H500.883V119.019H499.889L499.763 117.871C499.408 118.291 498.974 118.618 498.461 118.851C497.957 119.075 497.402 119.187 496.795 119.187C495.684 119.187 494.756 118.814 494.009 118.067C493.262 117.311 492.889 116.368 492.889 115.239C492.889 114.11 493.262 113.172 494.009 112.425C494.756 111.669 495.684 111.291 496.795 111.291C497.411 111.291 497.971 111.408 498.475 111.641C498.988 111.874 499.422 112.201 499.777 112.621L499.931 111.459ZM494.891 117.241C495.423 117.773 496.09 118.039 496.893 118.039C497.696 118.039 498.358 117.773 498.881 117.241C499.404 116.709 499.665 116.042 499.665 115.239C499.665 114.436 499.404 113.769 498.881 113.237C498.358 112.705 497.696 112.439 496.893 112.439C496.09 112.439 495.423 112.71 494.891 113.251C494.368 113.783 494.107 114.446 494.107 115.239C494.107 116.032 494.368 116.7 494.891 117.241ZM507.214 115.029C507.905 115.402 508.25 116.018 508.25 116.877C508.25 117.325 508.124 117.726 507.872 118.081C507.63 118.426 507.284 118.697 506.836 118.893C506.398 119.089 505.903 119.187 505.352 119.187C504.55 119.187 503.887 118.982 503.364 118.571C502.851 118.16 502.562 117.61 502.496 116.919H503.574C503.649 117.274 503.845 117.554 504.162 117.759C504.48 117.955 504.876 118.053 505.352 118.053C505.856 118.053 506.272 117.936 506.598 117.703C506.925 117.47 507.088 117.162 507.088 116.779C507.088 116.424 506.948 116.13 506.668 115.897C506.398 115.664 506.052 115.547 505.632 115.547H504.512V114.581H505.632C506.024 114.581 506.337 114.483 506.57 114.287C506.813 114.082 506.934 113.82 506.934 113.503C506.934 113.158 506.79 112.878 506.5 112.663C506.211 112.448 505.828 112.341 505.352 112.341C504.932 112.341 504.582 112.434 504.302 112.621C504.022 112.808 503.845 113.06 503.77 113.377H502.692C502.73 112.966 502.865 112.602 503.098 112.285C503.341 111.968 503.658 111.725 504.05 111.557C504.452 111.38 504.895 111.291 505.38 111.291C506.155 111.291 506.794 111.492 507.298 111.893C507.802 112.294 508.054 112.798 508.054 113.405C508.054 114.133 507.774 114.674 507.214 115.029ZM511.506 116.331V116.023C511.506 115.696 511.539 115.407 511.604 115.155C511.679 114.903 511.8 114.674 511.968 114.469C512.136 114.254 512.276 114.096 512.388 113.993C512.5 113.881 512.673 113.727 512.906 113.531C513.102 113.372 513.256 113.246 513.368 113.153C513.48 113.05 513.602 112.92 513.732 112.761C513.872 112.593 513.97 112.411 514.026 112.215C514.092 112.019 514.124 111.8 514.124 111.557C514.124 111.202 514.04 110.89 513.872 110.619C513.714 110.348 513.49 110.143 513.2 110.003C512.911 109.854 512.584 109.779 512.22 109.779C511.688 109.779 511.236 109.933 510.862 110.241C510.498 110.54 510.302 110.946 510.274 111.459H509.14C509.178 110.591 509.49 109.91 510.078 109.415C510.676 108.911 511.39 108.659 512.22 108.659C512.65 108.659 513.046 108.729 513.41 108.869C513.784 109 514.11 109.186 514.39 109.429C514.67 109.672 514.89 109.98 515.048 110.353C515.207 110.717 515.286 111.118 515.286 111.557C515.286 111.837 515.254 112.098 515.188 112.341C515.132 112.574 515.062 112.775 514.978 112.943C514.904 113.102 514.792 113.265 514.642 113.433C514.493 113.601 514.367 113.732 514.264 113.825C514.162 113.909 514.022 114.026 513.844 114.175C513.676 114.315 513.555 114.418 513.48 114.483C513.415 114.539 513.317 114.637 513.186 114.777C513.065 114.908 512.976 115.029 512.92 115.141C512.864 115.244 512.813 115.374 512.766 115.533C512.72 115.682 512.696 115.846 512.696 116.023V116.331H511.506ZM511.422 119.019V117.535H512.78V119.019H511.422Z" fill="#4B5258"/>
<g filter="url(#filter2_d_131_296)">
<rect y="0.019043" width="1024" height="70" rx="20" fill="white"/>
</g>
<path d="M35.698 39.173C34.242 39.173 33.038 38.697 32.086 37.745C31.1433 36.793 30.672 35.5844 30.672 34.119C30.672 32.6537 31.1433 31.445 32.086 30.493C33.038 29.541 34.242 29.065 35.698 29.065C36.4447 29.065 37.1353 29.2097 37.77 29.499C38.414 29.779 38.9553 30.1804 39.394 30.703C39.842 31.2257 40.1547 31.837 40.332 32.537H39.086C38.8247 31.8277 38.3953 31.2724 37.798 30.871C37.2007 30.4697 36.5007 30.269 35.698 30.269C34.5967 30.269 33.6913 30.633 32.982 31.361C32.282 32.0797 31.932 33.0037 31.932 34.133C31.932 35.253 32.282 36.1724 32.982 36.891C33.6913 37.6097 34.5967 37.969 35.698 37.969C36.5193 37.969 37.2333 37.759 37.84 37.339C38.4467 36.9097 38.876 36.317 39.128 35.561H40.388C40.108 36.6717 39.5433 37.5537 38.694 38.207C37.854 38.851 36.8553 39.173 35.698 39.173ZM46.9311 39.019L44.3411 35.631H43.2631V39.019H42.0731V31.459H43.2631V34.525H44.3551L46.6931 31.459H48.1351L45.3771 35.085L48.4151 39.019H46.9311ZM52.8306 39.187C52.0839 39.187 51.4026 39.019 50.7866 38.683C50.1706 38.3377 49.6899 37.8664 49.3446 37.269C48.9993 36.6624 48.8266 35.9857 48.8266 35.239C48.8266 34.1004 49.2046 33.1577 49.9606 32.411C50.7259 31.6644 51.6826 31.291 52.8306 31.291C53.5866 31.291 54.2679 31.4637 54.8746 31.809C55.4906 32.145 55.9713 32.6164 56.3166 33.223C56.6713 33.8204 56.8486 34.4924 56.8486 35.239C56.8486 36.3684 56.4659 37.311 55.7006 38.067C54.9353 38.8137 53.9786 39.187 52.8306 39.187ZM50.8286 37.255C51.3606 37.7777 52.0279 38.039 52.8306 38.039C53.6426 38.039 54.3099 37.7777 54.8326 37.255C55.3646 36.723 55.6306 36.051 55.6306 35.239C55.6306 34.427 55.3646 33.7597 54.8326 33.237C54.3099 32.705 53.6426 32.439 52.8306 32.439C52.0279 32.439 51.3606 32.705 50.8286 33.237C50.3059 33.7597 50.0446 34.427 50.0446 35.239C50.0446 36.051 50.3059 36.723 50.8286 37.255ZM59.74 31.459H64.696V39.019H63.506V32.495H60.734L60.342 36.317C60.2394 37.3157 59.9827 38.025 59.572 38.445C59.1614 38.8557 58.5454 39.061 57.724 39.061H57.514V37.941H57.78C58.2094 37.941 58.536 37.8197 58.76 37.577C58.984 37.325 59.124 36.9284 59.18 36.387L59.74 31.459ZM70.1307 33.839C70.924 33.839 71.5727 34.0817 72.0767 34.567C72.5807 35.043 72.8327 35.6684 72.8327 36.443C72.8327 37.199 72.5807 37.8197 72.0767 38.305C71.5727 38.781 70.924 39.019 70.1307 39.019H67.0927V31.459H68.2547V33.839H70.1307ZM69.9767 37.955C70.4713 37.955 70.868 37.815 71.1667 37.535C71.4653 37.255 71.6147 36.891 71.6147 36.443C71.6147 35.9857 71.4653 35.617 71.1667 35.337C70.868 35.0477 70.4713 34.903 69.9767 34.903H68.2547V37.955H69.9767ZM79.3198 39.019L76.7298 35.631H75.6518V39.019H74.4618V31.459H75.6518V34.525H76.7438L79.0818 31.459H80.5238L77.7658 35.085L80.8038 39.019H79.3198ZM85.2193 39.187C84.4726 39.187 83.7913 39.019 83.1753 38.683C82.5593 38.3377 82.0786 37.8664 81.7333 37.269C81.3879 36.6624 81.2153 35.9857 81.2153 35.239C81.2153 34.1004 81.5933 33.1577 82.3493 32.411C83.1146 31.6644 84.0713 31.291 85.2193 31.291C85.9753 31.291 86.6566 31.4637 87.2633 31.809C87.8793 32.145 88.3599 32.6164 88.7053 33.223C89.0599 33.8204 89.2373 34.4924 89.2373 35.239C89.2373 36.3684 88.8546 37.311 88.0893 38.067C87.3239 38.8137 86.3673 39.187 85.2193 39.187ZM83.2173 37.255C83.7493 37.7777 84.4166 38.039 85.2193 38.039C86.0313 38.039 86.6986 37.7777 87.2213 37.255C87.7533 36.723 88.0193 36.051 88.0193 35.239C88.0193 34.427 87.7533 33.7597 87.2213 33.237C86.6986 32.705 86.0313 32.439 85.2193 32.439C84.4166 32.439 83.7493 32.705 83.2173 33.237C82.6946 33.7597 82.4333 34.427 82.4333 35.239C82.4333 36.051 82.6946 36.723 83.2173 37.255ZM99.5679 35.099C99.9505 35.239 100.254 35.4724 100.478 35.799C100.711 36.1257 100.828 36.4944 100.828 36.905C100.828 37.5117 100.604 38.0157 100.156 38.417C99.7172 38.8184 99.1665 39.019 98.5039 39.019H94.7099V31.459H98.4619C99.0872 31.459 99.5959 31.641 99.9879 32.005C100.38 32.3597 100.576 32.817 100.576 33.377C100.576 33.629 100.534 33.867 100.45 34.091C100.366 34.315 100.249 34.5157 100.1 34.693C99.9505 34.861 99.7732 34.9964 99.5679 35.099ZM99.3999 33.587C99.3999 33.279 99.2972 33.0364 99.0919 32.859C98.8865 32.6724 98.6205 32.579 98.2939 32.579H95.8719V34.581H98.2939C98.6299 34.581 98.8959 34.4924 99.0919 34.315C99.2972 34.1284 99.3999 33.8857 99.3999 33.587ZM98.3639 37.899C98.5972 37.899 98.8072 37.8524 98.9939 37.759C99.1899 37.6564 99.3392 37.521 99.4419 37.353C99.5445 37.185 99.5959 36.9984 99.5959 36.793C99.5959 36.5784 99.5445 36.387 99.4419 36.219C99.3392 36.0417 99.1899 35.9064 98.9939 35.813C98.8072 35.7197 98.5925 35.673 98.3499 35.673H95.8719V37.899H98.3639ZM106.753 31.291C107.882 31.291 108.811 31.6644 109.539 32.411C110.276 33.1577 110.645 34.1004 110.645 35.239C110.645 36.3684 110.276 37.311 109.539 38.067C108.811 38.8137 107.882 39.187 106.753 39.187C105.614 39.187 104.676 38.795 103.939 38.011V41.721H102.749V31.459H103.561L103.799 32.621C104.154 32.201 104.583 31.8744 105.087 31.641C105.6 31.4077 106.156 31.291 106.753 31.291ZM106.669 38.039C107.472 38.039 108.134 37.773 108.657 37.241C109.18 36.709 109.441 36.0417 109.441 35.239C109.441 34.4364 109.18 33.769 108.657 33.237C108.134 32.705 107.472 32.439 106.669 32.439C105.866 32.439 105.199 32.7097 104.667 33.251C104.144 33.783 103.883 34.4457 103.883 35.239C103.883 35.7617 104 36.2377 104.233 36.667C104.476 37.0964 104.812 37.4324 105.241 37.675C105.67 37.9177 106.146 38.039 106.669 38.039ZM119.526 35.267C119.526 35.3697 119.517 35.5144 119.498 35.701H113.044C113.137 36.401 113.427 36.9657 113.912 37.395C114.397 37.815 114.995 38.025 115.704 38.025C116.227 38.025 116.689 37.913 117.09 37.689C117.501 37.4557 117.827 37.129 118.07 36.709H119.316C118.999 37.493 118.523 38.1044 117.888 38.543C117.253 38.9724 116.525 39.187 115.704 39.187C114.612 39.187 113.697 38.809 112.96 38.053C112.223 37.297 111.854 36.359 111.854 35.239C111.854 34.1097 112.223 33.1717 112.96 32.425C113.697 31.669 114.612 31.291 115.704 31.291C116.833 31.291 117.753 31.6737 118.462 32.439C119.171 33.2044 119.526 34.147 119.526 35.267ZM115.704 32.425C115.256 32.425 114.845 32.5137 114.472 32.691C114.108 32.8684 113.805 33.125 113.562 33.461C113.319 33.7877 113.156 34.1657 113.072 34.595H118.322C118.238 34.1564 118.075 33.7737 117.832 33.447C117.589 33.111 117.286 32.859 116.922 32.691C116.558 32.5137 116.152 32.425 115.704 32.425ZM130.641 39.019H129.493L128.415 33.405L125.741 38.865H125.475L122.815 33.405L121.737 39.019H120.589L122.031 31.459H123.025L125.615 36.751L128.191 31.459H129.185L130.641 39.019ZM139.405 35.267C139.405 35.3697 139.396 35.5144 139.377 35.701H132.923C133.016 36.401 133.306 36.9657 133.791 37.395C134.276 37.815 134.874 38.025 135.583 38.025C136.106 38.025 136.568 37.913 136.969 37.689C137.38 37.4557 137.706 37.129 137.949 36.709H139.195C138.878 37.493 138.402 38.1044 137.767 38.543C137.132 38.9724 136.404 39.187 135.583 39.187C134.491 39.187 133.576 38.809 132.839 38.053C132.102 37.297 131.733 36.359 131.733 35.239C131.733 34.1097 132.102 33.1717 132.839 32.425C133.576 31.669 134.491 31.291 135.583 31.291C136.712 31.291 137.632 31.6737 138.341 32.439C139.05 33.2044 139.405 34.147 139.405 35.267ZM135.583 32.425C135.135 32.425 134.724 32.5137 134.351 32.691C133.987 32.8684 133.684 33.125 133.441 33.461C133.198 33.7877 133.035 34.1657 132.951 34.595H138.201C138.117 34.1564 137.954 33.7737 137.711 33.447C137.468 33.111 137.165 32.859 136.801 32.691C136.437 32.5137 136.031 32.425 135.583 32.425ZM146.389 31.459H147.551V39.019H146.389V35.673H142.343V39.019H141.181V31.459H142.343V34.553H146.389V31.459ZM155.516 31.459H156.174V39.019H155.054V33.615L150.644 39.019H149.958V31.459H151.092V36.821L155.516 31.459ZM168.577 37.899H169.599V41.021H168.507V39.019H162.417V41.021H161.325V37.899H162.137C162.361 37.6937 162.534 37.4044 162.655 37.031C162.776 36.6484 162.884 36.0697 162.977 35.295C163.08 34.511 163.201 33.2324 163.341 31.459H168.577V37.899ZM164.405 32.509C164.321 33.7597 164.232 34.735 164.139 35.435C164.055 36.1257 163.957 36.6577 163.845 37.031C163.733 37.395 163.588 37.6844 163.411 37.899H167.415V32.509H164.405ZM172.642 31.459H177.598V39.019H176.408V32.495H173.636L173.244 36.317C173.142 37.3157 172.885 38.025 172.474 38.445C172.064 38.8557 171.448 39.061 170.626 39.061H170.416V37.941H170.682C171.112 37.941 171.438 37.8197 171.662 37.577C171.886 37.325 172.026 36.9284 172.082 36.387L172.642 31.459ZM185.553 31.459H186.211V39.019H185.091V33.615L180.681 39.019H179.995V31.459H181.129V36.821L185.553 31.459ZM194.446 31.459V32.537H191.632V39.019H190.47V32.537H187.656V31.459H194.446ZM198.968 39.187C198.23 39.187 197.558 39.019 196.952 38.683C196.354 38.3377 195.883 37.8617 195.538 37.255C195.202 36.6484 195.034 35.9764 195.034 35.239C195.034 34.1097 195.407 33.1717 196.154 32.425C196.91 31.669 197.848 31.291 198.968 31.291C199.864 31.291 200.638 31.5384 201.292 32.033C201.954 32.5277 202.402 33.1857 202.636 34.007H201.46C201.236 33.5217 200.9 33.139 200.452 32.859C200.013 32.579 199.518 32.439 198.968 32.439C198.193 32.439 197.544 32.7097 197.022 33.251C196.508 33.783 196.252 34.4457 196.252 35.239C196.252 35.7617 196.368 36.2377 196.602 36.667C196.835 37.087 197.157 37.423 197.568 37.675C197.988 37.9177 198.454 38.039 198.968 38.039C199.518 38.039 200.008 37.899 200.438 37.619C200.876 37.3297 201.212 36.933 201.446 36.429H202.65C202.416 37.269 201.964 37.941 201.292 38.445C200.629 38.9397 199.854 39.187 198.968 39.187ZM206.291 31.459H209.763V39.019H208.587V36.121H206.697L204.905 39.019H203.589L205.479 35.953C204.985 35.7944 204.593 35.5237 204.303 35.141C204.014 34.7584 203.869 34.3104 203.869 33.797C203.869 33.125 204.098 32.5697 204.555 32.131C205.013 31.683 205.591 31.459 206.291 31.459ZM206.389 34.973H208.587V32.607H206.389C205.997 32.607 205.68 32.719 205.437 32.943C205.195 33.1577 205.073 33.4424 205.073 33.797C205.073 34.1424 205.195 34.427 205.437 34.651C205.68 34.8657 205.997 34.973 206.389 34.973ZM221.331 31.459H222.605L219.007 39.327C218.727 39.943 218.452 40.419 218.181 40.755C217.911 41.091 217.607 41.3337 217.271 41.483C216.935 41.6417 216.525 41.721 216.039 41.721H215.325V40.643H215.941C216.445 40.643 216.823 40.5404 217.075 40.335C217.327 40.1297 217.607 39.7097 217.915 39.075L218.181 38.501L214.821 31.459H216.123L218.811 37.185L221.331 31.459ZM227.674 31.851C228.747 31.851 229.629 32.1917 230.32 32.873C231.01 33.545 231.356 34.4084 231.356 35.463C231.356 36.555 230.996 37.451 230.278 38.151C229.559 38.8417 228.635 39.187 227.506 39.187C226.32 39.187 225.373 38.8137 224.664 38.067C223.964 37.311 223.614 36.303 223.614 35.043C223.614 33.1017 223.964 31.6504 224.664 30.689C225.364 29.7277 226.577 29.037 228.304 28.617L230.544 28.085V29.261L228.332 29.793C227.352 30.017 226.586 30.3857 226.036 30.899C225.485 31.4124 225.13 32.0937 224.972 32.943C225.634 32.215 226.535 31.851 227.674 31.851ZM227.506 38.039C228.252 38.039 228.878 37.7964 229.382 37.311C229.886 36.8164 230.138 36.205 230.138 35.477C230.138 34.7397 229.886 34.1237 229.382 33.629C228.878 33.1344 228.252 32.887 227.506 32.887C226.75 32.887 226.12 33.1344 225.616 33.629C225.112 34.1144 224.86 34.7257 224.86 35.463C224.86 35.827 224.925 36.1677 225.056 36.485C225.196 36.8024 225.382 37.073 225.616 37.297C225.849 37.521 226.129 37.703 226.456 37.843C226.782 37.9737 227.132 38.039 227.506 38.039ZM236.581 39.187C235.834 39.187 235.153 39.019 234.537 38.683C233.921 38.3377 233.44 37.8664 233.095 37.269C232.749 36.6624 232.577 35.9857 232.577 35.239C232.577 34.1004 232.955 33.1577 233.711 32.411C234.476 31.6644 235.433 31.291 236.581 31.291C237.337 31.291 238.018 31.4637 238.625 31.809C239.241 32.145 239.721 32.6164 240.067 33.223C240.421 33.8204 240.599 34.4924 240.599 35.239C240.599 36.3684 240.216 37.311 239.451 38.067C238.685 38.8137 237.729 39.187 236.581 39.187ZM234.579 37.255C235.111 37.7777 235.778 38.039 236.581 38.039C237.393 38.039 238.06 37.7777 238.583 37.255C239.115 36.723 239.381 36.051 239.381 35.239C239.381 34.427 239.115 33.7597 238.583 33.237C238.06 32.705 237.393 32.439 236.581 32.439C235.778 32.439 235.111 32.705 234.579 33.237C234.056 33.7597 233.795 34.427 233.795 35.239C233.795 36.051 234.056 36.723 234.579 37.255ZM246.411 31.291C247.54 31.291 248.469 31.6644 249.197 32.411C249.934 33.1577 250.303 34.1004 250.303 35.239C250.303 36.3684 249.934 37.311 249.197 38.067C248.469 38.8137 247.54 39.187 246.411 39.187C245.272 39.187 244.334 38.795 243.597 38.011V41.721H242.407V31.459H243.219L243.457 32.621C243.812 32.201 244.241 31.8744 244.745 31.641C245.258 31.4077 245.814 31.291 246.411 31.291ZM246.327 38.039C247.13 38.039 247.792 37.773 248.315 37.241C248.838 36.709 249.099 36.0417 249.099 35.239C249.099 34.4364 248.838 33.769 248.315 33.237C247.792 32.705 247.13 32.439 246.327 32.439C245.524 32.439 244.857 32.7097 244.325 33.251C243.802 33.783 243.541 34.4457 243.541 35.239C243.541 35.7617 243.658 36.2377 243.891 36.667C244.134 37.0964 244.47 37.4324 244.899 37.675C245.328 37.9177 245.804 38.039 246.327 38.039ZM256.972 39.019L254.382 35.631H253.304V39.019H252.114V31.459H253.304V34.525H254.396L256.734 31.459H258.176L255.418 35.085L258.456 39.019H256.972ZM265.91 31.459H266.862V39.019H265.868L265.742 37.871C265.387 38.291 264.953 38.6177 264.44 38.851C263.936 39.075 263.38 39.187 262.774 39.187C261.663 39.187 260.734 38.8137 259.988 38.067C259.241 37.311 258.868 36.3684 258.868 35.239C258.868 34.1097 259.241 33.1717 259.988 32.425C260.734 31.669 261.663 31.291 262.774 31.291C263.39 31.291 263.95 31.4077 264.454 31.641C264.967 31.8744 265.401 32.201 265.756 32.621L265.91 31.459ZM260.87 37.241C261.402 37.773 262.069 38.039 262.872 38.039C263.674 38.039 264.337 37.773 264.86 37.241C265.382 36.709 265.644 36.0417 265.644 35.239C265.644 34.4364 265.382 33.769 264.86 33.237C264.337 32.705 263.674 32.439 262.872 32.439C262.069 32.439 261.402 32.7097 260.87 33.251C260.347 33.783 260.086 34.4457 260.086 35.239C260.086 36.0324 260.347 36.6997 260.87 37.241ZM270.813 36.331V36.023C270.813 35.6964 270.846 35.407 270.911 35.155C270.986 34.903 271.107 34.6744 271.275 34.469C271.443 34.2544 271.583 34.0957 271.695 33.993C271.807 33.881 271.98 33.727 272.213 33.531C272.409 33.3724 272.563 33.2464 272.675 33.153C272.787 33.0504 272.908 32.9197 273.039 32.761C273.179 32.593 273.277 32.411 273.333 32.215C273.398 32.019 273.431 31.7997 273.431 31.557C273.431 31.2024 273.347 30.8897 273.179 30.619C273.02 30.3484 272.796 30.143 272.507 30.003C272.218 29.8537 271.891 29.779 271.527 29.779C270.995 29.779 270.542 29.933 270.169 30.241C269.805 30.5397 269.609 30.9457 269.581 31.459H268.447C268.484 30.591 268.797 29.9097 269.385 29.415C269.982 28.911 270.696 28.659 271.527 28.659C271.956 28.659 272.353 28.729 272.717 28.869C273.09 28.9997 273.417 29.1864 273.697 29.429C273.977 29.6717 274.196 29.9797 274.355 30.353C274.514 30.717 274.593 31.1184 274.593 31.557C274.593 31.837 274.56 32.0984 274.495 32.341C274.439 32.5744 274.369 32.775 274.285 32.943C274.21 33.1017 274.098 33.265 273.949 33.433C273.8 33.601 273.674 33.7317 273.571 33.825C273.468 33.909 273.328 34.0257 273.151 34.175C272.983 34.315 272.862 34.4177 272.787 34.483C272.722 34.539 272.624 34.637 272.493 34.777C272.372 34.9077 272.283 35.029 272.227 35.141C272.171 35.2437 272.12 35.3744 272.073 35.533C272.026 35.6824 272.003 35.8457 272.003 36.023V36.331H270.813ZM270.729 39.019V37.535H272.087V39.019H270.729Z" fill="#4B5258"/>
<defs>
<filter id="filter0_d_131_296" x="-15" y="148.019" width="1054" height="100" filterUnits="userSpaceOnUse" color-interpolation-filters="sRGB">
<feFlood flood-opacity="0" result="BackgroundImageFix"/>
<feColorMatrix in="SourceAlpha" type="matrix" values="0 0 0 0 0 0 0 0 0 0 0 0 0 0 0 0 0 0 127 0" result="hardAlpha"/>
<feOffset dy="3"/>
<feGaussianBlur stdDeviation="7.5"/>
<feComposite in2="hardAlpha" operator="out"/>
<feColorMatrix type="matrix" values="0 0 0 0 0 0 0 0 0 0 0 0 0 0 0 0 0 0 0.1 0"/>
<feBlend mode="normal" in2="BackgroundImageFix" result="effect1_dropShadow_131_296"/>
<feBlend mode="normal" in="SourceGraphic" in2="effect1_dropShadow_131_296" result="shape"/>
</filter>
<filter id="filter1_d_131_296" x="-15" y="68.019" width="1054" height="100" filterUnits="userSpaceOnUse" color-interpolation-filters="sRGB">
<feFlood flood-opacity="0" result="BackgroundImageFix"/>
<feColorMatrix in="SourceAlpha" type="matrix" values="0 0 0 0 0 0 0 0 0 0 0 0 0 0 0 0 0 0 127 0" result="hardAlpha"/>
<feOffset dy="3"/>
<feGaussianBlur stdDeviation="7.5"/>
<feComposite in2="hardAlpha" operator="out"/>
<feColorMatrix type="matrix" values="0 0 0 0 0 0 0 0 0 0 0 0 0 0 0 0 0 0 0.1 0"/>
<feBlend mode="normal" in2="BackgroundImageFix" result="effect1_dropShadow_131_296"/>
<feBlend mode="normal" in="SourceGraphic" in2="effect1_dropShadow_131_296" result="shape"/>
</filter>
<filter id="filter2_d_131_296" x="-15" y="-11.981" width="1054" height="100" filterUnits="userSpaceOnUse" color-interpolation-filters="sRGB">
<feFlood flood-opacity="0" result="BackgroundImageFix"/>
<feColorMatrix in="SourceAlpha" type="matrix" values="0 0 0 0 0 0 0 0 0 0 0 0 0 0 0 0 0 0 127 0" result="hardAlpha"/>
<feOffset dy="3"/>
<feGaussianBlur stdDeviation="7.5"/>
<feComposite in2="hardAlpha" operator="out"/>
<feColorMatrix type="matrix" values="0 0 0 0 0 0 0 0 0 0 0 0 0 0 0 0 0 0 0.1 0"/>
<feBlend mode="normal" in2="BackgroundImageFix" result="effect1_dropShadow_131_296"/>
<feBlend mode="normal" in="SourceGraphic" in2="effect1_dropShadow_131_296" result="shape"/>
</filter>
</defs>
</svg>
