<svg width="1054" height="101" viewBox="0 0 1054 101" fill="none" xmlns="http://www.w3.org/2000/svg">
<g filter="url(#filter0_d_131_293)">
<rect x="15" y="12.019" width="1024" height="70" rx="20" fill="white"/>
</g>
<path d="M50.698 51.173C49.242 51.173 48.038 50.697 47.086 49.745C46.1433 48.793 45.672 47.5844 45.672 46.119C45.672 44.6537 46.1433 43.445 47.086 42.493C48.038 41.541 49.242 41.065 50.698 41.065C51.4447 41.065 52.1353 41.2097 52.77 41.499C53.414 41.779 53.9553 42.1804 54.394 42.703C54.842 43.2257 55.1547 43.837 55.332 44.537H54.086C53.8247 43.8277 53.3953 43.2724 52.798 42.871C52.2007 42.4697 51.5007 42.269 50.698 42.269C49.5967 42.269 48.6913 42.633 47.982 43.361C47.282 44.0797 46.932 45.0037 46.932 46.133C46.932 47.253 47.282 48.1724 47.982 48.891C48.6913 49.6097 49.5967 49.969 50.698 49.969C51.5193 49.969 52.2333 49.759 52.84 49.339C53.4467 48.9097 53.876 48.317 54.128 47.561H55.388C55.108 48.6717 54.5433 49.5537 53.694 50.207C52.854 50.851 51.8553 51.173 50.698 51.173ZM61.9311 51.019L59.3411 47.631H58.2631V51.019H57.0731V43.459H58.2631V46.525H59.3551L61.6931 43.459H63.1351L60.3771 47.085L63.4151 51.019H61.9311ZM67.8306 51.187C67.0839 51.187 66.4026 51.019 65.7866 50.683C65.1706 50.3377 64.6899 49.8664 64.3446 49.269C63.9993 48.6624 63.8266 47.9857 63.8266 47.239C63.8266 46.1004 64.2046 45.1577 64.9606 44.411C65.7259 43.6644 66.6826 43.291 67.8306 43.291C68.5866 43.291 69.2679 43.4637 69.8746 43.809C70.4906 44.145 70.9713 44.6164 71.3166 45.223C71.6713 45.8204 71.8486 46.4924 71.8486 47.239C71.8486 48.3684 71.4659 49.311 70.7006 50.067C69.9353 50.8137 68.9786 51.187 67.8306 51.187ZM65.8286 49.255C66.3606 49.7777 67.0279 50.039 67.8306 50.039C68.6426 50.039 69.3099 49.7777 69.8326 49.255C70.3646 48.723 70.6306 48.051 70.6306 47.239C70.6306 46.427 70.3646 45.7597 69.8326 45.237C69.3099 44.705 68.6426 44.439 67.8306 44.439C67.0279 44.439 66.3606 44.705 65.8286 45.237C65.3059 45.7597 65.0446 46.427 65.0446 47.239C65.0446 48.051 65.3059 48.723 65.8286 49.255ZM74.74 43.459H79.696V51.019H78.506V44.495H75.734L75.342 48.317C75.2394 49.3157 74.9827 50.025 74.572 50.445C74.1614 50.8557 73.5454 51.061 72.724 51.061H72.514V49.941H72.78C73.2094 49.941 73.536 49.8197 73.76 49.577C73.984 49.325 74.124 48.9284 74.18 48.387L74.74 43.459ZM85.1307 45.839C85.924 45.839 86.5727 46.0817 87.0767 46.567C87.5807 47.043 87.8327 47.6684 87.8327 48.443C87.8327 49.199 87.5807 49.8197 87.0767 50.305C86.5727 50.781 85.924 51.019 85.1307 51.019H82.0927V43.459H83.2547V45.839H85.1307ZM84.9767 49.955C85.4713 49.955 85.868 49.815 86.1667 49.535C86.4653 49.255 86.6147 48.891 86.6147 48.443C86.6147 47.9857 86.4653 47.617 86.1667 47.337C85.868 47.0477 85.4713 46.903 84.9767 46.903H83.2547V49.955H84.9767ZM94.3198 51.019L91.7298 47.631H90.6518V51.019H89.4618V43.459H90.6518V46.525H91.7438L94.0818 43.459H95.5238L92.7658 47.085L95.8038 51.019H94.3198ZM100.219 51.187C99.4726 51.187 98.7913 51.019 98.1753 50.683C97.5593 50.3377 97.0786 49.8664 96.7333 49.269C96.3879 48.6624 96.2153 47.9857 96.2153 47.239C96.2153 46.1004 96.5933 45.1577 97.3493 44.411C98.1146 43.6644 99.0713 43.291 100.219 43.291C100.975 43.291 101.657 43.4637 102.263 43.809C102.879 44.145 103.36 44.6164 103.705 45.223C104.06 45.8204 104.237 46.4924 104.237 47.239C104.237 48.3684 103.855 49.311 103.089 50.067C102.324 50.8137 101.367 51.187 100.219 51.187ZM98.2173 49.255C98.7493 49.7777 99.4166 50.039 100.219 50.039C101.031 50.039 101.699 49.7777 102.221 49.255C102.753 48.723 103.019 48.051 103.019 47.239C103.019 46.427 102.753 45.7597 102.221 45.237C101.699 44.705 101.031 44.439 100.219 44.439C99.4166 44.439 98.7493 44.705 98.2173 45.237C97.6946 45.7597 97.4333 46.427 97.4333 47.239C97.4333 48.051 97.6946 48.723 98.2173 49.255ZM114.568 47.099C114.951 47.239 115.254 47.4724 115.478 47.799C115.711 48.1257 115.828 48.4944 115.828 48.905C115.828 49.5117 115.604 50.0157 115.156 50.417C114.717 50.8184 114.167 51.019 113.504 51.019H109.71V43.459H113.462C114.087 43.459 114.596 43.641 114.988 44.005C115.38 44.3597 115.576 44.817 115.576 45.377C115.576 45.629 115.534 45.867 115.45 46.091C115.366 46.315 115.249 46.5157 115.1 46.693C114.951 46.861 114.773 46.9964 114.568 47.099ZM114.4 45.587C114.4 45.279 114.297 45.0364 114.092 44.859C113.887 44.6724 113.621 44.579 113.294 44.579H110.872V46.581H113.294C113.63 46.581 113.896 46.4924 114.092 46.315C114.297 46.1284 114.4 45.8857 114.4 45.587ZM113.364 49.899C113.597 49.899 113.807 49.8524 113.994 49.759C114.19 49.6564 114.339 49.521 114.442 49.353C114.545 49.185 114.596 48.9984 114.596 48.793C114.596 48.5784 114.545 48.387 114.442 48.219C114.339 48.0417 114.19 47.9064 113.994 47.813C113.807 47.7197 113.593 47.673 113.35 47.673H110.872V49.899H113.364ZM121.753 43.291C122.882 43.291 123.811 43.6644 124.539 44.411C125.276 45.1577 125.645 46.1004 125.645 47.239C125.645 48.3684 125.276 49.311 124.539 50.067C123.811 50.8137 122.882 51.187 121.753 51.187C120.614 51.187 119.676 50.795 118.939 50.011V53.721H117.749V43.459H118.561L118.799 44.621C119.154 44.201 119.583 43.8744 120.087 43.641C120.6 43.4077 121.156 43.291 121.753 43.291ZM121.669 50.039C122.472 50.039 123.134 49.773 123.657 49.241C124.18 48.709 124.441 48.0417 124.441 47.239C124.441 46.4364 124.18 45.769 123.657 45.237C123.134 44.705 122.472 44.439 121.669 44.439C120.866 44.439 120.199 44.7097 119.667 45.251C119.144 45.783 118.883 46.4457 118.883 47.239C118.883 47.7617 119 48.2377 119.233 48.667C119.476 49.0964 119.812 49.4324 120.241 49.675C120.67 49.9177 121.146 50.039 121.669 50.039ZM134.526 47.267C134.526 47.3697 134.517 47.5144 134.498 47.701H128.044C128.137 48.401 128.427 48.9657 128.912 49.395C129.397 49.815 129.995 50.025 130.704 50.025C131.227 50.025 131.689 49.913 132.09 49.689C132.501 49.4557 132.827 49.129 133.07 48.709H134.316C133.999 49.493 133.523 50.1044 132.888 50.543C132.253 50.9724 131.525 51.187 130.704 51.187C129.612 51.187 128.697 50.809 127.96 50.053C127.223 49.297 126.854 48.359 126.854 47.239C126.854 46.1097 127.223 45.1717 127.96 44.425C128.697 43.669 129.612 43.291 130.704 43.291C131.833 43.291 132.753 43.6737 133.462 44.439C134.171 45.2044 134.526 46.147 134.526 47.267ZM130.704 44.425C130.256 44.425 129.845 44.5137 129.472 44.691C129.108 44.8684 128.805 45.125 128.562 45.461C128.319 45.7877 128.156 46.1657 128.072 46.595H133.322C133.238 46.1564 133.075 45.7737 132.832 45.447C132.589 45.111 132.286 44.859 131.922 44.691C131.558 44.5137 131.152 44.425 130.704 44.425ZM145.641 51.019H144.493L143.415 45.405L140.741 50.865H140.475L137.815 45.405L136.737 51.019H135.589L137.031 43.459H138.025L140.615 48.751L143.191 43.459H144.185L145.641 51.019ZM154.405 47.267C154.405 47.3697 154.396 47.5144 154.377 47.701H147.923C148.016 48.401 148.306 48.9657 148.791 49.395C149.276 49.815 149.874 50.025 150.583 50.025C151.106 50.025 151.568 49.913 151.969 49.689C152.38 49.4557 152.706 49.129 152.949 48.709H154.195C153.878 49.493 153.402 50.1044 152.767 50.543C152.132 50.9724 151.404 51.187 150.583 51.187C149.491 51.187 148.576 50.809 147.839 50.053C147.102 49.297 146.733 48.359 146.733 47.239C146.733 46.1097 147.102 45.1717 147.839 44.425C148.576 43.669 149.491 43.291 150.583 43.291C151.712 43.291 152.632 43.6737 153.341 44.439C154.05 45.2044 154.405 46.147 154.405 47.267ZM150.583 44.425C150.135 44.425 149.724 44.5137 149.351 44.691C148.987 44.8684 148.684 45.125 148.441 45.461C148.198 45.7877 148.035 46.1657 147.951 46.595H153.201C153.117 46.1564 152.954 45.7737 152.711 45.447C152.468 45.111 152.165 44.859 151.801 44.691C151.437 44.5137 151.031 44.425 150.583 44.425ZM161.389 43.459H162.551V51.019H161.389V47.673H157.343V51.019H156.181V43.459H157.343V46.553H161.389V43.459ZM170.516 43.459H171.174V51.019H170.054V45.615L165.644 51.019H164.958V43.459H166.092V48.821L170.516 43.459ZM183.577 49.899H184.599V53.021H183.507V51.019H177.417V53.021H176.325V49.899H177.137C177.361 49.6937 177.534 49.4044 177.655 49.031C177.776 48.6484 177.884 48.0697 177.977 47.295C178.08 46.511 178.201 45.2324 178.341 43.459H183.577V49.899ZM179.405 44.509C179.321 45.7597 179.232 46.735 179.139 47.435C179.055 48.1257 178.957 48.6577 178.845 49.031C178.733 49.395 178.588 49.6844 178.411 49.899H182.415V44.509H179.405ZM187.642 43.459H192.598V51.019H191.408V44.495H188.636L188.244 48.317C188.142 49.3157 187.885 50.025 187.474 50.445C187.064 50.8557 186.448 51.061 185.626 51.061H185.416V49.941H185.682C186.112 49.941 186.438 49.8197 186.662 49.577C186.886 49.325 187.026 48.9284 187.082 48.387L187.642 43.459ZM200.553 43.459H201.211V51.019H200.091V45.615L195.681 51.019H194.995V43.459H196.129V48.821L200.553 43.459ZM209.446 43.459V44.537H206.632V51.019H205.47V44.537H202.656V43.459H209.446ZM213.968 51.187C213.23 51.187 212.558 51.019 211.952 50.683C211.354 50.3377 210.883 49.8617 210.538 49.255C210.202 48.6484 210.034 47.9764 210.034 47.239C210.034 46.1097 210.407 45.1717 211.154 44.425C211.91 43.669 212.848 43.291 213.968 43.291C214.864 43.291 215.638 43.5384 216.292 44.033C216.954 44.5277 217.402 45.1857 217.636 46.007H216.46C216.236 45.5217 215.9 45.139 215.452 44.859C215.013 44.579 214.518 44.439 213.968 44.439C213.193 44.439 212.544 44.7097 212.022 45.251C211.508 45.783 211.252 46.4457 211.252 47.239C211.252 47.7617 211.368 48.2377 211.602 48.667C211.835 49.087 212.157 49.423 212.568 49.675C212.988 49.9177 213.454 50.039 213.968 50.039C214.518 50.039 215.008 49.899 215.438 49.619C215.876 49.3297 216.212 48.933 216.446 48.429H217.65C217.416 49.269 216.964 49.941 216.292 50.445C215.629 50.9397 214.854 51.187 213.968 51.187ZM221.291 43.459H224.763V51.019H223.587V48.121H221.697L219.905 51.019H218.589L220.479 47.953C219.985 47.7944 219.593 47.5237 219.303 47.141C219.014 46.7584 218.869 46.3104 218.869 45.797C218.869 45.125 219.098 44.5697 219.555 44.131C220.013 43.683 220.591 43.459 221.291 43.459ZM221.389 46.973H223.587V44.607H221.389C220.997 44.607 220.68 44.719 220.437 44.943C220.195 45.1577 220.073 45.4424 220.073 45.797C220.073 46.1424 220.195 46.427 220.437 46.651C220.68 46.8657 220.997 46.973 221.389 46.973ZM236.331 43.459H237.605L234.007 51.327C233.727 51.943 233.452 52.419 233.181 52.755C232.911 53.091 232.607 53.3337 232.271 53.483C231.935 53.6417 231.525 53.721 231.039 53.721H230.325V52.643H230.941C231.445 52.643 231.823 52.5404 232.075 52.335C232.327 52.1297 232.607 51.7097 232.915 51.075L233.181 50.501L229.821 43.459H231.123L233.811 49.185L236.331 43.459ZM242.674 43.851C243.747 43.851 244.629 44.1917 245.32 44.873C246.01 45.545 246.356 46.4084 246.356 47.463C246.356 48.555 245.996 49.451 245.278 50.151C244.559 50.8417 243.635 51.187 242.506 51.187C241.32 51.187 240.373 50.8137 239.664 50.067C238.964 49.311 238.614 48.303 238.614 47.043C238.614 45.1017 238.964 43.6504 239.664 42.689C240.364 41.7277 241.577 41.037 243.304 40.617L245.544 40.085V41.261L243.332 41.793C242.352 42.017 241.586 42.3857 241.036 42.899C240.485 43.4124 240.13 44.0937 239.972 44.943C240.634 44.215 241.535 43.851 242.674 43.851ZM242.506 50.039C243.252 50.039 243.878 49.7964 244.382 49.311C244.886 48.8164 245.138 48.205 245.138 47.477C245.138 46.7397 244.886 46.1237 244.382 45.629C243.878 45.1344 243.252 44.887 242.506 44.887C241.75 44.887 241.12 45.1344 240.616 45.629C240.112 46.1144 239.86 46.7257 239.86 47.463C239.86 47.827 239.925 48.1677 240.056 48.485C240.196 48.8024 240.382 49.073 240.616 49.297C240.849 49.521 241.129 49.703 241.456 49.843C241.782 49.9737 242.132 50.039 242.506 50.039ZM251.581 51.187C250.834 51.187 250.153 51.019 249.537 50.683C248.921 50.3377 248.44 49.8664 248.095 49.269C247.749 48.6624 247.577 47.9857 247.577 47.239C247.577 46.1004 247.955 45.1577 248.711 44.411C249.476 43.6644 250.433 43.291 251.581 43.291C252.337 43.291 253.018 43.4637 253.625 43.809C254.241 44.145 254.721 44.6164 255.067 45.223C255.421 45.8204 255.599 46.4924 255.599 47.239C255.599 48.3684 255.216 49.311 254.451 50.067C253.685 50.8137 252.729 51.187 251.581 51.187ZM249.579 49.255C250.111 49.7777 250.778 50.039 251.581 50.039C252.393 50.039 253.06 49.7777 253.583 49.255C254.115 48.723 254.381 48.051 254.381 47.239C254.381 46.427 254.115 45.7597 253.583 45.237C253.06 44.705 252.393 44.439 251.581 44.439C250.778 44.439 250.111 44.705 249.579 45.237C249.056 45.7597 248.795 46.427 248.795 47.239C248.795 48.051 249.056 48.723 249.579 49.255ZM261.411 43.291C262.54 43.291 263.469 43.6644 264.197 44.411C264.934 45.1577 265.303 46.1004 265.303 47.239C265.303 48.3684 264.934 49.311 264.197 50.067C263.469 50.8137 262.54 51.187 261.411 51.187C260.272 51.187 259.334 50.795 258.597 50.011V53.721H257.407V43.459H258.219L258.457 44.621C258.812 44.201 259.241 43.8744 259.745 43.641C260.258 43.4077 260.814 43.291 261.411 43.291ZM261.327 50.039C262.13 50.039 262.792 49.773 263.315 49.241C263.838 48.709 264.099 48.0417 264.099 47.239C264.099 46.4364 263.838 45.769 263.315 45.237C262.792 44.705 262.13 44.439 261.327 44.439C260.524 44.439 259.857 44.7097 259.325 45.251C258.802 45.783 258.541 46.4457 258.541 47.239C258.541 47.7617 258.658 48.2377 258.891 48.667C259.134 49.0964 259.47 49.4324 259.899 49.675C260.328 49.9177 260.804 50.039 261.327 50.039ZM271.972 51.019L269.382 47.631H268.304V51.019H267.114V43.459H268.304V46.525H269.396L271.734 43.459H273.176L270.418 47.085L273.456 51.019H271.972ZM280.91 43.459H281.862V51.019H280.868L280.742 49.871C280.387 50.291 279.953 50.6177 279.44 50.851C278.936 51.075 278.38 51.187 277.774 51.187C276.663 51.187 275.734 50.8137 274.988 50.067C274.241 49.311 273.868 48.3684 273.868 47.239C273.868 46.1097 274.241 45.1717 274.988 44.425C275.734 43.669 276.663 43.291 277.774 43.291C278.39 43.291 278.95 43.4077 279.454 43.641C279.967 43.8744 280.401 44.201 280.756 44.621L280.91 43.459ZM275.87 49.241C276.402 49.773 277.069 50.039 277.872 50.039C278.674 50.039 279.337 49.773 279.86 49.241C280.382 48.709 280.644 48.0417 280.644 47.239C280.644 46.4364 280.382 45.769 279.86 45.237C279.337 44.705 278.674 44.439 277.872 44.439C277.069 44.439 276.402 44.7097 275.87 45.251C275.347 45.783 275.086 46.4457 275.086 47.239C275.086 48.0324 275.347 48.6997 275.87 49.241ZM285.813 48.331V48.023C285.813 47.6964 285.846 47.407 285.911 47.155C285.986 46.903 286.107 46.6744 286.275 46.469C286.443 46.2544 286.583 46.0957 286.695 45.993C286.807 45.881 286.98 45.727 287.213 45.531C287.409 45.3724 287.563 45.2464 287.675 45.153C287.787 45.0504 287.908 44.9197 288.039 44.761C288.179 44.593 288.277 44.411 288.333 44.215C288.398 44.019 288.431 43.7997 288.431 43.557C288.431 43.2024 288.347 42.8897 288.179 42.619C288.02 42.3484 287.796 42.143 287.507 42.003C287.218 41.8537 286.891 41.779 286.527 41.779C285.995 41.779 285.542 41.933 285.169 42.241C284.805 42.5397 284.609 42.9457 284.581 43.459H283.447C283.484 42.591 283.797 41.9097 284.385 41.415C284.982 40.911 285.696 40.659 286.527 40.659C286.956 40.659 287.353 40.729 287.717 40.869C288.09 40.9997 288.417 41.1864 288.697 41.429C288.977 41.6717 289.196 41.9797 289.355 42.353C289.514 42.717 289.593 43.1184 289.593 43.557C289.593 43.837 289.56 44.0984 289.495 44.341C289.439 44.5744 289.369 44.775 289.285 44.943C289.21 45.1017 289.098 45.265 288.949 45.433C288.8 45.601 288.674 45.7317 288.571 45.825C288.468 45.909 288.328 46.0257 288.151 46.175C287.983 46.315 287.862 46.4177 287.787 46.483C287.722 46.539 287.624 46.637 287.493 46.777C287.372 46.9077 287.283 47.029 287.227 47.141C287.171 47.2437 287.12 47.3744 287.073 47.533C287.026 47.6824 287.003 47.8457 287.003 48.023V48.331H285.813ZM285.729 51.019V49.535H287.087V51.019H285.729Z" fill="#4B5258"/>
<defs>
<filter id="filter0_d_131_293" x="0" y="0.019043" width="1054" height="100" filterUnits="userSpaceOnUse" color-interpolation-filters="sRGB">
<feFlood flood-opacity="0" result="BackgroundImageFix"/>
<feColorMatrix in="SourceAlpha" type="matrix" values="0 0 0 0 0 0 0 0 0 0 0 0 0 0 0 0 0 0 127 0" result="hardAlpha"/>
<feOffset dy="3"/>
<feGaussianBlur stdDeviation="7.5"/>
<feComposite in2="hardAlpha" operator="out"/>
<feColorMatrix type="matrix" values="0 0 0 0 0 0 0 0 0 0 0 0 0 0 0 0 0 0 0.1 0"/>
<feBlend mode="normal" in2="BackgroundImageFix" result="effect1_dropShadow_131_293"/>
<feBlend mode="normal" in="SourceGraphic" in2="effect1_dropShadow_131_293" result="shape"/>
</filter>
</defs>
</svg>
