<svg width="1054" height="101" viewBox="0 0 1054 101" fill="none" xmlns="http://www.w3.org/2000/svg">
<g filter="url(#filter0_d_131_294)">
<rect x="15" y="12.019" width="1024" height="70" rx="20" fill="white"/>
</g>
<path d="M50.88 45.839C51.3093 46.063 51.65 46.3944 51.902 46.833C52.154 47.2624 52.28 47.7384 52.28 48.261C52.28 49.101 51.958 49.7964 51.314 50.347C50.6793 50.8977 49.8767 51.173 48.906 51.173C47.9727 51.173 47.198 50.9024 46.582 50.361C45.966 49.8197 45.6347 49.1244 45.588 48.275H46.792C46.8387 48.7977 47.058 49.2224 47.45 49.549C47.842 49.8664 48.3273 50.025 48.906 50.025C49.326 50.025 49.6993 49.9504 50.026 49.801C50.3527 49.6424 50.6047 49.4277 50.782 49.157C50.9687 48.877 51.062 48.5644 51.062 48.219C51.062 47.687 50.8893 47.253 50.544 46.917C50.1987 46.581 49.7553 46.413 49.214 46.413H48.08V45.335H49.214C49.69 45.335 50.082 45.1904 50.39 44.901C50.7073 44.6024 50.866 44.2244 50.866 43.767C50.866 43.291 50.684 42.9084 50.32 42.619C49.956 42.3204 49.4847 42.171 48.906 42.171C48.3927 42.171 47.9493 42.3157 47.576 42.605C47.212 42.885 46.9973 43.2537 46.932 43.711H45.756C45.8213 42.9364 46.148 42.3017 46.736 41.807C47.3333 41.303 48.0567 41.051 48.906 41.051C49.8207 41.051 50.572 41.303 51.16 41.807C51.7573 42.3017 52.056 42.941 52.056 43.725C52.056 44.0237 52.0093 44.313 51.916 44.593C51.8227 44.8637 51.6873 45.1064 51.51 45.321C51.3327 45.5357 51.1227 45.7084 50.88 45.839ZM60.6967 43.459H61.6487V51.019H60.6547L60.5287 49.871C60.1741 50.291 59.7401 50.6177 59.2267 50.851C58.7227 51.075 58.1674 51.187 57.5607 51.187C56.4501 51.187 55.5214 50.8137 54.7747 50.067C54.0281 49.311 53.6547 48.3684 53.6547 47.239C53.6547 46.1097 54.0281 45.1717 54.7747 44.425C55.5214 43.669 56.4501 43.291 57.5607 43.291C58.1767 43.291 58.7367 43.4077 59.2407 43.641C59.7541 43.8744 60.1881 44.201 60.5427 44.621L60.6967 43.459ZM55.6567 49.241C56.1887 49.773 56.8561 50.039 57.6587 50.039C58.4614 50.039 59.1241 49.773 59.6467 49.241C60.1694 48.709 60.4307 48.0417 60.4307 47.239C60.4307 46.4364 60.1694 45.769 59.6467 45.237C59.1241 44.705 58.4614 44.439 57.6587 44.439C56.8561 44.439 56.1887 44.7097 55.6567 45.251C55.1341 45.783 54.8727 46.4457 54.8727 47.239C54.8727 48.0324 55.1341 48.6997 55.6567 49.241ZM71.0419 51.187C70.3045 51.187 69.6325 51.019 69.0259 50.683C68.4285 50.3377 67.9572 49.8617 67.6119 49.255C67.2759 48.6484 67.1079 47.9764 67.1079 47.239C67.1079 46.1097 67.4812 45.1717 68.2279 44.425C68.9839 43.669 69.9219 43.291 71.0419 43.291C71.9379 43.291 72.7125 43.5384 73.3659 44.033C74.0285 44.5277 74.4765 45.1857 74.7099 46.007H73.5339C73.3099 45.5217 72.9739 45.139 72.5259 44.859C72.0872 44.579 71.5925 44.439 71.0419 44.439C70.2672 44.439 69.6185 44.7097 69.0959 45.251C68.5825 45.783 68.3259 46.4457 68.3259 47.239C68.3259 47.7617 68.4425 48.2377 68.6759 48.667C68.9092 49.087 69.2312 49.423 69.6419 49.675C70.0619 49.9177 70.5285 50.039 71.0419 50.039C71.5925 50.039 72.0825 49.899 72.5119 49.619C72.9505 49.3297 73.2865 48.933 73.5199 48.429H74.7239C74.4905 49.269 74.0379 49.941 73.3659 50.445C72.7032 50.9397 71.9285 51.187 71.0419 51.187ZM81.2495 51.019L78.6595 47.631H77.5815V51.019H76.3915V43.459H77.5815V46.525H78.6735L81.0115 43.459H82.4535L79.6955 47.085L82.7335 51.019H81.2495ZM87.149 51.187C86.4023 51.187 85.721 51.019 85.105 50.683C84.489 50.3377 84.0083 49.8664 83.663 49.269C83.3176 48.6624 83.145 47.9857 83.145 47.239C83.145 46.1004 83.523 45.1577 84.279 44.411C85.0443 43.6644 86.001 43.291 87.149 43.291C87.905 43.291 88.5863 43.4637 89.193 43.809C89.809 44.145 90.2896 44.6164 90.635 45.223C90.9896 45.8204 91.167 46.4924 91.167 47.239C91.167 48.3684 90.7843 49.311 90.019 50.067C89.2536 50.8137 88.297 51.187 87.149 51.187ZM85.147 49.255C85.679 49.7777 86.3463 50.039 87.149 50.039C87.961 50.039 88.6283 49.7777 89.151 49.255C89.683 48.723 89.949 48.051 89.949 47.239C89.949 46.427 89.683 45.7597 89.151 45.237C88.6283 44.705 87.961 44.439 87.149 44.439C86.3463 44.439 85.679 44.705 85.147 45.237C84.6243 45.7597 84.363 46.427 84.363 47.239C84.363 48.051 84.6243 48.723 85.147 49.255ZM94.0584 43.459H99.0144V51.019H97.8244V44.495H95.0524L94.6604 48.317C94.5577 49.3157 94.3011 50.025 93.8904 50.445C93.4797 50.8557 92.8637 51.061 92.0424 51.061H91.8324V49.941H92.0984C92.5277 49.941 92.8544 49.8197 93.0784 49.577C93.3024 49.325 93.4424 48.9284 93.4984 48.387L94.0584 43.459ZM104.449 45.839C105.242 45.839 105.891 46.0817 106.395 46.567C106.899 47.043 107.151 47.6684 107.151 48.443C107.151 49.199 106.899 49.8197 106.395 50.305C105.891 50.781 105.242 51.019 104.449 51.019H101.411V43.459H102.573V45.839H104.449ZM104.295 49.955C104.79 49.955 105.186 49.815 105.485 49.535C105.784 49.255 105.933 48.891 105.933 48.443C105.933 47.9857 105.784 47.617 105.485 47.337C105.186 47.0477 104.79 46.903 104.295 46.903H102.573V49.955H104.295ZM113.638 51.019L111.048 47.631H109.97V51.019H108.78V43.459H109.97V46.525H111.062L113.4 43.459H114.842L112.084 47.085L115.122 51.019H113.638ZM119.538 51.187C118.791 51.187 118.11 51.019 117.494 50.683C116.878 50.3377 116.397 49.8664 116.052 49.269C115.706 48.6624 115.534 47.9857 115.534 47.239C115.534 46.1004 115.912 45.1577 116.668 44.411C117.433 43.6644 118.39 43.291 119.538 43.291C120.294 43.291 120.975 43.4637 121.582 43.809C122.198 44.145 122.678 44.6164 123.024 45.223C123.378 45.8204 123.556 46.4924 123.556 47.239C123.556 48.3684 123.173 49.311 122.408 50.067C121.642 50.8137 120.686 51.187 119.538 51.187ZM117.536 49.255C118.068 49.7777 118.735 50.039 119.538 50.039C120.35 50.039 121.017 49.7777 121.54 49.255C122.072 48.723 122.338 48.051 122.338 47.239C122.338 46.427 122.072 45.7597 121.54 45.237C121.017 44.705 120.35 44.439 119.538 44.439C118.735 44.439 118.068 44.705 117.536 45.237C117.013 45.7597 116.752 46.427 116.752 47.239C116.752 48.051 117.013 48.723 117.536 49.255ZM135.356 49.899H136.378V53.021H135.286V51.019H129.196V53.021H128.104V49.899H128.916C129.14 49.6937 129.313 49.4044 129.434 49.031C129.556 48.6484 129.663 48.0697 129.756 47.295C129.859 46.511 129.98 45.2324 130.12 43.459H135.356V49.899ZM131.184 44.509C131.1 45.7597 131.012 46.735 130.918 47.435C130.834 48.1257 130.736 48.6577 130.624 49.031C130.512 49.395 130.368 49.6844 130.19 49.899H134.194V44.509H131.184ZM143.342 43.459H144.504V51.019H143.342V47.673H139.296V51.019H138.134V43.459H139.296V46.553H143.342V43.459ZM153.981 47.267C153.981 47.3697 153.972 47.5144 153.953 47.701H147.499C147.592 48.401 147.882 48.9657 148.367 49.395C148.852 49.815 149.45 50.025 150.159 50.025C150.682 50.025 151.144 49.913 151.545 49.689C151.956 49.4557 152.282 49.129 152.525 48.709H153.771C153.454 49.493 152.978 50.1044 152.343 50.543C151.708 50.9724 150.98 51.187 150.159 51.187C149.067 51.187 148.152 50.809 147.415 50.053C146.678 49.297 146.309 48.359 146.309 47.239C146.309 46.1097 146.678 45.1717 147.415 44.425C148.152 43.669 149.067 43.291 150.159 43.291C151.288 43.291 152.208 43.6737 152.917 44.439C153.626 45.2044 153.981 46.147 153.981 47.267ZM150.159 44.425C149.711 44.425 149.3 44.5137 148.927 44.691C148.563 44.8684 148.26 45.125 148.017 45.461C147.774 45.7877 147.611 46.1657 147.527 46.595H152.777C152.693 46.1564 152.53 45.7737 152.287 45.447C152.044 45.111 151.741 44.859 151.377 44.691C151.013 44.5137 150.607 44.425 150.159 44.425ZM160.713 41.037V41.933H157.045V41.037H160.713ZM161.315 43.459H161.973V51.019H160.853V45.615L156.443 51.019H155.757V43.459H156.891V48.821L161.315 43.459ZM174.376 49.899H175.398V53.021H174.306V51.019H168.216V53.021H167.124V49.899H167.936C168.16 49.6937 168.332 49.4044 168.454 49.031C168.575 48.6484 168.682 48.0697 168.776 47.295C168.878 46.511 169 45.2324 169.14 43.459H174.376V49.899ZM170.204 44.509C170.12 45.7597 170.031 46.735 169.938 47.435C169.854 48.1257 169.756 48.6577 169.644 49.031C169.532 49.395 169.387 49.6844 169.21 49.899H173.214V44.509H170.204ZM180.419 51.187C179.672 51.187 178.991 51.019 178.375 50.683C177.759 50.3377 177.278 49.8664 176.933 49.269C176.587 48.6624 176.415 47.9857 176.415 47.239C176.415 46.1004 176.793 45.1577 177.549 44.411C178.314 43.6644 179.271 43.291 180.419 43.291C181.175 43.291 181.856 43.4637 182.463 43.809C183.079 44.145 183.559 44.6164 183.905 45.223C184.259 45.8204 184.437 46.4924 184.437 47.239C184.437 48.3684 184.054 49.311 183.289 50.067C182.523 50.8137 181.567 51.187 180.419 51.187ZM178.417 49.255C178.949 49.7777 179.616 50.039 180.419 50.039C181.231 50.039 181.898 49.7777 182.421 49.255C182.953 48.723 183.219 48.051 183.219 47.239C183.219 46.427 182.953 45.7597 182.421 45.237C181.898 44.705 181.231 44.439 180.419 44.439C179.616 44.439 178.949 44.705 178.417 45.237C177.894 45.7597 177.633 46.427 177.633 47.239C177.633 48.051 177.894 48.723 178.417 49.255ZM189.909 43.459H196.321V51.019H195.145V44.551H191.099V51.019H189.909V43.459ZM202.731 43.291C203.861 43.291 204.789 43.6644 205.517 44.411C206.255 45.1577 206.623 46.1004 206.623 47.239C206.623 48.3684 206.255 49.311 205.517 50.067C204.789 50.8137 203.861 51.187 202.731 51.187C201.593 51.187 200.655 50.795 199.917 50.011V53.721H198.727V43.459H199.539L199.777 44.621C200.132 44.201 200.561 43.8744 201.065 43.641C201.579 43.4077 202.134 43.291 202.731 43.291ZM202.647 50.039C203.45 50.039 204.113 49.773 204.635 49.241C205.158 48.709 205.419 48.0417 205.419 47.239C205.419 46.4364 205.158 45.769 204.635 45.237C204.113 44.705 203.45 44.439 202.647 44.439C201.845 44.439 201.177 44.7097 200.645 45.251C200.123 45.783 199.861 46.4457 199.861 47.239C199.861 47.7617 199.978 48.2377 200.211 48.667C200.454 49.0964 200.79 49.4324 201.219 49.675C201.649 49.9177 202.125 50.039 202.647 50.039ZM213.992 43.459H214.65V51.019H213.53V45.615L209.12 51.019H208.434V43.459H209.568V48.821L213.992 43.459ZM224.131 47.267C224.131 47.3697 224.122 47.5144 224.103 47.701H217.649C217.743 48.401 218.032 48.9657 218.517 49.395C219.003 49.815 219.6 50.025 220.309 50.025C220.832 50.025 221.294 49.913 221.695 49.689C222.106 49.4557 222.433 49.129 222.675 48.709H223.921C223.604 49.493 223.128 50.1044 222.493 50.543C221.859 50.9724 221.131 51.187 220.309 51.187C219.217 51.187 218.303 50.809 217.565 50.053C216.828 49.297 216.459 48.359 216.459 47.239C216.459 46.1097 216.828 45.1717 217.565 44.425C218.303 43.669 219.217 43.291 220.309 43.291C221.439 43.291 222.358 43.6737 223.067 44.439C223.777 45.2044 224.131 46.147 224.131 47.267ZM220.309 44.425C219.861 44.425 219.451 44.5137 219.077 44.691C218.713 44.8684 218.41 45.125 218.167 45.461C217.925 45.7877 217.761 46.1657 217.677 46.595H222.927C222.843 46.1564 222.68 45.7737 222.437 45.447C222.195 45.111 221.891 44.859 221.527 44.691C221.163 44.5137 220.757 44.425 220.309 44.425ZM229.841 47.029C230.532 47.4024 230.877 48.0184 230.877 48.877C230.877 49.325 230.751 49.7264 230.499 50.081C230.256 50.4264 229.911 50.697 229.463 50.893C229.024 51.089 228.53 51.187 227.979 51.187C227.176 51.187 226.514 50.9817 225.991 50.571C225.478 50.1604 225.188 49.6097 225.123 48.919H226.201C226.276 49.2737 226.472 49.5537 226.789 49.759C227.106 49.955 227.503 50.053 227.979 50.053C228.483 50.053 228.898 49.9364 229.225 49.703C229.552 49.4697 229.715 49.1617 229.715 48.779C229.715 48.4244 229.575 48.1304 229.295 47.897C229.024 47.6637 228.679 47.547 228.259 47.547H227.139V46.581H228.259C228.651 46.581 228.964 46.483 229.197 46.287C229.44 46.0817 229.561 45.8204 229.561 45.503C229.561 45.1577 229.416 44.8777 229.127 44.663C228.838 44.4484 228.455 44.341 227.979 44.341C227.559 44.341 227.209 44.4344 226.929 44.621C226.649 44.8077 226.472 45.0597 226.397 45.377H225.319C225.356 44.9664 225.492 44.6024 225.725 44.285C225.968 43.9677 226.285 43.725 226.677 43.557C227.078 43.3797 227.522 43.291 228.007 43.291C228.782 43.291 229.421 43.4917 229.925 43.893C230.429 44.2944 230.681 44.7984 230.681 45.405C230.681 46.133 230.401 46.6744 229.841 47.029ZM239.071 49.899H240.093V53.021H239.001V51.019H232.911V53.021H231.819V49.899H232.631C232.855 49.6937 233.028 49.4044 233.149 49.031C233.27 48.6484 233.378 48.0697 233.471 47.295C233.574 46.511 233.695 45.2324 233.835 43.459H239.071V49.899ZM234.899 44.509C234.815 45.7597 234.726 46.735 234.633 47.435C234.549 48.1257 234.451 48.6577 234.339 49.031C234.227 49.395 234.082 49.6844 233.905 49.899H237.909V44.509H234.899ZM248.152 43.459H249.104V51.019H248.11L247.984 49.871C247.629 50.291 247.195 50.6177 246.682 50.851C246.178 51.075 245.622 51.187 245.016 51.187C243.905 51.187 242.976 50.8137 242.23 50.067C241.483 49.311 241.11 48.3684 241.11 47.239C241.11 46.1097 241.483 45.1717 242.23 44.425C242.976 43.669 243.905 43.291 245.016 43.291C245.632 43.291 246.192 43.4077 246.696 43.641C247.209 43.8744 247.643 44.201 247.998 44.621L248.152 43.459ZM243.112 49.241C243.644 49.773 244.311 50.039 245.114 50.039C245.916 50.039 246.579 49.773 247.102 49.241C247.624 48.709 247.886 48.0417 247.886 47.239C247.886 46.4364 247.624 45.769 247.102 45.237C246.579 44.705 245.916 44.439 245.114 44.439C244.311 44.439 243.644 44.7097 243.112 45.251C242.589 45.783 242.328 46.4457 242.328 47.239C242.328 48.0324 242.589 48.6997 243.112 49.241ZM260.023 51.019L257.433 47.631H256.355V51.019H255.165V43.459H256.355V46.525H257.447L259.785 43.459H261.227L258.469 47.085L261.507 51.019H260.023ZM264.013 43.459H268.969V51.019H267.779V44.495H265.007L264.615 48.317C264.513 49.3157 264.256 50.025 263.845 50.445C263.435 50.8557 262.819 51.061 261.997 51.061H261.787V49.941H262.053C262.483 49.941 262.809 49.8197 263.033 49.577C263.257 49.325 263.397 48.9284 263.453 48.387L264.013 43.459ZM276.924 43.459H277.582V51.019H276.462V45.615L272.052 51.019H271.366V43.459H272.5V48.821L276.924 43.459ZM285.201 43.459H286.363V51.019H285.201V47.673H281.155V51.019H279.993V43.459H281.155V46.553H285.201V43.459ZM295.84 47.267C295.84 47.3697 295.831 47.5144 295.812 47.701H289.358C289.452 48.401 289.741 48.9657 290.226 49.395C290.712 49.815 291.309 50.025 292.018 50.025C292.541 50.025 293.003 49.913 293.404 49.689C293.815 49.4557 294.142 49.129 294.384 48.709H295.63C295.313 49.493 294.837 50.1044 294.202 50.543C293.568 50.9724 292.84 51.187 292.018 51.187C290.926 51.187 290.012 50.809 289.274 50.053C288.537 49.297 288.168 48.359 288.168 47.239C288.168 46.1097 288.537 45.1717 289.274 44.425C290.012 43.669 290.926 43.291 292.018 43.291C293.148 43.291 294.067 43.6737 294.776 44.439C295.486 45.2044 295.84 46.147 295.84 47.267ZM292.018 44.425C291.57 44.425 291.16 44.5137 290.786 44.691C290.422 44.8684 290.119 45.125 289.876 45.461C289.634 45.7877 289.47 46.1657 289.386 46.595H294.636C294.552 46.1564 294.389 45.7737 294.146 45.447C293.904 45.111 293.6 44.859 293.236 44.691C292.872 44.5137 292.466 44.425 292.018 44.425ZM301.62 43.291C302.749 43.291 303.678 43.6644 304.406 44.411C305.143 45.1577 305.512 46.1004 305.512 47.239C305.512 48.3684 305.143 49.311 304.406 50.067C303.678 50.8137 302.749 51.187 301.62 51.187C300.481 51.187 299.543 50.795 298.806 50.011V53.721H297.616V43.459H298.428L298.666 44.621C299.021 44.201 299.45 43.8744 299.954 43.641C300.467 43.4077 301.023 43.291 301.62 43.291ZM301.536 50.039C302.339 50.039 303.001 49.773 303.524 49.241C304.047 48.709 304.308 48.0417 304.308 47.239C304.308 46.4364 304.047 45.769 303.524 45.237C303.001 44.705 302.339 44.439 301.536 44.439C300.733 44.439 300.066 44.7097 299.534 45.251C299.011 45.783 298.75 46.4457 298.75 47.239C298.75 47.7617 298.867 48.2377 299.1 48.667C299.343 49.0964 299.679 49.4324 300.108 49.675C300.537 49.9177 301.013 50.039 301.536 50.039ZM310.725 51.187C309.978 51.187 309.297 51.019 308.681 50.683C308.065 50.3377 307.584 49.8664 307.239 49.269C306.894 48.6624 306.721 47.9857 306.721 47.239C306.721 46.1004 307.099 45.1577 307.855 44.411C308.62 43.6644 309.577 43.291 310.725 43.291C311.481 43.291 312.162 43.4637 312.769 43.809C313.385 44.145 313.866 44.6164 314.211 45.223C314.566 45.8204 314.743 46.4924 314.743 47.239C314.743 48.3684 314.36 49.311 313.595 50.067C312.83 50.8137 311.873 51.187 310.725 51.187ZM308.723 49.255C309.255 49.7777 309.922 50.039 310.725 50.039C311.537 50.039 312.204 49.7777 312.727 49.255C313.259 48.723 313.525 48.051 313.525 47.239C313.525 46.427 313.259 45.7597 312.727 45.237C312.204 44.705 311.537 44.439 310.725 44.439C309.922 44.439 309.255 44.705 308.723 45.237C308.2 45.7597 307.939 46.427 307.939 47.239C307.939 48.051 308.2 48.723 308.723 49.255ZM321.41 47.099C321.792 47.239 322.096 47.4724 322.32 47.799C322.553 48.1257 322.67 48.4944 322.67 48.905C322.67 49.5117 322.446 50.0157 321.998 50.417C321.559 50.8184 321.008 51.019 320.346 51.019H316.552V43.459H320.304C320.929 43.459 321.438 43.641 321.83 44.005C322.222 44.3597 322.418 44.817 322.418 45.377C322.418 45.629 322.376 45.867 322.292 46.091C322.208 46.315 322.091 46.5157 321.942 46.693C321.792 46.861 321.615 46.9964 321.41 47.099ZM321.242 45.587C321.242 45.279 321.139 45.0364 320.934 44.859C320.728 44.6724 320.462 44.579 320.136 44.579H317.714V46.581H320.136C320.472 46.581 320.738 46.4924 320.934 46.315C321.139 46.1284 321.242 45.8857 321.242 45.587ZM320.206 49.899C320.439 49.899 320.649 49.8524 320.836 49.759C321.032 49.6564 321.181 49.521 321.284 49.353C321.386 49.185 321.438 48.9984 321.438 48.793C321.438 48.5784 321.386 48.387 321.284 48.219C321.181 48.0417 321.032 47.9064 320.836 47.813C320.649 47.7197 320.434 47.673 320.192 47.673H317.714V49.899H320.206ZM333.463 43.459H334.625V51.019H333.463V47.673H329.417V51.019H328.255V43.459H329.417V46.553H333.463V43.459ZM344.102 47.267C344.102 47.3697 344.093 47.5144 344.074 47.701H337.62C337.713 48.401 338.003 48.9657 338.488 49.395C338.973 49.815 339.571 50.025 340.28 50.025C340.803 50.025 341.265 49.913 341.666 49.689C342.077 49.4557 342.403 49.129 342.646 48.709H343.892C343.575 49.493 343.099 50.1044 342.464 50.543C341.829 50.9724 341.101 51.187 340.28 51.187C339.188 51.187 338.273 50.809 337.536 50.053C336.799 49.297 336.43 48.359 336.43 47.239C336.43 46.1097 336.799 45.1717 337.536 44.425C338.273 43.669 339.188 43.291 340.28 43.291C341.409 43.291 342.329 43.6737 343.038 44.439C343.747 45.2044 344.102 46.147 344.102 47.267ZM340.28 44.425C339.832 44.425 339.421 44.5137 339.048 44.691C338.684 44.8684 338.381 45.125 338.138 45.461C337.895 45.7877 337.732 46.1657 337.648 46.595H342.898C342.814 46.1564 342.651 45.7737 342.408 45.447C342.165 45.111 341.862 44.859 341.498 44.691C341.134 44.5137 340.728 44.425 340.28 44.425ZM349.28 51.187C348.533 51.187 347.852 51.019 347.236 50.683C346.62 50.3377 346.139 49.8664 345.794 49.269C345.448 48.6624 345.276 47.9857 345.276 47.239C345.276 46.1004 345.654 45.1577 346.41 44.411C347.175 43.6644 348.132 43.291 349.28 43.291C350.036 43.291 350.717 43.4637 351.324 43.809C351.94 44.145 352.42 44.6164 352.766 45.223C353.12 45.8204 353.298 46.4924 353.298 47.239C353.298 48.3684 352.915 49.311 352.15 50.067C351.384 50.8137 350.428 51.187 349.28 51.187ZM347.278 49.255C347.81 49.7777 348.477 50.039 349.28 50.039C350.092 50.039 350.759 49.7777 351.282 49.255C351.814 48.723 352.08 48.051 352.08 47.239C352.08 46.427 351.814 45.7597 351.282 45.237C350.759 44.705 350.092 44.439 349.28 44.439C348.477 44.439 347.81 44.705 347.278 45.237C346.755 45.7597 346.494 46.427 346.494 47.239C346.494 48.051 346.755 48.723 347.278 49.255ZM358.816 43.851C359.89 43.851 360.772 44.1917 361.462 44.873C362.153 45.545 362.498 46.4084 362.498 47.463C362.498 48.555 362.139 49.451 361.42 50.151C360.702 50.8417 359.778 51.187 358.648 51.187C357.463 51.187 356.516 50.8137 355.806 50.067C355.106 49.311 354.756 48.303 354.756 47.043C354.756 45.1017 355.106 43.6504 355.806 42.689C356.506 41.7277 357.72 41.037 359.446 40.617L361.686 40.085V41.261L359.474 41.793C358.494 42.017 357.729 42.3857 357.178 42.899C356.628 43.4124 356.273 44.0937 356.114 44.943C356.777 44.215 357.678 43.851 358.816 43.851ZM358.648 50.039C359.395 50.039 360.02 49.7964 360.524 49.311C361.028 48.8164 361.28 48.205 361.28 47.477C361.28 46.7397 361.028 46.1237 360.524 45.629C360.02 45.1344 359.395 44.887 358.648 44.887C357.892 44.887 357.262 45.1344 356.758 45.629C356.254 46.1144 356.002 46.7257 356.002 47.463C356.002 47.827 356.068 48.1677 356.198 48.485C356.338 48.8024 356.525 49.073 356.758 49.297C356.992 49.521 357.272 49.703 357.598 49.843C357.925 49.9737 358.275 50.039 358.648 50.039ZM369.969 51.019H368.625L366.469 47.869L364.285 51.019H362.983L365.755 47.085L363.207 43.459H364.537L366.469 46.259L368.443 43.459H369.745L367.183 47.043L369.969 51.019ZM374.436 51.187C373.689 51.187 373.008 51.019 372.392 50.683C371.776 50.3377 371.295 49.8664 370.95 49.269C370.605 48.6624 370.432 47.9857 370.432 47.239C370.432 46.1004 370.81 45.1577 371.566 44.411C372.331 43.6644 373.288 43.291 374.436 43.291C375.192 43.291 375.873 43.4637 376.48 43.809C377.096 44.145 377.577 44.6164 377.922 45.223C378.277 45.8204 378.454 46.4924 378.454 47.239C378.454 48.3684 378.071 49.311 377.306 50.067C376.541 50.8137 375.584 51.187 374.436 51.187ZM372.434 49.255C372.966 49.7777 373.633 50.039 374.436 50.039C375.248 50.039 375.915 49.7777 376.438 49.255C376.97 48.723 377.236 48.051 377.236 47.239C377.236 46.427 376.97 45.7597 376.438 45.237C375.915 44.705 375.248 44.439 374.436 44.439C373.633 44.439 372.966 44.705 372.434 45.237C371.911 45.7597 371.65 46.427 371.65 47.239C371.65 48.051 371.911 48.723 372.434 49.255ZM386.427 49.899H387.449V53.021H386.357V51.019H380.267V53.021H379.175V49.899H379.987C380.211 49.6937 380.383 49.4044 380.505 49.031C380.626 48.6484 380.733 48.0697 380.827 47.295C380.929 46.511 381.051 45.2324 381.191 43.459H386.427V49.899ZM382.255 44.509C382.171 45.7597 382.082 46.735 381.989 47.435C381.905 48.1257 381.807 48.6577 381.695 49.031C381.583 49.395 381.438 49.6844 381.261 49.899H385.265V44.509H382.255ZM394.762 43.459H395.42V51.019H394.3V45.615L389.89 51.019H389.204V43.459H390.338V48.821L394.762 43.459ZM407.225 51.019H406.077L404.999 45.405L402.325 50.865H402.059L399.399 45.405L398.321 51.019H397.173L398.615 43.459H399.609L402.199 48.751L404.775 43.459H405.769L407.225 51.019ZM412.321 51.187C411.574 51.187 410.893 51.019 410.277 50.683C409.661 50.3377 409.18 49.8664 408.835 49.269C408.49 48.6624 408.317 47.9857 408.317 47.239C408.317 46.1004 408.695 45.1577 409.451 44.411C410.216 43.6644 411.173 43.291 412.321 43.291C413.077 43.291 413.758 43.4637 414.365 43.809C414.981 44.145 415.462 44.6164 415.807 45.223C416.162 45.8204 416.339 46.4924 416.339 47.239C416.339 48.3684 415.956 49.311 415.191 50.067C414.426 50.8137 413.469 51.187 412.321 51.187ZM410.319 49.255C410.851 49.7777 411.518 50.039 412.321 50.039C413.133 50.039 413.8 49.7777 414.323 49.255C414.855 48.723 415.121 48.051 415.121 47.239C415.121 46.427 414.855 45.7597 414.323 45.237C413.8 44.705 413.133 44.439 412.321 44.439C411.518 44.439 410.851 44.705 410.319 45.237C409.796 45.7597 409.535 46.427 409.535 47.239C409.535 48.051 409.796 48.723 410.319 49.255ZM425.143 51.187C424.406 51.187 423.734 51.019 423.127 50.683C422.53 50.3377 422.059 49.8617 421.713 49.255C421.377 48.6484 421.209 47.9764 421.209 47.239C421.209 46.1097 421.583 45.1717 422.329 44.425C423.085 43.669 424.023 43.291 425.143 43.291C426.039 43.291 426.814 43.5384 427.467 44.033C428.13 44.5277 428.578 45.1857 428.811 46.007H427.635C427.411 45.5217 427.075 45.139 426.627 44.859C426.189 44.579 425.694 44.439 425.143 44.439C424.369 44.439 423.72 44.7097 423.197 45.251C422.684 45.783 422.427 46.4457 422.427 47.239C422.427 47.7617 422.544 48.2377 422.777 48.667C423.011 49.087 423.333 49.423 423.743 49.675C424.163 49.9177 424.63 50.039 425.143 50.039C425.694 50.039 426.184 49.899 426.613 49.619C427.052 49.3297 427.388 48.933 427.621 48.429H428.825C428.592 49.269 428.139 49.941 427.467 50.445C426.805 50.9397 426.03 51.187 425.143 51.187ZM436.821 49.899H437.843V53.021H436.751V51.019H430.661V53.021H429.569V49.899H430.381C430.605 49.6937 430.778 49.4044 430.899 49.031C431.02 48.6484 431.128 48.0697 431.221 47.295C431.324 46.511 431.445 45.2324 431.585 43.459H436.821V49.899ZM432.649 44.509C432.565 45.7597 432.476 46.735 432.383 47.435C432.299 48.1257 432.201 48.6577 432.089 49.031C431.977 49.395 431.832 49.6844 431.655 49.899H435.659V44.509H432.649ZM446.532 47.267C446.532 47.3697 446.522 47.5144 446.504 47.701H440.05C440.143 48.401 440.432 48.9657 440.918 49.395C441.403 49.815 442 50.025 442.71 50.025C443.232 50.025 443.694 49.913 444.096 49.689C444.506 49.4557 444.833 49.129 445.076 48.709H446.322C446.004 49.493 445.528 50.1044 444.894 50.543C444.259 50.9724 443.531 51.187 442.71 51.187C441.618 51.187 440.703 50.809 439.966 50.053C439.228 49.297 438.86 48.359 438.86 47.239C438.86 46.1097 439.228 45.1717 439.966 44.425C440.703 43.669 441.618 43.291 442.71 43.291C443.839 43.291 444.758 43.6737 445.468 44.439C446.177 45.2044 446.532 46.147 446.532 47.267ZM442.71 44.425C442.262 44.425 441.851 44.5137 441.478 44.691C441.114 44.8684 440.81 45.125 440.568 45.461C440.325 45.7877 440.162 46.1657 440.078 46.595H445.328C445.244 46.1564 445.08 45.7737 444.838 45.447C444.595 45.111 444.292 44.859 443.928 44.691C443.564 44.5137 443.158 44.425 442.71 44.425ZM449.418 43.459H454.374V51.019H453.184V44.495H450.412L450.02 48.317C449.917 49.3157 449.66 50.025 449.25 50.445C448.839 50.8557 448.223 51.061 447.402 51.061H447.192V49.941H447.458C447.887 49.941 448.214 49.8197 448.438 49.577C448.662 49.325 448.802 48.9284 448.858 48.387L449.418 43.459ZM463.21 43.459H464.162V51.019H463.168L463.042 49.871C462.688 50.291 462.254 50.6177 461.74 50.851C461.236 51.075 460.681 51.187 460.074 51.187C458.964 51.187 458.035 50.8137 457.288 50.067C456.542 49.311 456.168 48.3684 456.168 47.239C456.168 46.1097 456.542 45.1717 457.288 44.425C458.035 43.669 458.964 43.291 460.074 43.291C460.69 43.291 461.25 43.4077 461.754 43.641C462.268 43.8744 462.702 44.201 463.056 44.621L463.21 43.459ZM458.17 49.241C458.702 49.773 459.37 50.039 460.172 50.039C460.975 50.039 461.638 49.773 462.16 49.241C462.683 48.709 462.944 48.0417 462.944 47.239C462.944 46.4364 462.683 45.769 462.16 45.237C461.638 44.705 460.975 44.439 460.172 44.439C459.37 44.439 458.702 44.7097 458.17 45.251C457.648 45.783 457.386 46.4457 457.386 47.239C457.386 48.0324 457.648 48.6997 458.17 49.241ZM472.383 43.459V44.537H469.569V51.019H468.407V44.537H465.593V43.459H472.383ZM476.857 45.839C477.651 45.839 478.299 46.0817 478.803 46.567C479.307 47.043 479.559 47.6684 479.559 48.443C479.559 49.199 479.307 49.8197 478.803 50.305C478.299 50.781 477.651 51.019 476.857 51.019H473.819V43.459H474.981V45.839H476.857ZM476.703 49.955C477.198 49.955 477.595 49.815 477.893 49.535C478.192 49.255 478.341 48.891 478.341 48.443C478.341 47.9857 478.192 47.617 477.893 47.337C477.595 47.0477 477.198 46.903 476.703 46.903H474.981V49.955H476.703ZM488.445 47.029C489.135 47.4024 489.481 48.0184 489.481 48.877C489.481 49.325 489.355 49.7264 489.103 50.081C488.86 50.4264 488.515 50.697 488.067 50.893C487.628 51.089 487.133 51.187 486.583 51.187C485.78 51.187 485.117 50.9817 484.595 50.571C484.081 50.1604 483.792 49.6097 483.727 48.919H484.805C484.879 49.2737 485.075 49.5537 485.393 49.759C485.71 49.955 486.107 50.053 486.583 50.053C487.087 50.053 487.502 49.9364 487.829 49.703C488.155 49.4697 488.319 49.1617 488.319 48.779C488.319 48.4244 488.179 48.1304 487.899 47.897C487.628 47.6637 487.283 47.547 486.863 47.547H485.743V46.581H486.863C487.255 46.581 487.567 46.483 487.801 46.287C488.043 46.0817 488.165 45.8204 488.165 45.503C488.165 45.1577 488.02 44.8777 487.731 44.663C487.441 44.4484 487.059 44.341 486.583 44.341C486.163 44.341 485.813 44.4344 485.533 44.621C485.253 44.8077 485.075 45.0597 485.001 45.377H483.923C483.96 44.9664 484.095 44.6024 484.329 44.285C484.571 43.9677 484.889 43.725 485.281 43.557C485.682 43.3797 486.125 43.291 486.611 43.291C487.385 43.291 488.025 43.4917 488.529 43.893C489.033 44.2944 489.285 44.7984 489.285 45.405C489.285 46.133 489.005 46.6744 488.445 47.029ZM497.787 43.459H498.739V51.019H497.745L497.619 49.871C497.264 50.291 496.83 50.6177 496.317 50.851C495.813 51.075 495.257 51.187 494.651 51.187C493.54 51.187 492.611 50.8137 491.865 50.067C491.118 49.311 490.745 48.3684 490.745 47.239C490.745 46.1097 491.118 45.1717 491.865 44.425C492.611 43.669 493.54 43.291 494.651 43.291C495.267 43.291 495.827 43.4077 496.331 43.641C496.844 43.8744 497.278 44.201 497.633 44.621L497.787 43.459ZM492.747 49.241C493.279 49.773 493.946 50.039 494.749 50.039C495.551 50.039 496.214 49.773 496.737 49.241C497.259 48.709 497.521 48.0417 497.521 47.239C497.521 46.4364 497.259 45.769 496.737 45.237C496.214 44.705 495.551 44.439 494.749 44.439C493.946 44.439 493.279 44.7097 492.747 45.251C492.224 45.783 491.963 46.4457 491.963 47.239C491.963 48.0324 492.224 48.6997 492.747 49.241ZM505.994 51.019L503.404 47.631H502.326V51.019H501.136V43.459H502.326V46.525H503.418L505.756 43.459H507.198L504.44 47.085L507.478 51.019H505.994ZM514.931 43.459H515.883V51.019H514.889L514.763 49.871C514.408 50.291 513.974 50.6177 513.461 50.851C512.957 51.075 512.402 51.187 511.795 51.187C510.684 51.187 509.756 50.8137 509.009 50.067C508.262 49.311 507.889 48.3684 507.889 47.239C507.889 46.1097 508.262 45.1717 509.009 44.425C509.756 43.669 510.684 43.291 511.795 43.291C512.411 43.291 512.971 43.4077 513.475 43.641C513.988 43.8744 514.422 44.201 514.777 44.621L514.931 43.459ZM509.891 49.241C510.423 49.773 511.09 50.039 511.893 50.039C512.696 50.039 513.358 49.773 513.881 49.241C514.404 48.709 514.665 48.0417 514.665 47.239C514.665 46.4364 514.404 45.769 513.881 45.237C513.358 44.705 512.696 44.439 511.893 44.439C511.09 44.439 510.423 44.7097 509.891 45.251C509.368 45.783 509.107 46.4457 509.107 47.239C509.107 48.0324 509.368 48.6997 509.891 49.241ZM522.214 47.029C522.905 47.4024 523.25 48.0184 523.25 48.877C523.25 49.325 523.124 49.7264 522.872 50.081C522.63 50.4264 522.284 50.697 521.836 50.893C521.398 51.089 520.903 51.187 520.352 51.187C519.55 51.187 518.887 50.9817 518.364 50.571C517.851 50.1604 517.562 49.6097 517.496 48.919H518.574C518.649 49.2737 518.845 49.5537 519.162 49.759C519.48 49.955 519.876 50.053 520.352 50.053C520.856 50.053 521.272 49.9364 521.598 49.703C521.925 49.4697 522.088 49.1617 522.088 48.779C522.088 48.4244 521.948 48.1304 521.668 47.897C521.398 47.6637 521.052 47.547 520.632 47.547H519.512V46.581H520.632C521.024 46.581 521.337 46.483 521.57 46.287C521.813 46.0817 521.934 45.8204 521.934 45.503C521.934 45.1577 521.79 44.8777 521.5 44.663C521.211 44.4484 520.828 44.341 520.352 44.341C519.932 44.341 519.582 44.4344 519.302 44.621C519.022 44.8077 518.845 45.0597 518.77 45.377H517.692C517.73 44.9664 517.865 44.6024 518.098 44.285C518.341 43.9677 518.658 43.725 519.05 43.557C519.452 43.3797 519.895 43.291 520.38 43.291C521.155 43.291 521.794 43.4917 522.298 43.893C522.802 44.2944 523.054 44.7984 523.054 45.405C523.054 46.133 522.774 46.6744 522.214 47.029ZM526.506 48.331V48.023C526.506 47.6964 526.539 47.407 526.604 47.155C526.679 46.903 526.8 46.6744 526.968 46.469C527.136 46.2544 527.276 46.0957 527.388 45.993C527.5 45.881 527.673 45.727 527.906 45.531C528.102 45.3724 528.256 45.2464 528.368 45.153C528.48 45.0504 528.602 44.9197 528.732 44.761C528.872 44.593 528.97 44.411 529.026 44.215C529.092 44.019 529.124 43.7997 529.124 43.557C529.124 43.2024 529.04 42.8897 528.872 42.619C528.714 42.3484 528.49 42.143 528.2 42.003C527.911 41.8537 527.584 41.779 527.22 41.779C526.688 41.779 526.236 41.933 525.862 42.241C525.498 42.5397 525.302 42.9457 525.274 43.459H524.14C524.178 42.591 524.49 41.9097 525.078 41.415C525.676 40.911 526.39 40.659 527.22 40.659C527.65 40.659 528.046 40.729 528.41 40.869C528.784 40.9997 529.11 41.1864 529.39 41.429C529.67 41.6717 529.89 41.9797 530.048 42.353C530.207 42.717 530.286 43.1184 530.286 43.557C530.286 43.837 530.254 44.0984 530.188 44.341C530.132 44.5744 530.062 44.775 529.978 44.943C529.904 45.1017 529.792 45.265 529.642 45.433C529.493 45.601 529.367 45.7317 529.264 45.825C529.162 45.909 529.022 46.0257 528.844 46.175C528.676 46.315 528.555 46.4177 528.48 46.483C528.415 46.539 528.317 46.637 528.186 46.777C528.065 46.9077 527.976 47.029 527.92 47.141C527.864 47.2437 527.813 47.3744 527.766 47.533C527.72 47.6824 527.696 47.8457 527.696 48.023V48.331H526.506ZM526.422 51.019V49.535H527.78V51.019H526.422Z" fill="#4B5258"/>
<defs>
<filter id="filter0_d_131_294" x="0" y="0.019043" width="1054" height="100" filterUnits="userSpaceOnUse" color-interpolation-filters="sRGB">
<feFlood flood-opacity="0" result="BackgroundImageFix"/>
<feColorMatrix in="SourceAlpha" type="matrix" values="0 0 0 0 0 0 0 0 0 0 0 0 0 0 0 0 0 0 127 0" result="hardAlpha"/>
<feOffset dy="3"/>
<feGaussianBlur stdDeviation="7.5"/>
<feComposite in2="hardAlpha" operator="out"/>
<feColorMatrix type="matrix" values="0 0 0 0 0 0 0 0 0 0 0 0 0 0 0 0 0 0 0.1 0"/>
<feBlend mode="normal" in2="BackgroundImageFix" result="effect1_dropShadow_131_294"/>
<feBlend mode="normal" in="SourceGraphic" in2="effect1_dropShadow_131_294" result="shape"/>
</filter>
</defs>
</svg>
