<svg width="1054" height="101" viewBox="0 0 1054 101" fill="none" xmlns="http://www.w3.org/2000/svg">
<g filter="url(#filter0_d_131_295)">
<rect x="15" y="12.0193" width="1024" height="70" rx="20" fill="white"/>
</g>
<path d="M52.322 51.0193L48.878 46.5253H47.562V51.0193H46.344V41.2193H47.562V45.3773H48.864L52 41.2193H53.568L49.984 45.9373L53.89 51.0193H52.322ZM60.9702 43.4593H61.9222V51.0193H60.9282L60.8022 49.8713C60.4475 50.2913 60.0135 50.618 59.5002 50.8513C58.9962 51.0753 58.4408 51.1873 57.8342 51.1873C56.7235 51.1873 55.7948 50.814 55.0482 50.0673C54.3015 49.3113 53.9282 48.3686 53.9282 47.2393C53.9282 46.11 54.3015 45.172 55.0482 44.4253C55.7948 43.6693 56.7235 43.2913 57.8342 43.2913C58.4502 43.2913 59.0102 43.408 59.5142 43.6413C60.0275 43.8746 60.4615 44.2013 60.8162 44.6213L60.9702 43.4593ZM55.9302 49.2413C56.4622 49.7733 57.1295 50.0393 57.9322 50.0393C58.7348 50.0393 59.3975 49.7733 59.9202 49.2413C60.4428 48.7093 60.7042 48.042 60.7042 47.2393C60.7042 46.4366 60.4428 45.7693 59.9202 45.2373C59.3975 44.7053 58.7348 44.4393 57.9322 44.4393C57.1295 44.4393 56.4622 44.71 55.9302 45.2513C55.4075 45.7833 55.1462 46.446 55.1462 47.2393C55.1462 48.0326 55.4075 48.7 55.9302 49.2413ZM69.1772 51.0193L66.5872 47.6313H65.5092V51.0193H64.3192V43.4593H65.5092V46.5253H66.6012L68.9392 43.4593H70.3812L67.6232 47.0853L70.6612 51.0193H69.1772ZM77.4378 43.4593H78.0958V51.0193H76.9758V45.6153L72.5658 51.0193H71.8798V43.4593H73.0138V48.8213L77.4378 43.4593ZM87.5767 47.2673C87.5767 47.37 87.5674 47.5146 87.5487 47.7013H81.0947C81.1881 48.4013 81.4774 48.966 81.9627 49.3953C82.4481 49.8153 83.0454 50.0253 83.7547 50.0253C84.2774 50.0253 84.7394 49.9133 85.1407 49.6893C85.5514 49.456 85.8781 49.1293 86.1207 48.7093H87.3667C87.0494 49.4933 86.5734 50.1046 85.9387 50.5433C85.3041 50.9726 84.5761 51.1873 83.7547 51.1873C82.6627 51.1873 81.7481 50.8093 81.0107 50.0533C80.2734 49.2973 79.9047 48.3593 79.9047 47.2393C79.9047 46.11 80.2734 45.172 81.0107 44.4253C81.7481 43.6693 82.6627 43.2913 83.7547 43.2913C84.8841 43.2913 85.8034 43.674 86.5127 44.4393C87.2221 45.2046 87.5767 46.1473 87.5767 47.2673ZM83.7547 44.4253C83.3067 44.4253 82.8961 44.514 82.5227 44.6913C82.1587 44.8686 81.8554 45.1253 81.6127 45.4613C81.3701 45.788 81.2067 46.166 81.1227 46.5953H86.3727C86.2887 46.1566 86.1254 45.774 85.8827 45.4473C85.6401 45.1113 85.3367 44.8593 84.9727 44.6913C84.6087 44.514 84.2027 44.4253 83.7547 44.4253ZM102.411 51.0193H101.263L100.185 45.4053L97.5105 50.8653H97.2445L94.5845 45.4053L93.5065 51.0193H92.3585L93.8005 43.4593H94.7945L97.3845 48.7513L99.9605 43.4593H100.955L102.411 51.0193ZM107.506 51.1873C106.76 51.1873 106.078 51.0193 105.462 50.6833C104.846 50.338 104.366 49.8666 104.02 49.2693C103.675 48.6626 103.502 47.986 103.502 47.2393C103.502 46.1006 103.88 45.158 104.636 44.4113C105.402 43.6646 106.358 43.2913 107.506 43.2913C108.262 43.2913 108.944 43.464 109.55 43.8093C110.166 44.1453 110.647 44.6166 110.992 45.2233C111.347 45.8206 111.524 46.4926 111.524 47.2393C111.524 48.3686 111.142 49.3113 110.376 50.0673C109.611 50.814 108.654 51.1873 107.506 51.1873ZM105.504 49.2553C106.036 49.778 106.704 50.0393 107.506 50.0393C108.318 50.0393 108.986 49.778 109.508 49.2553C110.04 48.7233 110.306 48.0513 110.306 47.2393C110.306 46.4273 110.04 45.76 109.508 45.2373C108.986 44.7053 108.318 44.4393 107.506 44.4393C106.704 44.4393 106.036 44.7053 105.504 45.2373C104.982 45.76 104.72 46.4273 104.72 47.2393C104.72 48.0513 104.982 48.7233 105.504 49.2553ZM119.661 43.2913C120.772 43.2913 121.691 43.6693 122.419 44.4253C123.156 45.172 123.525 46.1146 123.525 47.2533C123.525 48.3826 123.161 49.3206 122.433 50.0673C121.705 50.814 120.781 51.1873 119.661 51.1873C118.644 51.1873 117.776 50.8746 117.057 50.2493C116.348 49.6146 115.932 48.798 115.811 47.7993H114.523V51.0333H113.333V43.4593H114.523V46.6793H115.825C115.881 46.194 116.016 45.7413 116.231 45.3213C116.455 44.9013 116.735 44.542 117.071 44.2433C117.407 43.9446 117.794 43.7113 118.233 43.5433C118.681 43.3753 119.157 43.2913 119.661 43.2913ZM119.661 50.0393C120.034 50.0393 120.384 49.9693 120.711 49.8293C121.047 49.68 121.332 49.484 121.565 49.2413C121.798 48.9986 121.98 48.7046 122.111 48.3593C122.251 48.014 122.321 47.6453 122.321 47.2533C122.321 46.4506 122.064 45.7833 121.551 45.2513C121.047 44.71 120.417 44.4393 119.661 44.4393C118.896 44.4393 118.261 44.71 117.757 45.2513C117.253 45.7833 117.001 46.4506 117.001 47.2533C117.001 47.776 117.113 48.252 117.337 48.6813C117.57 49.1013 117.888 49.4326 118.289 49.6753C118.7 49.918 119.157 50.0393 119.661 50.0393ZM134.745 49.9133H135.795V53.0213H134.703V51.0193H125.337V43.4593H126.499V49.9133H129.467V43.4593H130.615V49.9133H133.569V43.4593H134.745V49.9133ZM143.076 43.4593H143.734V51.0193H142.614V45.6153L138.204 51.0193H137.518V43.4593H138.652V48.8213L143.076 43.4593ZM153.215 47.2673C153.215 47.37 153.206 47.5146 153.187 47.7013H146.733C146.827 48.4013 147.116 48.966 147.601 49.3953C148.087 49.8153 148.684 50.0253 149.393 50.0253C149.916 50.0253 150.378 49.9133 150.779 49.6893C151.19 49.456 151.517 49.1293 151.759 48.7093H153.005C152.688 49.4933 152.212 50.1046 151.577 50.5433C150.943 50.9726 150.215 51.1873 149.393 51.1873C148.301 51.1873 147.387 50.8093 146.649 50.0533C145.912 49.2973 145.543 48.3593 145.543 47.2393C145.543 46.11 145.912 45.172 146.649 44.4253C147.387 43.6693 148.301 43.2913 149.393 43.2913C150.523 43.2913 151.442 43.674 152.151 44.4393C152.861 45.2046 153.215 46.1473 153.215 47.2673ZM149.393 44.4253C148.945 44.4253 148.535 44.514 148.161 44.6913C147.797 44.8686 147.494 45.1253 147.251 45.4613C147.009 45.788 146.845 46.166 146.761 46.5953H152.011C151.927 46.1566 151.764 45.774 151.521 45.4473C151.279 45.1113 150.975 44.8593 150.611 44.6913C150.247 44.514 149.841 44.4253 149.393 44.4253ZM161.987 51.1873C161.25 51.1873 160.578 51.0193 159.971 50.6833C159.374 50.338 158.903 49.862 158.557 49.2553C158.221 48.6486 158.053 47.9766 158.053 47.2393C158.053 46.11 158.427 45.172 159.173 44.4253C159.929 43.6693 160.867 43.2913 161.987 43.2913C162.883 43.2913 163.658 43.5386 164.311 44.0333C164.974 44.528 165.422 45.186 165.655 46.0073H164.479C164.255 45.522 163.919 45.1393 163.471 44.8593C163.033 44.5793 162.538 44.4393 161.987 44.4393C161.213 44.4393 160.564 44.71 160.041 45.2513C159.528 45.7833 159.271 46.446 159.271 47.2393C159.271 47.762 159.388 48.238 159.621 48.6673C159.855 49.0873 160.177 49.4233 160.587 49.6753C161.007 49.918 161.474 50.0393 161.987 50.0393C162.538 50.0393 163.028 49.8993 163.457 49.6193C163.896 49.33 164.232 48.9333 164.465 48.4293H165.669C165.436 49.2693 164.983 49.9413 164.311 50.4453C163.649 50.94 162.874 51.1873 161.987 51.1873ZM171.341 43.2913C172.47 43.2913 173.399 43.6646 174.127 44.4113C174.864 45.158 175.233 46.1006 175.233 47.2393C175.233 48.3686 174.864 49.3113 174.127 50.0673C173.399 50.814 172.47 51.1873 171.341 51.1873C170.202 51.1873 169.264 50.7953 168.527 50.0113V53.7213H167.337V43.4593H168.149L168.387 44.6213C168.741 44.2013 169.171 43.8746 169.675 43.6413C170.188 43.408 170.743 43.2913 171.341 43.2913ZM171.257 50.0393C172.059 50.0393 172.722 49.7733 173.245 49.2413C173.767 48.7093 174.029 48.042 174.029 47.2393C174.029 46.4366 173.767 45.7693 173.245 45.2373C172.722 44.7053 172.059 44.4393 171.257 44.4393C170.454 44.4393 169.787 44.71 169.255 45.2513C168.732 45.7833 168.471 46.446 168.471 47.2393C168.471 47.762 168.587 48.238 168.821 48.6673C169.063 49.0966 169.399 49.4326 169.829 49.6753C170.258 49.918 170.734 50.0393 171.257 50.0393ZM184.114 47.2673C184.114 47.37 184.105 47.5146 184.086 47.7013H177.632C177.725 48.4013 178.015 48.966 178.5 49.3953C178.985 49.8153 179.583 50.0253 180.292 50.0253C180.815 50.0253 181.277 49.9133 181.678 49.6893C182.089 49.456 182.415 49.1293 182.658 48.7093H183.904C183.587 49.4933 183.111 50.1046 182.476 50.5433C181.841 50.9726 181.113 51.1873 180.292 51.1873C179.2 51.1873 178.285 50.8093 177.548 50.0533C176.811 49.2973 176.442 48.3593 176.442 47.2393C176.442 46.11 176.811 45.172 177.548 44.4253C178.285 43.6693 179.2 43.2913 180.292 43.2913C181.421 43.2913 182.341 43.674 183.05 44.4393C183.759 45.2046 184.114 46.1473 184.114 47.2673ZM180.292 44.4253C179.844 44.4253 179.433 44.514 179.06 44.6913C178.696 44.8686 178.393 45.1253 178.15 45.4613C177.907 45.788 177.744 46.166 177.66 46.5953H182.91C182.826 46.1566 182.663 45.774 182.42 45.4473C182.177 45.1113 181.874 44.8593 181.51 44.6913C181.146 44.514 180.74 44.4253 180.292 44.4253ZM192.095 49.8993H193.117V53.0213H192.025V51.0193H185.935V53.0213H184.843V49.8993H185.655C185.879 49.694 186.051 49.4046 186.173 49.0313C186.294 48.6486 186.401 48.07 186.495 47.2953C186.597 46.5113 186.719 45.2326 186.859 43.4593H192.095V49.8993ZM187.923 44.5093C187.839 45.76 187.75 46.7353 187.657 47.4353C187.573 48.126 187.475 48.658 187.363 49.0313C187.251 49.3953 187.106 49.6846 186.929 49.8993H190.933V44.5093H187.923ZM198.067 51.1873C197.33 51.1873 196.658 51.0193 196.051 50.6833C195.454 50.338 194.983 49.862 194.637 49.2553C194.301 48.6486 194.133 47.9766 194.133 47.2393C194.133 46.11 194.507 45.172 195.253 44.4253C196.009 43.6693 196.947 43.2913 198.067 43.2913C198.963 43.2913 199.738 43.5386 200.391 44.0333C201.054 44.528 201.502 45.186 201.735 46.0073H200.559C200.335 45.522 199.999 45.1393 199.551 44.8593C199.113 44.5793 198.618 44.4393 198.067 44.4393C197.293 44.4393 196.644 44.71 196.121 45.2513C195.608 45.7833 195.351 46.446 195.351 47.2393C195.351 47.762 195.468 48.238 195.701 48.6673C195.935 49.0873 196.257 49.4233 196.667 49.6753C197.087 49.918 197.554 50.0393 198.067 50.0393C198.618 50.0393 199.108 49.8993 199.537 49.6193C199.976 49.33 200.312 48.9333 200.545 48.4293H201.749C201.516 49.2693 201.063 49.9413 200.391 50.4453C199.729 50.94 198.954 51.1873 198.067 51.1873ZM209.173 43.4593V44.5373H206.359V51.0193H205.197V44.5373H202.383V43.4593H209.173ZM215.466 47.0993C215.849 47.2393 216.152 47.4726 216.376 47.7993C216.61 48.126 216.726 48.4946 216.726 48.9053C216.726 49.512 216.502 50.016 216.054 50.4173C215.616 50.8186 215.065 51.0193 214.402 51.0193H210.608V43.4593H214.36C214.986 43.4593 215.494 43.6413 215.886 44.0053C216.278 44.36 216.474 44.8173 216.474 45.3773C216.474 45.6293 216.432 45.8673 216.348 46.0913C216.264 46.3153 216.148 46.516 215.998 46.6933C215.849 46.8613 215.672 46.9966 215.466 47.0993ZM215.298 45.5873C215.298 45.2793 215.196 45.0366 214.99 44.8593C214.785 44.6726 214.519 44.5793 214.192 44.5793H211.77V46.5813H214.192C214.528 46.5813 214.794 46.4926 214.99 46.3153C215.196 46.1286 215.298 45.886 215.298 45.5873ZM214.262 49.8993C214.496 49.8993 214.706 49.8526 214.892 49.7593C215.088 49.6566 215.238 49.5213 215.34 49.3533C215.443 49.1853 215.494 48.9986 215.494 48.7933C215.494 48.5786 215.443 48.3873 215.34 48.2193C215.238 48.042 215.088 47.9066 214.892 47.8133C214.706 47.72 214.491 47.6733 214.248 47.6733H211.77V49.8993H214.262ZM225.087 43.4593H226.039V51.0193H225.045L224.919 49.8713C224.565 50.2913 224.131 50.618 223.617 50.8513C223.113 51.0753 222.558 51.1873 221.951 51.1873C220.841 51.1873 219.912 50.814 219.165 50.0673C218.419 49.3113 218.045 48.3686 218.045 47.2393C218.045 46.11 218.419 45.172 219.165 44.4253C219.912 43.6693 220.841 43.2913 221.951 43.2913C222.567 43.2913 223.127 43.408 223.631 43.6413C224.145 43.8746 224.579 44.2013 224.933 44.6213L225.087 43.4593ZM220.047 49.2413C220.579 49.7733 221.247 50.0393 222.049 50.0393C222.852 50.0393 223.515 49.7733 224.037 49.2413C224.56 48.7093 224.821 48.042 224.821 47.2393C224.821 46.4366 224.56 45.7693 224.037 45.2373C223.515 44.7053 222.852 44.4393 222.049 44.4393C221.247 44.4393 220.579 44.71 220.047 45.2513C219.525 45.7833 219.263 46.446 219.263 47.2393C219.263 48.0326 219.525 48.7 220.047 49.2413ZM236.958 47.0993C237.341 47.2393 237.644 47.4726 237.868 47.7993C238.102 48.126 238.218 48.4946 238.218 48.9053C238.218 49.512 237.994 50.016 237.546 50.4173C237.108 50.8186 236.557 51.0193 235.894 51.0193H232.1V43.4593H235.852C236.478 43.4593 236.986 43.6413 237.378 44.0053C237.77 44.36 237.966 44.8173 237.966 45.3773C237.966 45.6293 237.924 45.8673 237.84 46.0913C237.756 46.3153 237.64 46.516 237.49 46.6933C237.341 46.8613 237.164 46.9966 236.958 47.0993ZM236.79 45.5873C236.79 45.2793 236.688 45.0366 236.482 44.8593C236.277 44.6726 236.011 44.5793 235.684 44.5793H233.262V46.5813H235.684C236.02 46.5813 236.286 46.4926 236.482 46.3153C236.688 46.1286 236.79 45.886 236.79 45.5873ZM235.754 49.8993C235.988 49.8993 236.198 49.8526 236.384 49.7593C236.58 49.6566 236.73 49.5213 236.832 49.3533C236.935 49.1853 236.986 48.9986 236.986 48.7933C236.986 48.5786 236.935 48.3873 236.832 48.2193C236.73 48.042 236.58 47.9066 236.384 47.8133C236.198 47.72 235.983 47.6733 235.74 47.6733H233.262V49.8993H235.754ZM243.178 45.8393C243.971 45.8393 244.62 46.082 245.124 46.5673C245.628 47.0433 245.88 47.6686 245.88 48.4433C245.88 49.1993 245.628 49.82 245.124 50.3053C244.62 50.7813 243.971 51.0193 243.178 51.0193H240.14V43.4593H241.302V45.8393H243.178ZM247.252 43.4593H248.442V51.0193H247.252V43.4593ZM243.024 49.9553C243.518 49.9553 243.915 49.8153 244.214 49.5353C244.512 49.2553 244.662 48.8913 244.662 48.4433C244.662 47.986 244.512 47.6173 244.214 47.3373C243.915 47.048 243.518 46.9033 243.024 46.9033H241.302V49.9553H243.024ZM260.067 43.4593H260.725V51.0193H259.605V45.6153L255.195 51.0193H254.509V43.4593H255.643V48.8213L260.067 43.4593ZM266.468 51.1873C265.73 51.1873 265.058 51.0193 264.452 50.6833C263.854 50.338 263.383 49.862 263.038 49.2553C262.702 48.6486 262.534 47.9766 262.534 47.2393C262.534 46.11 262.907 45.172 263.654 44.4253C264.41 43.6693 265.348 43.2913 266.468 43.2913C267.364 43.2913 268.138 43.5386 268.792 44.0333C269.454 44.528 269.902 45.186 270.136 46.0073H268.96C268.736 45.522 268.4 45.1393 267.952 44.8593C267.513 44.5793 267.018 44.4393 266.468 44.4393C265.693 44.4393 265.044 44.71 264.522 45.2513C264.008 45.7833 263.752 46.446 263.752 47.2393C263.752 47.762 263.868 48.238 264.102 48.6673C264.335 49.0873 264.657 49.4233 265.068 49.6753C265.488 49.918 265.954 50.0393 266.468 50.0393C267.018 50.0393 267.508 49.8993 267.938 49.6193C268.376 49.33 268.712 48.9333 268.946 48.4293H270.15C269.916 49.2693 269.464 49.9413 268.792 50.4453C268.129 50.94 267.354 51.1873 266.468 51.1873ZM271.817 43.4593H278.229V51.0193H277.053V44.5513H273.007V51.0193H271.817V43.4593ZM284.038 51.1873C283.291 51.1873 282.61 51.0193 281.994 50.6833C281.378 50.338 280.897 49.8666 280.552 49.2693C280.206 48.6626 280.034 47.986 280.034 47.2393C280.034 46.1006 280.412 45.158 281.168 44.4113C281.933 43.6646 282.89 43.2913 284.038 43.2913C284.794 43.2913 285.475 43.464 286.082 43.8093C286.698 44.1453 287.178 44.6166 287.524 45.2233C287.878 45.8206 288.056 46.4926 288.056 47.2393C288.056 48.3686 287.673 49.3113 286.908 50.0673C286.142 50.814 285.186 51.1873 284.038 51.1873ZM282.036 49.2553C282.568 49.778 283.235 50.0393 284.038 50.0393C284.85 50.0393 285.517 49.778 286.04 49.2553C286.572 48.7233 286.838 48.0513 286.838 47.2393C286.838 46.4273 286.572 45.76 286.04 45.2373C285.517 44.7053 284.85 44.4393 284.038 44.4393C283.235 44.4393 282.568 44.7053 282.036 45.2373C281.513 45.76 281.252 46.4273 281.252 47.2393C281.252 48.0513 281.513 48.7233 282.036 49.2553ZM290.947 43.4593H295.903V51.0193H294.713V44.4953H291.941L291.549 48.3173C291.446 49.316 291.19 50.0253 290.779 50.4453C290.368 50.856 289.752 51.0613 288.931 51.0613H288.721V49.9413H288.987C289.416 49.9413 289.743 49.82 289.967 49.5773C290.191 49.3253 290.331 48.9286 290.387 48.3873L290.947 43.4593ZM301.338 45.8393C302.131 45.8393 302.78 46.082 303.284 46.5673C303.788 47.0433 304.04 47.6686 304.04 48.4433C304.04 49.1993 303.788 49.82 303.284 50.3053C302.78 50.7813 302.131 51.0193 301.338 51.0193H298.3V43.4593H299.462V45.8393H301.338ZM301.184 49.9553C301.678 49.9553 302.075 49.8153 302.374 49.5353C302.672 49.2553 302.822 48.8913 302.822 48.4433C302.822 47.986 302.672 47.6173 302.374 47.3373C302.075 47.048 301.678 46.9033 301.184 46.9033H299.462V49.9553H301.184ZM309.603 47.0293C310.294 47.4026 310.639 48.0186 310.639 48.8773C310.639 49.3253 310.513 49.7266 310.261 50.0813C310.018 50.4266 309.673 50.6973 309.225 50.8933C308.786 51.0893 308.292 51.1873 307.741 51.1873C306.938 51.1873 306.276 50.982 305.753 50.5713C305.24 50.1606 304.95 49.61 304.885 48.9193H305.963C306.038 49.274 306.234 49.554 306.551 49.7593C306.868 49.9553 307.265 50.0533 307.741 50.0533C308.245 50.0533 308.66 49.9366 308.987 49.7033C309.314 49.47 309.477 49.162 309.477 48.7793C309.477 48.4246 309.337 48.1306 309.057 47.8973C308.786 47.664 308.441 47.5473 308.021 47.5473H306.901V46.5813H308.021C308.413 46.5813 308.726 46.4833 308.959 46.2873C309.202 46.082 309.323 45.8206 309.323 45.5033C309.323 45.158 309.178 44.878 308.889 44.6633C308.6 44.4486 308.217 44.3413 307.741 44.3413C307.321 44.3413 306.971 44.4346 306.691 44.6213C306.411 44.808 306.234 45.06 306.159 45.3773H305.081C305.118 44.9666 305.254 44.6026 305.487 44.2853C305.73 43.968 306.047 43.7253 306.439 43.5573C306.84 43.38 307.284 43.2913 307.769 43.2913C308.544 43.2913 309.183 43.492 309.687 43.8933C310.191 44.2946 310.443 44.7986 310.443 45.4053C310.443 46.1333 310.163 46.6746 309.603 47.0293ZM317.898 43.4593H319.172L315.574 51.3273C315.294 51.9433 315.018 52.4193 314.748 52.7553C314.477 53.0913 314.174 53.334 313.838 53.4833C313.502 53.642 313.091 53.7213 312.606 53.7213H311.892V52.6433H312.508C313.012 52.6433 313.39 52.5406 313.642 52.3353C313.894 52.13 314.174 51.71 314.482 51.0753L314.748 50.5013L311.388 43.4593H312.69L315.378 49.1853L317.898 43.4593ZM327.395 47.2673C327.395 47.37 327.386 47.5146 327.367 47.7013H320.913C321.006 48.4013 321.296 48.966 321.781 49.3953C322.266 49.8153 322.864 50.0253 323.573 50.0253C324.096 50.0253 324.558 49.9133 324.959 49.6893C325.37 49.456 325.696 49.1293 325.939 48.7093H327.185C326.868 49.4933 326.392 50.1046 325.757 50.5433C325.122 50.9726 324.394 51.1873 323.573 51.1873C322.481 51.1873 321.566 50.8093 320.829 50.0533C320.092 49.2973 319.723 48.3593 319.723 47.2393C319.723 46.11 320.092 45.172 320.829 44.4253C321.566 43.6693 322.481 43.2913 323.573 43.2913C324.702 43.2913 325.622 43.674 326.331 44.4393C327.04 45.2046 327.395 46.1473 327.395 47.2673ZM323.573 44.4253C323.125 44.4253 322.714 44.514 322.341 44.6913C321.977 44.8686 321.674 45.1253 321.431 45.4613C321.188 45.788 321.025 46.166 320.941 46.5953H326.191C326.107 46.1566 325.944 45.774 325.701 45.4473C325.458 45.1113 325.155 44.8593 324.791 44.6913C324.427 44.514 324.021 44.4253 323.573 44.4253ZM334.762 43.4593V44.5373H331.948V51.0193H330.786V44.5373H327.972V43.4593H334.762ZM343.022 47.2673C343.022 47.37 343.013 47.5146 342.994 47.7013H336.54C336.633 48.4013 336.923 48.966 337.408 49.3953C337.893 49.8153 338.491 50.0253 339.2 50.0253C339.723 50.0253 340.185 49.9133 340.586 49.6893C340.997 49.456 341.323 49.1293 341.566 48.7093H342.812C342.495 49.4933 342.019 50.1046 341.384 50.5433C340.749 50.9726 340.021 51.1873 339.2 51.1873C338.108 51.1873 337.193 50.8093 336.456 50.0533C335.719 49.2973 335.35 48.3593 335.35 47.2393C335.35 46.11 335.719 45.172 336.456 44.4253C337.193 43.6693 338.108 43.2913 339.2 43.2913C340.329 43.2913 341.249 43.674 341.958 44.4393C342.667 45.2046 343.022 46.1473 343.022 47.2673ZM339.2 44.4253C338.752 44.4253 338.341 44.514 337.968 44.6913C337.604 44.8686 337.301 45.1253 337.058 45.4613C336.815 45.788 336.652 46.166 336.568 46.5953H341.818C341.734 46.1566 341.571 45.774 341.328 45.4473C341.085 45.1113 340.782 44.8593 340.418 44.6913C340.054 44.514 339.648 44.4253 339.2 44.4253ZM346.024 48.3313V48.0233C346.024 47.6966 346.057 47.4073 346.122 47.1553C346.197 46.9033 346.318 46.6746 346.486 46.4693C346.654 46.2546 346.794 46.096 346.906 45.9933C347.018 45.8813 347.191 45.7273 347.424 45.5313C347.62 45.3726 347.774 45.2466 347.886 45.1533C347.998 45.0506 348.119 44.92 348.25 44.7613C348.39 44.5933 348.488 44.4113 348.544 44.2153C348.609 44.0193 348.642 43.8 348.642 43.5573C348.642 43.2026 348.558 42.89 348.39 42.6193C348.231 42.3486 348.007 42.1433 347.718 42.0033C347.429 41.854 347.102 41.7793 346.738 41.7793C346.206 41.7793 345.753 41.9333 345.38 42.2413C345.016 42.54 344.82 42.946 344.792 43.4593H343.658C343.695 42.5913 344.008 41.91 344.596 41.4153C345.193 40.9113 345.907 40.6593 346.738 40.6593C347.167 40.6593 347.564 40.7293 347.928 40.8693C348.301 41 348.628 41.1866 348.908 41.4293C349.188 41.672 349.407 41.98 349.566 42.3533C349.725 42.7173 349.804 43.1186 349.804 43.5573C349.804 43.8373 349.771 44.0986 349.706 44.3413C349.65 44.5746 349.58 44.7753 349.496 44.9433C349.421 45.102 349.309 45.2653 349.16 45.4333C349.011 45.6013 348.885 45.732 348.782 45.8253C348.679 45.9093 348.539 46.026 348.362 46.1753C348.194 46.3153 348.073 46.418 347.998 46.4833C347.933 46.5393 347.835 46.6373 347.704 46.7773C347.583 46.908 347.494 47.0293 347.438 47.1413C347.382 47.244 347.331 47.3746 347.284 47.5333C347.237 47.6826 347.214 47.846 347.214 48.0233V48.3313H346.024ZM345.94 51.0193V49.5353H347.298V51.0193H345.94Z" fill="#4B5258"/>
<defs>
<filter id="filter0_d_131_295" x="0" y="0.0192871" width="1054" height="100" filterUnits="userSpaceOnUse" color-interpolation-filters="sRGB">
<feFlood flood-opacity="0" result="BackgroundImageFix"/>
<feColorMatrix in="SourceAlpha" type="matrix" values="0 0 0 0 0 0 0 0 0 0 0 0 0 0 0 0 0 0 127 0" result="hardAlpha"/>
<feOffset dy="3"/>
<feGaussianBlur stdDeviation="7.5"/>
<feComposite in2="hardAlpha" operator="out"/>
<feColorMatrix type="matrix" values="0 0 0 0 0 0 0 0 0 0 0 0 0 0 0 0 0 0 0.1 0"/>
<feBlend mode="normal" in2="BackgroundImageFix" result="effect1_dropShadow_131_295"/>
<feBlend mode="normal" in="SourceGraphic" in2="effect1_dropShadow_131_295" result="shape"/>
</filter>
</defs>
</svg>
