<svg width="328" height="180" viewBox="0 0 328 180" fill="none" xmlns="http://www.w3.org/2000/svg">
<rect width="328" height="180" rx="30" fill="#43AAFF"/>
<path d="M36.056 132.3H41.666V140H40.687V133.202H37.013V140H36.056V132.3ZM46.246 140.132C45.6593 140.132 45.124 140 44.64 139.736C44.156 139.465 43.7783 139.094 43.507 138.625C43.2356 138.148 43.1 137.617 43.1 137.03C43.1 136.135 43.397 135.395 43.991 134.808C44.5923 134.221 45.344 133.928 46.246 133.928C46.84 133.928 47.3753 134.064 47.852 134.335C48.336 134.599 48.7136 134.969 48.985 135.446C49.2636 135.915 49.403 136.443 49.403 137.03C49.403 137.917 49.1023 138.658 48.501 139.252C47.8996 139.839 47.148 140.132 46.246 140.132ZM44.673 138.614C45.091 139.025 45.6153 139.23 46.246 139.23C46.884 139.23 47.4083 139.025 47.819 138.614C48.237 138.196 48.446 137.668 48.446 137.03C48.446 136.392 48.237 135.868 47.819 135.457C47.4083 135.039 46.884 134.83 46.246 134.83C45.6153 134.83 45.091 135.039 44.673 135.457C44.2623 135.868 44.057 136.392 44.057 137.03C44.057 137.668 44.2623 138.196 44.673 138.614ZM53.4419 140.132C52.8626 140.132 52.3346 140 51.8579 139.736C51.3886 139.465 51.0183 139.091 50.7469 138.614C50.4829 138.137 50.3509 137.609 50.3509 137.03C50.3509 136.143 50.6443 135.406 51.2309 134.819C51.8249 134.225 52.5619 133.928 53.4419 133.928C54.1459 133.928 54.7546 134.122 55.2679 134.511C55.7886 134.9 56.1406 135.417 56.3239 136.062H55.3999C55.2239 135.681 54.9599 135.38 54.6079 135.16C54.2633 134.94 53.8746 134.83 53.4419 134.83C52.8333 134.83 52.3236 135.043 51.9129 135.468C51.5096 135.886 51.3079 136.407 51.3079 137.03C51.3079 137.441 51.3996 137.815 51.5829 138.152C51.7663 138.482 52.0193 138.746 52.3419 138.944C52.6719 139.135 53.0386 139.23 53.4419 139.23C53.8746 139.23 54.2596 139.12 54.5969 138.9C54.9416 138.673 55.2056 138.361 55.3889 137.965H56.3349C56.1516 138.625 55.7959 139.153 55.2679 139.549C54.7473 139.938 54.1386 140.132 53.4419 140.132ZM65.0262 140H64.1242L63.2772 135.589L61.1762 139.879H60.9672L58.8772 135.589L58.0302 140H57.1282L58.2612 134.06H59.0422L61.0772 138.218L63.1012 134.06H63.8822L65.0262 140ZM69.0301 140.132C68.4435 140.132 67.9081 140 67.4241 139.736C66.9401 139.465 66.5625 139.094 66.2911 138.625C66.0198 138.148 65.8841 137.617 65.8841 137.03C65.8841 136.135 66.1811 135.395 66.7751 134.808C67.3765 134.221 68.1281 133.928 69.0301 133.928C69.6241 133.928 70.1595 134.064 70.6361 134.335C71.1201 134.599 71.4978 134.969 71.7691 135.446C72.0478 135.915 72.1871 136.443 72.1871 137.03C72.1871 137.917 71.8865 138.658 71.2851 139.252C70.6838 139.839 69.9321 140.132 69.0301 140.132ZM67.4571 138.614C67.8751 139.025 68.3995 139.23 69.0301 139.23C69.6681 139.23 70.1925 139.025 70.6031 138.614C71.0211 138.196 71.2301 137.668 71.2301 137.03C71.2301 136.392 71.0211 135.868 70.6031 135.457C70.1925 135.039 69.6681 134.83 69.0301 134.83C68.3995 134.83 67.8751 135.039 67.4571 135.457C67.0465 135.868 66.8411 136.392 66.8411 137.03C66.8411 137.668 67.0465 138.196 67.4571 138.614ZM77.9908 134.06V134.907H75.7798V140H74.8668V134.907H72.6558V134.06H77.9908ZM82.2649 133.928C83.1522 133.928 83.8819 134.221 84.4539 134.808C85.0332 135.395 85.3229 136.135 85.3229 137.03C85.3229 137.917 85.0332 138.658 84.4539 139.252C83.8819 139.839 83.1522 140.132 82.2649 140.132C81.3702 140.132 80.6332 139.824 80.0539 139.208V142.123H79.1189V134.06H79.7569L79.9439 134.973C80.2225 134.643 80.5599 134.386 80.9559 134.203C81.3592 134.02 81.7955 133.928 82.2649 133.928ZM82.1989 139.23C82.8295 139.23 83.3502 139.021 83.7609 138.603C84.1715 138.185 84.3769 137.661 84.3769 137.03C84.3769 136.399 84.1715 135.875 83.7609 135.457C83.3502 135.039 82.8295 134.83 82.1989 134.83C81.5682 134.83 81.0439 135.043 80.6259 135.468C80.2152 135.886 80.0099 136.407 80.0099 137.03C80.0099 137.441 80.1015 137.815 80.2849 138.152C80.4755 138.489 80.7395 138.753 81.0769 138.944C81.4142 139.135 81.7882 139.23 82.1989 139.23ZM92.3008 137.052C92.3008 137.133 92.2935 137.246 92.2788 137.393H87.2078C87.2811 137.943 87.5085 138.387 87.8898 138.724C88.2711 139.054 88.7405 139.219 89.2978 139.219C89.7085 139.219 90.0715 139.131 90.3868 138.955C90.7095 138.772 90.9661 138.515 91.1568 138.185H92.1358C91.8865 138.801 91.5125 139.281 91.0138 139.626C90.5151 139.963 89.9431 140.132 89.2978 140.132C88.4398 140.132 87.7211 139.835 87.1418 139.241C86.5625 138.647 86.2728 137.91 86.2728 137.03C86.2728 136.143 86.5625 135.406 87.1418 134.819C87.7211 134.225 88.4398 133.928 89.2978 133.928C90.1851 133.928 90.9075 134.229 91.4648 134.83C92.0221 135.431 92.3008 136.172 92.3008 137.052ZM89.2978 134.819C88.9458 134.819 88.6231 134.889 88.3298 135.028C88.0438 135.167 87.8055 135.369 87.6148 135.633C87.4241 135.89 87.2958 136.187 87.2298 136.524H91.3548C91.2888 136.179 91.1605 135.879 90.9698 135.622C90.7791 135.358 90.5408 135.16 90.2548 135.028C89.9688 134.889 89.6498 134.819 89.2978 134.819ZM98.0894 134.06V134.907H95.8784V140H94.9654V134.907H92.7544V134.06H98.0894ZM101.604 135.93C102.228 135.93 102.737 136.121 103.133 136.502C103.529 136.876 103.727 137.367 103.727 137.976C103.727 138.57 103.529 139.058 103.133 139.439C102.737 139.813 102.228 140 101.604 140H99.2175V134.06H100.13V135.93H101.604ZM101.483 139.164C101.872 139.164 102.184 139.054 102.418 138.834C102.653 138.614 102.77 138.328 102.77 137.976C102.77 137.617 102.653 137.327 102.418 137.107C102.184 136.88 101.872 136.766 101.483 136.766H100.13V139.164H101.483ZM112.59 139.12H113.393V141.573H112.535V140H107.75V141.573H106.892V139.12H107.53C107.706 138.959 107.842 138.731 107.937 138.438C108.032 138.137 108.117 137.683 108.19 137.074C108.271 136.458 108.366 135.453 108.476 134.06H112.59V139.12ZM109.312 134.885C109.246 135.868 109.176 136.634 109.103 137.184C109.037 137.727 108.96 138.145 108.872 138.438C108.784 138.724 108.67 138.951 108.531 139.12H111.677V134.885H109.312ZM117.338 140.132C116.751 140.132 116.216 140 115.732 139.736C115.248 139.465 114.87 139.094 114.599 138.625C114.327 138.148 114.192 137.617 114.192 137.03C114.192 136.135 114.489 135.395 115.083 134.808C115.684 134.221 116.436 133.928 117.338 133.928C117.932 133.928 118.467 134.064 118.944 134.335C119.428 134.599 119.805 134.969 120.077 135.446C120.355 135.915 120.495 136.443 120.495 137.03C120.495 137.917 120.194 138.658 119.593 139.252C118.991 139.839 118.24 140.132 117.338 140.132ZM115.765 138.614C116.183 139.025 116.707 139.23 117.338 139.23C117.976 139.23 118.5 139.025 118.911 138.614C119.329 138.196 119.538 137.668 119.538 137.03C119.538 136.392 119.329 135.868 118.911 135.457C118.5 135.039 117.976 134.83 117.338 134.83C116.707 134.83 116.183 135.039 115.765 135.457C115.354 135.868 115.149 136.392 115.149 137.03C115.149 137.668 115.354 138.196 115.765 138.614ZM125.612 134.06V134.896H122.829V140H121.916V134.06H125.612ZM129.186 140.132C128.6 140.132 128.064 140 127.58 139.736C127.096 139.465 126.719 139.094 126.447 138.625C126.176 138.148 126.04 137.617 126.04 137.03C126.04 136.135 126.337 135.395 126.931 134.808C127.533 134.221 128.284 133.928 129.186 133.928C129.78 133.928 130.316 134.064 130.792 134.335C131.276 134.599 131.654 134.969 131.925 135.446C132.204 135.915 132.343 136.443 132.343 137.03C132.343 137.917 132.043 138.658 131.441 139.252C130.84 139.839 130.088 140.132 129.186 140.132ZM127.613 138.614C128.031 139.025 128.556 139.23 129.186 139.23C129.824 139.23 130.349 139.025 130.759 138.614C131.177 138.196 131.386 137.668 131.386 137.03C131.386 136.392 131.177 135.868 130.759 135.457C130.349 135.039 129.824 134.83 129.186 134.83C128.556 134.83 128.031 135.039 127.613 135.457C127.203 135.868 126.997 136.392 126.997 137.03C126.997 137.668 127.203 138.196 127.613 138.614ZM137.581 136.92C137.882 137.03 138.12 137.213 138.296 137.47C138.48 137.727 138.571 138.016 138.571 138.339C138.571 138.816 138.395 139.212 138.043 139.527C137.699 139.842 137.266 140 136.745 140H133.764V134.06H136.712C137.204 134.06 137.603 134.203 137.911 134.489C138.219 134.768 138.373 135.127 138.373 135.567C138.373 135.765 138.34 135.952 138.274 136.128C138.208 136.304 138.117 136.462 137.999 136.601C137.882 136.733 137.743 136.839 137.581 136.92ZM137.449 135.732C137.449 135.49 137.369 135.299 137.207 135.16C137.046 135.013 136.837 134.94 136.58 134.94H134.677V136.513H136.58C136.844 136.513 137.053 136.443 137.207 136.304C137.369 136.157 137.449 135.967 137.449 135.732ZM136.635 139.12C136.819 139.12 136.984 139.083 137.13 139.01C137.284 138.929 137.402 138.823 137.482 138.691C137.563 138.559 137.603 138.412 137.603 138.251C137.603 138.082 137.563 137.932 137.482 137.8C137.402 137.661 137.284 137.554 137.13 137.481C136.984 137.408 136.815 137.371 136.624 137.371H134.677V139.12H136.635ZM142.754 140.132C142.167 140.132 141.632 140 141.148 139.736C140.664 139.465 140.286 139.094 140.015 138.625C139.743 138.148 139.608 137.617 139.608 137.03C139.608 136.135 139.905 135.395 140.499 134.808C141.1 134.221 141.852 133.928 142.754 133.928C143.348 133.928 143.883 134.064 144.36 134.335C144.844 134.599 145.221 134.969 145.493 135.446C145.771 135.915 145.911 136.443 145.911 137.03C145.911 137.917 145.61 138.658 145.009 139.252C144.407 139.839 143.656 140.132 142.754 140.132ZM141.181 138.614C141.599 139.025 142.123 139.23 142.754 139.23C143.392 139.23 143.916 139.025 144.327 138.614C144.745 138.196 144.954 137.668 144.954 137.03C144.954 136.392 144.745 135.868 144.327 135.457C143.916 135.039 143.392 134.83 142.754 134.83C142.123 134.83 141.599 135.039 141.181 135.457C140.77 135.868 140.565 136.392 140.565 137.03C140.565 137.668 140.77 138.196 141.181 138.614ZM150.478 133.928C151.365 133.928 152.095 134.221 152.667 134.808C153.246 135.395 153.536 136.135 153.536 137.03C153.536 137.917 153.246 138.658 152.667 139.252C152.095 139.839 151.365 140.132 150.478 140.132C149.583 140.132 148.846 139.824 148.267 139.208V142.123H147.332V134.06H147.97L148.157 134.973C148.435 134.643 148.773 134.386 149.169 134.203C149.572 134.02 150.008 133.928 150.478 133.928ZM150.412 139.23C151.042 139.23 151.563 139.021 151.974 138.603C152.384 138.185 152.59 137.661 152.59 137.03C152.59 136.399 152.384 135.875 151.974 135.457C151.563 135.039 151.042 134.83 150.412 134.83C149.781 134.83 149.257 135.043 148.839 135.468C148.428 135.886 148.223 136.407 148.223 137.03C148.223 137.441 148.314 137.815 148.498 138.152C148.688 138.489 148.952 138.753 149.29 138.944C149.627 139.135 150.001 139.23 150.412 139.23Z" fill="white"/>
<path d="M35 142.2H154.009V142.75H35V142.2Z" fill="white"/>
<path d="M36.056 67.3H41.666V75H40.687V68.202H37.013V75H36.056V67.3ZM46.8049 68.928C47.6922 68.928 48.4219 69.2213 48.9939 69.808C49.5732 70.3947 49.8629 71.1353 49.8629 72.03C49.8629 72.9173 49.5732 73.658 48.9939 74.252C48.4219 74.8387 47.6922 75.132 46.8049 75.132C45.9102 75.132 45.1732 74.824 44.5939 74.208V77.123H43.6589V69.06H44.2969L44.4839 69.973C44.7626 69.643 45.0999 69.3863 45.4959 69.203C45.8992 69.0197 46.3356 68.928 46.8049 68.928ZM46.7389 74.23C47.3696 74.23 47.8902 74.021 48.3009 73.603C48.7116 73.185 48.9169 72.6607 48.9169 72.03C48.9169 71.3993 48.7116 70.875 48.3009 70.457C47.8902 70.039 47.3696 69.83 46.7389 69.83C46.1082 69.83 45.5839 70.0427 45.1659 70.468C44.7552 70.886 44.5499 71.4067 44.5499 72.03C44.5499 72.4407 44.6416 72.8147 44.8249 73.152C45.0156 73.4893 45.2796 73.7533 45.6169 73.944C45.9542 74.1347 46.3282 74.23 46.7389 74.23ZM55.6528 69.06H56.1698V75H55.2898V70.754L51.8248 75H51.2858V69.06H52.1768V73.273L55.6528 69.06ZM64.7601 71.92C65.0607 72.03 65.2991 72.2133 65.4751 72.47C65.6584 72.7267 65.7501 73.0163 65.7501 73.339C65.7501 73.8157 65.5741 74.2117 65.2221 74.527C64.8774 74.8423 64.4447 75 63.9241 75H60.9431V69.06H63.8911C64.3824 69.06 64.7821 69.203 65.0901 69.489C65.3981 69.7677 65.5521 70.127 65.5521 70.567C65.5521 70.765 65.5191 70.952 65.4531 71.128C65.3871 71.304 65.2954 71.4617 65.1781 71.601C65.0607 71.733 64.9214 71.8393 64.7601 71.92ZM64.6281 70.732C64.6281 70.49 64.5474 70.2993 64.3861 70.16C64.2247 70.0133 64.0157 69.94 63.7591 69.94H61.8561V71.513H63.7591C64.0231 71.513 64.2321 71.4433 64.3861 71.304C64.5474 71.1573 64.6281 70.9667 64.6281 70.732ZM63.8141 74.12C63.9974 74.12 64.1624 74.0833 64.3091 74.01C64.4631 73.9293 64.5804 73.823 64.6611 73.691C64.7417 73.559 64.7821 73.4123 64.7821 73.251C64.7821 73.0823 64.7417 72.932 64.6611 72.8C64.5804 72.6607 64.4631 72.5543 64.3091 72.481C64.1624 72.4077 63.9937 72.371 63.8031 72.371H61.8561V74.12H63.8141ZM69.6465 70.93C70.2698 70.93 70.7795 71.1207 71.1755 71.502C71.5715 71.876 71.7695 72.3673 71.7695 72.976C71.7695 73.57 71.5715 74.0577 71.1755 74.439C70.7795 74.813 70.2698 75 69.6465 75H67.2595V69.06H68.1725V70.93H69.6465ZM72.8475 69.06H73.7825V75H72.8475V69.06ZM69.5255 74.164C69.9141 74.164 70.2258 74.054 70.4605 73.834C70.6951 73.614 70.8125 73.328 70.8125 72.976C70.8125 72.6167 70.6951 72.327 70.4605 72.107C70.2258 71.8797 69.9141 71.766 69.5255 71.766H68.1725V74.164H69.5255ZM78.5856 69.368C79.4289 69.368 80.1219 69.6357 80.6646 70.171C81.2073 70.699 81.4786 71.3773 81.4786 72.206C81.4786 73.064 81.1963 73.768 80.6316 74.318C80.0669 74.8607 79.3409 75.132 78.4536 75.132C77.5223 75.132 76.7779 74.8387 76.2206 74.252C75.6706 73.658 75.3956 72.866 75.3956 71.876C75.3956 70.3507 75.6706 69.2103 76.2206 68.455C76.7706 67.6997 77.7239 67.157 79.0806 66.827L80.8406 66.409V67.333L79.1026 67.751C78.3326 67.927 77.7313 68.2167 77.2986 68.62C76.8659 69.0233 76.5873 69.5587 76.4626 70.226C76.9833 69.654 77.6909 69.368 78.5856 69.368ZM78.4536 74.23C79.0403 74.23 79.5316 74.0393 79.9276 73.658C80.3236 73.2693 80.5216 72.789 80.5216 72.217C80.5216 71.6377 80.3236 71.1537 79.9276 70.765C79.5316 70.3763 79.0403 70.182 78.4536 70.182C77.8596 70.182 77.3646 70.3763 76.9686 70.765C76.5726 71.1463 76.3746 71.6267 76.3746 72.206C76.3746 72.492 76.4259 72.7597 76.5286 73.009C76.6386 73.2583 76.7853 73.471 76.9686 73.647C77.1519 73.823 77.3719 73.966 77.6286 74.076C77.8853 74.1787 78.1603 74.23 78.4536 74.23ZM85.5838 75.132C84.9972 75.132 84.4618 75 83.9778 74.736C83.4938 74.4647 83.1162 74.0943 82.8448 73.625C82.5735 73.1483 82.4378 72.6167 82.4378 72.03C82.4378 71.1353 82.7348 70.3947 83.3288 69.808C83.9302 69.2213 84.6818 68.928 85.5838 68.928C86.1778 68.928 86.7132 69.0637 87.1898 69.335C87.6738 69.599 88.0515 69.9693 88.3228 70.446C88.6015 70.9153 88.7408 71.4433 88.7408 72.03C88.7408 72.9173 88.4402 73.658 87.8388 74.252C87.2375 74.8387 86.4858 75.132 85.5838 75.132ZM84.0108 73.614C84.4288 74.0247 84.9532 74.23 85.5838 74.23C86.2218 74.23 86.7462 74.0247 87.1568 73.614C87.5748 73.196 87.7838 72.668 87.7838 72.03C87.7838 71.392 87.5748 70.8677 87.1568 70.457C86.7462 70.039 86.2218 69.83 85.5838 69.83C84.9532 69.83 84.4288 70.039 84.0108 70.457C83.6002 70.8677 83.3948 71.392 83.3948 72.03C83.3948 72.668 83.6002 73.196 84.0108 73.614ZM93.3078 68.928C94.1952 68.928 94.9248 69.2213 95.4968 69.808C96.0762 70.3947 96.3658 71.1353 96.3658 72.03C96.3658 72.9173 96.0762 73.658 95.4968 74.252C94.9248 74.8387 94.1952 75.132 93.3078 75.132C92.4132 75.132 91.6762 74.824 91.0968 74.208V77.123H90.1618V69.06H90.7998L90.9868 69.973C91.2655 69.643 91.6028 69.3863 91.9988 69.203C92.4022 69.0197 92.8385 68.928 93.3078 68.928ZM93.2418 74.23C93.8725 74.23 94.3932 74.021 94.8038 73.603C95.2145 73.185 95.4198 72.6607 95.4198 72.03C95.4198 71.3993 95.2145 70.875 94.8038 70.457C94.3932 70.039 93.8725 69.83 93.2418 69.83C92.6112 69.83 92.0868 70.0427 91.6688 70.468C91.2582 70.886 91.0528 71.4067 91.0528 72.03C91.0528 72.4407 91.1445 72.8147 91.3278 73.152C91.5185 73.4893 91.7825 73.7533 92.1198 73.944C92.4572 74.1347 92.8312 74.23 93.2418 74.23ZM103.344 72.052C103.344 72.1327 103.336 72.2463 103.322 72.393H98.2508C98.3241 72.943 98.5514 73.3867 98.9328 73.724C99.3141 74.054 99.7834 74.219 100.341 74.219C100.751 74.219 101.114 74.131 101.43 73.955C101.752 73.7717 102.009 73.515 102.2 73.185H103.179C102.929 73.801 102.555 74.2813 102.057 74.626C101.558 74.9633 100.986 75.132 100.341 75.132C99.4828 75.132 98.7641 74.835 98.1848 74.241C97.6054 73.647 97.3158 72.91 97.3158 72.03C97.3158 71.1427 97.6054 70.4057 98.1848 69.819C98.7641 69.225 99.4828 68.928 100.341 68.928C101.228 68.928 101.95 69.2287 102.508 69.83C103.065 70.4313 103.344 71.172 103.344 72.052ZM100.341 69.819C99.9888 69.819 99.6661 69.8887 99.3728 70.028C99.0868 70.1673 98.8484 70.369 98.6578 70.633C98.4671 70.8897 98.3388 71.1867 98.2728 71.524H102.398C102.332 71.1793 102.203 70.8787 102.013 70.622C101.822 70.358 101.584 70.16 101.298 70.028C101.012 69.8887 100.693 69.819 100.341 69.819ZM111.435 75L109.4 72.338H108.553V75H107.618V69.06H108.553V71.469H109.411L111.248 69.06H112.381L110.214 71.909L112.601 75H111.435ZM114.57 69.06H118.464V75H117.529V69.874H115.351L115.043 72.877C114.963 73.6617 114.761 74.219 114.438 74.549C114.116 74.8717 113.632 75.033 112.986 75.033H112.821V74.153H113.03C113.368 74.153 113.624 74.0577 113.8 73.867C113.976 73.669 114.086 73.3573 114.13 72.932L114.57 69.06ZM124.714 69.06H125.231V75H124.351V70.754L120.886 75H120.347V69.06H121.238V73.273L124.714 69.06ZM131.218 69.06H132.131V75H131.218V72.371H128.039V75H127.126V69.06H128.039V71.491H131.218V69.06ZM137.718 69.06V69.896H134.935V75H134.022V69.06H137.718ZM141.293 75.132C140.706 75.132 140.171 75 139.687 74.736C139.203 74.4647 138.825 74.0943 138.554 73.625C138.282 73.1483 138.147 72.6167 138.147 72.03C138.147 71.1353 138.444 70.3947 139.038 69.808C139.639 69.2213 140.391 68.928 141.293 68.928C141.887 68.928 142.422 69.0637 142.899 69.335C143.383 69.599 143.76 69.9693 144.032 70.446C144.31 70.9153 144.45 71.4433 144.45 72.03C144.45 72.9173 144.149 73.658 143.548 74.252C142.946 74.8387 142.195 75.132 141.293 75.132ZM139.72 73.614C140.138 74.0247 140.662 74.23 141.293 74.23C141.931 74.23 142.455 74.0247 142.866 73.614C143.284 73.196 143.493 72.668 143.493 72.03C143.493 71.392 143.284 70.8677 142.866 70.457C142.455 70.039 141.931 69.83 141.293 69.83C140.662 69.83 140.138 70.039 139.72 70.457C139.309 70.8677 139.104 71.392 139.104 72.03C139.104 72.668 139.309 73.196 139.72 73.614ZM149.688 71.92C149.988 72.03 150.227 72.2133 150.403 72.47C150.586 72.7267 150.678 73.0163 150.678 73.339C150.678 73.8157 150.502 74.2117 150.15 74.527C149.805 74.8423 149.372 75 148.852 75H145.871V69.06H148.819C149.31 69.06 149.71 69.203 150.018 69.489C150.326 69.7677 150.48 70.127 150.48 70.567C150.48 70.765 150.447 70.952 150.381 71.128C150.315 71.304 150.223 71.4617 150.106 71.601C149.988 71.733 149.849 71.8393 149.688 71.92ZM149.556 70.732C149.556 70.49 149.475 70.2993 149.314 70.16C149.152 70.0133 148.943 69.94 148.687 69.94H146.784V71.513H148.687C148.951 71.513 149.16 71.4433 149.314 71.304C149.475 71.1573 149.556 70.9667 149.556 70.732ZM148.742 74.12C148.925 74.12 149.09 74.0833 149.237 74.01C149.391 73.9293 149.508 73.823 149.589 73.691C149.669 73.559 149.71 73.4123 149.71 73.251C149.71 73.0823 149.669 72.932 149.589 72.8C149.508 72.6607 149.391 72.5543 149.237 72.481C149.09 72.4077 148.921 72.371 148.731 72.371H146.784V74.12H148.742ZM154.86 75.132C154.274 75.132 153.738 75 153.254 74.736C152.77 74.4647 152.393 74.0943 152.121 73.625C151.85 73.1483 151.714 72.6167 151.714 72.03C151.714 71.1353 152.011 70.3947 152.605 69.808C153.207 69.2213 153.958 68.928 154.86 68.928C155.454 68.928 155.99 69.0637 156.466 69.335C156.95 69.599 157.328 69.9693 157.599 70.446C157.878 70.9153 158.017 71.4433 158.017 72.03C158.017 72.9173 157.717 73.658 157.115 74.252C156.514 74.8387 155.762 75.132 154.86 75.132ZM153.287 73.614C153.705 74.0247 154.23 74.23 154.86 74.23C155.498 74.23 156.023 74.0247 156.433 73.614C156.851 73.196 157.06 72.668 157.06 72.03C157.06 71.392 156.851 70.8677 156.433 70.457C156.023 70.039 155.498 69.83 154.86 69.83C154.23 69.83 153.705 70.039 153.287 70.457C152.877 70.8677 152.671 71.392 152.671 72.03C152.671 72.668 152.877 73.196 153.287 73.614ZM163.332 67.157V67.861H160.45V67.157H163.332ZM163.805 69.06H164.322V75H163.442V70.754L159.977 75H159.438V69.06H160.329V73.273L163.805 69.06ZM172.912 75L170.877 72.338H170.03V75H169.095V69.06H170.03V71.469H170.888L172.725 69.06H173.858L171.691 71.909L174.078 75H172.912ZM177.548 75.132C176.961 75.132 176.426 75 175.942 74.736C175.458 74.4647 175.08 74.0943 174.809 73.625C174.537 73.1483 174.402 72.6167 174.402 72.03C174.402 71.1353 174.699 70.3947 175.293 69.808C175.894 69.2213 176.646 68.928 177.548 68.928C178.142 68.928 178.677 69.0637 179.154 69.335C179.638 69.599 180.015 69.9693 180.287 70.446C180.565 70.9153 180.705 71.4433 180.705 72.03C180.705 72.9173 180.404 73.658 179.803 74.252C179.201 74.8387 178.45 75.132 177.548 75.132ZM175.975 73.614C176.393 74.0247 176.917 74.23 177.548 74.23C178.186 74.23 178.71 74.0247 179.121 73.614C179.539 73.196 179.748 72.668 179.748 72.03C179.748 71.392 179.539 70.8677 179.121 70.457C178.71 70.039 178.186 69.83 177.548 69.83C176.917 69.83 176.393 70.039 175.975 70.457C175.564 70.8677 175.359 71.392 175.359 72.03C175.359 72.668 175.564 73.196 175.975 73.614ZM189.464 75H188.562L187.715 70.589L185.614 74.879H185.405L183.315 70.589L182.468 75H181.566L182.699 69.06H183.48L185.515 73.218L187.539 69.06H188.32L189.464 75ZM190.838 69.06H195.876V75H194.952V69.918H191.773V75H190.838V69.06ZM202.826 69.06H203.574V75H202.793L202.694 74.098C202.416 74.428 202.075 74.6847 201.671 74.868C201.275 75.044 200.839 75.132 200.362 75.132C199.49 75.132 198.76 74.8387 198.173 74.252C197.587 73.658 197.293 72.9173 197.293 72.03C197.293 71.1427 197.587 70.4057 198.173 69.819C198.76 69.225 199.49 68.928 200.362 68.928C200.846 68.928 201.286 69.0197 201.682 69.203C202.086 69.3863 202.427 69.643 202.705 69.973L202.826 69.06ZM198.866 73.603C199.284 74.021 199.809 74.23 200.439 74.23C201.07 74.23 201.591 74.021 202.001 73.603C202.412 73.185 202.617 72.6607 202.617 72.03C202.617 71.3993 202.412 70.875 202.001 70.457C201.591 70.039 201.07 69.83 200.439 69.83C199.809 69.83 199.284 70.0427 198.866 70.468C198.456 70.886 198.25 71.4067 198.25 72.03C198.25 72.6533 198.456 73.1777 198.866 73.603ZM209.55 69.06H210.463V75H209.55V72.371H206.371V75H205.458V69.06H206.371V71.491H209.55V69.06ZM216.721 69.06H217.238V75H216.358V70.754L212.893 75H212.354V69.06H213.245V73.273L216.721 69.06ZM223.5 69.06H224.017V75H223.137V70.754L219.672 75H219.133V69.06H220.024V73.273L223.5 69.06ZM233.157 69.06H233.674V75H232.794V70.754L229.329 75H228.79V69.06H229.681V73.273L233.157 69.06ZM241.538 71.865C242.081 72.1583 242.352 72.6423 242.352 73.317C242.352 73.669 242.253 73.9843 242.055 74.263C241.864 74.5343 241.593 74.747 241.241 74.901C240.896 75.055 240.508 75.132 240.075 75.132C239.444 75.132 238.924 74.9707 238.513 74.648C238.11 74.3253 237.882 73.8927 237.831 73.35H238.678C238.737 73.6287 238.891 73.8487 239.14 74.01C239.389 74.164 239.701 74.241 240.075 74.241C240.471 74.241 240.797 74.1493 241.054 73.966C241.311 73.7827 241.439 73.5407 241.439 73.24C241.439 72.9613 241.329 72.7303 241.109 72.547C240.896 72.3637 240.625 72.272 240.295 72.272H239.415V71.513H240.295C240.603 71.513 240.849 71.436 241.032 71.282C241.223 71.1207 241.318 70.9153 241.318 70.666C241.318 70.3947 241.204 70.1747 240.977 70.006C240.75 69.8373 240.449 69.753 240.075 69.753C239.745 69.753 239.47 69.8263 239.25 69.973C239.03 70.1197 238.891 70.3177 238.832 70.567H237.985C238.014 70.2443 238.121 69.9583 238.304 69.709C238.495 69.4597 238.744 69.269 239.052 69.137C239.367 68.9977 239.716 68.928 240.097 68.928C240.706 68.928 241.208 69.0857 241.604 69.401C242 69.7163 242.198 70.1123 242.198 70.589C242.198 71.161 241.978 71.5863 241.538 71.865ZM248.878 69.06H249.626V75H248.845L248.746 74.098C248.467 74.428 248.126 74.6847 247.723 74.868C247.327 75.044 246.891 75.132 246.414 75.132C245.541 75.132 244.812 74.8387 244.225 74.252C243.638 73.658 243.345 72.9173 243.345 72.03C243.345 71.1427 243.638 70.4057 244.225 69.819C244.812 69.225 245.541 68.928 246.414 68.928C246.898 68.928 247.338 69.0197 247.734 69.203C248.137 69.3863 248.478 69.643 248.757 69.973L248.878 69.06ZM244.918 73.603C245.336 74.021 245.86 74.23 246.491 74.23C247.122 74.23 247.642 74.021 248.053 73.603C248.464 73.185 248.669 72.6607 248.669 72.03C248.669 71.3993 248.464 70.875 248.053 70.457C247.642 70.039 247.122 69.83 246.491 69.83C245.86 69.83 245.336 70.0427 244.918 70.468C244.507 70.886 244.302 71.4067 244.302 72.03C244.302 72.6533 244.507 73.1777 244.918 73.603ZM255.326 75L253.291 72.338H252.444V75H251.509V69.06H252.444V71.469H253.302L255.139 69.06H256.272L254.105 71.909L256.492 75H255.326ZM262.349 69.06H263.097V75H262.316L262.217 74.098C261.938 74.428 261.597 74.6847 261.194 74.868C260.798 75.044 260.361 75.132 259.885 75.132C259.012 75.132 258.282 74.8387 257.696 74.252C257.109 73.658 256.816 72.9173 256.816 72.03C256.816 71.1427 257.109 70.4057 257.696 69.819C258.282 69.225 259.012 68.928 259.885 68.928C260.369 68.928 260.809 69.0197 261.205 69.203C261.608 69.3863 261.949 69.643 262.228 69.973L262.349 69.06ZM258.389 73.603C258.807 74.021 259.331 74.23 259.962 74.23C260.592 74.23 261.113 74.021 261.524 73.603C261.934 73.185 262.14 72.6607 262.14 72.03C262.14 71.3993 261.934 70.875 261.524 70.457C261.113 70.039 260.592 69.83 259.962 69.83C259.331 69.83 258.807 70.0427 258.389 70.468C257.978 70.886 257.773 71.4067 257.773 72.03C257.773 72.6533 257.978 73.1777 258.389 73.603ZM268.071 71.865C268.614 72.1583 268.885 72.6423 268.885 73.317C268.885 73.669 268.786 73.9843 268.588 74.263C268.398 74.5343 268.126 74.747 267.774 74.901C267.43 75.055 267.041 75.132 266.608 75.132C265.978 75.132 265.457 74.9707 265.046 74.648C264.643 74.3253 264.416 73.8927 264.364 73.35H265.211C265.27 73.6287 265.424 73.8487 265.673 74.01C265.923 74.164 266.234 74.241 266.608 74.241C267.004 74.241 267.331 74.1493 267.587 73.966C267.844 73.7827 267.972 73.5407 267.972 73.24C267.972 72.9613 267.862 72.7303 267.642 72.547C267.43 72.3637 267.158 72.272 266.828 72.272H265.948V71.513H266.828C267.136 71.513 267.382 71.436 267.565 71.282C267.756 71.1207 267.851 70.9153 267.851 70.666C267.851 70.3947 267.738 70.1747 267.51 70.006C267.283 69.8373 266.982 69.753 266.608 69.753C266.278 69.753 266.003 69.8263 265.783 69.973C265.563 70.1197 265.424 70.3177 265.365 70.567H264.518C264.548 70.2443 264.654 69.9583 264.837 69.709C265.028 69.4597 265.277 69.269 265.585 69.137C265.901 68.9977 266.249 68.928 266.63 68.928C267.239 68.928 267.741 69.0857 268.137 69.401C268.533 69.7163 268.731 70.1123 268.731 70.589C268.731 71.161 268.511 71.5863 268.071 71.865ZM275.906 72.052C275.906 72.1327 275.899 72.2463 275.884 72.393H270.813C270.887 72.943 271.114 73.3867 271.495 73.724C271.877 74.054 272.346 74.219 272.903 74.219C273.314 74.219 273.677 74.131 273.992 73.955C274.315 73.7717 274.572 73.515 274.762 73.185H275.741C275.492 73.801 275.118 74.2813 274.619 74.626C274.121 74.9633 273.549 75.132 272.903 75.132C272.045 75.132 271.327 74.835 270.747 74.241C270.168 73.647 269.878 72.91 269.878 72.03C269.878 71.1427 270.168 70.4057 270.747 69.819C271.327 69.225 272.045 68.928 272.903 68.928C273.791 68.928 274.513 69.2287 275.07 69.83C275.628 70.4313 275.906 71.172 275.906 72.052ZM272.903 69.819C272.551 69.819 272.229 69.8887 271.935 70.028C271.649 70.1673 271.411 70.369 271.22 70.633C271.03 70.8897 270.901 71.1867 270.835 71.524H274.96C274.894 71.1793 274.766 70.8787 274.575 70.622C274.385 70.358 274.146 70.16 273.86 70.028C273.574 69.8887 273.255 69.819 272.903 69.819ZM40.28 86.06H41.281L38.454 92.242C38.234 92.726 38.0177 93.1 37.805 93.364C37.5923 93.628 37.354 93.8187 37.09 93.936C36.826 94.0607 36.5033 94.123 36.122 94.123H35.561V93.276H36.045C36.441 93.276 36.738 93.1953 36.936 93.034C37.134 92.8727 37.354 92.5427 37.596 92.044L37.805 91.593L35.165 86.06H36.188L38.3 90.559L40.28 86.06ZM45.2633 86.368C46.1067 86.368 46.7997 86.6357 47.3423 87.171C47.885 87.699 48.1563 88.3773 48.1563 89.206C48.1563 90.064 47.874 90.768 47.3093 91.318C46.7447 91.8607 46.0187 92.132 45.1313 92.132C44.2 92.132 43.4557 91.8387 42.8983 91.252C42.3483 90.658 42.0733 89.866 42.0733 88.876C42.0733 87.3507 42.3483 86.2103 42.8983 85.455C43.4483 84.6997 44.4017 84.157 45.7583 83.827L47.5183 83.409V84.333L45.7803 84.751C45.0103 84.927 44.409 85.2167 43.9763 85.62C43.5437 86.0233 43.265 86.5587 43.1403 87.226C43.661 86.654 44.3687 86.368 45.2633 86.368ZM45.1313 91.23C45.718 91.23 46.2093 91.0393 46.6053 90.658C47.0013 90.2693 47.1993 89.789 47.1993 89.217C47.1993 88.6377 47.0013 88.1537 46.6053 87.765C46.2093 87.3763 45.718 87.182 45.1313 87.182C44.5373 87.182 44.0423 87.3763 43.6463 87.765C43.2503 88.1463 43.0523 88.6267 43.0523 89.206C43.0523 89.492 43.1037 89.7597 43.2063 90.009C43.3163 90.2583 43.463 90.471 43.6463 90.647C43.8297 90.823 44.0497 90.966 44.3063 91.076C44.563 91.1787 44.838 91.23 45.1313 91.23ZM52.2616 92.132C51.6749 92.132 51.1396 92 50.6556 91.736C50.1716 91.4647 49.7939 91.0943 49.5226 90.625C49.2512 90.1483 49.1156 89.6167 49.1156 89.03C49.1156 88.1353 49.4126 87.3947 50.0066 86.808C50.6079 86.2213 51.3596 85.928 52.2616 85.928C52.8556 85.928 53.3909 86.0637 53.8676 86.335C54.3516 86.599 54.7292 86.9693 55.0006 87.446C55.2792 87.9153 55.4186 88.4433 55.4186 89.03C55.4186 89.9173 55.1179 90.658 54.5166 91.252C53.9152 91.8387 53.1636 92.132 52.2616 92.132ZM50.6886 90.614C51.1066 91.0247 51.6309 91.23 52.2616 91.23C52.8996 91.23 53.4239 91.0247 53.8346 90.614C54.2526 90.196 54.4616 89.668 54.4616 89.03C54.4616 88.392 54.2526 87.8677 53.8346 87.457C53.4239 87.039 52.8996 86.83 52.2616 86.83C51.6309 86.83 51.1066 87.039 50.6886 87.457C50.2779 87.8677 50.0726 88.392 50.0726 89.03C50.0726 89.668 50.2779 90.196 50.6886 90.614ZM59.9856 85.928C60.8729 85.928 61.6026 86.2213 62.1746 86.808C62.7539 87.3947 63.0436 88.1353 63.0436 89.03C63.0436 89.9173 62.7539 90.658 62.1746 91.252C61.6026 91.8387 60.8729 92.132 59.9856 92.132C59.0909 92.132 58.3539 91.824 57.7746 91.208V94.123H56.8396V86.06H57.4776L57.6646 86.973C57.9432 86.643 58.2806 86.3863 58.6766 86.203C59.0799 86.0197 59.5162 85.928 59.9856 85.928ZM59.9196 91.23C60.5502 91.23 61.0709 91.021 61.4816 90.603C61.8922 90.185 62.0976 89.6607 62.0976 89.03C62.0976 88.3993 61.8922 87.875 61.4816 87.457C61.0709 87.039 60.5502 86.83 59.9196 86.83C59.2889 86.83 58.7646 87.0427 58.3466 87.468C57.9359 87.886 57.7306 88.4067 57.7306 89.03C57.7306 89.4407 57.8222 89.8147 58.0056 90.152C58.1962 90.4893 58.4602 90.7533 58.7976 90.944C59.1349 91.1347 59.5089 91.23 59.9196 91.23ZM68.2835 92L66.2485 89.338H65.4015V92H64.4665V86.06H65.4015V88.469H66.2595L68.0965 86.06H69.2295L67.0625 88.909L69.4495 92H68.2835ZM74.7739 86.06H75.2909V92H74.4109V87.754L70.9459 92H70.4069V86.06H71.2979V90.273L74.7739 86.06ZM77.0533 93.463V92.935C77.4346 92.803 77.6253 92.4913 77.6253 92H76.9983V90.845H78.1313V91.912C78.1313 92.7407 77.7719 93.2577 77.0533 93.463ZM86.5345 88.92C86.8352 89.03 87.0735 89.2133 87.2495 89.47C87.4328 89.7267 87.5245 90.0163 87.5245 90.339C87.5245 90.8157 87.3485 91.2117 86.9965 91.527C86.6518 91.8423 86.2192 92 85.6985 92H82.7175V86.06H85.6655C86.1568 86.06 86.5565 86.203 86.8645 86.489C87.1725 86.7677 87.3265 87.127 87.3265 87.567C87.3265 87.765 87.2935 87.952 87.2275 88.128C87.1615 88.304 87.0698 88.4617 86.9525 88.601C86.8352 88.733 86.6958 88.8393 86.5345 88.92ZM86.4025 87.732C86.4025 87.49 86.3218 87.2993 86.1605 87.16C85.9992 87.0133 85.7902 86.94 85.5335 86.94H83.6305V88.513H85.5335C85.7975 88.513 86.0065 88.4433 86.1605 88.304C86.3218 88.1573 86.4025 87.9667 86.4025 87.732ZM85.5885 91.12C85.7718 91.12 85.9368 91.0833 86.0835 91.01C86.2375 90.9293 86.3548 90.823 86.4355 90.691C86.5162 90.559 86.5565 90.4123 86.5565 90.251C86.5565 90.0823 86.5162 89.932 86.4355 89.8C86.3548 89.6607 86.2375 89.5543 86.0835 89.481C85.9368 89.4077 85.7682 89.371 85.5775 89.371H83.6305V91.12H85.5885ZM93.1259 86.06H94.0389V92H93.1259V89.371H89.9469V92H89.0339V86.06H89.9469V88.491H93.1259V86.06ZM100.297 86.06H100.814V92H99.9344V87.754L96.4694 92H95.9304V86.06H96.8214V90.273L100.297 86.06ZM110.09 92H109.188L108.341 87.589L106.24 91.879H106.031L103.941 87.589L103.094 92H102.192L103.325 86.06H104.106L106.141 90.218L108.165 86.06H108.946L110.09 92ZM116.481 86.06H117.229V92H116.448L116.349 91.098C116.07 91.428 115.729 91.6847 115.326 91.868C114.93 92.044 114.493 92.132 114.017 92.132C113.144 92.132 112.414 91.8387 111.828 91.252C111.241 90.658 110.948 89.9173 110.948 89.03C110.948 88.1427 111.241 87.4057 111.828 86.819C112.414 86.225 113.144 85.928 114.017 85.928C114.501 85.928 114.941 86.0197 115.337 86.203C115.74 86.3863 116.081 86.643 116.36 86.973L116.481 86.06ZM112.521 90.603C112.939 91.021 113.463 91.23 114.094 91.23C114.724 91.23 115.245 91.021 115.656 90.603C116.066 90.185 116.272 89.6607 116.272 89.03C116.272 88.3993 116.066 87.875 115.656 87.457C115.245 87.039 114.724 86.83 114.094 86.83C113.463 86.83 112.939 87.0427 112.521 87.468C112.11 87.886 111.905 88.4067 111.905 89.03C111.905 89.6533 112.11 90.1777 112.521 90.603ZM123.688 86.06V86.907H121.477V92H120.564V86.907H118.353V86.06H123.688ZM130.178 89.052C130.178 89.1327 130.17 89.2463 130.156 89.393H125.085C125.158 89.943 125.385 90.3867 125.767 90.724C126.148 91.054 126.617 91.219 127.175 91.219C127.585 91.219 127.948 91.131 128.264 90.955C128.586 90.7717 128.843 90.515 129.034 90.185H130.013C129.763 90.801 129.389 91.2813 128.891 91.626C128.392 91.9633 127.82 92.132 127.175 92.132C126.317 92.132 125.598 91.835 125.019 91.241C124.439 90.647 124.15 89.91 124.15 89.03C124.15 88.1427 124.439 87.4057 125.019 86.819C125.598 86.225 126.317 85.928 127.175 85.928C128.062 85.928 128.784 86.2287 129.342 86.83C129.899 87.4313 130.178 88.172 130.178 89.052ZM127.175 86.819C126.823 86.819 126.5 86.8887 126.207 87.028C125.921 87.1673 125.682 87.369 125.492 87.633C125.301 87.8897 125.173 88.1867 125.107 88.524H129.232C129.166 88.1793 129.037 87.8787 128.847 87.622C128.656 87.358 128.418 87.16 128.132 87.028C127.846 86.8887 127.527 86.819 127.175 86.819ZM132.445 86.06H136.339V92H135.404V86.874H133.226L132.918 89.877C132.838 90.6617 132.636 91.219 132.313 91.549C131.991 91.8717 131.507 92.033 130.861 92.033H130.696V91.153H130.905C131.243 91.153 131.499 91.0577 131.675 90.867C131.851 90.669 131.961 90.3573 132.005 89.932L132.445 86.06ZM140.609 87.93C141.233 87.93 141.742 88.1207 142.138 88.502C142.534 88.876 142.732 89.3673 142.732 89.976C142.732 90.57 142.534 91.0577 142.138 91.439C141.742 91.813 141.233 92 140.609 92H138.222V86.06H139.135V87.93H140.609ZM140.488 91.164C140.877 91.164 141.189 91.054 141.423 90.834C141.658 90.614 141.775 90.328 141.775 89.976C141.775 89.6167 141.658 89.327 141.423 89.107C141.189 88.8797 140.877 88.766 140.488 88.766H139.135V91.164H140.488ZM148.104 86.06H149.017V92H148.104V89.371H144.925V92H144.012V86.06H144.925V88.491H148.104V86.06ZM153.582 92.132C152.995 92.132 152.46 92 151.976 91.736C151.492 91.4647 151.114 91.0943 150.843 90.625C150.572 90.1483 150.436 89.6167 150.436 89.03C150.436 88.1353 150.733 87.3947 151.327 86.808C151.928 86.2213 152.68 85.928 153.582 85.928C154.176 85.928 154.711 86.0637 155.188 86.335C155.672 86.599 156.05 86.9693 156.321 87.446C156.6 87.9153 156.739 88.4433 156.739 89.03C156.739 89.9173 156.438 90.658 155.837 91.252C155.236 91.8387 154.484 92.132 153.582 92.132ZM152.009 90.614C152.427 91.0247 152.951 91.23 153.582 91.23C154.22 91.23 154.744 91.0247 155.155 90.614C155.573 90.196 155.782 89.668 155.782 89.03C155.782 88.392 155.573 87.8677 155.155 87.457C154.744 87.039 154.22 86.83 153.582 86.83C152.951 86.83 152.427 87.039 152.009 87.457C151.598 87.8677 151.393 88.392 151.393 89.03C151.393 89.668 151.598 90.196 152.009 90.614ZM164.306 86.06H165.208V92H164.306V89.723C163.851 89.899 163.378 89.987 162.887 89.987C162.183 89.987 161.614 89.7853 161.182 89.382C160.756 88.9713 160.544 88.3993 160.544 87.666V86.06H161.457V87.6C161.457 88.0767 161.585 88.4433 161.842 88.7C162.106 88.9567 162.48 89.085 162.964 89.085C163.426 89.085 163.873 88.9787 164.306 88.766V86.06ZM171.454 86.06H171.971V92H171.091V87.754L167.626 92H167.087V86.06H167.978V90.273L171.454 86.06ZM178.441 86.06V86.907H176.23V92H175.317V86.907H173.106V86.06H178.441ZM184.436 86.06H185.184V92H184.403L184.304 91.098C184.025 91.428 183.684 91.6847 183.281 91.868C182.885 92.044 182.448 92.132 181.972 92.132C181.099 92.132 180.369 91.8387 179.783 91.252C179.196 90.658 178.903 89.9173 178.903 89.03C178.903 88.1427 179.196 87.4057 179.783 86.819C180.369 86.225 181.099 85.928 181.972 85.928C182.456 85.928 182.896 86.0197 183.292 86.203C183.695 86.3863 184.036 86.643 184.315 86.973L184.436 86.06ZM180.476 90.603C180.894 91.021 181.418 91.23 182.049 91.23C182.679 91.23 183.2 91.021 183.611 90.603C184.021 90.185 184.227 89.6607 184.227 89.03C184.227 88.3993 184.021 87.875 183.611 87.457C183.2 87.039 182.679 86.83 182.049 86.83C181.418 86.83 180.894 87.0427 180.476 87.468C180.065 87.886 179.86 88.4067 179.86 89.03C179.86 89.6533 180.065 90.1777 180.476 90.603ZM190.961 84.157V84.861H188.079V84.157H190.961ZM191.434 86.06H191.951V92H191.071V87.754L187.606 92H187.067V86.06H187.958V90.273L191.434 86.06ZM198.421 86.06V86.907H196.21V92H195.297V86.907H193.086V86.06H198.421ZM204.911 89.052C204.911 89.1327 204.904 89.2463 204.889 89.393H199.818C199.891 89.943 200.119 90.3867 200.5 90.724C200.881 91.054 201.351 91.219 201.908 91.219C202.319 91.219 202.682 91.131 202.997 90.955C203.32 90.7717 203.576 90.515 203.767 90.185H204.746C204.497 90.801 204.123 91.2813 203.624 91.626C203.125 91.9633 202.553 92.132 201.908 92.132C201.05 92.132 200.331 91.835 199.752 91.241C199.173 90.647 198.883 89.91 198.883 89.03C198.883 88.1427 199.173 87.4057 199.752 86.819C200.331 86.225 201.05 85.928 201.908 85.928C202.795 85.928 203.518 86.2287 204.075 86.83C204.632 87.4313 204.911 88.172 204.911 89.052ZM201.908 86.819C201.556 86.819 201.233 86.8887 200.94 87.028C200.654 87.1673 200.416 87.369 200.225 87.633C200.034 87.8897 199.906 88.1867 199.84 88.524H203.965C203.899 88.1793 203.771 87.8787 203.58 87.622C203.389 87.358 203.151 87.16 202.865 87.028C202.579 86.8887 202.26 86.819 201.908 86.819ZM214.157 91.12H214.96V93.573H214.102V92H209.317V93.573H208.459V91.12H209.097C209.273 90.9587 209.409 90.7313 209.504 90.438C209.6 90.1373 209.684 89.6827 209.757 89.074C209.838 88.458 209.933 87.4533 210.043 86.06H214.157V91.12ZM210.879 86.885C210.813 87.8677 210.744 88.634 210.67 89.184C210.604 89.7267 210.527 90.1447 210.439 90.438C210.351 90.724 210.238 90.9513 210.098 91.12H213.244V86.885H210.879ZM218.905 92.132C218.318 92.132 217.783 92 217.299 91.736C216.815 91.4647 216.437 91.0943 216.166 90.625C215.895 90.1483 215.759 89.6167 215.759 89.03C215.759 88.1353 216.056 87.3947 216.65 86.808C217.251 86.2213 218.003 85.928 218.905 85.928C219.499 85.928 220.034 86.0637 220.511 86.335C220.995 86.599 221.373 86.9693 221.644 87.446C221.923 87.9153 222.062 88.4433 222.062 89.03C222.062 89.9173 221.761 90.658 221.16 91.252C220.559 91.8387 219.807 92.132 218.905 92.132ZM217.332 90.614C217.75 91.0247 218.274 91.23 218.905 91.23C219.543 91.23 220.067 91.0247 220.478 90.614C220.896 90.196 221.105 89.668 221.105 89.03C221.105 88.392 220.896 87.8677 220.478 87.457C220.067 87.039 219.543 86.83 218.905 86.83C218.274 86.83 217.75 87.039 217.332 87.457C216.921 87.8677 216.716 88.392 216.716 89.03C216.716 89.668 216.921 90.196 217.332 90.614ZM227.179 86.06V86.896H224.396V92H223.483V86.06H227.179ZM230.754 92.132C230.167 92.132 229.632 92 229.148 91.736C228.664 91.4647 228.286 91.0943 228.015 90.625C227.743 90.1483 227.608 89.6167 227.608 89.03C227.608 88.1353 227.905 87.3947 228.499 86.808C229.1 86.2213 229.852 85.928 230.754 85.928C231.348 85.928 231.883 86.0637 232.36 86.335C232.844 86.599 233.221 86.9693 233.493 87.446C233.771 87.9153 233.911 88.4433 233.911 89.03C233.911 89.9173 233.61 90.658 233.009 91.252C232.407 91.8387 231.656 92.132 230.754 92.132ZM229.181 90.614C229.599 91.0247 230.123 91.23 230.754 91.23C231.392 91.23 231.916 91.0247 232.327 90.614C232.745 90.196 232.954 89.668 232.954 89.03C232.954 88.392 232.745 87.8677 232.327 87.457C231.916 87.039 231.392 86.83 230.754 86.83C230.123 86.83 229.599 87.039 229.181 87.457C228.77 87.8677 228.565 88.392 228.565 89.03C228.565 89.668 228.77 90.196 229.181 90.614ZM239.149 88.92C239.449 89.03 239.688 89.2133 239.864 89.47C240.047 89.7267 240.139 90.0163 240.139 90.339C240.139 90.8157 239.963 91.2117 239.611 91.527C239.266 91.8423 238.833 92 238.313 92H235.332V86.06H238.28C238.771 86.06 239.171 86.203 239.479 86.489C239.787 86.7677 239.941 87.127 239.941 87.567C239.941 87.765 239.908 87.952 239.842 88.128C239.776 88.304 239.684 88.4617 239.567 88.601C239.449 88.733 239.31 88.8393 239.149 88.92ZM239.017 87.732C239.017 87.49 238.936 87.2993 238.775 87.16C238.613 87.0133 238.404 86.94 238.148 86.94H236.245V88.513H238.148C238.412 88.513 238.621 88.4433 238.775 88.304C238.936 88.1573 239.017 87.9667 239.017 87.732ZM238.203 91.12C238.386 91.12 238.551 91.0833 238.698 91.01C238.852 90.9293 238.969 90.823 239.05 90.691C239.13 90.559 239.171 90.4123 239.171 90.251C239.171 90.0823 239.13 89.932 239.05 89.8C238.969 89.6607 238.852 89.5543 238.698 89.481C238.551 89.4077 238.382 89.371 238.192 89.371H236.245V91.12H238.203ZM244.321 92.132C243.734 92.132 243.199 92 242.715 91.736C242.231 91.4647 241.853 91.0943 241.582 90.625C241.311 90.1483 241.175 89.6167 241.175 89.03C241.175 88.1353 241.472 87.3947 242.066 86.808C242.667 86.2213 243.419 85.928 244.321 85.928C244.915 85.928 245.45 86.0637 245.927 86.335C246.411 86.599 246.789 86.9693 247.06 87.446C247.339 87.9153 247.478 88.4433 247.478 89.03C247.478 89.9173 247.177 90.658 246.576 91.252C245.975 91.8387 245.223 92.132 244.321 92.132ZM242.748 90.614C243.166 91.0247 243.69 91.23 244.321 91.23C244.959 91.23 245.483 91.0247 245.894 90.614C246.312 90.196 246.521 89.668 246.521 89.03C246.521 88.392 246.312 87.8677 245.894 87.457C245.483 87.039 244.959 86.83 244.321 86.83C243.69 86.83 243.166 87.039 242.748 87.457C242.337 87.8677 242.132 88.392 242.132 89.03C242.132 89.668 242.337 90.196 242.748 90.614ZM252.045 85.928C252.932 85.928 253.662 86.2213 254.234 86.808C254.813 87.3947 255.103 88.1353 255.103 89.03C255.103 89.9173 254.813 90.658 254.234 91.252C253.662 91.8387 252.932 92.132 252.045 92.132C251.15 92.132 250.413 91.824 249.834 91.208V94.123H248.899V86.06H249.537L249.724 86.973C250.003 86.643 250.34 86.3863 250.736 86.203C251.139 86.0197 251.576 85.928 252.045 85.928ZM251.979 91.23C252.61 91.23 253.13 91.021 253.541 90.603C253.952 90.185 254.157 89.6607 254.157 89.03C254.157 88.3993 253.952 87.875 253.541 87.457C253.13 87.039 252.61 86.83 251.979 86.83C251.348 86.83 250.824 87.0427 250.406 87.468C249.995 87.886 249.79 88.4067 249.79 89.03C249.79 89.4407 249.882 89.8147 250.065 90.152C250.256 90.4893 250.52 90.7533 250.857 90.944C251.194 91.1347 251.568 91.23 251.979 91.23ZM40.038 103.06H40.951V109H40.038V106.371H36.859V109H35.946V103.06H36.859V105.491H40.038V103.06ZM47.9025 103.06H48.6505V109H47.8695L47.7705 108.098C47.4918 108.428 47.1508 108.685 46.7475 108.868C46.3515 109.044 45.9152 109.132 45.4385 109.132C44.5658 109.132 43.8362 108.839 43.2495 108.252C42.6628 107.658 42.3695 106.917 42.3695 106.03C42.3695 105.143 42.6628 104.406 43.2495 103.819C43.8362 103.225 44.5658 102.928 45.4385 102.928C45.9225 102.928 46.3625 103.02 46.7585 103.203C47.1618 103.386 47.5028 103.643 47.7815 103.973L47.9025 103.06ZM43.9425 107.603C44.3605 108.021 44.8848 108.23 45.5155 108.23C46.1462 108.23 46.6668 108.021 47.0775 107.603C47.4882 107.185 47.6935 106.661 47.6935 106.03C47.6935 105.399 47.4882 104.875 47.0775 104.457C46.6668 104.039 46.1462 103.83 45.5155 103.83C44.8848 103.83 44.3605 104.043 43.9425 104.468C43.5318 104.886 43.3265 105.407 43.3265 106.03C43.3265 106.653 43.5318 107.178 43.9425 107.603ZM56.0858 109.132C55.4991 109.132 54.9638 109 54.4798 108.736C53.9958 108.465 53.6181 108.094 53.3468 107.625C53.0755 107.148 52.9398 106.617 52.9398 106.03C52.9398 105.135 53.2368 104.395 53.8308 103.808C54.4321 103.221 55.1838 102.928 56.0858 102.928C56.6798 102.928 57.2151 103.064 57.6918 103.335C58.1758 103.599 58.5535 103.969 58.8248 104.446C59.1035 104.915 59.2428 105.443 59.2428 106.03C59.2428 106.917 58.9421 107.658 58.3408 108.252C57.7395 108.839 56.9878 109.132 56.0858 109.132ZM54.5128 107.614C54.9308 108.025 55.4551 108.23 56.0858 108.23C56.7238 108.23 57.2481 108.025 57.6588 107.614C58.0768 107.196 58.2858 106.668 58.2858 106.03C58.2858 105.392 58.0768 104.868 57.6588 104.457C57.2481 104.039 56.7238 103.83 56.0858 103.83C55.4551 103.83 54.9308 104.039 54.5128 104.457C54.1021 104.868 53.8968 105.392 53.8968 106.03C53.8968 106.668 54.1021 107.196 54.5128 107.614ZM64.4808 109L62.4458 106.338H61.5988V109H60.6638V103.06H61.5988V105.469H62.4568L64.2938 103.06H65.4268L63.2598 105.909L65.6468 109H64.4808ZM71.5031 103.06H72.2511V109H71.4701L71.3711 108.098C71.0924 108.428 70.7514 108.685 70.3481 108.868C69.9521 109.044 69.5157 109.132 69.0391 109.132C68.1664 109.132 67.4367 108.839 66.8501 108.252C66.2634 107.658 65.9701 106.917 65.9701 106.03C65.9701 105.143 66.2634 104.406 66.8501 103.819C67.4367 103.225 68.1664 102.928 69.0391 102.928C69.5231 102.928 69.9631 103.02 70.3591 103.203C70.7624 103.386 71.1034 103.643 71.3821 103.973L71.5031 103.06ZM67.5431 107.603C67.9611 108.021 68.4854 108.23 69.1161 108.23C69.7467 108.23 70.2674 108.021 70.6781 107.603C71.0887 107.185 71.2941 106.661 71.2941 106.03C71.2941 105.399 71.0887 104.875 70.6781 104.457C70.2674 104.039 69.7467 103.83 69.1161 103.83C68.4854 103.83 67.9611 104.043 67.5431 104.468C67.1324 104.886 66.9271 105.407 66.9271 106.03C66.9271 106.653 67.1324 107.178 67.5431 107.603ZM77.2255 105.865C77.7681 106.158 78.0395 106.642 78.0395 107.317C78.0395 107.669 77.9405 107.984 77.7425 108.263C77.5518 108.534 77.2805 108.747 76.9285 108.901C76.5838 109.055 76.1951 109.132 75.7625 109.132C75.1318 109.132 74.6111 108.971 74.2005 108.648C73.7971 108.325 73.5698 107.893 73.5185 107.35H74.3655C74.4241 107.629 74.5781 107.849 74.8275 108.01C75.0768 108.164 75.3885 108.241 75.7625 108.241C76.1585 108.241 76.4848 108.149 76.7415 107.966C76.9981 107.783 77.1265 107.541 77.1265 107.24C77.1265 106.961 77.0165 106.73 76.7965 106.547C76.5838 106.364 76.3125 106.272 75.9825 106.272H75.1025V105.513H75.9825C76.2905 105.513 76.5361 105.436 76.7195 105.282C76.9101 105.121 77.0055 104.915 77.0055 104.666C77.0055 104.395 76.8918 104.175 76.6645 104.006C76.4371 103.837 76.1365 103.753 75.7625 103.753C75.4325 103.753 75.1575 103.826 74.9375 103.973C74.7175 104.12 74.5781 104.318 74.5195 104.567H73.6725C73.7018 104.244 73.8081 103.958 73.9915 103.709C74.1821 103.46 74.4315 103.269 74.7395 103.137C75.0548 102.998 75.4031 102.928 75.7845 102.928C76.3931 102.928 76.8955 103.086 77.2915 103.401C77.6875 103.716 77.8855 104.112 77.8855 104.589C77.8855 105.161 77.6655 105.586 77.2255 105.865ZM84.5656 103.06H85.3136V109H84.5326L84.4336 108.098C84.1549 108.428 83.8139 108.685 83.4106 108.868C83.0146 109.044 82.5782 109.132 82.1016 109.132C81.2289 109.132 80.4992 108.839 79.9126 108.252C79.3259 107.658 79.0326 106.917 79.0326 106.03C79.0326 105.143 79.3259 104.406 79.9126 103.819C80.4992 103.225 81.2289 102.928 82.1016 102.928C82.5856 102.928 83.0256 103.02 83.4216 103.203C83.8249 103.386 84.1659 103.643 84.4446 103.973L84.5656 103.06ZM80.6056 107.603C81.0236 108.021 81.5479 108.23 82.1786 108.23C82.8092 108.23 83.3299 108.021 83.7406 107.603C84.1512 107.185 84.3566 106.661 84.3566 106.03C84.3566 105.399 84.1512 104.875 83.7406 104.457C83.3299 104.039 82.8092 103.83 82.1786 103.83C81.5479 103.83 81.0236 104.043 80.6056 104.468C80.1949 104.886 79.9896 105.407 79.9896 106.03C79.9896 106.653 80.1949 107.178 80.6056 107.603ZM91.289 103.06H92.202V109H91.289V106.371H88.11V109H87.197V103.06H88.11V105.491H91.289V103.06ZM98.4605 103.06H98.9775V109H98.0975V104.754L94.6325 109H94.0935V103.06H94.9845V107.273L98.4605 103.06ZM106.427 106.052C106.427 106.133 106.419 106.246 106.405 106.393H101.334C101.407 106.943 101.634 107.387 102.016 107.724C102.397 108.054 102.866 108.219 103.424 108.219C103.834 108.219 104.197 108.131 104.513 107.955C104.835 107.772 105.092 107.515 105.283 107.185H106.262C106.012 107.801 105.638 108.281 105.14 108.626C104.641 108.963 104.069 109.132 103.424 109.132C102.566 109.132 101.847 108.835 101.268 108.241C100.688 107.647 100.399 106.91 100.399 106.03C100.399 105.143 100.688 104.406 101.268 103.819C101.847 103.225 102.566 102.928 103.424 102.928C104.311 102.928 105.033 103.229 105.591 103.83C106.148 104.431 106.427 105.172 106.427 106.052ZM103.424 103.819C103.072 103.819 102.749 103.889 102.456 104.028C102.17 104.167 101.931 104.369 101.741 104.633C101.55 104.89 101.422 105.187 101.356 105.524H105.481C105.415 105.179 105.286 104.879 105.096 104.622C104.905 104.358 104.667 104.16 104.381 104.028C104.095 103.889 103.776 103.819 103.424 103.819ZM115.035 103.06H116.036L113.209 109.242C112.989 109.726 112.773 110.1 112.56 110.364C112.347 110.628 112.109 110.819 111.845 110.936C111.581 111.061 111.258 111.123 110.877 111.123H110.316V110.276H110.8C111.196 110.276 111.493 110.195 111.691 110.034C111.889 109.873 112.109 109.543 112.351 109.044L112.56 108.593L109.92 103.06H110.943L113.055 107.559L115.035 103.06ZM119.56 109.132C118.981 109.132 118.453 109 117.976 108.736C117.507 108.465 117.136 108.091 116.865 107.614C116.601 107.137 116.469 106.609 116.469 106.03C116.469 105.143 116.762 104.406 117.349 103.819C117.943 103.225 118.68 102.928 119.56 102.928C120.264 102.928 120.873 103.122 121.386 103.511C121.907 103.9 122.259 104.417 122.442 105.062H121.518C121.342 104.681 121.078 104.38 120.726 104.16C120.381 103.94 119.993 103.83 119.56 103.83C118.951 103.83 118.442 104.043 118.031 104.468C117.628 104.886 117.426 105.407 117.426 106.03C117.426 106.441 117.518 106.815 117.701 107.152C117.884 107.482 118.137 107.746 118.46 107.944C118.79 108.135 119.157 108.23 119.56 108.23C119.993 108.23 120.378 108.12 120.715 107.9C121.06 107.673 121.324 107.361 121.507 106.965H122.453C122.27 107.625 121.914 108.153 121.386 108.549C120.865 108.938 120.257 109.132 119.56 109.132ZM124.722 103.06H128.616V109H127.681V103.874H125.503L125.195 106.877C125.114 107.662 124.912 108.219 124.59 108.549C124.267 108.872 123.783 109.033 123.138 109.033H122.973V108.153H123.182C123.519 108.153 123.776 108.058 123.952 107.867C124.128 107.669 124.238 107.357 124.282 106.932L124.722 103.06ZM134.833 103.06H135.834L133.007 109.242C132.787 109.726 132.57 110.1 132.358 110.364C132.145 110.628 131.907 110.819 131.643 110.936C131.379 111.061 131.056 111.123 130.675 111.123H130.114V110.276H130.598C130.994 110.276 131.291 110.195 131.489 110.034C131.687 109.873 131.907 109.543 132.149 109.044L132.358 108.593L129.718 103.06H130.741L132.853 107.559L134.833 103.06ZM140.64 103.06V103.896H137.857V109H136.944V103.06H140.64Z" fill="white"/>
<path d="M43.489 47.167H44.373V50.612H42.553V49H37.171V50.612H35.351V47.167H36.079C36.209 47.063 36.3173 46.9503 36.404 46.829C36.4993 46.7077 36.586 46.517 36.664 46.257C36.7507 45.9883 36.82 45.7153 36.872 45.438C36.924 45.152 36.9803 44.7143 37.041 44.125C37.1103 43.5357 37.171 42.9507 37.223 42.37C37.275 41.7807 37.3443 40.9573 37.431 39.9H43.489V47.167ZM39.134 41.733C39.03 43.4143 38.9043 44.6493 38.757 45.438C38.6097 46.218 38.393 46.7943 38.107 47.167H41.526V41.733H39.134ZM49.5712 41.785C50.6285 41.785 51.5038 42.136 52.1972 42.838C52.8992 43.54 53.2502 44.424 53.2502 45.49C53.2502 46.556 52.8992 47.4443 52.1972 48.155C51.4952 48.857 50.6198 49.208 49.5712 49.208C48.8518 49.208 48.2062 49.013 47.6342 48.623V51.535H45.7362V41.98H46.9972L47.3222 42.617C47.9462 42.0623 48.6958 41.785 49.5712 41.785ZM48.0372 46.868C48.4012 47.232 48.8562 47.414 49.4022 47.414C49.9568 47.414 50.4162 47.232 50.7802 46.868C51.1442 46.504 51.3262 46.0447 51.3262 45.49C51.3262 45.126 51.2438 44.7967 51.0792 44.502C50.9145 44.2073 50.6848 43.9777 50.3902 43.813C50.1042 43.6483 49.7792 43.566 49.4152 43.566C49.0512 43.566 48.7218 43.6483 48.4272 43.813C48.1325 43.9777 47.9028 44.2073 47.7382 44.502C47.5822 44.7967 47.5042 45.126 47.5042 45.49C47.5042 46.0447 47.6818 46.504 48.0372 46.868ZM59.1545 41.98H61.1825L58.1145 48.909C57.6812 49.8797 57.2392 50.56 56.7885 50.95C56.3378 51.34 55.7268 51.535 54.9555 51.535H54.1755V49.819H54.8385C55.2892 49.819 55.6098 49.7367 55.8005 49.572C55.9912 49.4073 56.1992 49.0563 56.4245 48.519L56.4505 48.467L53.4735 41.98H55.5405L57.4125 46.296L59.1545 41.98ZM66.1861 45.23C66.7928 45.6113 67.0961 46.1747 67.0961 46.92C67.0961 47.5873 66.8274 48.1333 66.2901 48.558C65.7528 48.9827 65.0638 49.195 64.2231 49.195C63.3564 49.195 62.6631 48.9653 62.1431 48.506C61.6231 48.0467 61.3588 47.4313 61.3501 46.66H63.0661C63.0748 46.7727 63.0964 46.881 63.1311 46.985C63.1744 47.0803 63.2264 47.1627 63.2871 47.232C63.3564 47.3013 63.4344 47.362 63.5211 47.414C63.6164 47.466 63.7204 47.505 63.8331 47.531C63.9544 47.557 64.0844 47.57 64.2231 47.57C64.5351 47.57 64.7821 47.5007 64.9641 47.362C65.1461 47.2233 65.2371 47.037 65.2371 46.803C65.2371 46.647 65.1938 46.5127 65.1071 46.4C65.0291 46.2787 64.9121 46.1877 64.7561 46.127C64.6088 46.0663 64.4311 46.036 64.2231 46.036H63.4691V44.658H64.2231C64.5004 44.658 64.7128 44.6017 64.8601 44.489C65.0074 44.3677 65.0811 44.1987 65.0811 43.982C65.0811 43.7653 64.9988 43.5963 64.8341 43.475C64.6781 43.345 64.4614 43.28 64.1841 43.28C63.9068 43.28 63.6814 43.3493 63.5081 43.488C63.3434 43.6267 63.2524 43.8217 63.2351 44.073H61.5061C61.5234 43.397 61.7834 42.8467 62.2861 42.422C62.7888 41.9973 63.4344 41.785 64.2231 41.785C65.0031 41.785 65.6401 41.9843 66.1341 42.383C66.6368 42.773 66.8881 43.2757 66.8881 43.891C66.8881 44.4283 66.6541 44.8747 66.1861 45.23ZM71.4895 43.904C72.3041 43.904 72.9585 44.138 73.4525 44.606C73.9465 45.074 74.1935 45.6893 74.1935 46.452C74.1935 47.2147 73.9465 47.83 73.4525 48.298C72.9585 48.766 72.3041 49 71.4895 49H68.4735V41.98H70.3325V43.904H71.4895ZM71.2945 47.427C71.6151 47.427 71.8665 47.3403 72.0485 47.167C72.2305 46.9937 72.3215 46.7597 72.3215 46.465C72.3215 46.1617 72.2305 45.9233 72.0485 45.75C71.8665 45.568 71.6151 45.477 71.2945 45.477H70.3325V47.427H71.2945ZM77.5126 41.98H81.0096V49H79.1896V46.569H78.0846L76.7326 49H74.7046L76.2776 46.244C75.8963 46.036 75.6016 45.763 75.3936 45.425C75.1943 45.087 75.0946 44.71 75.0946 44.294C75.0946 43.6353 75.3243 43.085 75.7836 42.643C76.243 42.201 76.8193 41.98 77.5126 41.98ZM77.8636 45.113H79.1896V43.488H77.8636C77.5863 43.488 77.3653 43.566 77.2006 43.722C77.0446 43.8693 76.9666 44.0643 76.9666 44.307C76.9666 44.463 77.0013 44.6017 77.0706 44.723C77.14 44.8443 77.2396 44.9397 77.3696 45.009C77.5083 45.0783 77.673 45.113 77.8636 45.113ZM82.7929 51.054V50.131C83.0269 50.0963 83.2175 50.0227 83.3649 49.91C83.5209 49.7973 83.6292 49.663 83.6899 49.507C83.7592 49.3597 83.7939 49.1907 83.7939 49H82.7019V46.972H84.7429V48.844C84.7429 49.4853 84.5652 49.9967 84.2099 50.378C83.8632 50.768 83.3909 50.9933 82.7929 51.054ZM93.2527 43.189C93.8334 43.189 94.349 43.3147 94.7997 43.566C95.2504 43.8087 95.6014 44.151 95.8527 44.593C96.104 45.035 96.2297 45.5333 96.2297 46.088C96.2297 46.9373 95.948 47.635 95.3847 48.181C94.83 48.727 94.1194 49 93.2527 49H89.6777V39.9H95.5147V41.694H91.6147V43.189H93.2527ZM93.0837 47.193C93.413 47.193 93.6817 47.089 93.8897 46.881C94.1064 46.673 94.2147 46.4087 94.2147 46.088C94.2147 45.932 94.1844 45.7847 94.1237 45.646C94.0717 45.5073 93.998 45.3903 93.9027 45.295C93.8074 45.1997 93.686 45.126 93.5387 45.074C93.4 45.0133 93.2484 44.983 93.0837 44.983H91.6147V47.193H93.0837ZM102.217 41.98H104.245L101.177 48.909C100.744 49.8797 100.302 50.56 99.851 50.95C99.4003 51.34 98.7893 51.535 98.018 51.535H97.238V49.819H97.901C98.3517 49.819 98.6723 49.7367 98.863 49.572C99.0537 49.4073 99.2617 49.0563 99.487 48.519L99.513 48.467L96.536 41.98H98.603L100.475 46.296L102.217 41.98ZM111.063 47.219H111.921V50.612H110.205V49H105.811V50.612H104.082V47.219H104.81C105.079 47.0023 105.274 46.582 105.395 45.958C105.525 45.334 105.681 44.008 105.863 41.98H111.063V47.219ZM107.527 43.644C107.458 44.71 107.367 45.5073 107.254 46.036C107.142 46.5647 106.981 46.959 106.773 47.219H109.204V43.644H107.527ZM116.38 43.904C117.195 43.904 117.849 44.138 118.343 44.606C118.837 45.074 119.084 45.6893 119.084 46.452C119.084 47.2147 118.837 47.83 118.343 48.298C117.849 48.766 117.195 49 116.38 49H113.364V41.98H115.223V43.904H116.38ZM116.185 47.427C116.506 47.427 116.757 47.3403 116.939 47.167C117.121 46.9937 117.212 46.7597 117.212 46.465C117.212 46.1617 117.121 45.9233 116.939 45.75C116.757 45.568 116.506 45.477 116.185 45.477H115.223V47.427H116.185ZM125.433 41.98V43.683H123.145V49H121.286V43.683H118.998V41.98H125.433ZM133.24 45.464C133.24 45.646 133.227 45.8323 133.201 46.023H127.897C127.975 46.4997 128.161 46.868 128.456 47.128C128.759 47.3793 129.145 47.505 129.613 47.505C129.933 47.505 130.224 47.4357 130.484 47.297C130.744 47.1497 130.947 46.9503 131.095 46.699H133.097C132.837 47.4617 132.395 48.0683 131.771 48.519C131.147 48.9697 130.427 49.195 129.613 49.195C128.573 49.195 127.706 48.8397 127.013 48.129C126.319 47.4183 125.973 46.5387 125.973 45.49C125.973 45.074 126.029 44.6753 126.142 44.294C126.263 43.9127 126.432 43.5703 126.649 43.267C126.874 42.9637 127.134 42.7037 127.429 42.487C127.723 42.2617 128.057 42.0883 128.43 41.967C128.802 41.8457 129.197 41.785 129.613 41.785C130.315 41.785 130.943 41.9497 131.498 42.279C132.061 42.6083 132.49 43.0547 132.785 43.618C133.088 44.1813 133.24 44.7967 133.24 45.464ZM129.613 43.397C129.188 43.397 128.828 43.514 128.534 43.748C128.248 43.982 128.053 44.307 127.949 44.723H131.342C131.255 44.437 131.129 44.1987 130.965 44.008C130.8 43.8087 130.601 43.657 130.367 43.553C130.141 43.449 129.89 43.397 129.613 43.397ZM142.745 45.269C143.066 45.4163 143.313 45.633 143.486 45.919C143.668 46.1963 143.759 46.5213 143.759 46.894C143.759 47.492 143.547 47.9947 143.122 48.402C142.706 48.8007 142.177 49 141.536 49H137.701V41.98H141.497C142.095 41.98 142.585 42.149 142.966 42.487C143.356 42.8163 143.551 43.241 143.551 43.761C143.551 44.073 143.477 44.3633 143.33 44.632C143.191 44.892 142.996 45.1043 142.745 45.269ZM141.692 44.073C141.692 43.9343 141.662 43.8173 141.601 43.722C141.54 43.618 141.454 43.54 141.341 43.488C141.237 43.4273 141.116 43.397 140.977 43.397H139.56V44.749H140.977C141.185 44.749 141.354 44.684 141.484 44.554C141.623 44.424 141.692 44.2637 141.692 44.073ZM141.068 47.492C141.302 47.492 141.488 47.4313 141.627 47.31C141.766 47.18 141.835 47.0067 141.835 46.79C141.835 46.5647 141.766 46.387 141.627 46.257C141.488 46.127 141.302 46.062 141.068 46.062H139.56V47.492H141.068ZM149.612 41.98H151.51V49H149.612V46.309H147.064V49H145.166V41.98H147.064V44.58H149.612V41.98ZM158.438 41.98H159.504V49H157.671V45.282L154.408 49H153.329V41.98H155.162V45.659L158.438 41.98ZM170.492 49H168.659L168.009 44.775L165.838 49.013H165.474L163.303 44.775L162.653 49H160.82L161.99 41.98H163.615L165.656 45.958L167.723 41.98H169.335L170.492 49ZM177.483 41.967H178.9V48.987H177.405L177.249 48.363C176.608 48.9177 175.849 49.195 174.974 49.195C173.917 49.195 173.037 48.844 172.335 48.142C171.642 47.4313 171.295 46.543 171.295 45.477C171.295 44.4197 171.642 43.54 172.335 42.838C173.037 42.136 173.917 41.785 174.974 41.785C175.867 41.785 176.634 42.071 177.275 42.643L177.483 41.967ZM173.752 46.855C174.116 47.219 174.571 47.401 175.117 47.401C175.672 47.401 176.131 47.219 176.495 46.855C176.859 46.491 177.041 46.0317 177.041 45.477C177.041 44.9223 176.859 44.463 176.495 44.099C176.131 43.735 175.676 43.553 175.13 43.553C174.766 43.553 174.437 43.6397 174.142 43.813C173.856 43.9777 173.631 44.2073 173.466 44.502C173.301 44.788 173.219 45.113 173.219 45.477C173.219 46.0317 173.397 46.491 173.752 46.855ZM186.484 41.98V43.683H184.196V49H182.337V43.683H180.049V41.98H186.484ZM194.291 45.464C194.291 45.646 194.278 45.8323 194.252 46.023H188.948C189.026 46.4997 189.213 46.868 189.507 47.128C189.811 47.3793 190.196 47.505 190.664 47.505C190.985 47.505 191.275 47.4357 191.535 47.297C191.795 47.1497 191.999 46.9503 192.146 46.699H194.148C193.888 47.4617 193.446 48.0683 192.822 48.519C192.198 48.9697 191.479 49.195 190.664 49.195C189.624 49.195 188.758 48.8397 188.064 48.129C187.371 47.4183 187.024 46.5387 187.024 45.49C187.024 45.074 187.081 44.6753 187.193 44.294C187.315 43.9127 187.484 43.5703 187.7 43.267C187.926 42.9637 188.186 42.7037 188.48 42.487C188.775 42.2617 189.109 42.0883 189.481 41.967C189.854 41.8457 190.248 41.785 190.664 41.785C191.366 41.785 191.995 41.9497 192.549 42.279C193.113 42.6083 193.542 43.0547 193.836 43.618C194.14 44.1813 194.291 44.7967 194.291 45.464ZM190.664 43.397C190.24 43.397 189.88 43.514 189.585 43.748C189.299 43.982 189.104 44.307 189 44.723H192.393C192.307 44.437 192.181 44.1987 192.016 44.008C191.852 43.8087 191.652 43.657 191.418 43.553C191.193 43.449 190.942 43.397 190.664 43.397ZM196.789 41.98H201.807V49H199.948V43.631H198.336L198.102 46.127C197.998 47.1843 197.716 47.934 197.257 48.376C196.798 48.818 196.109 49.039 195.19 49.039H194.878V47.323H195.346C195.606 47.323 195.823 47.232 195.996 47.05C196.169 46.868 196.273 46.608 196.308 46.27L196.789 41.98ZM206.644 43.904C207.458 43.904 208.113 44.138 208.607 44.606C209.101 45.074 209.348 45.6893 209.348 46.452C209.348 47.2147 209.101 47.83 208.607 48.298C208.113 48.766 207.458 49 206.644 49H203.628V41.98H205.487V43.904H206.644ZM206.449 47.427C206.769 47.427 207.021 47.3403 207.203 47.167C207.385 46.9937 207.476 46.7597 207.476 46.465C207.476 46.1617 207.385 45.9233 207.203 45.75C207.021 45.568 206.769 45.477 206.449 45.477H205.487V47.427H206.449ZM215.018 41.98H216.916V49H215.018V46.309H212.47V49H210.572V41.98H212.47V44.58H215.018V41.98ZM221.751 43.904C222.566 43.904 223.22 44.138 223.714 44.606C224.208 45.074 224.455 45.6893 224.455 46.452C224.455 47.2147 224.208 47.83 223.714 48.298C223.22 48.766 222.566 49 221.751 49H218.735V41.98H220.594V43.904H221.751ZM225.625 41.98H227.523V49H225.625V41.98ZM221.556 47.427C221.877 47.427 222.128 47.3403 222.31 47.167C222.492 46.9937 222.583 46.7597 222.583 46.465C222.583 46.1617 222.492 45.9233 222.31 45.75C222.128 45.568 221.877 45.477 221.556 45.477H220.594V47.427H221.556ZM229.504 46.062V39.64H231.428V46.062H229.504ZM229.452 49V46.972H231.467V49H229.452Z" fill="white"/>
</svg>
