<svg width="802" height="32" viewBox="0 0 802 32" fill="none" xmlns="http://www.w3.org/2000/svg">
<path d="M591.687 12.6C592.479 12.6 593.139 12.856 593.667 13.368C594.203 13.88 594.471 14.52 594.471 15.288C594.471 16.056 594.203 16.696 593.667 17.208C593.139 17.72 592.479 17.976 591.687 17.976H589.719V21H588.675V12.6H591.687ZM591.627 16.956C592.139 16.956 592.559 16.8 592.887 16.488C593.223 16.168 593.391 15.768 593.391 15.288C593.391 14.808 593.223 14.412 592.887 14.1C592.559 13.78 592.139 13.62 591.627 13.62H589.719V16.956H591.627ZM601.329 14.52H602.145V21H601.293L601.185 20.016C600.881 20.376 600.509 20.656 600.069 20.856C599.637 21.048 599.161 21.144 598.641 21.144C597.689 21.144 596.893 20.824 596.253 20.184C595.613 19.536 595.293 18.728 595.293 17.76C595.293 16.792 595.613 15.988 596.253 15.348C596.893 14.7 597.689 14.376 598.641 14.376C599.169 14.376 599.649 14.476 600.081 14.676C600.521 14.876 600.893 15.156 601.197 15.516L601.329 14.52ZM597.009 19.476C597.465 19.932 598.037 20.16 598.725 20.16C599.413 20.16 599.981 19.932 600.429 19.476C600.877 19.02 601.101 18.448 601.101 17.76C601.101 17.072 600.877 16.5 600.429 16.044C599.981 15.588 599.413 15.36 598.725 15.36C598.037 15.36 597.465 15.592 597.009 16.056C596.561 16.512 596.337 17.08 596.337 17.76C596.337 18.44 596.561 19.012 597.009 19.476ZM607.572 17.58C608.164 17.9 608.46 18.428 608.46 19.164C608.46 19.548 608.352 19.892 608.136 20.196C607.928 20.492 607.632 20.724 607.248 20.892C606.872 21.06 606.448 21.144 605.976 21.144C605.288 21.144 604.72 20.968 604.272 20.616C603.832 20.264 603.584 19.792 603.528 19.2H604.452C604.516 19.504 604.684 19.744 604.956 19.92C605.228 20.088 605.568 20.172 605.976 20.172C606.408 20.172 606.764 20.072 607.044 19.872C607.324 19.672 607.464 19.408 607.464 19.08C607.464 18.776 607.344 18.524 607.104 18.324C606.872 18.124 606.576 18.024 606.216 18.024H605.256V17.196H606.216C606.552 17.196 606.82 17.112 607.02 16.944C607.228 16.768 607.332 16.544 607.332 16.272C607.332 15.976 607.208 15.736 606.96 15.552C606.712 15.368 606.384 15.276 605.976 15.276C605.616 15.276 605.316 15.356 605.076 15.516C604.836 15.676 604.684 15.892 604.62 16.164H603.696C603.728 15.812 603.844 15.5 604.044 15.228C604.252 14.956 604.524 14.748 604.86 14.604C605.204 14.452 605.584 14.376 606 14.376C606.664 14.376 607.212 14.548 607.644 14.892C608.076 15.236 608.292 15.668 608.292 16.188C608.292 16.812 608.052 17.276 607.572 17.58ZM613.491 14.376C614.459 14.376 615.255 14.696 615.879 15.336C616.511 15.976 616.827 16.784 616.827 17.76C616.827 18.728 616.511 19.536 615.879 20.184C615.255 20.824 614.459 21.144 613.491 21.144C612.515 21.144 611.711 20.808 611.079 20.136V23.316H610.059V14.52H610.755L610.959 15.516C611.263 15.156 611.631 14.876 612.063 14.676C612.503 14.476 612.979 14.376 613.491 14.376ZM613.419 20.16C614.107 20.16 614.675 19.932 615.123 19.476C615.571 19.02 615.795 18.448 615.795 17.76C615.795 17.072 615.571 16.5 615.123 16.044C614.675 15.588 614.107 15.36 613.419 15.36C612.731 15.36 612.159 15.592 611.703 16.056C611.255 16.512 611.031 17.08 611.031 17.76C611.031 18.208 611.131 18.616 611.331 18.984C611.539 19.352 611.827 19.64 612.195 19.848C612.563 20.056 612.971 20.16 613.419 20.16ZM623.9 14.52H624.716V21H623.864L623.756 20.016C623.452 20.376 623.08 20.656 622.64 20.856C622.208 21.048 621.732 21.144 621.212 21.144C620.26 21.144 619.464 20.824 618.824 20.184C618.184 19.536 617.864 18.728 617.864 17.76C617.864 16.792 618.184 15.988 618.824 15.348C619.464 14.7 620.26 14.376 621.212 14.376C621.74 14.376 622.22 14.476 622.652 14.676C623.092 14.876 623.464 15.156 623.768 15.516L623.9 14.52ZM619.58 19.476C620.036 19.932 620.608 20.16 621.296 20.16C621.984 20.16 622.552 19.932 623 19.476C623.448 19.02 623.672 18.448 623.672 17.76C623.672 17.072 623.448 16.5 623 16.044C622.552 15.588 621.984 15.36 621.296 15.36C620.608 15.36 620.036 15.592 619.58 16.056C619.132 16.512 618.908 17.08 618.908 17.76C618.908 18.44 619.132 19.012 619.58 19.476ZM629.95 14.856C630.87 14.856 631.626 15.148 632.218 15.732C632.81 16.308 633.106 17.048 633.106 17.952C633.106 18.888 632.798 19.656 632.182 20.256C631.566 20.848 630.774 21.144 629.806 21.144C628.79 21.144 627.978 20.824 627.37 20.184C626.77 19.536 626.47 18.672 626.47 17.592C626.47 15.928 626.77 14.684 627.37 13.86C627.97 13.036 629.01 12.444 630.49 12.084L632.41 11.628V12.636L630.514 13.092C629.674 13.284 629.018 13.6 628.546 14.04C628.074 14.48 627.77 15.064 627.634 15.792C628.202 15.168 628.974 14.856 629.95 14.856ZM629.806 20.16C630.446 20.16 630.982 19.952 631.414 19.536C631.846 19.112 632.062 18.588 632.062 17.964C632.062 17.332 631.846 16.804 631.414 16.38C630.982 15.956 630.446 15.744 629.806 15.744C629.158 15.744 628.618 15.956 628.186 16.38C627.754 16.796 627.538 17.32 627.538 17.952C627.538 18.264 627.594 18.556 627.706 18.828C627.826 19.1 627.986 19.332 628.186 19.524C628.386 19.716 628.626 19.872 628.906 19.992C629.186 20.104 629.486 20.16 629.806 20.16ZM637.585 21.144C636.945 21.144 636.361 21 635.833 20.712C635.305 20.416 634.893 20.012 634.597 19.5C634.301 18.98 634.153 18.4 634.153 17.76C634.153 16.784 634.477 15.976 635.125 15.336C635.781 14.696 636.601 14.376 637.585 14.376C638.233 14.376 638.817 14.524 639.337 14.82C639.865 15.108 640.277 15.512 640.573 16.032C640.877 16.544 641.029 17.12 641.029 17.76C641.029 18.728 640.701 19.536 640.045 20.184C639.389 20.824 638.569 21.144 637.585 21.144ZM635.869 19.488C636.325 19.936 636.897 20.16 637.585 20.16C638.281 20.16 638.853 19.936 639.301 19.488C639.757 19.032 639.985 18.456 639.985 17.76C639.985 17.064 639.757 16.492 639.301 16.044C638.853 15.588 638.281 15.36 637.585 15.36C636.897 15.36 636.325 15.588 635.869 16.044C635.421 16.492 635.197 17.064 635.197 17.76C635.197 18.456 635.421 19.032 635.869 19.488ZM647.36 14.52V15.444H644.948V21H643.952V15.444H641.54V14.52H647.36ZM652.755 21L650.535 18.096H649.611V21H648.591V14.52H649.611V17.148H650.547L652.551 14.52H653.787L651.423 17.628L654.027 21H652.755ZM660.415 14.52H661.231V21H660.379L660.271 20.016C659.967 20.376 659.595 20.656 659.155 20.856C658.723 21.048 658.247 21.144 657.727 21.144C656.775 21.144 655.979 20.824 655.339 20.184C654.699 19.536 654.379 18.728 654.379 17.76C654.379 16.792 654.699 15.988 655.339 15.348C655.979 14.7 656.775 14.376 657.727 14.376C658.255 14.376 658.735 14.476 659.167 14.676C659.607 14.876 659.979 15.156 660.283 15.516L660.415 14.52ZM656.095 19.476C656.551 19.932 657.123 20.16 657.811 20.16C658.499 20.16 659.067 19.932 659.515 19.476C659.963 19.02 660.187 18.448 660.187 17.76C660.187 17.072 659.963 16.5 659.515 16.044C659.067 15.588 658.499 15.36 657.811 15.36C657.123 15.36 656.551 15.592 656.095 16.056C655.647 16.512 655.423 17.08 655.423 17.76C655.423 18.44 655.647 19.012 656.095 19.476ZM669.283 21.144C668.651 21.144 668.075 21 667.555 20.712C667.043 20.416 666.639 20.008 666.343 19.488C666.055 18.968 665.911 18.392 665.911 17.76C665.911 16.792 666.231 15.988 666.871 15.348C667.519 14.7 668.323 14.376 669.283 14.376C670.051 14.376 670.715 14.588 671.275 15.012C671.843 15.436 672.227 16 672.427 16.704H671.419C671.227 16.288 670.939 15.96 670.555 15.72C670.179 15.48 669.755 15.36 669.283 15.36C668.619 15.36 668.063 15.592 667.615 16.056C667.175 16.512 666.955 17.08 666.955 17.76C666.955 18.208 667.055 18.616 667.255 18.984C667.455 19.344 667.731 19.632 668.083 19.848C668.443 20.056 668.843 20.16 669.283 20.16C669.755 20.16 670.175 20.04 670.543 19.8C670.919 19.552 671.207 19.212 671.407 18.78H672.439C672.239 19.5 671.851 20.076 671.275 20.508C670.707 20.932 670.043 21.144 669.283 21.144ZM679.388 14.52H680.204V21H679.352L679.244 20.016C678.94 20.376 678.568 20.656 678.128 20.856C677.696 21.048 677.22 21.144 676.7 21.144C675.748 21.144 674.952 20.824 674.312 20.184C673.672 19.536 673.352 18.728 673.352 17.76C673.352 16.792 673.672 15.988 674.312 15.348C674.952 14.7 675.748 14.376 676.7 14.376C677.228 14.376 677.708 14.476 678.14 14.676C678.58 14.876 678.952 15.156 679.256 15.516L679.388 14.52ZM675.068 19.476C675.524 19.932 676.096 20.16 676.784 20.16C677.472 20.16 678.04 19.932 678.488 19.476C678.936 19.02 679.16 18.448 679.16 17.76C679.16 17.072 678.936 16.5 678.488 16.044C678.04 15.588 677.472 15.36 676.784 15.36C676.096 15.36 675.524 15.592 675.068 16.056C674.62 16.512 674.396 17.08 674.396 17.76C674.396 18.44 674.62 19.012 675.068 19.476ZM686.507 12.444V13.212H683.363V12.444H686.507ZM687.023 14.52H687.587V21H686.627V16.368L682.847 21H682.259V14.52H683.231V19.116L687.023 14.52ZM694.645 14.52V15.444H692.233V21H691.237V15.444H688.825V14.52H694.645ZM701.185 14.52H702.001V21H701.149L701.041 20.016C700.737 20.376 700.365 20.656 699.925 20.856C699.493 21.048 699.017 21.144 698.497 21.144C697.545 21.144 696.749 20.824 696.109 20.184C695.469 19.536 695.149 18.728 695.149 17.76C695.149 16.792 695.469 15.988 696.109 15.348C696.749 14.7 697.545 14.376 698.497 14.376C699.025 14.376 699.505 14.476 699.937 14.676C700.377 14.876 700.749 15.156 701.053 15.516L701.185 14.52ZM696.865 19.476C697.321 19.932 697.893 20.16 698.581 20.16C699.269 20.16 699.837 19.932 700.285 19.476C700.733 19.02 700.957 18.448 700.957 17.76C700.957 17.072 700.733 16.5 700.285 16.044C699.837 15.588 699.269 15.36 698.581 15.36C697.893 15.36 697.321 15.592 696.865 16.056C696.417 16.512 696.193 17.08 696.193 17.76C696.193 18.44 696.417 19.012 696.865 19.476ZM703.863 16.452V15.18H705.027V16.452H703.863ZM703.863 21V19.728H705.027V21H703.863ZM715.564 12.6H716.608V21H715.564V17.184H711.208V21H710.164V12.6H711.208V16.176H715.564V12.6ZM724.212 14.52H725.028V21H724.176L724.068 20.016C723.764 20.376 723.392 20.656 722.952 20.856C722.52 21.048 722.044 21.144 721.524 21.144C720.572 21.144 719.776 20.824 719.136 20.184C718.496 19.536 718.176 18.728 718.176 17.76C718.176 16.792 718.496 15.988 719.136 15.348C719.776 14.7 720.572 14.376 721.524 14.376C722.052 14.376 722.532 14.476 722.964 14.676C723.404 14.876 723.776 15.156 724.08 15.516L724.212 14.52ZM719.892 19.476C720.348 19.932 720.92 20.16 721.608 20.16C722.296 20.16 722.864 19.932 723.312 19.476C723.76 19.02 723.984 18.448 723.984 17.76C723.984 17.072 723.76 16.5 723.312 16.044C722.864 15.588 722.296 15.36 721.608 15.36C720.92 15.36 720.348 15.592 719.892 16.056C719.444 16.512 719.22 17.08 719.22 17.76C719.22 18.44 719.444 19.012 719.892 19.476ZM727.083 21V12.204H728.103V21H727.083ZM736.213 17.784C736.213 17.872 736.205 17.996 736.189 18.156H730.657C730.737 18.756 730.985 19.24 731.401 19.608C731.817 19.968 732.329 20.148 732.937 20.148C733.385 20.148 733.781 20.052 734.125 19.86C734.477 19.66 734.757 19.38 734.965 19.02H736.033C735.761 19.692 735.353 20.216 734.809 20.592C734.265 20.96 733.641 21.144 732.937 21.144C732.001 21.144 731.217 20.82 730.585 20.172C729.953 19.524 729.637 18.72 729.637 17.76C729.637 16.792 729.953 15.988 730.585 15.348C731.217 14.7 732.001 14.376 732.937 14.376C733.905 14.376 734.693 14.704 735.301 15.36C735.909 16.016 736.213 16.824 736.213 17.784ZM732.937 15.348C732.553 15.348 732.201 15.424 731.881 15.576C731.569 15.728 731.309 15.948 731.101 16.236C730.893 16.516 730.753 16.84 730.681 17.208H735.181C735.109 16.832 734.969 16.504 734.761 16.224C734.553 15.936 734.293 15.72 733.981 15.576C733.669 15.424 733.321 15.348 732.937 15.348ZM742.007 21L739.787 18.096H738.863V21H737.843V12.204H738.863V17.148H739.799L741.803 14.52H743.039L740.675 17.628L743.279 21H742.007ZM747.108 21.144C746.468 21.144 745.884 21 745.356 20.712C744.828 20.416 744.416 20.012 744.12 19.5C743.824 18.98 743.676 18.4 743.676 17.76C743.676 16.784 744 15.976 744.648 15.336C745.304 14.696 746.124 14.376 747.108 14.376C747.756 14.376 748.34 14.524 748.86 14.82C749.388 15.108 749.8 15.512 750.096 16.032C750.4 16.544 750.552 17.12 750.552 17.76C750.552 18.728 750.224 19.536 749.568 20.184C748.912 20.824 748.092 21.144 747.108 21.144ZM745.392 19.488C745.848 19.936 746.42 20.16 747.108 20.16C747.804 20.16 748.376 19.936 748.824 19.488C749.28 19.032 749.508 18.456 749.508 17.76C749.508 17.064 749.28 16.492 748.824 16.044C748.376 15.588 747.804 15.36 747.108 15.36C746.42 15.36 745.848 15.588 745.392 16.044C744.944 16.492 744.72 17.064 744.72 17.76C744.72 18.456 744.944 19.032 745.392 19.488ZM756.487 14.52H757.531L754.795 21H753.871L751.063 14.52H752.131L754.327 19.68L756.487 14.52ZM764.557 12.6C765.789 12.6 766.805 12.996 767.605 13.788C768.413 14.58 768.817 15.584 768.817 16.8C768.817 18.016 768.413 19.02 767.605 19.812C766.805 20.604 765.789 21 764.557 21H761.761V12.6H764.557ZM764.521 20.016C765.465 20.016 766.237 19.712 766.837 19.104C767.437 18.496 767.737 17.728 767.737 16.8C767.737 16.184 767.601 15.632 767.329 15.144C767.057 14.656 766.677 14.276 766.189 14.004C765.701 13.724 765.145 13.584 764.521 13.584H762.805V20.016H764.521ZM776.502 17.784C776.502 17.872 776.494 17.996 776.478 18.156H770.946C771.026 18.756 771.274 19.24 771.69 19.608C772.106 19.968 772.618 20.148 773.226 20.148C773.674 20.148 774.07 20.052 774.414 19.86C774.766 19.66 775.046 19.38 775.254 19.02H776.322C776.05 19.692 775.642 20.216 775.098 20.592C774.554 20.96 773.93 21.144 773.226 21.144C772.29 21.144 771.506 20.82 770.874 20.172C770.242 19.524 769.926 18.72 769.926 17.76C769.926 16.792 770.242 15.988 770.874 15.348C771.506 14.7 772.29 14.376 773.226 14.376C774.194 14.376 774.982 14.704 775.59 15.36C776.198 16.016 776.502 16.824 776.502 17.784ZM773.226 15.348C772.842 15.348 772.49 15.424 772.17 15.576C771.858 15.728 771.598 15.948 771.39 16.236C771.182 16.516 771.042 16.84 770.97 17.208H775.47C775.398 16.832 775.258 16.504 775.05 16.224C774.842 15.936 774.582 15.72 774.27 15.576C773.958 15.424 773.61 15.348 773.226 15.348ZM780.076 21.144C779.564 21.144 779.116 21.06 778.732 20.892C778.348 20.716 778.048 20.468 777.832 20.148C777.616 19.82 777.5 19.44 777.484 19.008H778.48C778.504 19.384 778.664 19.676 778.96 19.884C779.256 20.092 779.636 20.196 780.1 20.196C780.556 20.196 780.924 20.108 781.204 19.932C781.484 19.748 781.624 19.5 781.624 19.188C781.624 19.068 781.604 18.96 781.564 18.864C781.532 18.768 781.472 18.684 781.384 18.612C781.296 18.54 781.208 18.48 781.12 18.432C781.032 18.384 780.912 18.34 780.76 18.3C780.616 18.26 780.488 18.232 780.376 18.216C780.272 18.192 780.128 18.164 779.944 18.132C779.736 18.1 779.576 18.072 779.464 18.048C779.352 18.024 779.2 17.988 779.008 17.94C778.816 17.884 778.664 17.828 778.552 17.772C778.44 17.716 778.316 17.64 778.18 17.544C778.044 17.448 777.94 17.344 777.868 17.232C777.796 17.12 777.732 16.98 777.676 16.812C777.628 16.644 777.604 16.456 777.604 16.248C777.604 15.976 777.66 15.724 777.772 15.492C777.892 15.26 778.056 15.064 778.264 14.904C778.48 14.736 778.74 14.608 779.044 14.52C779.348 14.424 779.68 14.376 780.04 14.376C780.776 14.376 781.364 14.556 781.804 14.916C782.244 15.276 782.472 15.764 782.488 16.38H781.528C781.512 16.148 781.44 15.952 781.312 15.792C781.192 15.624 781.02 15.5 780.796 15.42C780.58 15.332 780.324 15.288 780.028 15.288C779.732 15.288 779.476 15.328 779.26 15.408C779.044 15.48 778.876 15.588 778.756 15.732C778.644 15.876 778.588 16.04 778.588 16.224C778.588 16.352 778.62 16.468 778.684 16.572C778.748 16.668 778.82 16.748 778.9 16.812C778.98 16.868 779.104 16.924 779.272 16.98C779.44 17.028 779.58 17.064 779.692 17.088C779.812 17.104 779.98 17.132 780.196 17.172C780.42 17.204 780.584 17.232 780.688 17.256C780.8 17.272 780.956 17.308 781.156 17.364C781.364 17.412 781.524 17.464 781.636 17.52C781.748 17.576 781.876 17.656 782.02 17.76C782.172 17.856 782.284 17.968 782.356 18.096C782.428 18.216 782.492 18.368 782.548 18.552C782.604 18.728 782.632 18.924 782.632 19.14C782.632 19.748 782.396 20.236 781.924 20.604C781.46 20.964 780.844 21.144 780.076 21.144ZM784.129 13.392V12.228H785.233V13.392H784.129ZM784.177 21V14.52H785.197V21H784.177ZM792.599 14.52H793.283V20.088C793.283 21.136 792.999 21.96 792.431 22.56C791.863 23.16 791.087 23.46 790.103 23.46C789.311 23.46 788.643 23.264 788.099 22.872C787.563 22.48 787.207 21.94 787.031 21.252H788.051C788.195 21.652 788.451 21.964 788.819 22.188C789.195 22.412 789.623 22.524 790.103 22.524C790.759 22.524 791.283 22.316 791.675 21.9C792.075 21.492 792.275 20.932 792.275 20.22V19.824C791.659 20.472 790.875 20.796 789.923 20.796C789.019 20.796 788.259 20.488 787.643 19.872C787.035 19.256 786.731 18.496 786.731 17.592C786.731 17 786.871 16.46 787.151 15.972C787.431 15.476 787.815 15.088 788.303 14.808C788.791 14.52 789.331 14.376 789.923 14.376C790.427 14.376 790.895 14.48 791.327 14.688C791.767 14.888 792.135 15.168 792.431 15.528L792.599 14.52ZM790.031 19.812C790.455 19.812 790.839 19.716 791.183 19.524C791.527 19.332 791.795 19.068 791.987 18.732C792.179 18.396 792.275 18.016 792.275 17.592C792.275 16.944 792.063 16.412 791.639 15.996C791.215 15.572 790.679 15.36 790.031 15.36C789.383 15.36 788.843 15.572 788.411 15.996C787.987 16.42 787.775 16.952 787.775 17.592C787.775 18.224 787.987 18.752 788.411 19.176C788.843 19.6 789.383 19.812 790.031 19.812ZM798.573 14.376C799.333 14.376 799.937 14.632 800.385 15.144C800.841 15.656 801.069 16.316 801.069 17.124V21H800.049V17.364C800.049 16.924 799.981 16.552 799.845 16.248C799.717 15.944 799.521 15.712 799.257 15.552C799.001 15.392 798.685 15.312 798.309 15.312C797.757 15.312 797.293 15.52 796.917 15.936C796.541 16.344 796.353 16.852 796.353 17.46V21H795.333V14.52H796.053L796.257 15.54C796.417 15.292 796.613 15.084 796.845 14.916C797.077 14.74 797.341 14.608 797.637 14.52C797.933 14.424 798.245 14.376 798.573 14.376Z" fill="#4B5258"/>
<g clip-path="url(#clip0_155_14454)">
<path d="M480.556 20.2413L480.027 27.6867C480.784 27.6867 481.112 27.3613 481.505 26.9707L485.056 23.5773L492.413 28.9653C493.763 29.7173 494.713 29.3213 495.077 27.724L499.907 5.09468L499.908 5.09334C500.336 3.09868 499.187 2.31868 497.872 2.80801L469.485 13.676C467.548 14.428 467.577 15.508 469.156 15.9973L476.413 18.2547L493.271 7.70668C494.064 7.18134 494.785 7.47201 494.192 7.99734L480.556 20.2413Z" fill="#039BE5"/>
</g>
<g clip-path="url(#clip1_155_14454)">
<path d="M523.321 2.01619C515.926 2.36829 510.091 8.5267 510.113 15.9298C510.12 18.1847 510.664 20.3129 511.625 22.1934L510.15 29.35C510.071 29.7371 510.42 30.0761 510.804 29.985L517.817 28.3236C519.619 29.2211 521.642 29.7394 523.784 29.7721C531.342 29.8875 537.644 23.8862 537.88 16.3308C538.132 8.23199 531.448 1.62914 523.321 2.01619ZM531.689 23.5756C529.635 25.6293 526.904 26.7603 524 26.7603C522.299 26.7603 520.671 26.3788 519.161 25.6263L518.184 25.1398L513.885 26.1585L514.79 21.7651L514.308 20.823C513.524 19.2871 513.127 17.6264 513.127 15.8868C513.127 12.9824 514.258 10.2519 516.311 8.19811C518.347 6.16274 521.122 5.0133 524 5.0133C526.905 5.01337 529.635 6.14439 531.689 8.19804C533.742 10.2518 534.874 12.9823 534.874 15.8866C534.874 18.7652 533.724 21.5403 531.689 23.5756Z" fill="#7AD06D"/>
<path d="M530.74 18.8985L528.05 18.1261C527.696 18.0246 527.315 18.1249 527.058 18.3875L526.4 19.0576C526.122 19.3402 525.702 19.431 525.334 19.2825C524.062 18.7676 521.385 16.3877 520.702 15.1972C520.505 14.8538 520.537 14.4245 520.779 14.1112L521.354 13.3682C521.579 13.0772 521.626 12.6862 521.477 12.3497L520.346 9.79016C520.074 9.1771 519.291 8.99864 518.779 9.4315C518.029 10.0665 517.138 11.0313 517.029 12.1003C516.839 13.9849 517.647 16.3607 520.703 19.2133C524.234 22.509 527.062 22.9444 528.903 22.4984C529.947 22.2455 530.782 21.2315 531.308 20.4013C531.667 19.8352 531.384 19.0835 530.74 18.8985Z" fill="#7AD06D"/>
</g>
<path d="M116.535 12.6H122.655V21H121.587V13.584H117.579V21H116.535V12.6ZM127.651 21.144C127.011 21.144 126.427 21 125.899 20.712C125.371 20.416 124.959 20.012 124.663 19.5C124.367 18.98 124.219 18.4 124.219 17.76C124.219 16.784 124.543 15.976 125.191 15.336C125.847 14.696 126.667 14.376 127.651 14.376C128.299 14.376 128.883 14.524 129.403 14.82C129.931 15.108 130.343 15.512 130.639 16.032C130.943 16.544 131.095 17.12 131.095 17.76C131.095 18.728 130.767 19.536 130.111 20.184C129.455 20.824 128.635 21.144 127.651 21.144ZM125.935 19.488C126.391 19.936 126.963 20.16 127.651 20.16C128.347 20.16 128.919 19.936 129.367 19.488C129.823 19.032 130.051 18.456 130.051 17.76C130.051 17.064 129.823 16.492 129.367 16.044C128.919 15.588 128.347 15.36 127.651 15.36C126.963 15.36 126.391 15.588 125.935 16.044C125.487 16.492 125.263 17.064 125.263 17.76C125.263 18.456 125.487 19.032 125.935 19.488ZM133.574 14.52H137.822V21H136.802V15.408H134.426L134.09 18.684C134.002 19.54 133.782 20.148 133.43 20.508C133.078 20.86 132.55 21.036 131.846 21.036H131.666V20.076H131.894C132.262 20.076 132.542 19.972 132.734 19.764C132.926 19.548 133.046 19.208 133.094 18.744L133.574 14.52ZM144.64 14.52H145.204V21H144.244V16.368L140.464 21H139.876V14.52H140.848V19.116L144.64 14.52ZM152.262 14.52V15.444H149.85V21H148.854V15.444H146.442V14.52H152.262ZM158.257 14.52H158.821V21H157.861V16.368L154.081 21H153.493V14.52H154.465V19.116L158.257 14.52ZM165.051 21L162.831 18.096H161.907V21H160.887V14.52H161.907V17.148H162.843L164.847 14.52H166.083L163.719 17.628L166.323 21H165.051ZM172.712 14.52H173.528V21H172.676L172.568 20.016C172.264 20.376 171.892 20.656 171.452 20.856C171.02 21.048 170.544 21.144 170.024 21.144C169.072 21.144 168.276 20.824 167.636 20.184C166.996 19.536 166.676 18.728 166.676 17.76C166.676 16.792 166.996 15.988 167.636 15.348C168.276 14.7 169.072 14.376 170.024 14.376C170.552 14.376 171.032 14.476 171.464 14.676C171.904 14.876 172.276 15.156 172.58 15.516L172.712 14.52ZM168.392 19.476C168.848 19.932 169.42 20.16 170.108 20.16C170.796 20.16 171.364 19.932 171.812 19.476C172.26 19.02 172.484 18.448 172.484 17.76C172.484 17.072 172.26 16.5 171.812 16.044C171.364 15.588 170.796 15.36 170.108 15.36C169.42 15.36 168.848 15.592 168.392 16.056C167.944 16.512 167.72 17.08 167.72 17.76C167.72 18.44 167.944 19.012 168.392 19.476ZM182.887 21L180.667 18.096H179.743V21H178.723V14.52H179.743V17.148H180.679L182.683 14.52H183.919L181.555 17.628L184.159 21H182.887ZM187.944 21.144C187.304 21.144 186.72 21 186.192 20.712C185.664 20.416 185.252 20.012 184.956 19.5C184.66 18.98 184.512 18.4 184.512 17.76C184.512 16.784 184.836 15.976 185.484 15.336C186.14 14.696 186.96 14.376 187.944 14.376C188.592 14.376 189.176 14.524 189.696 14.82C190.224 15.108 190.636 15.512 190.932 16.032C191.236 16.544 191.388 17.12 191.388 17.76C191.388 18.728 191.06 19.536 190.404 20.184C189.748 20.824 188.928 21.144 187.944 21.144ZM186.228 19.488C186.684 19.936 187.256 20.16 187.944 20.16C188.64 20.16 189.212 19.936 189.66 19.488C190.116 19.032 190.344 18.456 190.344 17.76C190.344 17.064 190.116 16.492 189.66 16.044C189.212 15.588 188.64 15.36 187.944 15.36C187.256 15.36 186.684 15.588 186.228 16.044C185.78 16.492 185.556 17.064 185.556 17.76C185.556 18.456 185.78 19.032 186.228 19.488ZM197.402 14.52H198.398V21H197.402V18.132H193.934V21H192.938V14.52H193.934V17.172H197.402V14.52ZM207.698 17.784C207.698 18.744 207.382 19.536 206.75 20.16C206.118 20.776 205.31 21.104 204.326 21.144V23.04H203.306V21.144C202.666 21.12 202.09 20.964 201.578 20.676C201.066 20.388 200.666 19.992 200.378 19.488C200.09 18.984 199.946 18.416 199.946 17.784C199.946 16.816 200.262 16.016 200.894 15.384C201.534 14.752 202.338 14.416 203.306 14.376V12.564H204.326V14.376C205.302 14.416 206.106 14.752 206.738 15.384C207.378 16.016 207.698 16.816 207.698 17.784ZM201.614 16.116C201.174 16.556 200.954 17.108 200.954 17.772C200.954 18.436 201.17 18.988 201.602 19.428C202.042 19.86 202.61 20.092 203.306 20.124V15.396C202.618 15.428 202.054 15.668 201.614 16.116ZM204.326 20.124C205.022 20.092 205.59 19.856 206.03 19.416C206.47 18.976 206.69 18.428 206.69 17.772C206.69 17.108 206.466 16.556 206.018 16.116C205.578 15.668 205.014 15.428 204.326 15.396V20.124ZM214.015 14.52H214.579V21H213.619V16.368L209.839 21H209.251V14.52H210.223V19.116L214.015 14.52ZM222.069 20.04H222.945V22.716H222.009V21H216.789V22.716H215.853V20.04H216.549C216.741 19.864 216.889 19.616 216.993 19.296C217.097 18.968 217.189 18.472 217.269 17.808C217.357 17.136 217.461 16.04 217.581 14.52H222.069V20.04ZM218.493 15.42C218.421 16.492 218.345 17.328 218.265 17.928C218.193 18.52 218.109 18.976 218.013 19.296C217.917 19.608 217.793 19.856 217.641 20.04H221.073V15.42H218.493ZM230.393 17.784C230.393 17.872 230.385 17.996 230.369 18.156H224.837C224.917 18.756 225.165 19.24 225.581 19.608C225.997 19.968 226.509 20.148 227.117 20.148C227.565 20.148 227.961 20.052 228.305 19.86C228.657 19.66 228.937 19.38 229.145 19.02H230.213C229.941 19.692 229.533 20.216 228.989 20.592C228.445 20.96 227.821 21.144 227.117 21.144C226.181 21.144 225.397 20.82 224.765 20.172C224.133 19.524 223.817 18.72 223.817 17.76C223.817 16.792 224.133 15.988 224.765 15.348C225.397 14.7 226.181 14.376 227.117 14.376C228.085 14.376 228.873 14.704 229.481 15.36C230.089 16.016 230.393 16.824 230.393 17.784ZM227.117 15.348C226.733 15.348 226.381 15.424 226.061 15.576C225.749 15.728 225.489 15.948 225.281 16.236C225.073 16.516 224.933 16.84 224.861 17.208H229.361C229.289 16.832 229.149 16.504 228.941 16.224C228.733 15.936 228.473 15.72 228.161 15.576C227.849 15.424 227.501 15.348 227.117 15.348ZM236.379 14.52H237.375V21H236.379V18.132H232.911V21H231.915V14.52H232.911V17.172H236.379V14.52ZM244.718 20.052H245.618V22.716H244.682V21H239.438V14.52H240.434V20.052H243.722V14.52H244.718V20.052ZM251.855 14.52H252.419V21H251.459V16.368L247.679 21H247.091V14.52H248.063V19.116L251.855 14.52ZM260.005 14.52H260.821V21H259.969L259.861 20.016C259.557 20.376 259.185 20.656 258.745 20.856C258.313 21.048 257.837 21.144 257.317 21.144C256.365 21.144 255.569 20.824 254.929 20.184C254.289 19.536 253.969 18.728 253.969 17.76C253.969 16.792 254.289 15.988 254.929 15.348C255.569 14.7 256.365 14.376 257.317 14.376C257.845 14.376 258.325 14.476 258.757 14.676C259.197 14.876 259.569 15.156 259.873 15.516L260.005 14.52ZM255.685 19.476C256.141 19.932 256.713 20.16 257.401 20.16C258.089 20.16 258.657 19.932 259.105 19.476C259.553 19.02 259.777 18.448 259.777 17.76C259.777 17.072 259.553 16.5 259.105 16.044C258.657 15.588 258.089 15.36 257.401 15.36C256.713 15.36 256.141 15.592 255.685 16.056C255.237 16.512 255.013 17.08 255.013 17.76C255.013 18.44 255.237 19.012 255.685 19.476ZM263.98 14.52H268.228V21H267.208V15.408H264.832L264.496 18.684C264.408 19.54 264.188 20.148 263.836 20.508C263.484 20.86 262.956 21.036 262.252 21.036H262.072V20.076H262.3C262.668 20.076 262.948 19.972 263.14 19.764C263.332 19.548 263.452 19.208 263.5 18.744L263.98 14.52ZM272.886 16.56C273.566 16.56 274.122 16.768 274.554 17.184C274.986 17.592 275.202 18.128 275.202 18.792C275.202 19.44 274.986 19.972 274.554 20.388C274.122 20.796 273.566 21 272.886 21H270.282V14.52H271.278V16.56H272.886ZM272.754 20.088C273.178 20.088 273.518 19.968 273.774 19.728C274.03 19.488 274.158 19.176 274.158 18.792C274.158 18.4 274.03 18.084 273.774 17.844C273.518 17.596 273.178 17.472 272.754 17.472H271.278V20.088H272.754ZM281.062 14.52H282.058V21H281.062V18.132H277.594V21H276.598V14.52H277.594V17.172H281.062V14.52ZM287.038 21.144C286.398 21.144 285.814 21 285.286 20.712C284.758 20.416 284.346 20.012 284.05 19.5C283.754 18.98 283.606 18.4 283.606 17.76C283.606 16.784 283.93 15.976 284.578 15.336C285.234 14.696 286.054 14.376 287.038 14.376C287.686 14.376 288.27 14.524 288.79 14.82C289.318 15.108 289.73 15.512 290.026 16.032C290.33 16.544 290.482 17.12 290.482 17.76C290.482 18.728 290.154 19.536 289.498 20.184C288.842 20.824 288.022 21.144 287.038 21.144ZM285.322 19.488C285.778 19.936 286.35 20.16 287.038 20.16C287.734 20.16 288.306 19.936 288.754 19.488C289.21 19.032 289.438 18.456 289.438 17.76C289.438 17.064 289.21 16.492 288.754 16.044C288.306 15.588 287.734 15.36 287.038 15.36C286.35 15.36 285.778 15.588 285.322 16.044C284.874 16.492 284.65 17.064 284.65 17.76C284.65 18.456 284.874 19.032 285.322 19.488ZM294.888 21.144C294.256 21.144 293.68 21 293.16 20.712C292.648 20.416 292.244 20.008 291.948 19.488C291.66 18.968 291.516 18.392 291.516 17.76C291.516 16.792 291.836 15.988 292.476 15.348C293.124 14.7 293.928 14.376 294.888 14.376C295.656 14.376 296.32 14.588 296.88 15.012C297.448 15.436 297.832 16 298.032 16.704H297.024C296.832 16.288 296.544 15.96 296.16 15.72C295.784 15.48 295.36 15.36 294.888 15.36C294.224 15.36 293.668 15.592 293.22 16.056C292.78 16.512 292.56 17.08 292.56 17.76C292.56 18.208 292.66 18.616 292.86 18.984C293.06 19.344 293.336 19.632 293.688 19.848C294.048 20.056 294.448 20.16 294.888 20.16C295.36 20.16 295.78 20.04 296.148 19.8C296.524 19.552 296.812 19.212 297.012 18.78H298.044C297.844 19.5 297.456 20.076 296.88 20.508C296.312 20.932 295.648 21.144 294.888 21.144ZM304.407 14.52V15.444H301.995V21H300.999V15.444H298.587V14.52H304.407ZM310.401 14.52H310.965V21H310.005V16.368L306.225 21H305.637V14.52H306.609V19.116L310.401 14.52Z" fill="#4B5258"/>
<path d="M4.91009 12.6C5.70209 12.6 6.36209 12.856 6.89009 13.368C7.42609 13.88 7.69409 14.52 7.69409 15.288C7.69409 16.056 7.42609 16.696 6.89009 17.208C6.36209 17.72 5.70209 17.976 4.91009 17.976H2.94209V21H1.89809V12.6H4.91009ZM4.85009 16.956C5.36209 16.956 5.78209 16.8 6.11009 16.488C6.44609 16.168 6.61409 15.768 6.61409 15.288C6.61409 14.808 6.44609 14.412 6.11009 14.1C5.78209 13.78 5.36209 13.62 4.85009 13.62H2.94209V16.956H4.85009ZM15.092 17.784C15.092 17.872 15.084 17.996 15.068 18.156H9.536C9.616 18.756 9.864 19.24 10.28 19.608C10.696 19.968 11.208 20.148 11.816 20.148C12.264 20.148 12.66 20.052 13.004 19.86C13.356 19.66 13.636 19.38 13.844 19.02H14.912C14.64 19.692 14.232 20.216 13.688 20.592C13.144 20.96 12.52 21.144 11.816 21.144C10.88 21.144 10.096 20.82 9.464 20.172C8.832 19.524 8.516 18.72 8.516 17.76C8.516 16.792 8.832 15.988 9.464 15.348C10.096 14.7 10.88 14.376 11.816 14.376C12.784 14.376 13.572 14.704 14.18 15.36C14.788 16.016 15.092 16.824 15.092 17.784ZM11.816 15.348C11.432 15.348 11.08 15.424 10.76 15.576C10.448 15.728 10.188 15.948 9.98 16.236C9.772 16.516 9.632 16.84 9.56 17.208H14.06C13.988 16.832 13.848 16.504 13.64 16.224C13.432 15.936 13.172 15.72 12.86 15.576C12.548 15.424 12.2 15.348 11.816 15.348ZM20.778 21L18.558 18.096H17.634V21H16.614V14.52H17.634V17.148H18.57L20.574 14.52H21.81L19.446 17.628L22.05 21H20.778ZM27.2585 17.64C27.5865 17.76 27.8465 17.96 28.0385 18.24C28.2385 18.52 28.3385 18.836 28.3385 19.188C28.3385 19.708 28.1465 20.14 27.7625 20.484C27.3865 20.828 26.9145 21 26.3465 21H23.0945V14.52H26.3105C26.8465 14.52 27.2825 14.676 27.6185 14.988C27.9545 15.292 28.1225 15.684 28.1225 16.164C28.1225 16.38 28.0865 16.584 28.0145 16.776C27.9425 16.968 27.8425 17.14 27.7145 17.292C27.5865 17.436 27.4345 17.552 27.2585 17.64ZM27.1145 16.344C27.1145 16.08 27.0265 15.872 26.8505 15.72C26.6745 15.56 26.4465 15.48 26.1665 15.48H24.0905V17.196H26.1665C26.4545 17.196 26.6825 17.12 26.8505 16.968C27.0265 16.808 27.1145 16.6 27.1145 16.344ZM26.2265 20.04C26.4265 20.04 26.6065 20 26.7665 19.92C26.9345 19.832 27.0625 19.716 27.1505 19.572C27.2385 19.428 27.2825 19.268 27.2825 19.092C27.2825 18.908 27.2385 18.744 27.1505 18.6C27.0625 18.448 26.9345 18.332 26.7665 18.252C26.6065 18.172 26.4225 18.132 26.2145 18.132H24.0905V20.04H26.2265ZM34.7491 14.52H35.3131V21H34.3531V16.368L30.5731 21H29.9851V14.52H30.9571V19.116L34.7491 14.52ZM40.7517 17.58C41.3437 17.9 41.6397 18.428 41.6397 19.164C41.6397 19.548 41.5317 19.892 41.3157 20.196C41.1077 20.492 40.8117 20.724 40.4277 20.892C40.0517 21.06 39.6277 21.144 39.1557 21.144C38.4677 21.144 37.8997 20.968 37.4517 20.616C37.0117 20.264 36.7637 19.792 36.7077 19.2H37.6317C37.6957 19.504 37.8637 19.744 38.1357 19.92C38.4077 20.088 38.7477 20.172 39.1557 20.172C39.5877 20.172 39.9437 20.072 40.2237 19.872C40.5037 19.672 40.6437 19.408 40.6437 19.08C40.6437 18.776 40.5237 18.524 40.2837 18.324C40.0517 18.124 39.7557 18.024 39.3957 18.024H38.4357V17.196H39.3957C39.7317 17.196 39.9997 17.112 40.1997 16.944C40.4077 16.768 40.5117 16.544 40.5117 16.272C40.5117 15.976 40.3877 15.736 40.1397 15.552C39.8917 15.368 39.5637 15.276 39.1557 15.276C38.7957 15.276 38.4957 15.356 38.2557 15.516C38.0157 15.676 37.8637 15.892 37.7997 16.164H36.8757C36.9077 15.812 37.0237 15.5 37.2237 15.228C37.4317 14.956 37.7037 14.748 38.0397 14.604C38.3837 14.452 38.7637 14.376 39.1797 14.376C39.8437 14.376 40.3917 14.548 40.8237 14.892C41.2557 15.236 41.4717 15.668 41.4717 16.188C41.4717 16.812 41.2317 17.276 40.7517 17.58ZM48.003 14.52H48.567V21H47.607V16.368L43.827 21H43.239V14.52H44.211V19.116L48.003 14.52ZM55.6256 14.52V15.444H53.2136V21H52.2176V15.444H49.8056V14.52H55.6256ZM59.4602 16.56C60.1402 16.56 60.6962 16.768 61.1282 17.184C61.5602 17.592 61.7762 18.128 61.7762 18.792C61.7762 19.44 61.5602 19.972 61.1282 20.388C60.6962 20.796 60.1402 21 59.4602 21H56.8562V14.52H57.8522V16.56H59.4602ZM62.9522 14.52H63.9722V21H62.9522V14.52ZM59.3282 20.088C59.7522 20.088 60.0922 19.968 60.3482 19.728C60.6042 19.488 60.7322 19.176 60.7322 18.792C60.7322 18.4 60.6042 18.084 60.3482 17.844C60.0922 17.596 59.7522 17.472 59.3282 17.472H57.8522V20.088H59.3282Z" fill="#4B5258"/>
<path d="M363.435 15.804C364.219 15.804 364.863 16.048 365.367 16.536C365.871 17.016 366.123 17.632 366.123 18.384C366.123 19.144 365.867 19.772 365.355 20.268C364.843 20.756 364.195 21 363.411 21H360.375V12.6H365.511V13.596H361.419V15.804H363.435ZM363.339 19.968C363.835 19.968 364.243 19.82 364.563 19.524C364.883 19.228 365.043 18.852 365.043 18.396C365.043 17.932 364.883 17.556 364.563 17.268C364.251 16.98 363.847 16.836 363.351 16.836H361.419V19.968H363.339ZM370.218 16.56C370.898 16.56 371.454 16.768 371.886 17.184C372.318 17.592 372.534 18.128 372.534 18.792C372.534 19.44 372.318 19.972 371.886 20.388C371.454 20.796 370.898 21 370.218 21H367.614V14.52H368.61V16.56H370.218ZM373.71 14.52H374.73V21H373.71V14.52ZM370.086 20.088C370.51 20.088 370.85 19.968 371.106 19.728C371.362 19.488 371.49 19.176 371.49 18.792C371.49 18.4 371.362 18.084 371.106 17.844C370.85 17.596 370.51 17.472 370.086 17.472H368.61V20.088H370.086ZM379.646 21.144C379.014 21.144 378.438 21 377.918 20.712C377.406 20.416 377.002 20.008 376.706 19.488C376.418 18.968 376.274 18.392 376.274 17.76C376.274 16.792 376.594 15.988 377.234 15.348C377.882 14.7 378.686 14.376 379.646 14.376C380.414 14.376 381.078 14.588 381.638 15.012C382.206 15.436 382.59 16 382.79 16.704H381.782C381.59 16.288 381.302 15.96 380.918 15.72C380.542 15.48 380.118 15.36 379.646 15.36C378.982 15.36 378.426 15.592 377.978 16.056C377.538 16.512 377.318 17.08 377.318 17.76C377.318 18.208 377.418 18.616 377.618 18.984C377.818 19.344 378.094 19.632 378.446 19.848C378.806 20.056 379.206 20.16 379.646 20.16C380.118 20.16 380.538 20.04 380.906 19.8C381.282 19.552 381.57 19.212 381.77 18.78H382.802C382.602 19.5 382.214 20.076 381.638 20.508C381.07 20.932 380.406 21.144 379.646 21.144ZM389.165 14.52V15.444H386.753V21H385.757V15.444H383.345V14.52H389.165ZM393.827 14.376C394.795 14.376 395.591 14.696 396.215 15.336C396.847 15.976 397.163 16.784 397.163 17.76C397.163 18.728 396.847 19.536 396.215 20.184C395.591 20.824 394.795 21.144 393.827 21.144C392.851 21.144 392.047 20.808 391.415 20.136V23.316H390.395V14.52H391.091L391.295 15.516C391.599 15.156 391.967 14.876 392.399 14.676C392.839 14.476 393.315 14.376 393.827 14.376ZM393.755 20.16C394.443 20.16 395.011 19.932 395.459 19.476C395.907 19.02 396.131 18.448 396.131 17.76C396.131 17.072 395.907 16.5 395.459 16.044C395.011 15.588 394.443 15.36 393.755 15.36C393.067 15.36 392.495 15.592 392.039 16.056C391.591 16.512 391.367 17.08 391.367 17.76C391.367 18.208 391.467 18.616 391.667 18.984C391.875 19.352 392.163 19.64 392.531 19.848C392.899 20.056 393.307 20.16 393.755 20.16ZM404.236 14.52H405.052V21H404.2L404.092 20.016C403.788 20.376 403.416 20.656 402.976 20.856C402.544 21.048 402.068 21.144 401.548 21.144C400.596 21.144 399.8 20.824 399.16 20.184C398.52 19.536 398.2 18.728 398.2 17.76C398.2 16.792 398.52 15.988 399.16 15.348C399.8 14.7 400.596 14.376 401.548 14.376C402.076 14.376 402.556 14.476 402.988 14.676C403.428 14.876 403.8 15.156 404.104 15.516L404.236 14.52ZM399.916 19.476C400.372 19.932 400.944 20.16 401.632 20.16C402.32 20.16 402.888 19.932 403.336 19.476C403.784 19.02 404.008 18.448 404.008 17.76C404.008 17.072 403.784 16.5 403.336 16.044C402.888 15.588 402.32 15.36 401.632 15.36C400.944 15.36 400.372 15.592 399.916 16.056C399.468 16.512 399.244 17.08 399.244 17.76C399.244 18.44 399.468 19.012 399.916 19.476ZM408.798 14.52H411.774V21H410.766V18.516H409.146L407.61 21H406.482L408.102 18.372C407.678 18.236 407.342 18.004 407.094 17.676C406.846 17.348 406.722 16.964 406.722 16.524C406.722 15.948 406.918 15.472 407.31 15.096C407.702 14.712 408.198 14.52 408.798 14.52ZM408.882 17.532H410.766V15.504H408.882C408.546 15.504 408.274 15.6 408.066 15.792C407.858 15.976 407.754 16.22 407.754 16.524C407.754 16.82 407.858 17.064 408.066 17.256C408.274 17.44 408.546 17.532 408.882 17.532ZM419.818 21.144C419.186 21.144 418.61 21 418.09 20.712C417.578 20.416 417.174 20.008 416.878 19.488C416.59 18.968 416.446 18.392 416.446 17.76C416.446 16.792 416.766 15.988 417.406 15.348C418.054 14.7 418.858 14.376 419.818 14.376C420.586 14.376 421.25 14.588 421.81 15.012C422.378 15.436 422.762 16 422.962 16.704H421.954C421.762 16.288 421.474 15.96 421.09 15.72C420.714 15.48 420.29 15.36 419.818 15.36C419.154 15.36 418.598 15.592 418.15 16.056C417.71 16.512 417.49 17.08 417.49 17.76C417.49 18.208 417.59 18.616 417.79 18.984C417.99 19.344 418.266 19.632 418.618 19.848C418.978 20.056 419.378 20.16 419.818 20.16C420.29 20.16 420.71 20.04 421.078 19.8C421.454 19.552 421.742 19.212 421.942 18.78H422.974C422.774 19.5 422.386 20.076 421.81 20.508C421.242 20.932 420.578 21.144 419.818 21.144ZM428.567 17.64C428.895 17.76 429.155 17.96 429.347 18.24C429.547 18.52 429.647 18.836 429.647 19.188C429.647 19.708 429.455 20.14 429.071 20.484C428.695 20.828 428.223 21 427.655 21H424.403V14.52H427.619C428.155 14.52 428.591 14.676 428.927 14.988C429.263 15.292 429.431 15.684 429.431 16.164C429.431 16.38 429.395 16.584 429.323 16.776C429.251 16.968 429.151 17.14 429.023 17.292C428.895 17.436 428.743 17.552 428.567 17.64ZM428.423 16.344C428.423 16.08 428.335 15.872 428.159 15.72C427.983 15.56 427.755 15.48 427.475 15.48H425.399V17.196H427.475C427.763 17.196 427.991 17.12 428.159 16.968C428.335 16.808 428.423 16.6 428.423 16.344ZM427.535 20.04C427.735 20.04 427.915 20 428.075 19.92C428.243 19.832 428.371 19.716 428.459 19.572C428.547 19.428 428.591 19.268 428.591 19.092C428.591 18.908 428.547 18.744 428.459 18.6C428.371 18.448 428.243 18.332 428.075 18.252C427.915 18.172 427.731 18.132 427.523 18.132H425.399V20.04H427.535ZM432.986 14.52H435.962V21H434.954V18.516H433.334L431.798 21H430.67L432.29 18.372C431.866 18.236 431.53 18.004 431.282 17.676C431.034 17.348 430.91 16.964 430.91 16.524C430.91 15.948 431.106 15.472 431.498 15.096C431.89 14.712 432.386 14.52 432.986 14.52ZM433.07 17.532H434.954V15.504H433.07C432.734 15.504 432.462 15.6 432.254 15.792C432.046 15.976 431.942 16.22 431.942 16.524C431.942 16.82 432.046 17.064 432.254 17.256C432.462 17.44 432.734 17.532 433.07 17.532ZM441.381 17.58C441.973 17.9 442.269 18.428 442.269 19.164C442.269 19.548 442.161 19.892 441.945 20.196C441.737 20.492 441.441 20.724 441.057 20.892C440.681 21.06 440.257 21.144 439.785 21.144C439.097 21.144 438.529 20.968 438.081 20.616C437.641 20.264 437.393 19.792 437.337 19.2H438.261C438.325 19.504 438.493 19.744 438.765 19.92C439.037 20.088 439.377 20.172 439.785 20.172C440.217 20.172 440.573 20.072 440.853 19.872C441.133 19.672 441.273 19.408 441.273 19.08C441.273 18.776 441.153 18.524 440.913 18.324C440.681 18.124 440.385 18.024 440.025 18.024H439.065V17.196H440.025C440.361 17.196 440.629 17.112 440.829 16.944C441.037 16.768 441.141 16.544 441.141 16.272C441.141 15.976 441.017 15.736 440.769 15.552C440.521 15.368 440.193 15.276 439.785 15.276C439.425 15.276 439.125 15.356 438.885 15.516C438.645 15.676 438.493 15.892 438.429 16.164H437.505C437.537 15.812 437.653 15.5 437.853 15.228C438.061 14.956 438.333 14.748 438.669 14.604C439.013 14.452 439.393 14.376 439.809 14.376C440.473 14.376 441.021 14.548 441.453 14.892C441.885 15.236 442.101 15.668 442.101 16.188C442.101 16.812 441.861 17.276 441.381 17.58ZM446.472 16.56C447.152 16.56 447.708 16.768 448.14 17.184C448.572 17.592 448.788 18.128 448.788 18.792C448.788 19.44 448.572 19.972 448.14 20.388C447.708 20.796 447.152 21 446.472 21H443.868V14.52H444.864V16.56H446.472ZM446.34 20.088C446.764 20.088 447.104 19.968 447.36 19.728C447.616 19.488 447.744 19.176 447.744 18.792C447.744 18.4 447.616 18.084 447.36 17.844C447.104 17.596 446.764 17.472 446.34 17.472H444.864V20.088H446.34ZM449.992 16.452V15.18H451.156V16.452H449.992ZM449.992 21V19.728H451.156V21H449.992Z" fill="#4B5258"/>
<defs>
<clipPath id="clip0_155_14454">
<rect width="32" height="32" fill="white" transform="translate(468)"/>
</clipPath>
<clipPath id="clip1_155_14454">
<rect width="28" height="28" fill="white" transform="translate(510 2)"/>
</clipPath>
</defs>
</svg>
