<svg width="894" height="274" viewBox="0 0 894 274" fill="none" xmlns="http://www.w3.org/2000/svg">
<path d="M108.542 182.6H110.368V198H107.86V187.33L99.7864 198H98.0264V182.6H100.556V193.16L108.542 182.6ZM127.686 191.796C127.965 191.913 128.214 192.067 128.434 192.258C128.669 192.434 128.867 192.647 129.028 192.896C129.19 193.131 129.314 193.395 129.402 193.688C129.49 193.981 129.534 194.282 129.534 194.59C129.534 195.558 129.182 196.372 128.478 197.032C127.774 197.677 126.894 198 125.838 198H119.634V186.12H125.75C126.748 186.12 127.562 186.406 128.192 186.978C128.838 187.535 129.16 188.261 129.16 189.156C129.16 189.713 129.028 190.227 128.764 190.696C128.5 191.165 128.141 191.532 127.686 191.796ZM126.74 189.552C126.74 189.141 126.601 188.811 126.322 188.562C126.058 188.313 125.706 188.188 125.266 188.188H122.032V190.916H125.266C125.706 190.916 126.058 190.791 126.322 190.542C126.601 190.293 126.74 189.963 126.74 189.552ZM125.398 195.866C125.882 195.866 126.271 195.727 126.564 195.448C126.872 195.169 127.026 194.817 127.026 194.392C127.026 193.952 126.872 193.593 126.564 193.314C126.256 193.035 125.86 192.896 125.376 192.896H122.032V195.866H125.398ZM142.299 196.526C141.096 197.699 139.585 198.286 137.767 198.286C135.948 198.286 134.43 197.699 133.213 196.526C132.01 195.338 131.409 193.849 131.409 192.06C131.409 190.887 131.68 189.823 132.223 188.87C132.78 187.917 133.543 187.176 134.511 186.648C135.493 186.105 136.579 185.834 137.767 185.834C138.955 185.834 140.033 186.105 141.001 186.648C141.983 187.176 142.746 187.917 143.289 188.87C143.846 189.823 144.125 190.887 144.125 192.06C144.125 193.849 143.516 195.338 142.299 196.526ZM137.767 195.954C138.515 195.954 139.182 195.793 139.769 195.47C140.355 195.133 140.81 194.671 141.133 194.084C141.47 193.483 141.639 192.808 141.639 192.06C141.639 190.931 141.272 189.999 140.539 189.266C139.82 188.533 138.896 188.166 137.767 188.166C136.637 188.166 135.706 188.533 134.973 189.266C134.254 189.999 133.895 190.931 133.895 192.06C133.895 193.189 134.254 194.121 134.973 194.854C135.706 195.587 136.637 195.954 137.767 195.954ZM155.777 186.12V188.32H151.597V198H149.221V188.32H145.019V186.12H155.777ZM170.803 186.12H173.201V198H170.803V193.028H165.303V198H162.883V186.12H165.303V190.784H170.803V186.12ZM187.962 192.082C187.962 192.302 187.947 192.573 187.918 192.896H178.282C178.428 193.849 178.824 194.605 179.47 195.162C180.13 195.719 180.944 195.998 181.912 195.998C182.381 195.998 182.821 195.932 183.232 195.8C183.642 195.653 184.002 195.455 184.31 195.206C184.632 194.942 184.896 194.627 185.102 194.26H187.676C187.206 195.521 186.458 196.511 185.432 197.23C184.405 197.934 183.232 198.286 181.912 198.286C180.166 198.286 178.707 197.692 177.534 196.504C176.375 195.316 175.796 193.835 175.796 192.06C175.796 190.285 176.375 188.804 177.534 187.616C178.707 186.428 180.166 185.834 181.912 185.834C183.1 185.834 184.156 186.12 185.08 186.692C186.004 187.249 186.715 188.005 187.214 188.958C187.712 189.897 187.962 190.938 187.962 192.082ZM181.912 188.034C181.002 188.034 180.225 188.291 179.58 188.804C178.949 189.317 178.531 190.021 178.326 190.916H185.52C185.373 190.315 185.131 189.801 184.794 189.376C184.456 188.936 184.038 188.606 183.54 188.386C183.056 188.151 182.513 188.034 181.912 188.034ZM198.034 198L194.47 192.94H192.996V198H190.554V186.12H192.996V190.718H194.492L197.726 186.12H200.608L196.582 191.818L201.048 198H198.034ZM212.359 196.526C211.157 197.699 209.646 198.286 207.827 198.286C206.009 198.286 204.491 197.699 203.273 196.526C202.071 195.338 201.469 193.849 201.469 192.06C201.469 190.887 201.741 189.823 202.283 188.87C202.841 187.917 203.603 187.176 204.571 186.648C205.554 186.105 206.639 185.834 207.827 185.834C209.015 185.834 210.093 186.105 211.061 186.648C212.044 187.176 212.807 187.917 213.349 188.87C213.907 189.823 214.185 190.887 214.185 192.06C214.185 193.849 213.577 195.338 212.359 196.526ZM207.827 195.954C208.575 195.954 209.243 195.793 209.829 195.47C210.416 195.133 210.871 194.671 211.193 194.084C211.531 193.483 211.699 192.808 211.699 192.06C211.699 190.931 211.333 189.999 210.599 189.266C209.881 188.533 208.957 188.166 207.827 188.166C206.698 188.166 205.767 188.533 205.033 189.266C204.315 189.999 203.955 190.931 203.955 192.06C203.955 193.189 204.315 194.121 205.033 194.854C205.767 195.587 206.698 195.954 207.827 195.954ZM225.837 186.12V188.32H221.657V198H219.281V188.32H215.079V186.12H225.837ZM237.646 196.526C236.444 197.699 234.933 198.286 233.114 198.286C231.296 198.286 229.778 197.699 228.56 196.526C227.358 195.338 226.756 193.849 226.756 192.06C226.756 190.887 227.028 189.823 227.57 188.87C228.128 187.917 228.89 187.176 229.858 186.648C230.841 186.105 231.926 185.834 233.114 185.834C234.302 185.834 235.38 186.105 236.348 186.648C237.331 187.176 238.094 187.917 238.636 188.87C239.194 189.823 239.472 190.887 239.472 192.06C239.472 193.849 238.864 195.338 237.646 196.526ZM233.114 195.954C233.862 195.954 234.53 195.793 235.116 195.47C235.703 195.133 236.158 194.671 236.48 194.084C236.818 193.483 236.986 192.808 236.986 192.06C236.986 190.931 236.62 189.999 235.886 189.266C235.168 188.533 234.244 188.166 233.114 188.166C231.985 188.166 231.054 188.533 230.32 189.266C229.602 189.999 229.242 190.931 229.242 192.06C229.242 193.189 229.602 194.121 230.32 194.854C231.054 195.587 231.985 195.954 233.114 195.954ZM248.454 185.834C249.627 185.834 250.683 186.105 251.622 186.648C252.561 187.176 253.294 187.917 253.822 188.87C254.35 189.823 254.614 190.887 254.614 192.06C254.614 193.849 254.027 195.338 252.854 196.526C251.695 197.699 250.229 198.286 248.454 198.286C246.929 198.286 245.616 197.809 244.516 196.856V202.268H242.074V186.12H243.724L244.186 187.572C245.33 186.413 246.753 185.834 248.454 185.834ZM245.484 194.854C246.217 195.587 247.141 195.954 248.256 195.954C249.385 195.954 250.317 195.587 251.05 194.854C251.783 194.106 252.15 193.175 252.15 192.06C252.15 190.945 251.783 190.021 251.05 189.288C250.317 188.54 249.393 188.166 248.278 188.166C247.545 188.166 246.877 188.335 246.276 188.672C245.675 189.009 245.205 189.479 244.868 190.08C244.545 190.667 244.384 191.327 244.384 192.06C244.384 193.175 244.751 194.106 245.484 194.854ZM262.17 189.64C263.475 189.64 264.531 190.029 265.338 190.806C266.145 191.583 266.548 192.595 266.548 193.842C266.548 195.074 266.145 196.079 265.338 196.856C264.531 197.619 263.475 198 262.17 198H257.242V186.12H259.64V189.64H262.17ZM268.616 186.12H271.058V198H268.616V186.12ZM261.884 195.888C262.544 195.888 263.079 195.705 263.49 195.338C263.901 194.957 264.106 194.458 264.106 193.842C264.106 193.431 264.011 193.072 263.82 192.764C263.644 192.441 263.387 192.192 263.05 192.016C262.713 191.84 262.324 191.752 261.884 191.752H259.64V195.888H261.884ZM285.823 192.082C285.823 192.302 285.808 192.573 285.779 192.896H276.143C276.289 193.849 276.685 194.605 277.331 195.162C277.991 195.719 278.805 195.998 279.773 195.998C280.242 195.998 280.682 195.932 281.093 195.8C281.503 195.653 281.863 195.455 282.171 195.206C282.493 194.942 282.757 194.627 282.963 194.26H285.537C285.067 195.521 284.319 196.511 283.293 197.23C282.266 197.934 281.093 198.286 279.773 198.286C278.027 198.286 276.568 197.692 275.395 196.504C274.236 195.316 273.657 193.835 273.657 192.06C273.657 190.285 274.236 188.804 275.395 187.616C276.568 186.428 278.027 185.834 279.773 185.834C280.961 185.834 282.017 186.12 282.941 186.692C283.865 187.249 284.576 188.005 285.075 188.958C285.573 189.897 285.823 190.938 285.823 192.082ZM279.773 188.034C278.863 188.034 278.086 188.291 277.441 188.804C276.81 189.317 276.392 190.021 276.187 190.916H283.381C283.234 190.315 282.992 189.801 282.655 189.376C282.317 188.936 281.899 188.606 281.401 188.386C280.917 188.151 280.374 188.034 279.773 188.034ZM307.643 192.104C307.643 193.849 307.063 195.294 305.905 196.438C304.761 197.582 303.301 198.198 301.527 198.286V201.74H299.195V198.286C297.42 198.198 295.953 197.582 294.795 196.438C293.651 195.294 293.079 193.849 293.079 192.104C293.079 190.359 293.658 188.899 294.817 187.726C295.975 186.553 297.435 185.922 299.195 185.834V182.512H301.527V185.834C303.287 185.922 304.746 186.553 305.905 187.726C307.063 188.885 307.643 190.344 307.643 192.104ZM295.477 192.082C295.477 193.167 295.821 194.077 296.511 194.81C297.215 195.543 298.117 195.947 299.217 196.02V188.1C298.117 188.173 297.215 188.584 296.511 189.332C295.821 190.08 295.477 190.997 295.477 192.082ZM301.505 196.02C302.605 195.947 303.499 195.543 304.189 194.81C304.893 194.077 305.245 193.167 305.245 192.082C305.245 190.997 304.893 190.08 304.189 189.332C303.485 188.584 302.59 188.173 301.505 188.1V196.02ZM320.188 186.12H322.08V198H320.1L319.858 196.548C318.714 197.707 317.284 198.286 315.568 198.286C313.793 198.286 312.312 197.692 311.124 196.504C309.951 195.316 309.364 193.835 309.364 192.06C309.364 190.271 309.951 188.789 311.124 187.616C312.312 186.428 313.793 185.834 315.568 185.834C317.313 185.834 318.758 186.421 319.902 187.594L320.188 186.12ZM312.95 194.854C313.698 195.587 314.629 195.954 315.744 195.954C316.873 195.954 317.797 195.587 318.516 194.854C319.249 194.106 319.616 193.175 319.616 192.06C319.616 190.931 319.249 189.999 318.516 189.266C317.797 188.533 316.873 188.166 315.744 188.166C315.011 188.166 314.343 188.335 313.742 188.672C313.155 189.009 312.693 189.479 312.356 190.08C312.019 190.667 311.85 191.327 311.85 192.06C311.85 193.175 312.217 194.106 312.95 194.854ZM333.042 198L329.478 192.94H328.004V198H325.562V186.12H328.004V190.718H329.5L332.734 186.12H335.616L331.59 191.818L336.056 198H333.042ZM347.138 186.12V188.32H342.958V198H340.582V188.32H336.38V186.12H347.138ZM354.209 189.64C355.514 189.64 356.57 190.029 357.377 190.806C358.184 191.583 358.587 192.595 358.587 193.842C358.587 195.074 358.184 196.079 357.377 196.856C356.57 197.619 355.514 198 354.209 198H349.281V186.12H351.679V189.64H354.209ZM360.655 186.12H363.097V198H360.655V186.12ZM353.923 195.888C354.583 195.888 355.118 195.705 355.529 195.338C355.94 194.957 356.145 194.458 356.145 193.842C356.145 193.431 356.05 193.072 355.859 192.764C355.683 192.441 355.426 192.192 355.089 192.016C354.752 191.84 354.363 191.752 353.923 191.752H351.679V195.888H353.923ZM366.422 201.168V199.892C367.331 199.672 367.786 199.041 367.786 198H366.29V195.206H369.062V197.802C369.062 198.741 368.827 199.496 368.358 200.068C367.889 200.64 367.243 201.007 366.422 201.168ZM383.137 198.286C381.377 198.286 379.895 197.692 378.693 196.504C377.505 195.301 376.911 193.82 376.911 192.06C376.911 190.285 377.505 188.804 378.693 187.616C379.895 186.428 381.384 185.834 383.159 185.834C384.611 185.834 385.872 186.245 386.943 187.066C388.013 187.887 388.71 188.98 389.033 190.344H386.613C386.305 189.669 385.843 189.141 385.227 188.76C384.611 188.364 383.914 188.166 383.137 188.166C382.447 188.166 381.817 188.335 381.245 188.672C380.673 189.009 380.218 189.479 379.881 190.08C379.558 190.667 379.397 191.327 379.397 192.06C379.397 193.16 379.756 194.084 380.475 194.832C381.193 195.58 382.081 195.954 383.137 195.954C383.914 195.954 384.603 195.756 385.205 195.36C385.821 194.964 386.29 194.399 386.613 193.666H389.077C388.739 195.059 388.028 196.181 386.943 197.032C385.872 197.868 384.603 198.286 383.137 198.286ZM404.499 198L400.935 192.94H399.461V198H397.019V186.12H399.461V190.718H400.957L404.191 186.12H407.073L403.047 191.818L407.513 198H404.499ZM418.824 196.526C417.622 197.699 416.111 198.286 414.292 198.286C412.474 198.286 410.956 197.699 409.738 196.526C408.536 195.338 407.934 193.849 407.934 192.06C407.934 190.887 408.206 189.823 408.748 188.87C409.306 187.917 410.068 187.176 411.036 186.648C412.019 186.105 413.104 185.834 414.292 185.834C415.48 185.834 416.558 186.105 417.526 186.648C418.509 187.176 419.272 187.917 419.814 188.87C420.372 189.823 420.65 190.887 420.65 192.06C420.65 193.849 420.042 195.338 418.824 196.526ZM414.292 195.954C415.04 195.954 415.708 195.793 416.294 195.47C416.881 195.133 417.336 194.671 417.658 194.084C417.996 193.483 418.164 192.808 418.164 192.06C418.164 190.931 417.798 189.999 417.064 189.266C416.346 188.533 415.422 188.166 414.292 188.166C413.163 188.166 412.232 188.533 411.498 189.266C410.78 189.999 410.42 190.931 410.42 192.06C410.42 193.189 410.78 194.121 411.498 194.854C412.232 195.587 413.163 195.954 414.292 195.954ZM432.302 186.12V188.32H428.122V198H425.746V188.32H421.544V186.12H432.302ZM444.111 196.526C442.909 197.699 441.398 198.286 439.579 198.286C437.761 198.286 436.243 197.699 435.025 196.526C433.823 195.338 433.221 193.849 433.221 192.06C433.221 190.887 433.493 189.823 434.035 188.87C434.593 187.917 435.355 187.176 436.323 186.648C437.306 186.105 438.391 185.834 439.579 185.834C440.767 185.834 441.845 186.105 442.813 186.648C443.796 187.176 444.559 187.917 445.101 188.87C445.659 189.823 445.937 190.887 445.937 192.06C445.937 193.849 445.329 195.338 444.111 196.526ZM439.579 195.954C440.327 195.954 440.995 195.793 441.581 195.47C442.168 195.133 442.623 194.671 442.945 194.084C443.283 193.483 443.451 192.808 443.451 192.06C443.451 190.931 443.085 189.999 442.351 189.266C441.633 188.533 440.709 188.166 439.579 188.166C438.45 188.166 437.519 188.533 436.785 189.266C436.067 189.999 435.707 190.931 435.707 192.06C435.707 193.189 436.067 194.121 436.785 194.854C437.519 195.587 438.45 195.954 439.579 195.954ZM454.919 185.834C456.092 185.834 457.148 186.105 458.087 186.648C459.025 187.176 459.759 187.917 460.287 188.87C460.815 189.823 461.079 190.887 461.079 192.06C461.079 193.849 460.492 195.338 459.319 196.526C458.16 197.699 456.693 198.286 454.919 198.286C453.393 198.286 452.081 197.809 450.981 196.856V202.268H448.539V186.12H450.189L450.651 187.572C451.795 186.413 453.217 185.834 454.919 185.834ZM451.949 194.854C452.682 195.587 453.606 195.954 454.721 195.954C455.85 195.954 456.781 195.587 457.515 194.854C458.248 194.106 458.615 193.175 458.615 192.06C458.615 190.945 458.248 190.021 457.515 189.288C456.781 188.54 455.857 188.166 454.743 188.166C454.009 188.166 453.342 188.335 452.741 188.672C452.139 189.009 451.67 189.479 451.333 190.08C451.01 190.667 450.849 191.327 450.849 192.06C450.849 193.175 451.215 194.106 451.949 194.854ZM468.635 189.64C469.94 189.64 470.996 190.029 471.803 190.806C472.609 191.583 473.013 192.595 473.013 193.842C473.013 195.074 472.609 196.079 471.803 196.856C470.996 197.619 469.94 198 468.635 198H463.707V186.12H466.105V189.64H468.635ZM475.081 186.12H477.523V198H475.081V186.12ZM468.349 195.888C469.009 195.888 469.544 195.705 469.955 195.338C470.365 194.957 470.571 194.458 470.571 193.842C470.571 193.431 470.475 193.072 470.285 192.764C470.109 192.441 469.852 192.192 469.515 192.016C469.177 191.84 468.789 191.752 468.349 191.752H466.105V195.888H468.349ZM496.072 198H493.718L492.288 189.904L488.306 197.868H487.8L483.84 189.904L482.41 198H480.056L482.19 186.12H484.258L488.064 193.71L491.892 186.12H493.938L496.072 198ZM507.309 186.12H508.673V198H506.341V190.454L500.005 198H498.597V186.12H500.951V193.6L507.309 186.12ZM525.749 191.796C526.028 191.913 526.277 192.067 526.497 192.258C526.732 192.434 526.93 192.647 527.091 192.896C527.252 193.131 527.377 193.395 527.465 193.688C527.553 193.981 527.597 194.282 527.597 194.59C527.597 195.558 527.245 196.372 526.541 197.032C525.837 197.677 524.957 198 523.901 198H517.697V186.12H523.813C524.81 186.12 525.624 186.406 526.255 186.978C526.9 187.535 527.223 188.261 527.223 189.156C527.223 189.713 527.091 190.227 526.827 190.696C526.563 191.165 526.204 191.532 525.749 191.796ZM524.803 189.552C524.803 189.141 524.664 188.811 524.385 188.562C524.121 188.313 523.769 188.188 523.329 188.188H520.095V190.916H523.329C523.769 190.916 524.121 190.791 524.385 190.542C524.664 190.293 524.803 189.963 524.803 189.552ZM523.461 195.866C523.945 195.866 524.334 195.727 524.627 195.448C524.935 195.169 525.089 194.817 525.089 194.392C525.089 193.952 524.935 193.593 524.627 193.314C524.319 193.035 523.923 192.896 523.439 192.896H520.095V195.866H523.461ZM535.279 189.64C536.585 189.64 537.641 190.029 538.447 190.806C539.254 191.583 539.657 192.595 539.657 193.842C539.657 195.074 539.254 196.079 538.447 196.856C537.641 197.619 536.585 198 535.279 198H530.351V186.12H532.749V189.64H535.279ZM541.725 186.12H544.167V198H541.725V186.12ZM534.993 195.888C535.653 195.888 536.189 195.705 536.599 195.338C537.01 194.957 537.215 194.458 537.215 193.842C537.215 193.431 537.12 193.072 536.929 192.764C536.753 192.441 536.497 192.192 536.159 192.016C535.822 191.84 535.433 191.752 534.993 191.752H532.749V195.888H534.993ZM568.259 198H565.905L564.475 189.904L560.493 197.868H559.987L556.027 189.904L554.597 198H552.243L554.377 186.12H556.445L560.251 193.71L564.079 186.12H566.125L568.259 198ZM580.709 196.526C579.506 197.699 577.996 198.286 576.177 198.286C574.358 198.286 572.84 197.699 571.623 196.526C570.42 195.338 569.819 193.849 569.819 192.06C569.819 190.887 570.09 189.823 570.633 188.87C571.19 187.917 571.953 187.176 572.921 186.648C573.904 186.105 574.989 185.834 576.177 185.834C577.365 185.834 578.443 186.105 579.411 186.648C580.394 187.176 581.156 187.917 581.699 188.87C582.256 189.823 582.535 190.887 582.535 192.06C582.535 193.849 581.926 195.338 580.709 196.526ZM576.177 195.954C576.925 195.954 577.592 195.793 578.179 195.47C578.766 195.133 579.22 194.671 579.543 194.084C579.88 193.483 580.049 192.808 580.049 192.06C580.049 190.931 579.682 189.999 578.949 189.266C578.23 188.533 577.306 188.166 576.177 188.166C575.048 188.166 574.116 188.533 573.383 189.266C572.664 189.999 572.305 190.931 572.305 192.06C572.305 193.189 572.664 194.121 573.383 194.854C574.116 195.587 575.048 195.954 576.177 195.954ZM598.082 198L594.606 192.94H593.198V198H590.844V192.94H589.414L585.96 198H582.99L587.39 191.752L583.43 186.12H586.224L589.436 190.762H590.844V186.12H593.198V190.762H594.606L597.796 186.12H600.612L596.652 191.752L601.052 198H598.082ZM613.653 192.082C613.653 192.302 613.638 192.573 613.609 192.896H603.973C604.12 193.849 604.516 194.605 605.161 195.162C605.821 195.719 606.635 195.998 607.603 195.998C608.072 195.998 608.512 195.932 608.923 195.8C609.334 195.653 609.693 195.455 610.001 195.206C610.324 194.942 610.588 194.627 610.793 194.26H613.367C612.898 195.521 612.15 196.511 611.123 197.23C610.096 197.934 608.923 198.286 607.603 198.286C605.858 198.286 604.398 197.692 603.225 196.504C602.066 195.316 601.487 193.835 601.487 192.06C601.487 190.285 602.066 188.804 603.225 187.616C604.398 186.428 605.858 185.834 607.603 185.834C608.791 185.834 609.847 186.12 610.771 186.692C611.695 187.249 612.406 188.005 612.905 188.958C613.404 189.897 613.653 190.938 613.653 192.082ZM607.603 188.034C606.694 188.034 605.916 188.291 605.271 188.804C604.64 189.317 604.222 190.021 604.017 190.916H611.211C611.064 190.315 610.822 189.801 610.485 189.376C610.148 188.936 609.73 188.606 609.231 188.386C608.747 188.151 608.204 188.034 607.603 188.034ZM625.318 186.12V188.32H621.138V198H618.762V188.32H614.56V186.12H625.318ZM638.403 192.082C638.403 192.302 638.388 192.573 638.359 192.896H628.723C628.87 193.849 629.266 194.605 629.911 195.162C630.571 195.719 631.385 195.998 632.353 195.998C632.822 195.998 633.262 195.932 633.673 195.8C634.084 195.653 634.443 195.455 634.751 195.206C635.074 194.942 635.338 194.627 635.543 194.26H638.117C637.648 195.521 636.9 196.511 635.873 197.23C634.846 197.934 633.673 198.286 632.353 198.286C630.608 198.286 629.148 197.692 627.975 196.504C626.816 195.316 626.237 193.835 626.237 192.06C626.237 190.285 626.816 188.804 627.975 187.616C629.148 186.428 630.608 185.834 632.353 185.834C633.541 185.834 634.597 186.12 635.521 186.692C636.445 187.249 637.156 188.005 637.655 188.958C638.154 189.897 638.403 190.938 638.403 192.082ZM632.353 188.034C631.444 188.034 630.666 188.291 630.021 188.804C629.39 189.317 628.972 190.021 628.767 190.916H635.961C635.814 190.315 635.572 189.801 635.235 189.376C634.898 188.936 634.48 188.606 633.981 188.386C633.497 188.151 632.954 188.034 632.353 188.034ZM651.885 198.286C650.125 198.286 648.643 197.692 647.441 196.504C646.253 195.301 645.659 193.82 645.659 192.06C645.659 190.285 646.253 188.804 647.441 187.616C648.643 186.428 650.132 185.834 651.907 185.834C653.359 185.834 654.62 186.245 655.691 187.066C656.761 187.887 657.458 188.98 657.781 190.344H655.361C655.053 189.669 654.591 189.141 653.975 188.76C653.359 188.364 652.662 188.166 651.885 188.166C651.195 188.166 650.565 188.335 649.993 188.672C649.421 189.009 648.966 189.479 648.629 190.08C648.306 190.667 648.145 191.327 648.145 192.06C648.145 193.16 648.504 194.084 649.223 194.832C649.941 195.58 650.829 195.954 651.885 195.954C652.662 195.954 653.351 195.756 653.953 195.36C654.569 194.964 655.038 194.399 655.361 193.666H657.825C657.487 195.059 656.776 196.181 655.691 197.032C654.62 197.868 653.351 198.286 651.885 198.286ZM669.511 186.12V188.32H665.331V198H662.955V188.32H658.753V186.12H669.511ZM681.32 196.526C680.118 197.699 678.607 198.286 676.788 198.286C674.97 198.286 673.452 197.699 672.234 196.526C671.032 195.338 670.43 193.849 670.43 192.06C670.43 190.887 670.702 189.823 671.244 188.87C671.802 187.917 672.564 187.176 673.532 186.648C674.515 186.105 675.6 185.834 676.788 185.834C677.976 185.834 679.054 186.105 680.022 186.648C681.005 187.176 681.768 187.917 682.31 188.87C682.868 189.823 683.146 190.887 683.146 192.06C683.146 193.849 682.538 195.338 681.32 196.526ZM676.788 195.954C677.536 195.954 678.204 195.793 678.79 195.47C679.377 195.133 679.832 194.671 680.154 194.084C680.492 193.483 680.66 192.808 680.66 192.06C680.66 190.931 680.294 189.999 679.56 189.266C678.842 188.533 677.918 188.166 676.788 188.166C675.659 188.166 674.728 188.533 673.994 189.266C673.276 189.999 672.916 190.931 672.916 192.06C672.916 193.189 673.276 194.121 673.994 194.854C674.728 195.587 675.659 195.954 676.788 195.954ZM687.558 186.12H695.632V198H693.234V188.232H689.56L689.032 193.49C688.871 195.162 688.438 196.343 687.734 197.032C687.045 197.721 685.996 198.066 684.588 198.066H684.17V195.822H684.742C685.901 195.822 686.554 195.096 686.7 193.644L687.558 186.12ZM706.591 198L703.027 192.94H701.553V198H699.111V186.12H701.553V190.718H703.049L706.283 186.12H709.165L705.139 191.818L709.605 198H706.591ZM719.213 186.12H721.611V198H719.213V193.028H713.713V198H711.293V186.12H713.713V190.784H719.213V186.12ZM733.556 186.12H736.174L730.718 198.22C730.028 199.731 729.324 200.779 728.606 201.366C727.902 201.967 726.956 202.268 725.768 202.268H724.558V200.068H725.57C726.347 200.068 726.919 199.914 727.286 199.606C727.652 199.298 728.056 198.66 728.496 197.692L728.76 197.142L723.59 186.12H726.252L730.014 194.414L733.556 186.12ZM747.521 186.12V188.32H743.341V198H740.965V188.32H736.763V186.12H747.521ZM754.592 189.64C755.897 189.64 756.953 190.029 757.76 190.806C758.566 191.583 758.97 192.595 758.97 193.842C758.97 195.074 758.566 196.079 757.76 196.856C756.953 197.619 755.897 198 754.592 198H749.664V186.12H752.062V189.64H754.592ZM754.306 195.888C754.966 195.888 755.501 195.705 755.912 195.338C756.322 194.957 756.528 194.458 756.528 193.842C756.528 193.431 756.432 193.072 756.242 192.764C756.066 192.441 755.809 192.192 755.472 192.016C755.134 191.84 754.746 191.752 754.306 191.752H752.062V195.888H754.306ZM766.654 198.286C764.894 198.286 763.413 197.692 762.21 196.504C761.022 195.301 760.428 193.82 760.428 192.06C760.428 190.285 761.022 188.804 762.21 187.616C763.413 186.428 764.902 185.834 766.676 185.834C768.128 185.834 769.39 186.245 770.46 187.066C771.531 187.887 772.228 188.98 772.55 190.344H770.13C769.822 189.669 769.36 189.141 768.744 188.76C768.128 188.364 767.432 188.166 766.654 188.166C765.965 188.166 765.334 188.335 764.762 188.672C764.19 189.009 763.736 189.479 763.398 190.08C763.076 190.667 762.914 191.327 762.914 192.06C762.914 193.16 763.274 194.084 763.992 194.832C764.711 195.58 765.598 195.954 766.654 195.954C767.432 195.954 768.121 195.756 768.722 195.36C769.338 194.964 769.808 194.399 770.13 193.666H772.594C772.257 195.059 771.546 196.181 770.46 197.032C769.39 197.868 768.121 198.286 766.654 198.286ZM778.294 186.12H783.97V198H781.594V193.644H779.108L776.512 198H773.85L776.688 193.248C775.97 192.955 775.405 192.515 774.994 191.928C774.584 191.341 774.378 190.659 774.378 189.882C774.378 188.811 774.752 187.917 775.5 187.198C776.248 186.479 777.18 186.12 778.294 186.12ZM778.624 191.51H781.594V188.276H778.624C778.272 188.276 777.957 188.349 777.678 188.496C777.414 188.628 777.209 188.819 777.062 189.068C776.916 189.303 776.842 189.581 776.842 189.904C776.842 190.373 777.004 190.762 777.326 191.07C777.649 191.363 778.082 191.51 778.624 191.51ZM787.301 201.168V199.892C788.21 199.672 788.665 199.041 788.665 198H787.169V195.206H789.941V197.802C789.941 198.741 789.706 199.496 789.237 200.068C788.767 200.64 788.122 201.007 787.301 201.168ZM273.558 229.526C272.355 230.699 270.844 231.286 269.026 231.286C267.207 231.286 265.689 230.699 264.472 229.526C263.269 228.338 262.668 226.849 262.668 225.06C262.668 223.887 262.939 222.823 263.482 221.87C264.039 220.917 264.802 220.176 265.77 219.648C266.752 219.105 267.838 218.834 269.026 218.834C270.214 218.834 271.292 219.105 272.26 219.648C273.242 220.176 274.005 220.917 274.548 221.87C275.105 222.823 275.384 223.887 275.384 225.06C275.384 226.849 274.775 228.338 273.558 229.526ZM269.026 228.954C269.774 228.954 270.441 228.793 271.028 228.47C271.614 228.133 272.069 227.671 272.392 227.084C272.729 226.483 272.898 225.808 272.898 225.06C272.898 223.931 272.531 222.999 271.798 222.266C271.079 221.533 270.155 221.166 269.026 221.166C267.896 221.166 266.965 221.533 266.232 222.266C265.513 222.999 265.154 223.931 265.154 225.06C265.154 226.189 265.513 227.121 266.232 227.854C266.965 228.587 267.896 228.954 269.026 228.954ZM284.035 219.692C285.751 219.692 287.144 220.22 288.215 221.276C289.3 222.332 289.843 223.703 289.843 225.39C289.843 227.135 289.271 228.558 288.127 229.658C286.998 230.743 285.516 231.286 283.683 231.286C281.747 231.286 280.222 230.685 279.107 229.482C278.007 228.265 277.457 226.6 277.457 224.488C277.457 221.599 278.007 219.406 279.107 217.91C280.222 216.399 282.077 215.329 284.673 214.698L288.391 213.796V216.216L284.717 217.096C282.18 217.697 280.676 219.025 280.207 221.078C281.234 220.154 282.51 219.692 284.035 219.692ZM283.683 228.976C284.739 228.976 285.612 228.639 286.301 227.964C287.005 227.275 287.357 226.417 287.357 225.39C287.357 224.701 287.196 224.085 286.873 223.542C286.55 222.985 286.11 222.552 285.553 222.244C284.996 221.921 284.372 221.76 283.683 221.76C282.994 221.76 282.363 221.921 281.791 222.244C281.234 222.552 280.794 222.985 280.471 223.542C280.163 224.085 280.009 224.701 280.009 225.39C280.009 226.417 280.354 227.275 281.043 227.964C281.747 228.639 282.627 228.976 283.683 228.976ZM298.846 218.834C300.019 218.834 301.075 219.105 302.014 219.648C302.952 220.176 303.686 220.917 304.214 221.87C304.742 222.823 305.006 223.887 305.006 225.06C305.006 226.849 304.419 228.338 303.246 229.526C302.087 230.699 300.62 231.286 298.846 231.286C297.32 231.286 296.008 230.809 294.908 229.856V235.268H292.466V219.12H294.116L294.578 220.572C295.722 219.413 297.144 218.834 298.846 218.834ZM295.876 227.854C296.609 228.587 297.533 228.954 298.648 228.954C299.777 228.954 300.708 228.587 301.442 227.854C302.175 227.106 302.542 226.175 302.542 225.06C302.542 223.945 302.175 223.021 301.442 222.288C300.708 221.54 299.784 221.166 298.67 221.166C297.936 221.166 297.269 221.335 296.668 221.672C296.066 222.009 295.597 222.479 295.26 223.08C294.937 223.667 294.776 224.327 294.776 225.06C294.776 226.175 295.142 227.106 295.876 227.854ZM317.578 219.12H319.47V231H317.49L317.248 229.548C316.104 230.707 314.674 231.286 312.958 231.286C311.183 231.286 309.702 230.692 308.514 229.504C307.34 228.316 306.754 226.835 306.754 225.06C306.754 223.271 307.34 221.789 308.514 220.616C309.702 219.428 311.183 218.834 312.958 218.834C314.703 218.834 316.148 219.421 317.292 220.594L317.578 219.12ZM310.34 227.854C311.088 228.587 312.019 228.954 313.134 228.954C314.263 228.954 315.187 228.587 315.906 227.854C316.639 227.106 317.006 226.175 317.006 225.06C317.006 223.931 316.639 222.999 315.906 222.266C315.187 221.533 314.263 221.166 313.134 221.166C312.4 221.166 311.733 221.335 311.132 221.672C310.545 222.009 310.083 222.479 309.746 223.08C309.408 223.667 309.24 224.327 309.24 225.06C309.24 226.175 309.606 227.106 310.34 227.854ZM338.022 228.756H339.628V233.992H337.406V231H322.952V219.12H325.35V228.756H329.332V219.12H331.664V228.756H335.624V219.12H338.022V228.756ZM351.931 219.12H353.823V231H351.843L351.601 229.548C350.457 230.707 349.027 231.286 347.311 231.286C345.536 231.286 344.055 230.692 342.867 229.504C341.694 228.316 341.107 226.835 341.107 225.06C341.107 223.271 341.694 221.789 342.867 220.616C344.055 219.428 345.536 218.834 347.311 218.834C349.056 218.834 350.501 219.421 351.645 220.594L351.931 219.12ZM344.693 227.854C345.441 228.587 346.372 228.954 347.487 228.954C348.616 228.954 349.54 228.587 350.259 227.854C350.992 227.106 351.359 226.175 351.359 225.06C351.359 223.931 350.992 222.999 350.259 222.266C349.54 221.533 348.616 221.166 347.487 221.166C346.754 221.166 346.086 221.335 345.485 221.672C344.898 222.009 344.436 222.479 344.099 223.08C343.762 223.667 343.593 224.327 343.593 225.06C343.593 226.175 343.96 227.106 344.693 227.854ZM360.627 219.12H366.303V231H363.927V226.644H361.441L358.845 231H356.183L359.021 226.248C358.303 225.955 357.738 225.515 357.327 224.928C356.917 224.341 356.711 223.659 356.711 222.882C356.711 221.811 357.085 220.917 357.833 220.198C358.581 219.479 359.513 219.12 360.627 219.12ZM360.957 224.51H363.927V221.276H360.957C360.605 221.276 360.29 221.349 360.011 221.496C359.747 221.628 359.542 221.819 359.395 222.068C359.249 222.303 359.175 222.581 359.175 222.904C359.175 223.373 359.337 223.762 359.659 224.07C359.982 224.363 360.415 224.51 360.957 224.51ZM375.134 231.286C373.374 231.286 371.892 230.692 370.69 229.504C369.502 228.301 368.908 226.82 368.908 225.06C368.908 223.285 369.502 221.804 370.69 220.616C371.892 219.428 373.381 218.834 375.156 218.834C376.608 218.834 377.869 219.245 378.94 220.066C380.01 220.887 380.707 221.98 381.03 223.344H378.61C378.302 222.669 377.84 222.141 377.224 221.76C376.608 221.364 375.911 221.166 375.134 221.166C374.444 221.166 373.814 221.335 373.242 221.672C372.67 222.009 372.215 222.479 371.878 223.08C371.555 223.667 371.394 224.327 371.394 225.06C371.394 226.16 371.753 227.084 372.472 227.832C373.19 228.58 374.078 228.954 375.134 228.954C375.911 228.954 376.6 228.756 377.202 228.36C377.818 227.964 378.287 227.399 378.61 226.666H381.074C380.736 228.059 380.025 229.181 378.94 230.032C377.869 230.868 376.6 231.286 375.134 231.286ZM388.401 222.64C389.707 222.64 390.763 223.029 391.569 223.806C392.376 224.583 392.779 225.595 392.779 226.842C392.779 228.074 392.376 229.079 391.569 229.856C390.763 230.619 389.707 231 388.401 231H383.473V219.12H385.871V222.64H388.401ZM388.115 228.888C388.775 228.888 389.311 228.705 389.721 228.338C390.132 227.957 390.337 227.458 390.337 226.842C390.337 226.431 390.242 226.072 390.051 225.764C389.875 225.441 389.619 225.192 389.281 225.016C388.944 224.84 388.555 224.752 388.115 224.752H385.871V228.888H388.115ZM408.197 224.796C408.476 224.913 408.725 225.067 408.945 225.258C409.18 225.434 409.378 225.647 409.539 225.896C409.701 226.131 409.825 226.395 409.913 226.688C410.001 226.981 410.045 227.282 410.045 227.59C410.045 228.558 409.693 229.372 408.989 230.032C408.285 230.677 407.405 231 406.349 231H400.145V219.12H406.261C407.259 219.12 408.073 219.406 408.703 219.978C409.349 220.535 409.671 221.261 409.671 222.156C409.671 222.713 409.539 223.227 409.275 223.696C409.011 224.165 408.652 224.532 408.197 224.796ZM407.251 222.552C407.251 222.141 407.112 221.811 406.833 221.562C406.569 221.313 406.217 221.188 405.777 221.188H402.543V223.916H405.777C406.217 223.916 406.569 223.791 406.833 223.542C407.112 223.293 407.251 222.963 407.251 222.552ZM405.909 228.866C406.393 228.866 406.782 228.727 407.075 228.448C407.383 228.169 407.537 227.817 407.537 227.392C407.537 226.952 407.383 226.593 407.075 226.314C406.767 226.035 406.371 225.896 405.887 225.896H402.543V228.866H405.909ZM428.66 228.69H430.2V233.992H427.978V231H419.31V233.992H417.088V228.69H418.342C418.68 228.411 418.936 227.986 419.112 227.414C419.303 226.842 419.472 225.977 419.618 224.818C419.765 223.645 419.956 221.745 420.19 219.12H428.66V228.69ZM422.346 221.276C422.185 223.667 422.002 225.383 421.796 226.424C421.591 227.465 421.29 228.221 420.894 228.69H426.262V221.276H422.346ZM439.203 218.834C440.376 218.834 441.432 219.105 442.371 219.648C443.31 220.176 444.043 220.917 444.571 221.87C445.099 222.823 445.363 223.887 445.363 225.06C445.363 226.849 444.776 228.338 443.603 229.526C442.444 230.699 440.978 231.286 439.203 231.286C437.678 231.286 436.365 230.809 435.265 229.856V235.268H432.823V219.12H434.473L434.935 220.572C436.079 219.413 437.502 218.834 439.203 218.834ZM436.233 227.854C436.966 228.587 437.89 228.954 439.005 228.954C440.134 228.954 441.066 228.587 441.799 227.854C442.532 227.106 442.899 226.175 442.899 225.06C442.899 223.945 442.532 223.021 441.799 222.288C441.066 221.54 440.142 221.166 439.027 221.166C438.294 221.166 437.626 221.335 437.025 221.672C436.424 222.009 435.954 222.479 435.617 223.08C435.294 223.667 435.133 224.327 435.133 225.06C435.133 226.175 435.5 227.106 436.233 227.854ZM456.053 219.12H458.671L453.215 231.22C452.525 232.731 451.821 233.779 451.103 234.366C450.399 234.967 449.453 235.268 448.265 235.268H447.055V233.068H448.067C448.844 233.068 449.416 232.914 449.783 232.606C450.149 232.298 450.553 231.66 450.993 230.692L451.257 230.142L446.087 219.12H448.749L452.511 227.414L456.053 219.12ZM468.214 219.12V221.298H463.022V231H460.624V219.12H468.214ZM479.047 219.12H480.411V231H478.079V223.454L471.743 231H470.335V219.12H472.689V226.6L479.047 219.12ZM495.177 225.082C495.177 225.302 495.163 225.573 495.133 225.896H485.497C485.644 226.849 486.04 227.605 486.685 228.162C487.345 228.719 488.159 228.998 489.127 228.998C489.597 228.998 490.037 228.932 490.447 228.8C490.858 228.653 491.217 228.455 491.525 228.206C491.848 227.942 492.112 227.627 492.317 227.26H494.891C494.422 228.521 493.674 229.511 492.647 230.23C491.621 230.934 490.447 231.286 489.127 231.286C487.382 231.286 485.923 230.692 484.749 229.504C483.591 228.316 483.011 226.835 483.011 225.06C483.011 223.285 483.591 221.804 484.749 220.616C485.923 219.428 487.382 218.834 489.127 218.834C490.315 218.834 491.371 219.12 492.295 219.692C493.219 220.249 493.931 221.005 494.429 221.958C494.928 222.897 495.177 223.938 495.177 225.082ZM489.127 221.034C488.218 221.034 487.441 221.291 486.795 221.804C486.165 222.317 485.747 223.021 485.541 223.916H492.735C492.589 223.315 492.347 222.801 492.009 222.376C491.672 221.936 491.254 221.606 490.755 221.386C490.271 221.151 489.729 221.034 489.127 221.034ZM510.793 231L507.229 225.94H505.755V231H503.313V219.12H505.755V223.718H507.251L510.485 219.12H513.367L509.341 224.818L513.807 231H510.793ZM525.118 229.526C523.915 230.699 522.405 231.286 520.586 231.286C518.767 231.286 517.249 230.699 516.032 229.526C514.829 228.338 514.228 226.849 514.228 225.06C514.228 223.887 514.499 222.823 515.042 221.87C515.599 220.917 516.362 220.176 517.33 219.648C518.313 219.105 519.398 218.834 520.586 218.834C521.774 218.834 522.852 219.105 523.82 219.648C524.803 220.176 525.565 220.917 526.108 221.87C526.665 222.823 526.944 223.887 526.944 225.06C526.944 226.849 526.335 228.338 525.118 229.526ZM520.586 228.954C521.334 228.954 522.001 228.793 522.588 228.47C523.175 228.133 523.629 227.671 523.952 227.084C524.289 226.483 524.458 225.808 524.458 225.06C524.458 223.931 524.091 222.999 523.358 222.266C522.639 221.533 521.715 221.166 520.586 221.166C519.457 221.166 518.525 221.533 517.792 222.266C517.073 222.999 516.714 223.931 516.714 225.06C516.714 226.189 517.073 227.121 517.792 227.854C518.525 228.587 519.457 228.954 520.586 228.954ZM544.53 231H542.176L540.746 222.904L536.764 230.868H536.258L532.298 222.904L530.868 231H528.514L530.648 219.12H532.716L536.522 226.71L540.35 219.12H542.396L544.53 231ZM547.055 219.12H557.417V231H554.997V221.342H549.497V231H547.055V219.12ZM570.835 219.12H572.727V231H570.747L570.505 229.548C569.361 230.707 567.931 231.286 566.215 231.286C564.441 231.286 562.959 230.692 561.771 229.504C560.598 228.316 560.011 226.835 560.011 225.06C560.011 223.271 560.598 221.789 561.771 220.616C562.959 219.428 564.441 218.834 566.215 218.834C567.961 218.834 569.405 219.421 570.549 220.594L570.835 219.12ZM563.597 227.854C564.345 228.587 565.277 228.954 566.391 228.954C567.521 228.954 568.445 228.587 569.163 227.854C569.897 227.106 570.263 226.175 570.263 225.06C570.263 223.931 569.897 222.999 569.163 222.266C568.445 221.533 567.521 221.166 566.391 221.166C565.658 221.166 564.991 221.335 564.389 221.672C563.803 222.009 563.341 222.479 563.003 223.08C562.666 223.667 562.497 224.327 562.497 225.06C562.497 226.175 562.864 227.106 563.597 227.854ZM584.13 219.12H586.528V231H584.13V226.028H578.63V231H576.21V219.12H578.63V223.784H584.13V219.12ZM598.715 219.12H600.079V231H597.747V223.454L591.411 231H590.003V219.12H592.357V226.6L598.715 219.12ZM612.271 219.12H613.635V231H611.303V223.454L604.967 231H603.559V219.12H605.913V226.6L612.271 219.12ZM616.83 222.794V219.978H619.514V222.794H616.83ZM616.83 231V228.184H619.514V231H616.83Z" fill="#959A9D"/>
<path d="M1.01801 86.05H14.848V86.53L7.10801 106H3.68801L10.498 88.99H1.01801V86.05ZM24.4815 106.36C22.0615 106.36 20.1415 105.43 18.7215 103.57C17.3015 101.71 16.5915 99.19 16.5915 96.01C16.5915 92.83 17.2915 90.32 18.6915 88.48C20.1115 86.62 22.0415 85.69 24.4815 85.69C26.9015 85.69 28.8115 86.62 30.2115 88.48C31.6315 90.32 32.3415 92.83 32.3415 96.01C32.3415 99.19 31.6315 101.71 30.2115 103.57C28.7915 105.43 26.8815 106.36 24.4815 106.36ZM24.4815 103.3C25.9215 103.3 27.0415 102.66 27.8415 101.38C28.6615 100.1 29.0715 98.31 29.0715 96.01C29.0715 94.49 28.8815 93.19 28.5015 92.11C28.1415 91.01 27.6115 90.18 26.9115 89.62C26.2315 89.04 25.4215 88.75 24.4815 88.75C23.5215 88.75 22.6915 89.04 21.9915 89.62C21.2915 90.18 20.7615 91.01 20.4015 92.11C20.0415 93.19 19.8615 94.49 19.8615 96.01C19.8615 98.31 20.2615 100.1 21.0615 101.38C21.8815 102.66 23.0215 103.3 24.4815 103.3ZM39.7501 94.18C38.2901 94.18 37.0901 93.72 36.1501 92.8C35.2301 91.88 34.7701 90.7 34.7701 89.26C34.7701 87.84 35.2301 86.68 36.1501 85.78C37.0901 84.86 38.2901 84.4 39.7501 84.4C41.2101 84.4 42.4001 84.86 43.3201 85.78C44.2401 86.68 44.7001 87.84 44.7001 89.26C44.7001 90.7 44.2301 91.88 43.2901 92.8C42.3701 93.72 41.1901 94.18 39.7501 94.18ZM37.9501 106.12L50.7001 84.97H54.2101L41.4601 106.12H37.9501ZM39.7501 91.54C40.0701 91.54 40.3701 91.49 40.6501 91.39C40.9301 91.27 41.1701 91.11 41.3701 90.91C41.5701 90.71 41.7201 90.47 41.8201 90.19C41.9401 89.91 42.0001 89.6 42.0001 89.26C42.0001 88.62 41.7901 88.09 41.3701 87.67C40.9501 87.23 40.4101 87.01 39.7501 87.01C39.1101 87.01 38.5701 87.23 38.1301 87.67C37.7101 88.09 37.5001 88.62 37.5001 89.26C37.5001 89.92 37.7101 90.47 38.1301 90.91C38.5701 91.33 39.1101 91.54 39.7501 91.54ZM56.4001 104.8C55.4801 105.7 54.3001 106.15 52.8601 106.15C51.4201 106.15 50.2301 105.7 49.2901 104.8C48.3701 103.88 47.9101 102.71 47.9101 101.29C47.9101 99.87 48.3701 98.71 49.2901 97.81C50.2301 96.89 51.4201 96.43 52.8601 96.43C54.3001 96.43 55.4801 96.89 56.4001 97.81C57.3401 98.71 57.8101 99.87 57.8101 101.29C57.8101 102.71 57.3401 103.88 56.4001 104.8ZM52.8601 103.51C53.2801 103.51 53.6601 103.42 54.0001 103.24C54.3401 103.04 54.6001 102.77 54.7801 102.43C54.9801 102.09 55.0801 101.71 55.0801 101.29C55.0801 100.63 54.8701 100.09 54.4501 99.67C54.0501 99.25 53.5201 99.04 52.8601 99.04C52.5401 99.04 52.2401 99.1 51.9601 99.22C51.6801 99.34 51.4401 99.5 51.2401 99.7C51.0601 99.88 50.9101 100.11 50.7901 100.39C50.6701 100.67 50.6101 100.97 50.6101 101.29C50.6101 101.93 50.8201 102.46 51.2401 102.88C51.6801 103.3 52.2201 103.51 52.8601 103.51ZM78.8425 106L73.9825 99.1H71.9725V106H68.6425V89.8H71.9725V96.07H74.0125L78.4225 89.8H82.3525L76.8625 97.57L82.9525 106H78.8425ZM88.1038 89.8H99.1138V106H95.8438V92.68H90.8338L90.1138 99.85C89.8938 102.13 89.3038 103.74 88.3438 104.68C87.4038 105.62 85.9738 106.09 84.0538 106.09H83.4838V103.03H84.2638C85.8438 103.03 86.7338 102.04 86.9338 100.06L88.1038 89.8ZM115.737 89.8H117.597V106H114.417V95.71L105.777 106H103.857V89.8H107.067V100L115.737 89.8ZM133.144 89.8H136.414V106H133.144V99.22H125.644V106H122.344V89.8H125.644V96.16H133.144V89.8ZM153.032 89.8H154.892V106H151.712V95.71L143.072 106H141.152V89.8H144.362V100L153.032 89.8ZM170.439 89.8H173.709V106H170.439V99.22H162.939V106H159.639V89.8H162.939V96.16H170.439V89.8ZM188.797 89.8V92.77H181.717V106H178.447V89.8H188.797ZM204.841 103.99C203.201 105.59 201.141 106.39 198.661 106.39C196.181 106.39 194.111 105.59 192.451 103.99C190.811 102.37 189.991 100.34 189.991 97.9C189.991 96.3 190.361 94.85 191.101 93.55C191.861 92.25 192.901 91.24 194.221 90.52C195.561 89.78 197.041 89.41 198.661 89.41C200.281 89.41 201.751 89.78 203.071 90.52C204.411 91.24 205.451 92.25 206.191 93.55C206.951 94.85 207.331 96.3 207.331 97.9C207.331 100.34 206.501 102.37 204.841 103.99ZM198.661 103.21C199.681 103.21 200.591 102.99 201.391 102.55C202.191 102.09 202.811 101.46 203.251 100.66C203.711 99.84 203.941 98.92 203.941 97.9C203.941 96.36 203.441 95.09 202.441 94.09C201.461 93.09 200.201 92.59 198.661 92.59C197.121 92.59 195.851 93.09 194.851 94.09C193.871 95.09 193.381 96.36 193.381 97.9C193.381 99.44 193.871 100.71 194.851 101.71C195.851 102.71 197.121 103.21 198.661 103.21ZM221.859 97.54C222.239 97.7 222.579 97.91 222.879 98.17C223.199 98.41 223.469 98.7 223.689 99.04C223.909 99.36 224.079 99.72 224.199 100.12C224.319 100.52 224.379 100.93 224.379 101.35C224.379 102.67 223.899 103.78 222.939 104.68C221.979 105.56 220.779 106 219.339 106H210.879V89.8H219.219C220.579 89.8 221.689 90.19 222.549 90.97C223.429 91.73 223.869 92.72 223.869 93.94C223.869 94.7 223.689 95.4 223.329 96.04C222.969 96.68 222.479 97.18 221.859 97.54ZM220.569 94.48C220.569 93.92 220.379 93.47 219.999 93.13C219.639 92.79 219.159 92.62 218.559 92.62H214.149V96.34H218.559C219.159 96.34 219.639 96.17 219.999 95.83C220.379 95.49 220.569 95.04 220.569 94.48ZM218.739 103.09C219.399 103.09 219.929 102.9 220.329 102.52C220.749 102.14 220.959 101.66 220.959 101.08C220.959 100.48 220.749 99.99 220.329 99.61C219.909 99.23 219.369 99.04 218.709 99.04H214.149V103.09H218.739ZM234.855 94.6C236.635 94.6 238.075 95.13 239.175 96.19C240.275 97.25 240.825 98.63 240.825 100.33C240.825 102.01 240.275 103.38 239.175 104.44C238.075 105.48 236.635 106 234.855 106H228.135V89.8H231.405V94.6H234.855ZM243.645 89.8H246.975V106H243.645V89.8ZM234.465 103.12C235.365 103.12 236.095 102.87 236.655 102.37C237.215 101.85 237.495 101.17 237.495 100.33C237.495 99.77 237.365 99.28 237.105 98.86C236.865 98.42 236.515 98.08 236.055 97.84C235.595 97.6 235.065 97.48 234.465 97.48H231.405V103.12H234.465ZM265.039 106H261.289L257.239 99.82L253.159 106H249.499L255.259 97.63L249.949 89.8H253.669L257.269 95.26L260.959 89.8H264.619L259.219 97.45L265.039 106ZM285.298 106L280.438 99.1H278.428V106H275.098V89.8H278.428V96.07H280.468L284.878 89.8H288.808L283.318 97.57L289.408 106H285.298ZM304.832 103.99C303.192 105.59 301.132 106.39 298.652 106.39C296.172 106.39 294.102 105.59 292.442 103.99C290.802 102.37 289.982 100.34 289.982 97.9C289.982 96.3 290.352 94.85 291.092 93.55C291.852 92.25 292.892 91.24 294.212 90.52C295.552 89.78 297.032 89.41 298.652 89.41C300.272 89.41 301.742 89.78 303.062 90.52C304.402 91.24 305.442 92.25 306.182 93.55C306.942 94.85 307.322 96.3 307.322 97.9C307.322 100.34 306.492 102.37 304.832 103.99ZM298.652 103.21C299.672 103.21 300.582 102.99 301.382 102.55C302.182 102.09 302.802 101.46 303.242 100.66C303.702 99.84 303.932 98.92 303.932 97.9C303.932 96.36 303.432 95.09 302.432 94.09C301.452 93.09 300.192 92.59 298.652 92.59C297.112 92.59 295.842 93.09 294.842 94.09C293.862 95.09 293.372 96.36 293.372 97.9C293.372 99.44 293.862 100.71 294.842 101.71C295.842 102.71 297.112 103.21 298.652 103.21ZM331.302 106H328.092L326.142 94.96L320.712 105.82H320.022L314.622 94.96L312.672 106H309.462L312.372 89.8H315.192L320.382 100.15L325.602 89.8H328.392L331.302 106ZM334.746 89.8H348.876V106H345.576V92.83H338.076V106H334.746V89.8ZM367.173 89.8H369.753V106H367.053L366.723 104.02C365.163 105.6 363.213 106.39 360.873 106.39C358.453 106.39 356.433 105.58 354.813 103.96C353.213 102.34 352.413 100.32 352.413 97.9C352.413 95.46 353.213 93.44 354.813 91.84C356.433 90.22 358.453 89.41 360.873 89.41C363.253 89.41 365.223 90.21 366.783 91.81L367.173 89.8ZM357.303 101.71C358.323 102.71 359.593 103.21 361.113 103.21C362.653 103.21 363.913 102.71 364.893 101.71C365.893 100.69 366.393 99.42 366.393 97.9C366.393 96.36 365.893 95.09 364.893 94.09C363.913 93.09 362.653 92.59 361.113 92.59C360.113 92.59 359.203 92.82 358.383 93.28C357.583 93.74 356.953 94.38 356.493 95.2C356.033 96 355.803 96.9 355.803 97.9C355.803 99.42 356.303 100.69 357.303 101.71ZM385.302 89.8H388.572V106H385.302V99.22H377.802V106H374.502V89.8H377.802V96.16H385.302V89.8ZM405.19 89.8H407.05V106H403.87V95.71L395.23 106H393.31V89.8H396.52V100L405.19 89.8ZM422.807 84.46V86.95H414.767V84.46H422.807ZM423.677 89.8H425.537V106H422.357V95.71L413.717 106H411.797V89.8H415.007V100L423.677 89.8ZM448.822 97.54C449.202 97.7 449.542 97.91 449.842 98.17C450.162 98.41 450.432 98.7 450.652 99.04C450.872 99.36 451.042 99.72 451.162 100.12C451.282 100.52 451.342 100.93 451.342 101.35C451.342 102.67 450.862 103.78 449.902 104.68C448.942 105.56 447.742 106 446.302 106H437.842V89.8H446.182C447.542 89.8 448.652 90.19 449.512 90.97C450.392 91.73 450.832 92.72 450.832 93.94C450.832 94.7 450.652 95.4 450.292 96.04C449.932 96.68 449.442 97.18 448.822 97.54ZM447.532 94.48C447.532 93.92 447.342 93.47 446.962 93.13C446.602 92.79 446.122 92.62 445.522 92.62H441.112V96.34H445.522C446.122 96.34 446.602 96.17 446.962 95.83C447.342 95.49 447.532 95.04 447.532 94.48ZM445.702 103.09C446.362 103.09 446.892 102.9 447.292 102.52C447.712 102.14 447.922 101.66 447.922 101.08C447.922 100.48 447.712 99.99 447.292 99.61C446.872 99.23 446.332 99.04 445.672 99.04H441.112V103.09H445.702ZM472.406 106.36C469.306 106.36 466.726 105.34 464.666 103.3C462.626 101.24 461.606 98.64 461.606 95.5C461.606 92.36 462.626 89.77 464.666 87.73C466.726 85.67 469.306 84.64 472.406 84.64C474.046 84.64 475.566 84.96 476.966 85.6C478.366 86.24 479.536 87.15 480.476 88.33C481.436 89.51 482.096 90.88 482.456 92.44H478.976C478.476 91.04 477.646 89.95 476.486 89.17C475.326 88.37 473.966 87.97 472.406 87.97C470.306 87.97 468.566 88.68 467.186 90.1C465.806 91.52 465.116 93.33 465.116 95.53C465.116 97.71 465.806 99.51 467.186 100.93C468.566 102.33 470.306 103.03 472.406 103.03C474.006 103.03 475.396 102.61 476.576 101.77C477.756 100.91 478.576 99.74 479.036 98.26H482.546C482.006 100.72 480.816 102.69 478.976 104.17C477.136 105.63 474.946 106.36 472.406 106.36ZM486.189 85H501.939V106H498.459V88.21H489.639V106H486.189V85ZM515.202 92.8C517.182 92.8 518.802 93.42 520.062 94.66C521.342 95.9 521.982 97.47 521.982 99.37C521.982 101.29 521.332 102.88 520.032 104.14C518.752 105.38 517.132 106 515.172 106H507.282V85H520.392V88.21H510.702V92.8H515.202ZM514.902 102.73C515.942 102.73 516.792 102.42 517.452 101.8C518.112 101.16 518.442 100.35 518.442 99.37C518.442 98.73 518.292 98.16 517.992 97.66C517.692 97.16 517.272 96.77 516.732 96.49C516.212 96.21 515.602 96.07 514.902 96.07H510.702V102.73H514.902ZM525.229 110.32V108.58C526.469 108.28 527.089 107.42 527.089 106H525.049V102.19H528.829V105.73C528.829 107.01 528.509 108.04 527.869 108.82C527.229 109.6 526.349 110.1 525.229 110.32ZM549.792 97.39C551.212 98.23 551.922 99.54 551.922 101.32C551.922 102.82 551.322 104.04 550.122 104.98C548.922 105.92 547.382 106.39 545.502 106.39C543.682 106.39 542.192 105.92 541.032 104.98C539.892 104.02 539.272 102.74 539.172 101.14H542.202C542.322 101.84 542.672 102.39 543.252 102.79C543.832 103.19 544.582 103.39 545.502 103.39C546.442 103.39 547.202 103.18 547.782 102.76C548.362 102.32 548.652 101.76 548.652 101.08C548.652 100.42 548.392 99.88 547.872 99.46C547.372 99.04 546.702 98.83 545.862 98.83H543.762V96.25H545.862C546.622 96.25 547.222 96.08 547.662 95.74C548.102 95.38 548.322 94.9 548.322 94.3C548.322 93.66 548.062 93.15 547.542 92.77C547.022 92.39 546.332 92.2 545.472 92.2C544.692 92.2 544.042 92.38 543.522 92.74C543.022 93.1 542.722 93.6 542.622 94.24H539.592C539.672 92.8 540.262 91.64 541.362 90.76C542.482 89.86 543.882 89.41 545.562 89.41C547.282 89.41 548.692 89.85 549.792 90.73C550.912 91.61 551.472 92.72 551.472 94.06C551.472 95.5 550.912 96.61 549.792 97.39ZM569.117 89.8H571.697V106H568.997L568.667 104.02C567.107 105.6 565.157 106.39 562.817 106.39C560.397 106.39 558.377 105.58 556.757 103.96C555.157 102.34 554.357 100.32 554.357 97.9C554.357 95.46 555.157 93.44 556.757 91.84C558.377 90.22 560.397 89.41 562.817 89.41C565.197 89.41 567.167 90.21 568.727 91.81L569.117 89.8ZM559.247 101.71C560.267 102.71 561.537 103.21 563.057 103.21C564.597 103.21 565.857 102.71 566.837 101.71C567.837 100.69 568.337 99.42 568.337 97.9C568.337 96.36 567.837 95.09 566.837 94.09C565.857 93.09 564.597 92.59 563.057 92.59C562.057 92.59 561.147 92.82 560.327 93.28C559.527 93.74 558.897 94.38 558.437 95.2C557.977 96 557.747 96.9 557.747 97.9C557.747 99.42 558.247 100.69 559.247 101.71ZM585.265 89.8H588.505V106H585.265V100.21C584.165 100.61 583.005 100.81 581.785 100.81C579.805 100.81 578.215 100.23 577.015 99.07C575.815 97.91 575.215 96.31 575.215 94.27V89.8H578.485V94.15C578.485 95.31 578.785 96.2 579.385 96.82C580.005 97.44 580.895 97.75 582.055 97.75C583.215 97.75 584.285 97.49 585.265 96.97V89.8ZM606.792 89.8H609.372V106H606.672L606.342 104.02C604.782 105.6 602.832 106.39 600.492 106.39C598.072 106.39 596.052 105.58 594.432 103.96C592.832 102.34 592.032 100.32 592.032 97.9C592.032 95.46 592.832 93.44 594.432 91.84C596.052 90.22 598.072 89.41 600.492 89.41C602.872 89.41 604.842 90.21 606.402 91.81L606.792 89.8ZM596.922 101.71C597.942 102.71 599.212 103.21 600.732 103.21C602.272 103.21 603.532 102.71 604.512 101.71C605.512 100.69 606.012 99.42 606.012 97.9C606.012 96.36 605.512 95.09 604.512 94.09C603.532 93.09 602.272 92.59 600.732 92.59C599.732 92.59 598.822 92.82 598.002 93.28C597.202 93.74 596.572 94.38 596.112 95.2C595.652 96 595.422 96.9 595.422 97.9C595.422 99.42 595.922 100.69 596.922 101.71ZM621.411 106.39C619.011 106.39 616.991 105.58 615.351 103.96C613.731 102.32 612.921 100.3 612.921 97.9C612.921 95.48 613.731 93.46 615.351 91.84C616.991 90.22 619.021 89.41 621.441 89.41C623.421 89.41 625.141 89.97 626.601 91.09C628.061 92.21 629.011 93.7 629.451 95.56H626.151C625.731 94.64 625.101 93.92 624.261 93.4C623.421 92.86 622.471 92.59 621.411 92.59C620.471 92.59 619.611 92.82 618.831 93.28C618.051 93.74 617.431 94.38 616.971 95.2C616.531 96 616.311 96.9 616.311 97.9C616.311 99.4 616.801 100.66 617.781 101.68C618.761 102.7 619.971 103.21 621.411 103.21C622.471 103.21 623.411 102.94 624.231 102.4C625.071 101.86 625.711 101.09 626.151 100.09H629.511C629.051 101.99 628.081 103.52 626.601 104.68C625.141 105.82 623.411 106.39 621.411 106.39ZM645.447 89.8V92.8H639.747V106H636.507V92.8H630.777V89.8H645.447ZM659.919 89.8H663.489L656.049 106.3C655.109 108.36 654.149 109.79 653.169 110.59C652.209 111.41 650.919 111.82 649.299 111.82H647.649V108.82H649.029C650.089 108.82 650.869 108.61 651.369 108.19C651.869 107.77 652.419 106.9 653.019 105.58L653.379 104.83L646.329 89.8H649.959L655.089 101.11L659.919 89.8ZM680.102 89.41C682.522 89.41 684.522 90.22 686.102 91.84C687.702 93.44 688.502 95.47 688.502 97.93C688.502 100.37 687.712 102.39 686.132 103.99C684.552 105.59 682.542 106.39 680.102 106.39C678.682 106.39 677.382 106.1 676.202 105.52C675.022 104.94 674.062 104.13 673.322 103.09C672.582 102.03 672.102 100.82 671.882 99.46H669.452V106.03H666.152V89.8H669.452V96.34H671.882C672.222 94.28 673.142 92.61 674.642 91.33C676.162 90.05 677.982 89.41 680.102 89.41ZM676.502 101.71C677.462 102.71 678.662 103.21 680.102 103.21C681.542 103.21 682.742 102.71 683.702 101.71C684.662 100.71 685.142 99.45 685.142 97.93C685.142 96.39 684.662 95.12 683.702 94.12C682.742 93.1 681.542 92.59 680.102 92.59C678.662 92.59 677.462 93.1 676.502 94.12C675.542 95.12 675.062 96.39 675.062 97.93C675.062 99.45 675.542 100.71 676.502 101.71ZM699.369 89.8H714.009V106H709.659V93.76H703.719V106H699.369V89.8ZM725.916 106.45C724.256 106.45 722.756 106.08 721.416 105.34C720.076 104.6 719.026 103.58 718.266 102.28C717.526 100.96 717.156 99.5 717.156 97.9C717.156 95.44 717.986 93.4 719.646 91.78C721.306 90.16 723.396 89.35 725.916 89.35C728.416 89.35 730.496 90.16 732.156 91.78C733.816 93.4 734.646 95.44 734.646 97.9C734.646 100.34 733.806 102.38 732.126 104.02C730.466 105.64 728.396 106.45 725.916 106.45ZM725.916 102.34C727.176 102.34 728.206 101.93 729.006 101.11C729.806 100.27 730.206 99.2 730.206 97.9C730.206 96.6 729.806 95.54 729.006 94.72C728.206 93.88 727.166 93.46 725.886 93.46C724.626 93.46 723.596 93.88 722.796 94.72C721.996 95.54 721.596 96.6 721.596 97.9C721.596 98.54 721.696 99.14 721.896 99.7C722.116 100.26 722.416 100.73 722.796 101.11C723.176 101.49 723.626 101.79 724.146 102.01C724.686 102.23 725.276 102.34 725.916 102.34ZM752.242 101.89H754.222V109.72H750.262V106H740.122V109.72H736.132V101.89H737.812C738.432 101.39 738.882 100.42 739.162 98.98C739.462 97.54 739.822 94.48 740.242 89.8H752.242V101.89ZM744.082 93.64C743.922 96.1 743.712 97.94 743.452 99.16C743.192 100.38 742.822 101.29 742.342 101.89H747.952V93.64H744.082ZM769.192 97.39C769.932 97.73 770.502 98.23 770.902 98.89C771.322 99.53 771.532 100.28 771.532 101.14C771.532 102.52 771.042 103.68 770.062 104.62C769.102 105.54 767.882 106 766.402 106H757.552V89.8H766.312C767.692 89.8 768.822 90.19 769.702 90.97C770.602 91.73 771.052 92.71 771.052 93.91C771.052 94.63 770.882 95.3 770.542 95.92C770.222 96.52 769.772 97.01 769.192 97.39ZM766.762 94.63C766.762 94.31 766.692 94.04 766.552 93.82C766.412 93.58 766.212 93.4 765.952 93.28C765.712 93.14 765.432 93.07 765.112 93.07H761.842V96.19H765.112C765.592 96.19 765.982 96.04 766.282 95.74C766.602 95.44 766.762 95.07 766.762 94.63ZM765.322 102.52C765.862 102.52 766.292 102.38 766.612 102.1C766.932 101.8 767.092 101.4 767.092 100.9C767.092 100.38 766.932 99.97 766.612 99.67C766.292 99.37 765.862 99.22 765.322 99.22H761.842V102.52H765.322ZM790.499 97.84C790.499 98.26 790.469 98.69 790.409 99.13H778.169C778.349 100.23 778.779 101.08 779.459 101.68C780.159 102.26 781.049 102.55 782.129 102.55C782.869 102.55 783.539 102.39 784.139 102.07C784.739 101.73 785.209 101.27 785.549 100.69H790.169C789.569 102.45 788.549 103.85 787.109 104.89C785.669 105.93 784.009 106.45 782.129 106.45C779.729 106.45 777.729 105.63 776.129 103.99C774.529 102.35 773.729 100.32 773.729 97.9C773.729 96.94 773.859 96.02 774.119 95.14C774.399 94.26 774.789 93.47 775.289 92.77C775.809 92.07 776.409 91.47 777.089 90.97C777.769 90.45 778.539 90.05 779.399 89.77C780.259 89.49 781.169 89.35 782.129 89.35C783.749 89.35 785.199 89.73 786.479 90.49C787.779 91.25 788.769 92.28 789.449 93.58C790.149 94.88 790.499 96.3 790.499 97.84ZM782.129 93.07C781.149 93.07 780.319 93.34 779.639 93.88C778.979 94.42 778.529 95.17 778.289 96.13H786.119C785.919 95.47 785.629 94.92 785.249 94.48C784.869 94.02 784.409 93.67 783.869 93.43C783.349 93.19 782.769 93.07 782.129 93.07ZM802.467 89.35C804.907 89.35 806.927 90.16 808.527 91.78C810.147 93.4 810.957 95.44 810.957 97.9C810.957 100.36 810.147 102.41 808.527 104.05C806.907 105.67 804.887 106.48 802.467 106.48C800.807 106.48 799.317 106.03 797.997 105.13V111.85H793.617V89.8H796.527L797.277 91.27C798.717 89.99 800.447 89.35 802.467 89.35ZM798.927 101.08C799.767 101.92 800.817 102.34 802.077 102.34C803.357 102.34 804.417 101.92 805.257 101.08C806.097 100.24 806.517 99.18 806.517 97.9C806.517 97.06 806.327 96.3 805.947 95.62C805.567 94.94 805.037 94.41 804.357 94.03C803.697 93.65 802.947 93.46 802.107 93.46C801.267 93.46 800.507 93.65 799.827 94.03C799.147 94.41 798.617 94.94 798.237 95.62C797.877 96.3 797.697 97.06 797.697 97.9C797.697 99.18 798.107 100.24 798.927 101.08ZM824.746 89.8V93.67H818.356V106H814.066V89.8H824.746ZM840.245 89.77H843.515V105.97H840.065L839.705 104.53C838.225 105.81 836.475 106.45 834.455 106.45C832.015 106.45 829.985 105.64 828.365 104.02C826.765 102.38 825.965 100.33 825.965 97.87C825.965 95.43 826.765 93.4 828.365 91.78C829.985 90.16 832.015 89.35 834.455 89.35C836.515 89.35 838.285 90.01 839.765 91.33L840.245 89.77ZM831.635 101.05C832.475 101.89 833.525 102.31 834.785 102.31C836.065 102.31 837.125 101.89 837.965 101.05C838.805 100.21 839.225 99.15 839.225 97.87C839.225 96.59 838.805 95.53 837.965 94.69C837.125 93.85 836.075 93.43 834.815 93.43C833.975 93.43 833.215 93.63 832.535 94.03C831.875 94.41 831.355 94.94 830.975 95.62C830.595 96.28 830.405 97.03 830.405 97.87C830.405 99.15 830.815 100.21 831.635 101.05ZM862.158 89.35C864.638 89.35 866.688 90.16 868.308 91.78C869.928 93.4 870.738 95.44 870.738 97.9C870.738 100.4 869.928 102.45 868.308 104.05C866.708 105.65 864.658 106.45 862.158 106.45C860.058 106.45 858.268 105.86 856.788 104.68C855.328 103.48 854.398 101.9 853.998 99.94H852.048V106H847.728V89.8H852.048V95.86H853.998C854.398 93.9 855.338 92.33 856.818 91.15C858.298 89.95 860.078 89.35 862.158 89.35ZM859.128 101.11C859.948 101.95 860.958 102.37 862.158 102.37C863.378 102.37 864.388 101.95 865.188 101.11C866.008 100.25 866.418 99.18 866.418 97.9C866.418 96.62 866.008 95.56 865.188 94.72C864.388 93.86 863.378 93.43 862.158 93.43C860.958 93.43 859.948 93.86 859.128 94.72C858.328 95.56 857.928 96.62 857.928 97.9C857.928 99.18 858.328 100.25 859.128 101.11ZM886.828 89.8V93.73H881.548V106H877.258V93.73H871.978V89.8H886.828ZM146.742 151.45C145.142 151.45 143.682 151.08 142.362 150.34C141.062 149.58 140.032 148.54 139.272 147.22C138.532 145.9 138.162 144.44 138.162 142.84C138.162 140.42 138.982 138.4 140.622 136.78C142.262 135.16 144.312 134.35 146.772 134.35C148.872 134.35 150.672 134.96 152.172 136.18C153.672 137.38 154.622 138.98 155.022 140.98H150.672C150.312 140.2 149.782 139.59 149.082 139.15C148.402 138.69 147.622 138.46 146.742 138.46C145.562 138.46 144.572 138.88 143.772 139.72C142.992 140.56 142.602 141.61 142.602 142.87C142.602 144.13 143.002 145.19 143.802 146.05C144.602 146.91 145.582 147.34 146.742 147.34C147.622 147.34 148.402 147.11 149.082 146.65C149.762 146.17 150.292 145.49 150.672 144.61H155.082C154.682 146.67 153.722 148.33 152.202 149.59C150.682 150.83 148.862 151.45 146.742 151.45ZM169.602 142.39C170.342 142.73 170.912 143.23 171.312 143.89C171.732 144.53 171.942 145.28 171.942 146.14C171.942 147.52 171.452 148.68 170.472 149.62C169.512 150.54 168.292 151 166.812 151H157.962V134.8H166.722C168.102 134.8 169.232 135.19 170.112 135.97C171.012 136.73 171.462 137.71 171.462 138.91C171.462 139.63 171.292 140.3 170.952 140.92C170.632 141.52 170.182 142.01 169.602 142.39ZM167.172 139.63C167.172 139.31 167.102 139.04 166.962 138.82C166.822 138.58 166.622 138.4 166.362 138.28C166.122 138.14 165.842 138.07 165.522 138.07H162.252V141.19H165.522C166.002 141.19 166.392 141.04 166.692 140.74C167.012 140.44 167.172 140.07 167.172 139.63ZM165.732 147.52C166.272 147.52 166.702 147.38 167.022 147.1C167.342 146.8 167.502 146.4 167.502 145.9C167.502 145.38 167.342 144.97 167.022 144.67C166.702 144.37 166.272 144.22 165.732 144.22H162.252V147.52H165.732ZM182.899 151.45C181.239 151.45 179.739 151.08 178.399 150.34C177.059 149.6 176.009 148.58 175.249 147.28C174.509 145.96 174.139 144.5 174.139 142.9C174.139 140.44 174.969 138.4 176.629 136.78C178.289 135.16 180.379 134.35 182.899 134.35C185.399 134.35 187.479 135.16 189.139 136.78C190.799 138.4 191.629 140.44 191.629 142.9C191.629 145.34 190.789 147.38 189.109 149.02C187.449 150.64 185.379 151.45 182.899 151.45ZM182.899 147.34C184.159 147.34 185.189 146.93 185.989 146.11C186.789 145.27 187.189 144.2 187.189 142.9C187.189 141.6 186.789 140.54 185.989 139.72C185.189 138.88 184.149 138.46 182.869 138.46C181.609 138.46 180.579 138.88 179.779 139.72C178.979 140.54 178.579 141.6 178.579 142.9C178.579 143.54 178.679 144.14 178.879 144.7C179.099 145.26 179.399 145.73 179.779 146.11C180.159 146.49 180.609 146.79 181.129 147.01C181.669 147.23 182.259 147.34 182.899 147.34ZM206.578 134.8H209.038V151H204.808V142.42L197.278 151H194.788V134.8H199.018V143.29L206.578 134.8ZM227.466 151H222.516L219.306 145.63L216.006 151H211.176L216.696 142.69L211.536 134.8H216.486L219.306 139.48L222.306 134.8H227.136L221.886 142.45L227.466 151ZM251.651 151H246.371L241.151 143.26V151H236.771V134.8H241.151V142L246.071 134.8H251.051L245.561 142.54L251.651 151ZM256.468 134.8H268.048V151H263.758V138.61H260.038L259.498 144.37C259.258 146.81 258.608 148.54 257.548 149.56C256.488 150.58 254.898 151.09 252.778 151.09H252.058V147.13H253.138C253.738 147.13 254.238 146.92 254.638 146.5C255.038 146.08 255.278 145.48 255.358 144.7L256.468 134.8ZM284.039 134.8H286.499V151H282.269V142.42L274.739 151H272.249V134.8H276.479V143.29L284.039 134.8ZM306.426 142.84C306.426 143.26 306.396 143.69 306.336 144.13H294.096C294.276 145.23 294.706 146.08 295.386 146.68C296.086 147.26 296.976 147.55 298.056 147.55C298.796 147.55 299.466 147.39 300.066 147.07C300.666 146.73 301.136 146.27 301.476 145.69H306.096C305.496 147.45 304.476 148.85 303.036 149.89C301.596 150.93 299.936 151.45 298.056 151.45C295.656 151.45 293.656 150.63 292.056 148.99C290.456 147.35 289.656 145.32 289.656 142.9C289.656 141.94 289.786 141.02 290.046 140.14C290.326 139.26 290.716 138.47 291.216 137.77C291.736 137.07 292.336 136.47 293.016 135.97C293.696 135.45 294.466 135.05 295.326 134.77C296.186 134.49 297.096 134.35 298.056 134.35C299.676 134.35 301.126 134.73 302.406 135.49C303.706 136.25 304.696 137.28 305.376 138.58C306.076 139.88 306.426 141.3 306.426 142.84ZM298.056 138.07C297.076 138.07 296.246 138.34 295.566 138.88C294.906 139.42 294.456 140.17 294.216 141.13H302.046C301.846 140.47 301.556 139.92 301.176 139.48C300.796 139.02 300.336 138.67 299.796 138.43C299.276 138.19 298.696 138.07 298.056 138.07ZM319.804 134.8H324.184V151H319.804V144.79H313.924V151H309.544V134.8H313.924V140.8H319.804V134.8ZM341.672 134.8V138.73H336.392V151H332.102V138.73H326.822V134.8H341.672ZM351.678 151.45C350.018 151.45 348.518 151.08 347.178 150.34C345.838 149.6 344.788 148.58 344.028 147.28C343.288 145.96 342.918 144.5 342.918 142.9C342.918 140.44 343.748 138.4 345.408 136.78C347.068 135.16 349.158 134.35 351.678 134.35C354.178 134.35 356.258 135.16 357.918 136.78C359.578 138.4 360.408 140.44 360.408 142.9C360.408 145.34 359.568 147.38 357.888 149.02C356.228 150.64 354.158 151.45 351.678 151.45ZM351.678 147.34C352.938 147.34 353.968 146.93 354.768 146.11C355.568 145.27 355.968 144.2 355.968 142.9C355.968 141.6 355.568 140.54 354.768 139.72C353.968 138.88 352.928 138.46 351.648 138.46C350.388 138.46 349.358 138.88 348.558 139.72C347.758 140.54 347.358 141.6 347.358 142.9C347.358 143.54 347.458 144.14 347.658 144.7C347.878 145.26 348.178 145.73 348.558 146.11C348.938 146.49 349.388 146.79 349.908 147.01C350.448 147.23 351.038 147.34 351.678 147.34ZM375.208 142.39C375.948 142.73 376.518 143.23 376.918 143.89C377.338 144.53 377.548 145.28 377.548 146.14C377.548 147.52 377.058 148.68 376.078 149.62C375.118 150.54 373.898 151 372.418 151H363.568V134.8H372.328C373.708 134.8 374.838 135.19 375.718 135.97C376.618 136.73 377.068 137.71 377.068 138.91C377.068 139.63 376.898 140.3 376.558 140.92C376.238 141.52 375.788 142.01 375.208 142.39ZM372.778 139.63C372.778 139.31 372.708 139.04 372.568 138.82C372.428 138.58 372.228 138.4 371.968 138.28C371.728 138.14 371.448 138.07 371.128 138.07H367.858V141.19H371.128C371.608 141.19 371.998 141.04 372.298 140.74C372.618 140.44 372.778 140.07 372.778 139.63ZM371.338 147.52C371.878 147.52 372.308 147.38 372.628 147.1C372.948 146.8 373.108 146.4 373.108 145.9C373.108 145.38 372.948 144.97 372.628 144.67C372.308 144.37 371.878 144.22 371.338 144.22H367.858V147.52H371.338ZM396.822 134.35C399.262 134.35 401.282 135.16 402.882 136.78C404.502 138.4 405.312 140.44 405.312 142.9C405.312 145.36 404.502 147.41 402.882 149.05C401.262 150.67 399.242 151.48 396.822 151.48C395.162 151.48 393.672 151.03 392.352 150.13V156.85H387.972V134.8H390.882L391.632 136.27C393.072 134.99 394.802 134.35 396.822 134.35ZM393.282 146.08C394.122 146.92 395.172 147.34 396.432 147.34C397.712 147.34 398.772 146.92 399.612 146.08C400.452 145.24 400.872 144.18 400.872 142.9C400.872 142.06 400.682 141.3 400.302 140.62C399.922 139.94 399.392 139.41 398.712 139.03C398.052 138.65 397.302 138.46 396.462 138.46C395.622 138.46 394.862 138.65 394.182 139.03C393.502 139.41 392.972 139.94 392.592 140.62C392.232 141.3 392.052 142.06 392.052 142.9C392.052 144.18 392.462 145.24 393.282 146.08ZM420.211 134.8H422.671V151H418.441V142.42L410.911 151H408.421V134.8H412.651V143.29L420.211 134.8ZM434.408 151.45C432.808 151.45 431.348 151.08 430.028 150.34C428.728 149.58 427.698 148.54 426.938 147.22C426.198 145.9 425.828 144.44 425.828 142.84C425.828 140.42 426.648 138.4 428.288 136.78C429.928 135.16 431.978 134.35 434.438 134.35C436.538 134.35 438.338 134.96 439.838 136.18C441.338 137.38 442.288 138.98 442.688 140.98H438.338C437.978 140.2 437.448 139.59 436.748 139.15C436.068 138.69 435.288 138.46 434.408 138.46C433.228 138.46 432.238 138.88 431.438 139.72C430.658 140.56 430.268 141.61 430.268 142.87C430.268 144.13 430.668 145.19 431.468 146.05C432.268 146.91 433.248 147.34 434.408 147.34C435.288 147.34 436.068 147.11 436.748 146.65C437.428 146.17 437.958 145.49 438.338 144.61H442.748C442.348 146.67 441.388 148.33 439.868 149.59C438.348 150.83 436.528 151.45 434.408 151.45ZM460.508 151H455.228L450.008 143.26V151H445.628V134.8H450.008V142L454.928 134.8H459.908L454.418 142.54L460.508 151ZM474.972 134.77H478.242V150.97H474.792L474.432 149.53C472.952 150.81 471.202 151.45 469.182 151.45C466.742 151.45 464.712 150.64 463.092 149.02C461.492 147.38 460.692 145.33 460.692 142.87C460.692 140.43 461.492 138.4 463.092 136.78C464.712 135.16 466.742 134.35 469.182 134.35C471.242 134.35 473.012 135.01 474.492 136.33L474.972 134.77ZM466.362 146.05C467.202 146.89 468.252 147.31 469.512 147.31C470.792 147.31 471.852 146.89 472.692 146.05C473.532 145.21 473.952 144.15 473.952 142.87C473.952 141.59 473.532 140.53 472.692 139.69C471.852 138.85 470.802 138.43 469.542 138.43C468.702 138.43 467.942 138.63 467.262 139.03C466.602 139.41 466.082 139.94 465.702 140.62C465.322 141.28 465.132 142.03 465.132 142.87C465.132 144.15 465.542 145.21 466.362 146.05ZM503.604 151H499.374L497.874 141.25L492.864 151.03H492.024L487.014 141.25L485.514 151H481.284L483.984 134.8H487.734L492.444 143.98L497.214 134.8H500.934L503.604 151ZM525.621 134.8H528.081V151H523.851V142.42L516.321 151H513.831V134.8H518.061V143.29L525.621 134.8ZM554.166 146.89H556.146V154.72H552.186V151H542.046V154.72H538.056V146.89H539.736C540.356 146.39 540.806 145.42 541.086 143.98C541.386 142.54 541.746 139.48 542.166 134.8H554.166V146.89ZM546.006 138.64C545.846 141.1 545.636 142.94 545.376 144.16C545.116 145.38 544.746 146.29 544.266 146.89H549.876V138.64H546.006ZM571.266 134.8H573.726V151H569.496V142.42L561.966 151H559.476V134.8H563.706V143.29L571.266 134.8ZM585.463 151.45C583.863 151.45 582.403 151.08 581.083 150.34C579.783 149.58 578.753 148.54 577.993 147.22C577.253 145.9 576.883 144.44 576.883 142.84C576.883 140.42 577.703 138.4 579.343 136.78C580.983 135.16 583.033 134.35 585.493 134.35C587.593 134.35 589.393 134.96 590.893 136.18C592.393 137.38 593.343 138.98 593.743 140.98H589.393C589.033 140.2 588.503 139.59 587.803 139.15C587.123 138.69 586.343 138.46 585.463 138.46C584.283 138.46 583.293 138.88 582.493 139.72C581.713 140.56 581.323 141.61 581.323 142.87C581.323 144.13 581.723 145.19 582.523 146.05C583.323 146.91 584.303 147.34 585.463 147.34C586.343 147.34 587.123 147.11 587.803 146.65C588.483 146.17 589.013 145.49 589.393 144.61H593.803C593.403 146.67 592.443 148.33 590.923 149.59C589.403 150.83 587.583 151.45 585.463 151.45ZM611.563 151H606.283L601.063 143.26V151H596.683V134.8H601.063V142L605.983 134.8H610.963L605.473 142.54L611.563 151ZM620.506 151.45C618.846 151.45 617.346 151.08 616.006 150.34C614.666 149.6 613.616 148.58 612.856 147.28C612.116 145.96 611.746 144.5 611.746 142.9C611.746 140.44 612.576 138.4 614.236 136.78C615.896 135.16 617.986 134.35 620.506 134.35C623.006 134.35 625.086 135.16 626.746 136.78C628.406 138.4 629.236 140.44 629.236 142.9C629.236 145.34 628.396 147.38 626.716 149.02C625.056 150.64 622.986 151.45 620.506 151.45ZM620.506 147.34C621.766 147.34 622.796 146.93 623.596 146.11C624.396 145.27 624.796 144.2 624.796 142.9C624.796 141.6 624.396 140.54 623.596 139.72C622.796 138.88 621.756 138.46 620.476 138.46C619.216 138.46 618.186 138.88 617.386 139.72C616.586 140.54 616.186 141.6 616.186 142.9C616.186 143.54 616.286 144.14 616.486 144.7C616.706 145.26 617.006 145.73 617.386 146.11C617.766 146.49 618.216 146.79 618.736 147.01C619.276 147.23 619.866 147.34 620.506 147.34ZM653.399 151H649.169L647.669 141.25L642.659 151.03H641.819L636.809 141.25L635.309 151H631.079L633.779 134.8H637.529L642.239 143.98L647.009 134.8H650.729L653.399 151ZM675.712 142.93C675.712 144.49 675.352 145.91 674.632 147.19C673.932 148.45 672.952 149.46 671.692 150.22C670.452 150.96 669.042 151.37 667.462 151.45V156.1H663.502V151.45C661.922 151.37 660.502 150.96 659.242 150.22C657.982 149.46 657.002 148.45 656.302 147.19C655.602 145.91 655.252 144.49 655.252 142.93C655.252 140.57 656.032 138.58 657.592 136.96C659.152 135.34 661.122 134.47 663.502 134.35V129.85H667.462V134.35C669.822 134.49 671.782 135.37 673.342 136.99C674.922 138.59 675.712 140.57 675.712 142.93ZM659.482 142.93C659.482 144.23 659.862 145.33 660.622 146.23C661.382 147.13 662.352 147.64 663.532 147.76V138.07C662.352 138.19 661.382 138.71 660.622 139.63C659.862 140.55 659.482 141.65 659.482 142.93ZM667.372 147.76C668.172 147.68 668.882 147.42 669.502 146.98C670.122 146.54 670.602 145.97 670.942 145.27C671.302 144.55 671.482 143.77 671.482 142.93C671.482 141.65 671.092 140.55 670.312 139.63C669.532 138.71 668.552 138.19 667.372 138.07V147.76ZM686.541 151.45C684.881 151.45 683.381 151.08 682.041 150.34C680.701 149.6 679.651 148.58 678.891 147.28C678.151 145.96 677.781 144.5 677.781 142.9C677.781 140.44 678.611 138.4 680.271 136.78C681.931 135.16 684.021 134.35 686.541 134.35C689.041 134.35 691.121 135.16 692.781 136.78C694.441 138.4 695.271 140.44 695.271 142.9C695.271 145.34 694.431 147.38 692.751 149.02C691.091 150.64 689.021 151.45 686.541 151.45ZM686.541 147.34C687.801 147.34 688.831 146.93 689.631 146.11C690.431 145.27 690.831 144.2 690.831 142.9C690.831 141.6 690.431 140.54 689.631 139.72C688.831 138.88 687.791 138.46 686.511 138.46C685.251 138.46 684.221 138.88 683.421 139.72C682.621 140.54 682.221 141.6 682.221 142.9C682.221 143.54 682.321 144.14 682.521 144.7C682.741 145.26 683.041 145.73 683.421 146.11C683.801 146.49 684.251 146.79 684.771 147.01C685.311 147.23 685.901 147.34 686.541 147.34ZM707.281 134.35C709.721 134.35 711.741 135.16 713.341 136.78C714.961 138.4 715.771 140.44 715.771 142.9C715.771 145.36 714.961 147.41 713.341 149.05C711.721 150.67 709.701 151.48 707.281 151.48C705.621 151.48 704.131 151.03 702.811 150.13V156.85H698.431V134.8H701.341L702.091 136.27C703.531 134.99 705.261 134.35 707.281 134.35ZM703.741 146.08C704.581 146.92 705.631 147.34 706.891 147.34C708.171 147.34 709.231 146.92 710.071 146.08C710.911 145.24 711.331 144.18 711.331 142.9C711.331 142.06 711.141 141.3 710.761 140.62C710.381 139.94 709.851 139.41 709.171 139.03C708.511 138.65 707.761 138.46 706.921 138.46C706.081 138.46 705.321 138.65 704.641 139.03C703.961 139.41 703.431 139.94 703.051 140.62C702.691 141.3 702.511 142.06 702.511 142.9C702.511 144.18 702.921 145.24 703.741 146.08ZM731.819 134.8V138.73H726.539V151H722.249V138.73H716.969V134.8H731.819ZM745.656 134.8H750.336L743.256 150.79C742.256 153.03 741.236 154.6 740.196 155.5C739.156 156.4 737.746 156.85 735.966 156.85H734.166V152.89H735.696C736.736 152.89 737.476 152.7 737.916 152.32C738.356 151.94 738.836 151.13 739.356 149.89L739.416 149.77L732.546 134.8H737.316L741.636 144.76L745.656 134.8ZM750.455 151V146.32H755.105V151H750.455Z" fill="#4B5258"/>
<rect x="332" width="230" height="55" rx="27.5" fill="#FFC24D"/>
<path d="M391.496 34L390.154 30.656H383.29L381.97 34H379.286L385.49 18.6H387.866L394.224 34H391.496ZM386.7 21.9L384.17 28.39H389.274L386.7 21.9ZM409.222 27.796C409.5 27.9133 409.75 28.0673 409.97 28.258C410.204 28.434 410.402 28.6467 410.564 28.896C410.725 29.1307 410.85 29.3947 410.938 29.688C411.026 29.9813 411.07 30.282 411.07 30.59C411.07 31.558 410.718 32.372 410.014 33.032C409.31 33.6773 408.43 34 407.374 34H401.17V22.12H407.286C408.283 22.12 409.097 22.406 409.728 22.978C410.373 23.5353 410.696 24.2613 410.696 25.156C410.696 25.7133 410.564 26.2267 410.3 26.696C410.036 27.1653 409.676 27.532 409.222 27.796ZM408.276 25.552C408.276 25.1413 408.136 24.8113 407.858 24.562C407.594 24.3127 407.242 24.188 406.802 24.188H403.568V26.916H406.802C407.242 26.916 407.594 26.7913 407.858 26.542C408.136 26.2927 408.276 25.9627 408.276 25.552ZM406.934 31.866C407.418 31.866 407.806 31.7267 408.1 31.448C408.408 31.1693 408.562 30.8173 408.562 30.392C408.562 29.952 408.408 29.5927 408.1 29.314C407.792 29.0353 407.396 28.896 406.912 28.896H403.568V31.866H406.934ZM418.752 25.64C420.057 25.64 421.113 26.0287 421.92 26.806C422.727 27.5833 423.13 28.5953 423.13 29.842C423.13 31.074 422.727 32.0787 421.92 32.856C421.113 33.6187 420.057 34 418.752 34H413.824V22.12H416.222V25.64H418.752ZM425.198 22.12H427.64V34H425.198V22.12ZM418.466 31.888C419.126 31.888 419.661 31.7047 420.072 31.338C420.483 30.9567 420.688 30.458 420.688 29.842C420.688 29.4313 420.593 29.072 420.402 28.764C420.226 28.4413 419.969 28.192 419.632 28.016C419.295 27.84 418.906 27.752 418.466 27.752H416.222V31.888H418.466ZM443.306 27.686C444.347 28.302 444.868 29.2627 444.868 30.568C444.868 31.668 444.428 32.5627 443.548 33.252C442.668 33.9413 441.538 34.286 440.16 34.286C438.825 34.286 437.732 33.9413 436.882 33.252C436.046 32.548 435.591 31.6093 435.518 30.436H437.74C437.828 30.9493 438.084 31.3527 438.51 31.646C438.935 31.9393 439.485 32.086 440.16 32.086C440.849 32.086 441.406 31.932 441.832 31.624C442.257 31.3013 442.47 30.8907 442.47 30.392C442.47 29.908 442.279 29.512 441.898 29.204C441.531 28.896 441.04 28.742 440.424 28.742H438.884V26.85H440.424C440.981 26.85 441.421 26.7253 441.744 26.476C442.066 26.212 442.228 25.86 442.228 25.42C442.228 24.9507 442.037 24.5767 441.656 24.298C441.274 24.0193 440.768 23.88 440.138 23.88C439.566 23.88 439.089 24.012 438.708 24.276C438.341 24.54 438.121 24.9067 438.048 25.376H435.826C435.884 24.32 436.317 23.4693 437.124 22.824C437.945 22.164 438.972 21.834 440.204 21.834C441.465 21.834 442.499 22.1567 443.306 22.802C444.127 23.4473 444.538 24.2613 444.538 25.244C444.538 26.3 444.127 27.114 443.306 27.686ZM455.453 22.12H457.851V34H455.453V29.028H449.953V34H447.533V22.12H449.953V26.784H455.453V22.12ZM471.27 22.12H473.162V34H471.182L470.94 32.548C469.796 33.7067 468.366 34.286 466.65 34.286C464.875 34.286 463.394 33.692 462.206 32.504C461.033 31.316 460.446 29.8347 460.446 28.06C460.446 26.2707 461.033 24.7893 462.206 23.616C463.394 22.428 464.875 21.834 466.65 21.834C468.395 21.834 469.84 22.4207 470.984 23.594L471.27 22.12ZM464.032 30.854C464.78 31.5873 465.711 31.954 466.826 31.954C467.955 31.954 468.879 31.5873 469.598 30.854C470.331 30.106 470.698 29.1747 470.698 28.06C470.698 26.9307 470.331 25.9993 469.598 25.266C468.879 24.5327 467.955 24.166 466.826 24.166C466.093 24.166 465.425 24.3347 464.824 24.672C464.237 25.0093 463.775 25.4787 463.438 26.08C463.101 26.6667 462.932 27.3267 462.932 28.06C462.932 29.1747 463.299 30.106 464.032 30.854ZM478.734 22.12H486.808V34H484.41V24.232H480.736L480.208 29.49C480.047 31.162 479.614 32.3427 478.91 33.032C478.221 33.7213 477.172 34.066 475.764 34.066H475.346V31.822H475.918C477.077 31.822 477.73 31.096 477.876 29.644L478.734 22.12ZM498.999 22.12H500.363V34H498.031V26.454L491.695 34H490.287V22.12H492.641V29.6L498.999 22.12ZM506.307 29.534V29.05C506.307 28.522 506.366 28.0527 506.483 27.642C506.601 27.2313 506.784 26.8647 507.033 26.542C507.297 26.2193 507.517 25.9773 507.693 25.816C507.884 25.64 508.163 25.4127 508.529 25.134C508.823 24.914 509.043 24.738 509.189 24.606C509.351 24.4593 509.527 24.276 509.717 24.056C509.923 23.8213 510.069 23.572 510.157 23.308C510.245 23.044 510.289 22.7433 510.289 22.406C510.289 21.922 510.172 21.4967 509.937 21.13C509.717 20.7487 509.409 20.4627 509.013 20.272C508.632 20.0667 508.199 19.964 507.715 19.964C506.997 19.964 506.373 20.184 505.845 20.624C505.332 21.0493 505.061 21.6213 505.031 22.34H502.743C502.773 20.9027 503.271 19.7733 504.239 18.952C505.222 18.1307 506.381 17.72 507.715 17.72C509.109 17.72 510.282 18.1453 511.235 18.996C512.189 19.8467 512.665 20.9833 512.665 22.406C512.665 22.934 512.607 23.4033 512.489 23.814C512.372 24.2247 512.189 24.5987 511.939 24.936C511.69 25.2587 511.47 25.508 511.279 25.684C511.089 25.86 510.817 26.0873 510.465 26.366C510.157 26.6153 509.93 26.806 509.783 26.938C509.651 27.0553 509.483 27.2313 509.277 27.466C509.087 27.7007 508.947 27.95 508.859 28.214C508.786 28.4633 508.749 28.742 508.749 29.05V29.534H506.307ZM506.175 34V31.184H508.859V34H506.175Z" fill="white"/>
</svg>
