<svg width="774" height="63" viewBox="0 0 774 63" fill="none" xmlns="http://www.w3.org/2000/svg">
<g clip-path="url(#clip0_4_60)">
<path d="M716.556 39.2413L716.027 46.6867C716.784 46.6867 717.112 46.3613 717.505 45.9707L721.056 42.5773L728.413 47.9653C729.763 48.7173 730.713 48.3213 731.077 46.724L735.907 24.0947L735.908 24.0933C736.336 22.0987 735.187 21.3187 733.872 21.808L705.485 32.676C703.548 33.428 703.577 34.508 705.156 34.9973L712.413 37.2547L729.271 26.7067C730.064 26.1813 730.785 26.472 730.192 26.9973L716.556 39.2413Z" fill="#039BE5"/>
</g>
<g clip-path="url(#clip1_4_60)">
<path d="M759.321 21.0162C751.926 21.3683 746.091 27.5267 746.113 34.9298C746.12 37.1847 746.664 39.3129 747.625 41.1934L746.15 48.35C746.071 48.7371 746.42 49.0761 746.804 48.985L753.817 47.3236C755.619 48.2211 757.642 48.7394 759.784 48.7721C767.342 48.8875 773.644 42.8862 773.88 35.3308C774.132 27.232 767.448 20.6291 759.321 21.0162ZM767.689 42.5756C765.635 44.6293 762.904 45.7603 760 45.7603C758.299 45.7603 756.671 45.3788 755.161 44.6263L754.184 44.1398L749.885 45.1585L750.79 40.7651L750.308 39.823C749.524 38.2871 749.127 36.6264 749.127 34.8868C749.127 31.9824 750.258 29.2519 752.311 27.1981C754.347 25.1627 757.122 24.0133 760 24.0133C762.905 24.0134 765.635 25.1444 767.689 27.198C769.742 29.2518 770.874 31.9823 770.874 34.8866C770.874 37.7652 769.724 40.5403 767.689 42.5756Z" fill="#7AD06D"/>
<path d="M766.74 37.8985L764.05 37.1261C763.696 37.0246 763.315 37.1249 763.058 37.3875L762.4 38.0576C762.122 38.3402 761.702 38.431 761.334 38.2825C760.062 37.7676 757.385 35.3877 756.702 34.1972C756.505 33.8538 756.537 33.4245 756.779 33.1112L757.354 32.3682C757.579 32.0772 757.626 31.6862 757.477 31.3497L756.346 28.7902C756.074 28.1771 755.291 27.9986 754.779 28.4315C754.029 29.0665 753.138 30.0313 753.029 31.1003C752.839 32.9849 753.647 35.3607 756.703 38.2133C760.234 41.509 763.062 41.9444 764.903 41.4984C765.947 41.2455 766.782 40.2315 767.308 39.4013C767.667 38.8352 767.384 38.0835 766.74 37.8985Z" fill="#7AD06D"/>
</g>
<path d="M553.853 26.804C554.637 26.804 555.281 27.048 555.785 27.536C556.289 28.016 556.541 28.632 556.541 29.384C556.541 30.144 556.285 30.772 555.773 31.268C555.261 31.756 554.613 32 553.829 32H550.793V23.6H555.929V24.596H551.837V26.804H553.853ZM553.757 30.968C554.253 30.968 554.661 30.82 554.981 30.524C555.301 30.228 555.461 29.852 555.461 29.396C555.461 28.932 555.301 28.556 554.981 28.268C554.669 27.98 554.265 27.836 553.769 27.836H551.837V30.968H553.757ZM560.636 27.56C561.316 27.56 561.872 27.768 562.304 28.184C562.736 28.592 562.952 29.128 562.952 29.792C562.952 30.44 562.736 30.972 562.304 31.388C561.872 31.796 561.316 32 560.636 32H558.032V25.52H559.028V27.56H560.636ZM564.128 25.52H565.148V32H564.128V25.52ZM560.504 31.088C560.928 31.088 561.268 30.968 561.524 30.728C561.78 30.488 561.908 30.176 561.908 29.792C561.908 29.4 561.78 29.084 561.524 28.844C561.268 28.596 560.928 28.472 560.504 28.472H559.028V31.088H560.504ZM570.064 32.144C569.432 32.144 568.856 32 568.336 31.712C567.824 31.416 567.42 31.008 567.124 30.488C566.836 29.968 566.692 29.392 566.692 28.76C566.692 27.792 567.012 26.988 567.652 26.348C568.3 25.7 569.104 25.376 570.064 25.376C570.832 25.376 571.496 25.588 572.056 26.012C572.624 26.436 573.008 27 573.208 27.704H572.2C572.008 27.288 571.72 26.96 571.336 26.72C570.96 26.48 570.536 26.36 570.064 26.36C569.4 26.36 568.844 26.592 568.396 27.056C567.956 27.512 567.736 28.08 567.736 28.76C567.736 29.208 567.836 29.616 568.036 29.984C568.236 30.344 568.512 30.632 568.864 30.848C569.224 31.056 569.624 31.16 570.064 31.16C570.536 31.16 570.956 31.04 571.324 30.8C571.7 30.552 571.988 30.212 572.188 29.78H573.22C573.02 30.5 572.632 31.076 572.056 31.508C571.488 31.932 570.824 32.144 570.064 32.144ZM579.583 25.52V26.444H577.171V32H576.175V26.444H573.763V25.52H579.583ZM584.245 25.376C585.213 25.376 586.009 25.696 586.633 26.336C587.265 26.976 587.581 27.784 587.581 28.76C587.581 29.728 587.265 30.536 586.633 31.184C586.009 31.824 585.213 32.144 584.245 32.144C583.269 32.144 582.465 31.808 581.833 31.136V34.316H580.813V25.52H581.509L581.713 26.516C582.017 26.156 582.385 25.876 582.817 25.676C583.257 25.476 583.733 25.376 584.245 25.376ZM584.173 31.16C584.861 31.16 585.429 30.932 585.877 30.476C586.325 30.02 586.549 29.448 586.549 28.76C586.549 28.072 586.325 27.5 585.877 27.044C585.429 26.588 584.861 26.36 584.173 26.36C583.485 26.36 582.913 26.592 582.457 27.056C582.009 27.512 581.785 28.08 581.785 28.76C581.785 29.208 581.885 29.616 582.085 29.984C582.293 30.352 582.581 30.64 582.949 30.848C583.317 31.056 583.725 31.16 584.173 31.16ZM594.654 25.52H595.47V32H594.618L594.51 31.016C594.206 31.376 593.834 31.656 593.394 31.856C592.962 32.048 592.486 32.144 591.966 32.144C591.014 32.144 590.218 31.824 589.578 31.184C588.938 30.536 588.618 29.728 588.618 28.76C588.618 27.792 588.938 26.988 589.578 26.348C590.218 25.7 591.014 25.376 591.966 25.376C592.494 25.376 592.974 25.476 593.406 25.676C593.846 25.876 594.218 26.156 594.522 26.516L594.654 25.52ZM590.334 30.476C590.79 30.932 591.362 31.16 592.05 31.16C592.738 31.16 593.306 30.932 593.754 30.476C594.202 30.02 594.426 29.448 594.426 28.76C594.426 28.072 594.202 27.5 593.754 27.044C593.306 26.588 592.738 26.36 592.05 26.36C591.362 26.36 590.79 26.592 590.334 27.056C589.886 27.512 589.662 28.08 589.662 28.76C589.662 29.44 589.886 30.012 590.334 30.476ZM599.216 25.52H602.192V32H601.184V29.516H599.564L598.028 32H596.9L598.52 29.372C598.096 29.236 597.76 29.004 597.512 28.676C597.264 28.348 597.14 27.964 597.14 27.524C597.14 26.948 597.336 26.472 597.728 26.096C598.12 25.712 598.616 25.52 599.216 25.52ZM599.3 28.532H601.184V26.504H599.3C598.964 26.504 598.692 26.6 598.484 26.792C598.276 26.976 598.172 27.22 598.172 27.524C598.172 27.82 598.276 28.064 598.484 28.256C598.692 28.44 598.964 28.532 599.3 28.532ZM610.236 32.144C609.604 32.144 609.028 32 608.508 31.712C607.996 31.416 607.592 31.008 607.296 30.488C607.008 29.968 606.864 29.392 606.864 28.76C606.864 27.792 607.184 26.988 607.824 26.348C608.472 25.7 609.276 25.376 610.236 25.376C611.004 25.376 611.668 25.588 612.228 26.012C612.796 26.436 613.18 27 613.38 27.704H612.372C612.18 27.288 611.892 26.96 611.508 26.72C611.132 26.48 610.708 26.36 610.236 26.36C609.572 26.36 609.016 26.592 608.568 27.056C608.128 27.512 607.908 28.08 607.908 28.76C607.908 29.208 608.008 29.616 608.208 29.984C608.408 30.344 608.684 30.632 609.036 30.848C609.396 31.056 609.796 31.16 610.236 31.16C610.708 31.16 611.128 31.04 611.496 30.8C611.872 30.552 612.16 30.212 612.36 29.78H613.392C613.192 30.5 612.804 31.076 612.228 31.508C611.66 31.932 610.996 32.144 610.236 32.144ZM618.985 28.64C619.313 28.76 619.573 28.96 619.765 29.24C619.965 29.52 620.065 29.836 620.065 30.188C620.065 30.708 619.873 31.14 619.489 31.484C619.113 31.828 618.641 32 618.073 32H614.821V25.52H618.037C618.573 25.52 619.009 25.676 619.345 25.988C619.681 26.292 619.849 26.684 619.849 27.164C619.849 27.38 619.813 27.584 619.741 27.776C619.669 27.968 619.569 28.14 619.441 28.292C619.313 28.436 619.161 28.552 618.985 28.64ZM618.841 27.344C618.841 27.08 618.753 26.872 618.577 26.72C618.401 26.56 618.173 26.48 617.893 26.48H615.817V28.196H617.893C618.181 28.196 618.409 28.12 618.577 27.968C618.753 27.808 618.841 27.6 618.841 27.344ZM617.953 31.04C618.153 31.04 618.333 31 618.493 30.92C618.661 30.832 618.789 30.716 618.877 30.572C618.965 30.428 619.009 30.268 619.009 30.092C619.009 29.908 618.965 29.744 618.877 29.6C618.789 29.448 618.661 29.332 618.493 29.252C618.333 29.172 618.149 29.132 617.941 29.132H615.817V31.04H617.953ZM623.404 25.52H626.38V32H625.372V29.516H623.752L622.216 32H621.088L622.708 29.372C622.284 29.236 621.948 29.004 621.7 28.676C621.452 28.348 621.328 27.964 621.328 27.524C621.328 26.948 621.524 26.472 621.916 26.096C622.308 25.712 622.804 25.52 623.404 25.52ZM623.488 28.532H625.372V26.504H623.488C623.152 26.504 622.88 26.6 622.672 26.792C622.464 26.976 622.36 27.22 622.36 27.524C622.36 27.82 622.464 28.064 622.672 28.256C622.88 28.44 623.152 28.532 623.488 28.532ZM631.799 28.58C632.391 28.9 632.687 29.428 632.687 30.164C632.687 30.548 632.579 30.892 632.363 31.196C632.155 31.492 631.859 31.724 631.475 31.892C631.099 32.06 630.675 32.144 630.203 32.144C629.515 32.144 628.947 31.968 628.499 31.616C628.059 31.264 627.811 30.792 627.755 30.2H628.679C628.743 30.504 628.911 30.744 629.183 30.92C629.455 31.088 629.795 31.172 630.203 31.172C630.635 31.172 630.991 31.072 631.271 30.872C631.551 30.672 631.691 30.408 631.691 30.08C631.691 29.776 631.571 29.524 631.331 29.324C631.099 29.124 630.803 29.024 630.443 29.024H629.483V28.196H630.443C630.779 28.196 631.047 28.112 631.247 27.944C631.455 27.768 631.559 27.544 631.559 27.272C631.559 26.976 631.435 26.736 631.187 26.552C630.939 26.368 630.611 26.276 630.203 26.276C629.843 26.276 629.543 26.356 629.303 26.516C629.063 26.676 628.911 26.892 628.847 27.164H627.923C627.955 26.812 628.071 26.5 628.271 26.228C628.479 25.956 628.751 25.748 629.087 25.604C629.431 25.452 629.811 25.376 630.227 25.376C630.891 25.376 631.439 25.548 631.871 25.892C632.303 26.236 632.519 26.668 632.519 27.188C632.519 27.812 632.279 28.276 631.799 28.58ZM636.89 27.56C637.57 27.56 638.126 27.768 638.558 28.184C638.99 28.592 639.206 29.128 639.206 29.792C639.206 30.44 638.99 30.972 638.558 31.388C638.126 31.796 637.57 32 636.89 32H634.286V25.52H635.282V27.56H636.89ZM636.758 31.088C637.182 31.088 637.522 30.968 637.778 30.728C638.034 30.488 638.162 30.176 638.162 29.792C638.162 29.4 638.034 29.084 637.778 28.844C637.522 28.596 637.182 28.472 636.758 28.472H635.282V31.088H636.758ZM646.306 32.144C645.674 32.144 645.098 32 644.578 31.712C644.066 31.416 643.662 31.008 643.366 30.488C643.078 29.968 642.934 29.392 642.934 28.76C642.934 27.792 643.254 26.988 643.894 26.348C644.542 25.7 645.346 25.376 646.306 25.376C647.074 25.376 647.738 25.588 648.298 26.012C648.866 26.436 649.25 27 649.45 27.704H648.442C648.25 27.288 647.962 26.96 647.578 26.72C647.202 26.48 646.778 26.36 646.306 26.36C645.642 26.36 645.086 26.592 644.638 27.056C644.198 27.512 643.978 28.08 643.978 28.76C643.978 29.208 644.078 29.616 644.278 29.984C644.478 30.344 644.754 30.632 645.106 30.848C645.466 31.056 645.866 31.16 646.306 31.16C646.778 31.16 647.198 31.04 647.566 30.8C647.942 30.552 648.23 30.212 648.43 29.78H649.462C649.262 30.5 648.874 31.076 648.298 31.508C647.73 31.932 647.066 32.144 646.306 32.144ZM658.496 25.52H659.492V32H658.496V29.132H655.028V32H654.032V25.52H655.028V28.172H658.496V25.52ZM667.075 25.52H667.891V32H667.039L666.931 31.016C666.627 31.376 666.255 31.656 665.815 31.856C665.383 32.048 664.907 32.144 664.387 32.144C663.435 32.144 662.639 31.824 661.999 31.184C661.359 30.536 661.039 29.728 661.039 28.76C661.039 27.792 661.359 26.988 661.999 26.348C662.639 25.7 663.435 25.376 664.387 25.376C664.915 25.376 665.395 25.476 665.827 25.676C666.267 25.876 666.639 26.156 666.943 26.516L667.075 25.52ZM662.755 30.476C663.211 30.932 663.783 31.16 664.471 31.16C665.159 31.16 665.727 30.932 666.175 30.476C666.623 30.02 666.847 29.448 666.847 28.76C666.847 28.072 666.623 27.5 666.175 27.044C665.727 26.588 665.159 26.36 664.471 26.36C663.783 26.36 663.211 26.592 662.755 27.056C662.307 27.512 662.083 28.08 662.083 28.76C662.083 29.44 662.307 30.012 662.755 30.476ZM677.998 32H677.014L676.09 27.188L673.798 31.868H673.57L671.29 27.188L670.366 32H669.382L670.618 25.52H671.47L673.69 30.056L675.898 25.52H676.75L677.998 32ZM684.261 25.52H684.825V32H683.865V27.368L680.085 32H679.497V25.52H680.469V30.116L684.261 25.52ZM586.536 45.64C586.864 45.76 587.124 45.96 587.316 46.24C587.516 46.52 587.616 46.836 587.616 47.188C587.616 47.708 587.424 48.14 587.04 48.484C586.664 48.828 586.192 49 585.624 49H582.372V42.52H585.588C586.124 42.52 586.56 42.676 586.896 42.988C587.232 43.292 587.4 43.684 587.4 44.164C587.4 44.38 587.364 44.584 587.292 44.776C587.22 44.968 587.12 45.14 586.992 45.292C586.864 45.436 586.712 45.552 586.536 45.64ZM586.392 44.344C586.392 44.08 586.304 43.872 586.128 43.72C585.952 43.56 585.724 43.48 585.444 43.48H583.368V45.196H585.444C585.732 45.196 585.96 45.12 586.128 44.968C586.304 44.808 586.392 44.6 586.392 44.344ZM585.504 48.04C585.704 48.04 585.884 48 586.044 47.92C586.212 47.832 586.34 47.716 586.428 47.572C586.516 47.428 586.56 47.268 586.56 47.092C586.56 46.908 586.516 46.744 586.428 46.6C586.34 46.448 586.212 46.332 586.044 46.252C585.884 46.172 585.7 46.132 585.492 46.132H583.368V48.04H585.504ZM600.455 49H599.471L598.547 44.188L596.255 48.868H596.027L593.747 44.188L592.823 49H591.839L593.075 42.52H593.927L596.147 47.056L598.355 42.52H599.207L600.455 49ZM607.967 45.784C607.967 45.872 607.959 45.996 607.943 46.156H602.411C602.491 46.756 602.739 47.24 603.155 47.608C603.571 47.968 604.083 48.148 604.691 48.148C605.139 48.148 605.535 48.052 605.879 47.86C606.231 47.66 606.511 47.38 606.719 47.02H607.787C607.515 47.692 607.107 48.216 606.563 48.592C606.019 48.96 605.395 49.144 604.691 49.144C603.755 49.144 602.971 48.82 602.339 48.172C601.707 47.524 601.391 46.72 601.391 45.76C601.391 44.792 601.707 43.988 602.339 43.348C602.971 42.7 603.755 42.376 604.691 42.376C605.659 42.376 606.447 42.704 607.055 43.36C607.663 44.016 607.967 44.824 607.967 45.784ZM604.691 43.348C604.307 43.348 603.955 43.424 603.635 43.576C603.323 43.728 603.063 43.948 602.855 44.236C602.647 44.516 602.507 44.84 602.435 45.208H606.935C606.863 44.832 606.723 44.504 606.515 44.224C606.307 43.936 606.047 43.72 605.735 43.576C605.423 43.424 605.075 43.348 604.691 43.348ZM612.345 49.144C611.713 49.144 611.137 49 610.617 48.712C610.105 48.416 609.701 48.008 609.405 47.488C609.117 46.968 608.973 46.392 608.973 45.76C608.973 44.792 609.293 43.988 609.933 43.348C610.581 42.7 611.385 42.376 612.345 42.376C613.113 42.376 613.777 42.588 614.337 43.012C614.905 43.436 615.289 44 615.489 44.704H614.481C614.289 44.288 614.001 43.96 613.617 43.72C613.241 43.48 612.817 43.36 612.345 43.36C611.681 43.36 611.125 43.592 610.677 44.056C610.237 44.512 610.017 45.08 610.017 45.76C610.017 46.208 610.117 46.616 610.317 46.984C610.517 47.344 610.793 47.632 611.145 47.848C611.505 48.056 611.905 48.16 612.345 48.16C612.817 48.16 613.237 48.04 613.605 47.8C613.981 47.552 614.269 47.212 614.469 46.78H615.501C615.301 47.5 614.913 48.076 614.337 48.508C613.769 48.932 613.105 49.144 612.345 49.144ZM619.786 49.144C619.154 49.144 618.578 49 618.058 48.712C617.546 48.416 617.142 48.008 616.846 47.488C616.558 46.968 616.414 46.392 616.414 45.76C616.414 44.792 616.734 43.988 617.374 43.348C618.022 42.7 618.826 42.376 619.786 42.376C620.554 42.376 621.218 42.588 621.778 43.012C622.346 43.436 622.73 44 622.93 44.704H621.922C621.73 44.288 621.442 43.96 621.058 43.72C620.682 43.48 620.258 43.36 619.786 43.36C619.122 43.36 618.566 43.592 618.118 44.056C617.678 44.512 617.458 45.08 617.458 45.76C617.458 46.208 617.558 46.616 617.758 46.984C617.958 47.344 618.234 47.632 618.586 47.848C618.946 48.056 619.346 48.16 619.786 48.16C620.258 48.16 620.678 48.04 621.046 47.8C621.422 47.552 621.71 47.212 621.91 46.78H622.942C622.742 47.5 622.354 48.076 621.778 48.508C621.21 48.932 620.546 49.144 619.786 49.144ZM630.432 45.784C630.432 45.872 630.424 45.996 630.408 46.156H624.876C624.956 46.756 625.204 47.24 625.62 47.608C626.036 47.968 626.548 48.148 627.156 48.148C627.604 48.148 628 48.052 628.344 47.86C628.696 47.66 628.976 47.38 629.184 47.02H630.252C629.98 47.692 629.572 48.216 629.028 48.592C628.484 48.96 627.86 49.144 627.156 49.144C626.22 49.144 625.436 48.82 624.804 48.172C624.172 47.524 623.856 46.72 623.856 45.76C623.856 44.792 624.172 43.988 624.804 43.348C625.436 42.7 626.22 42.376 627.156 42.376C628.124 42.376 628.912 42.704 629.52 43.36C630.128 44.016 630.432 44.824 630.432 45.784ZM627.156 43.348C626.772 43.348 626.42 43.424 626.1 43.576C625.788 43.728 625.528 43.948 625.32 44.236C625.112 44.516 624.972 44.84 624.9 45.208H629.4C629.328 44.832 629.188 44.504 628.98 44.224C628.772 43.936 628.512 43.72 628.2 43.576C627.888 43.424 627.54 43.348 627.156 43.348ZM636.418 42.52H637.414V49H636.418V46.132H632.95V49H631.954V42.52H632.95V45.172H636.418V42.52ZM644.901 48.04H645.777V50.716H644.841V49H639.621V50.716H638.685V48.04H639.381C639.573 47.864 639.721 47.616 639.825 47.296C639.929 46.968 640.021 46.472 640.101 45.808C640.189 45.136 640.293 44.04 640.413 42.52H644.901V48.04ZM641.325 43.42C641.253 44.492 641.177 45.328 641.097 45.928C641.025 46.52 640.941 46.976 640.845 47.296C640.749 47.608 640.625 47.856 640.473 48.04H643.905V43.42H641.325ZM654.614 49L652.43 46.096H651.566V49H650.582V46.096H649.718L647.534 49H646.286L648.842 45.58L646.526 42.52H647.714L649.718 45.184H650.582V42.52H651.566V45.184H652.43L654.434 42.52H655.622L653.306 45.58L655.862 49H654.614ZM662.799 45.784C662.799 45.872 662.791 45.996 662.775 46.156H657.243C657.323 46.756 657.571 47.24 657.987 47.608C658.403 47.968 658.915 48.148 659.523 48.148C659.971 48.148 660.367 48.052 660.711 47.86C661.063 47.66 661.343 47.38 661.551 47.02H662.619C662.347 47.692 661.939 48.216 661.395 48.592C660.851 48.96 660.227 49.144 659.523 49.144C658.587 49.144 657.803 48.82 657.171 48.172C656.539 47.524 656.223 46.72 656.223 45.76C656.223 44.792 656.539 43.988 657.171 43.348C657.803 42.7 658.587 42.376 659.523 42.376C660.491 42.376 661.279 42.704 661.887 43.36C662.495 44.016 662.799 44.824 662.799 45.784ZM659.523 43.348C659.139 43.348 658.787 43.424 658.467 43.576C658.155 43.728 657.895 43.948 657.687 44.236C657.479 44.516 657.339 44.84 657.267 45.208H661.767C661.695 44.832 661.555 44.504 661.347 44.224C661.139 43.936 660.879 43.72 660.567 43.576C660.255 43.424 659.907 43.348 659.523 43.348ZM667.753 42.376C668.721 42.376 669.517 42.696 670.141 43.336C670.773 43.976 671.089 44.784 671.089 45.76C671.089 46.728 670.773 47.536 670.141 48.184C669.517 48.824 668.721 49.144 667.753 49.144C666.777 49.144 665.973 48.808 665.341 48.136V51.316H664.321V42.52H665.017L665.221 43.516C665.525 43.156 665.893 42.876 666.325 42.676C666.765 42.476 667.241 42.376 667.753 42.376ZM667.681 48.16C668.369 48.16 668.937 47.932 669.385 47.476C669.833 47.02 670.057 46.448 670.057 45.76C670.057 45.072 669.833 44.5 669.385 44.044C668.937 43.588 668.369 43.36 667.681 43.36C666.993 43.36 666.421 43.592 665.965 44.056C665.517 44.512 665.293 45.08 665.293 45.76C665.293 46.208 665.393 46.616 665.593 46.984C665.801 47.352 666.089 47.64 666.457 47.848C666.825 48.056 667.233 48.16 667.681 48.16ZM678.161 42.52H678.977V49H678.125L678.017 48.016C677.713 48.376 677.341 48.656 676.901 48.856C676.469 49.048 675.993 49.144 675.473 49.144C674.521 49.144 673.725 48.824 673.085 48.184C672.445 47.536 672.125 46.728 672.125 45.76C672.125 44.792 672.445 43.988 673.085 43.348C673.725 42.7 674.521 42.376 675.473 42.376C676.001 42.376 676.481 42.476 676.913 42.676C677.353 42.876 677.725 43.156 678.029 43.516L678.161 42.52ZM673.841 47.476C674.297 47.932 674.869 48.16 675.557 48.16C676.245 48.16 676.813 47.932 677.261 47.476C677.709 47.02 677.933 46.448 677.933 45.76C677.933 45.072 677.709 44.5 677.261 44.044C676.813 43.588 676.245 43.36 675.557 43.36C674.869 43.36 674.297 43.592 673.841 44.056C673.393 44.512 673.169 45.08 673.169 45.76C673.169 46.44 673.393 47.012 673.841 47.476ZM686.084 49H684.932L683.084 46.3L681.212 49H680.096L682.472 45.628L680.288 42.52H681.428L683.084 44.92L684.776 42.52H685.892L683.696 45.592L686.084 49ZM686.992 44.452V43.18H688.156V44.452H686.992ZM686.992 49V47.728H688.156V49H686.992Z" fill="#4B5258"/>
<path d="M359.992 26.61C360.484 26.91 360.868 27.312 361.144 27.816C361.432 28.308 361.576 28.86 361.576 29.472C361.576 30.564 361.168 31.464 360.352 32.172C359.536 32.868 358.492 33.216 357.22 33.216C356.368 33.216 355.612 33.06 354.952 32.748C354.292 32.436 353.782 31.998 353.422 31.434C353.062 30.858 352.882 30.204 352.882 29.472C352.882 28.872 353.02 28.326 353.296 27.834C353.584 27.33 353.98 26.922 354.484 26.61C354.292 26.466 354.118 26.304 353.962 26.124C353.818 25.932 353.692 25.734 353.584 25.53C353.488 25.314 353.41 25.086 353.35 24.846C353.302 24.606 353.278 24.36 353.278 24.108C353.278 23.136 353.644 22.344 354.376 21.732C355.108 21.108 356.056 20.796 357.22 20.796C358.396 20.796 359.344 21.102 360.064 21.714C360.796 22.326 361.162 23.124 361.162 24.108C361.162 24.612 361.054 25.086 360.838 25.53C360.634 25.974 360.352 26.334 359.992 26.61ZM357.22 22.434C356.62 22.434 356.128 22.596 355.744 22.92C355.372 23.232 355.186 23.634 355.186 24.126C355.186 24.63 355.372 25.044 355.744 25.368C356.128 25.692 356.62 25.854 357.22 25.854C357.82 25.854 358.306 25.692 358.678 25.368C359.062 25.044 359.254 24.63 359.254 24.126C359.254 23.802 359.17 23.514 359.002 23.262C358.834 22.998 358.594 22.794 358.282 22.65C357.97 22.506 357.616 22.434 357.22 22.434ZM357.22 31.524C357.94 31.524 358.516 31.338 358.948 30.966C359.392 30.582 359.614 30.09 359.614 29.49C359.614 28.89 359.392 28.398 358.948 28.014C358.516 27.63 357.94 27.438 357.22 27.438C356.512 27.438 355.936 27.63 355.492 28.014C355.06 28.398 354.844 28.89 354.844 29.49C354.844 30.09 355.06 30.582 355.492 30.966C355.936 31.338 356.512 31.524 357.22 31.524ZM363.647 28.932V26.988H369.425V28.932H363.647ZM378.59 26.61C379.082 26.91 379.466 27.312 379.742 27.816C380.03 28.308 380.174 28.86 380.174 29.472C380.174 30.564 379.766 31.464 378.95 32.172C378.134 32.868 377.09 33.216 375.818 33.216C374.966 33.216 374.21 33.06 373.55 32.748C372.89 32.436 372.38 31.998 372.02 31.434C371.66 30.858 371.48 30.204 371.48 29.472C371.48 28.872 371.618 28.326 371.894 27.834C372.182 27.33 372.578 26.922 373.082 26.61C372.89 26.466 372.716 26.304 372.56 26.124C372.416 25.932 372.29 25.734 372.182 25.53C372.086 25.314 372.008 25.086 371.948 24.846C371.9 24.606 371.876 24.36 371.876 24.108C371.876 23.136 372.242 22.344 372.974 21.732C373.706 21.108 374.654 20.796 375.818 20.796C376.994 20.796 377.942 21.102 378.662 21.714C379.394 22.326 379.76 23.124 379.76 24.108C379.76 24.612 379.652 25.086 379.436 25.53C379.232 25.974 378.95 26.334 378.59 26.61ZM375.818 22.434C375.218 22.434 374.726 22.596 374.342 22.92C373.97 23.232 373.784 23.634 373.784 24.126C373.784 24.63 373.97 25.044 374.342 25.368C374.726 25.692 375.218 25.854 375.818 25.854C376.418 25.854 376.904 25.692 377.276 25.368C377.66 25.044 377.852 24.63 377.852 24.126C377.852 23.802 377.768 23.514 377.6 23.262C377.432 22.998 377.192 22.794 376.88 22.65C376.568 22.506 376.214 22.434 375.818 22.434ZM375.818 31.524C376.538 31.524 377.114 31.338 377.546 30.966C377.99 30.582 378.212 30.09 378.212 29.49C378.212 28.89 377.99 28.398 377.546 28.014C377.114 27.63 376.538 27.438 375.818 27.438C375.11 27.438 374.534 27.63 374.09 28.014C373.658 28.398 373.442 28.89 373.442 29.49C373.442 30.09 373.658 30.582 374.09 30.966C374.534 31.338 375.11 31.524 375.818 31.524ZM386.709 33.216C385.257 33.216 384.105 32.658 383.253 31.542C382.401 30.426 381.975 28.914 381.975 27.006C381.975 25.098 382.395 23.592 383.235 22.488C384.087 21.372 385.245 20.814 386.709 20.814C388.161 20.814 389.307 21.372 390.147 22.488C390.999 23.592 391.425 25.098 391.425 27.006C391.425 28.914 390.999 30.426 390.147 31.542C389.295 32.658 388.149 33.216 386.709 33.216ZM386.709 31.38C387.573 31.38 388.245 30.996 388.725 30.228C389.217 29.46 389.463 28.386 389.463 27.006C389.463 26.094 389.349 25.314 389.121 24.666C388.905 24.006 388.587 23.508 388.167 23.172C387.759 22.824 387.273 22.65 386.709 22.65C386.133 22.65 385.635 22.824 385.215 23.172C384.795 23.508 384.477 24.006 384.261 24.666C384.045 25.314 383.937 26.094 383.937 27.006C383.937 28.386 384.177 29.46 384.657 30.228C385.149 30.996 385.833 31.38 386.709 31.38ZM397.994 33.216C396.542 33.216 395.39 32.658 394.538 31.542C393.686 30.426 393.26 28.914 393.26 27.006C393.26 25.098 393.68 23.592 394.52 22.488C395.372 21.372 396.53 20.814 397.994 20.814C399.446 20.814 400.592 21.372 401.432 22.488C402.284 23.592 402.71 25.098 402.71 27.006C402.71 28.914 402.284 30.426 401.432 31.542C400.58 32.658 399.434 33.216 397.994 33.216ZM397.994 31.38C398.858 31.38 399.53 30.996 400.01 30.228C400.502 29.46 400.748 28.386 400.748 27.006C400.748 26.094 400.634 25.314 400.406 24.666C400.19 24.006 399.872 23.508 399.452 23.172C399.044 22.824 398.558 22.65 397.994 22.65C397.418 22.65 396.92 22.824 396.5 23.172C396.08 23.508 395.762 24.006 395.546 24.666C395.33 25.314 395.222 26.094 395.222 27.006C395.222 28.386 395.462 29.46 395.942 30.228C396.434 30.996 397.118 31.38 397.994 31.38ZM404.815 28.932V26.988H410.593V28.932H404.815ZM411.302 21.03H419.6V21.318L414.956 33H412.904L416.99 22.794H411.302V21.03ZM425.381 33.216C423.929 33.216 422.777 32.658 421.925 31.542C421.073 30.426 420.647 28.914 420.647 27.006C420.647 25.098 421.067 23.592 421.907 22.488C422.759 21.372 423.917 20.814 425.381 20.814C426.833 20.814 427.979 21.372 428.819 22.488C429.671 23.592 430.097 25.098 430.097 27.006C430.097 28.914 429.671 30.426 428.819 31.542C427.967 32.658 426.821 33.216 425.381 33.216ZM425.381 31.38C426.245 31.38 426.917 30.996 427.397 30.228C427.889 29.46 428.135 28.386 428.135 27.006C428.135 26.094 428.021 25.314 427.793 24.666C427.577 24.006 427.259 23.508 426.839 23.172C426.431 22.824 425.945 22.65 425.381 22.65C424.805 22.65 424.307 22.824 423.887 23.172C423.467 23.508 423.149 24.006 422.933 24.666C422.717 25.314 422.609 26.094 422.609 27.006C422.609 28.386 422.849 29.46 423.329 30.228C423.821 30.996 424.505 31.38 425.381 31.38ZM436.666 33.216C435.214 33.216 434.062 32.658 433.21 31.542C432.358 30.426 431.932 28.914 431.932 27.006C431.932 25.098 432.352 23.592 433.192 22.488C434.044 21.372 435.202 20.814 436.666 20.814C438.118 20.814 439.264 21.372 440.104 22.488C440.956 23.592 441.382 25.098 441.382 27.006C441.382 28.914 440.956 30.426 440.104 31.542C439.252 32.658 438.106 33.216 436.666 33.216ZM436.666 31.38C437.53 31.38 438.202 30.996 438.682 30.228C439.174 29.46 439.42 28.386 439.42 27.006C439.42 26.094 439.306 25.314 439.078 24.666C438.862 24.006 438.544 23.508 438.124 23.172C437.716 22.824 437.23 22.65 436.666 22.65C436.09 22.65 435.592 22.824 435.172 23.172C434.752 23.508 434.434 24.006 434.218 24.666C434.002 25.314 433.894 26.094 433.894 27.006C433.894 28.386 434.134 29.46 434.614 30.228C435.106 30.996 435.79 31.38 436.666 31.38ZM443.487 28.932V26.988H449.265V28.932H443.487ZM456 25.134C457.116 25.134 458.064 25.5 458.844 26.232C459.636 26.952 460.032 27.888 460.032 29.04C460.032 29.844 459.846 30.564 459.474 31.2C459.102 31.836 458.58 32.334 457.908 32.694C457.248 33.042 456.498 33.216 455.658 33.216C454.362 33.216 453.3 32.826 452.472 32.046C451.656 31.266 451.248 30.264 451.248 29.04C451.248 27.936 451.68 26.634 452.544 25.134L454.938 20.958H457.062C455.682 23.406 454.854 24.888 454.578 25.404C455.046 25.224 455.52 25.134 456 25.134ZM455.64 31.38C456.348 31.38 456.93 31.164 457.386 30.732C457.842 30.288 458.07 29.724 458.07 29.04C458.07 28.344 457.842 27.78 457.386 27.348C456.93 26.904 456.348 26.682 455.64 26.682C455.184 26.682 454.77 26.784 454.398 26.988C454.026 27.192 453.732 27.474 453.516 27.834C453.312 28.182 453.21 28.584 453.21 29.04C453.21 29.724 453.438 30.288 453.894 30.732C454.362 31.164 454.944 31.38 455.64 31.38ZM466.197 33.216C464.745 33.216 463.593 32.658 462.741 31.542C461.889 30.426 461.463 28.914 461.463 27.006C461.463 25.098 461.883 23.592 462.723 22.488C463.575 21.372 464.733 20.814 466.197 20.814C467.649 20.814 468.795 21.372 469.635 22.488C470.487 23.592 470.913 25.098 470.913 27.006C470.913 28.914 470.487 30.426 469.635 31.542C468.783 32.658 467.637 33.216 466.197 33.216ZM466.197 31.38C467.061 31.38 467.733 30.996 468.213 30.228C468.705 29.46 468.951 28.386 468.951 27.006C468.951 26.094 468.837 25.314 468.609 24.666C468.393 24.006 468.075 23.508 467.655 23.172C467.247 22.824 466.761 22.65 466.197 22.65C465.621 22.65 465.123 22.824 464.703 23.172C464.283 23.508 463.965 24.006 463.749 24.666C463.533 25.314 463.425 26.094 463.425 27.006C463.425 28.386 463.665 29.46 464.145 30.228C464.637 30.996 465.321 31.38 466.197 31.38ZM473.018 28.932V26.988H478.796V28.932H473.018ZM484.649 25.332C485.873 25.332 486.875 25.704 487.655 26.448C488.447 27.192 488.843 28.122 488.843 29.238C488.843 30.378 488.453 31.326 487.673 32.082C486.893 32.838 485.921 33.216 484.757 33.216C483.605 33.216 482.645 32.856 481.877 32.136C481.121 31.416 480.725 30.498 480.689 29.382H482.633C482.657 29.97 482.867 30.45 483.263 30.822C483.659 31.194 484.157 31.38 484.757 31.38C485.369 31.38 485.873 31.176 486.269 30.768C486.677 30.36 486.881 29.85 486.881 29.238C486.881 29.034 486.851 28.836 486.791 28.644C486.743 28.452 486.671 28.278 486.575 28.122C486.479 27.954 486.359 27.804 486.215 27.672C486.083 27.54 485.933 27.426 485.765 27.33C485.597 27.234 485.411 27.162 485.207 27.114C485.015 27.066 484.805 27.042 484.577 27.042H481.409L481.175 26.772L481.823 21.03H488.015V22.794H483.389L483.119 25.332H484.649ZM495.218 33.216C493.766 33.216 492.614 32.658 491.762 31.542C490.91 30.426 490.484 28.914 490.484 27.006C490.484 25.098 490.904 23.592 491.744 22.488C492.596 21.372 493.754 20.814 495.218 20.814C496.67 20.814 497.816 21.372 498.656 22.488C499.508 23.592 499.934 25.098 499.934 27.006C499.934 28.914 499.508 30.426 498.656 31.542C497.804 32.658 496.658 33.216 495.218 33.216ZM495.218 31.38C496.082 31.38 496.754 30.996 497.234 30.228C497.726 29.46 497.972 28.386 497.972 27.006C497.972 26.094 497.858 25.314 497.63 24.666C497.414 24.006 497.096 23.508 496.676 23.172C496.268 22.824 495.782 22.65 495.218 22.65C494.642 22.65 494.144 22.824 493.724 23.172C493.304 23.508 492.986 24.006 492.77 24.666C492.554 25.314 492.446 26.094 492.446 27.006C492.446 28.386 492.686 29.46 493.166 30.228C493.658 30.996 494.342 31.38 495.218 31.38Z" fill="#4B5258"/>
<path d="M377.008 42.2H384.148V52H382.902V43.348H378.226V52H377.008V42.2ZM391.892 44.44H393.054V52H391.892V48.654H387.846V52H386.684V44.44H387.846V47.534H391.892V44.44ZM395.224 48.668V47.52H399.662V48.668H395.224ZM407.391 46.918C407.848 47.114 408.208 47.4267 408.469 47.856C408.73 48.2853 408.861 48.766 408.861 49.298C408.861 50.0633 408.576 50.7073 408.007 51.23C407.438 51.7433 406.733 52 405.893 52H401.973V42.2H405.837C406.64 42.2 407.298 42.438 407.811 42.914C408.334 43.39 408.595 43.9873 408.595 44.706C408.595 45.1447 408.483 45.5693 408.259 45.98C408.044 46.3907 407.755 46.7033 407.391 46.918ZM407.349 44.874C407.349 44.594 407.279 44.342 407.139 44.118C407.008 43.894 406.826 43.7213 406.593 43.6C406.36 43.4693 406.098 43.404 405.809 43.404H403.177V46.344H405.823C406.252 46.344 406.612 46.204 406.901 45.924C407.2 45.6347 407.349 45.2847 407.349 44.874ZM405.879 50.782C406.364 50.782 406.77 50.628 407.097 50.32C407.424 50.012 407.587 49.6247 407.587 49.158C407.587 48.7007 407.424 48.318 407.097 48.01C406.77 47.702 406.364 47.548 405.879 47.548H403.177V50.782H405.879ZM414.188 52.168C413.451 52.168 412.779 52 412.172 51.664C411.575 51.3187 411.104 50.8427 410.758 50.236C410.422 49.6293 410.254 48.9573 410.254 48.22C410.254 47.0907 410.628 46.1527 411.374 45.406C412.13 44.65 413.068 44.272 414.188 44.272C415.084 44.272 415.859 44.5193 416.512 45.014C417.175 45.5087 417.623 46.1667 417.856 46.988H416.68C416.456 46.5027 416.12 46.12 415.672 45.84C415.234 45.56 414.739 45.42 414.188 45.42C413.414 45.42 412.765 45.6907 412.242 46.232C411.729 46.764 411.472 47.4267 411.472 48.22C411.472 48.7427 411.589 49.2187 411.822 49.648C412.056 50.068 412.378 50.404 412.788 50.656C413.208 50.8987 413.675 51.02 414.188 51.02C414.739 51.02 415.229 50.88 415.658 50.6C416.097 50.3107 416.433 49.914 416.666 49.41H417.87C417.637 50.25 417.184 50.922 416.512 51.426C415.85 51.9207 415.075 52.168 414.188 52.168ZM419.314 46.694V45.21H420.672V46.694H419.314ZM419.314 52V50.516H420.672V52H419.314ZM429.058 42.522C430.029 42.522 430.822 42.8207 431.438 43.418C432.064 44.0153 432.376 44.776 432.376 45.7C432.376 46.6147 432.045 47.646 431.382 48.794L429.52 52.014H428.246C429.376 50.054 430.043 48.864 430.248 48.444C429.828 48.6493 429.38 48.752 428.904 48.752C428.018 48.752 427.271 48.458 426.664 47.87C426.058 47.282 425.754 46.5587 425.754 45.7C425.754 44.776 426.062 44.0153 426.678 43.418C427.304 42.8207 428.097 42.522 429.058 42.522ZM429.072 47.744C429.483 47.744 429.852 47.6553 430.178 47.478C430.505 47.3007 430.757 47.058 430.934 46.75C431.121 46.4327 431.214 46.0827 431.214 45.7C431.214 45.1027 431.009 44.608 430.598 44.216C430.197 43.824 429.688 43.628 429.072 43.628C428.447 43.628 427.929 43.824 427.518 44.216C427.117 44.5987 426.916 45.0933 426.916 45.7C426.916 46.2973 427.117 46.7873 427.518 47.17C427.929 47.5527 428.447 47.744 429.072 47.744ZM434.025 46.694V45.21H435.383V46.694H434.025ZM434.025 52V50.516H435.383V52H434.025ZM440.721 52.168C439.62 52.168 438.743 51.734 438.089 50.866C437.445 49.998 437.123 48.822 437.123 47.338C437.123 45.854 437.445 44.6827 438.089 43.824C438.733 42.956 439.611 42.522 440.721 42.522C441.832 42.522 442.709 42.956 443.353 43.824C443.997 44.6827 444.319 45.854 444.319 47.338C444.319 48.822 443.993 49.998 443.339 50.866C442.695 51.734 441.823 52.168 440.721 52.168ZM440.721 51.062C441.477 51.062 442.07 50.7353 442.499 50.082C442.938 49.4193 443.157 48.5047 443.157 47.338C443.157 46.1807 442.938 45.2753 442.499 44.622C442.07 43.9593 441.477 43.628 440.721 43.628C440.227 43.628 439.793 43.7773 439.419 44.076C439.055 44.3653 438.775 44.79 438.579 45.35C438.383 45.91 438.285 46.5727 438.285 47.338C438.285 48.5047 438.5 49.4193 438.929 50.082C439.368 50.7353 439.965 51.062 440.721 51.062ZM449.43 52.168C448.329 52.168 447.452 51.734 446.798 50.866C446.154 49.998 445.832 48.822 445.832 47.338C445.832 45.854 446.154 44.6827 446.798 43.824C447.442 42.956 448.32 42.522 449.43 42.522C450.541 42.522 451.418 42.956 452.062 43.824C452.706 44.6827 453.028 45.854 453.028 47.338C453.028 48.822 452.702 49.998 452.048 50.866C451.404 51.734 450.532 52.168 449.43 52.168ZM449.43 51.062C450.186 51.062 450.779 50.7353 451.208 50.082C451.647 49.4193 451.866 48.5047 451.866 47.338C451.866 46.1807 451.647 45.2753 451.208 44.622C450.779 43.9593 450.186 43.628 449.43 43.628C448.936 43.628 448.502 43.7773 448.128 44.076C447.764 44.3653 447.484 44.79 447.288 45.35C447.092 45.91 446.994 46.5727 446.994 47.338C446.994 48.5047 447.209 49.4193 447.638 50.082C448.077 50.7353 448.674 51.062 449.43 51.062ZM458.415 48.668V47.52H462.853V48.668H458.415ZM470.27 50.894H474.246V52H467.988V51.622C469.435 50.11 470.485 48.9713 471.138 48.206C471.792 47.4313 472.221 46.8433 472.426 46.442C472.632 46.0407 472.734 45.63 472.734 45.21C472.734 44.9767 472.692 44.762 472.608 44.566C472.534 44.37 472.422 44.202 472.272 44.062C472.132 43.922 471.96 43.8147 471.754 43.74C471.549 43.6653 471.325 43.628 471.082 43.628C470.737 43.628 470.434 43.698 470.172 43.838C469.911 43.9687 469.71 44.1553 469.57 44.398C469.43 44.6407 469.36 44.916 469.36 45.224V45.448H468.212V45.224C468.212 44.692 468.329 44.2207 468.562 43.81C468.805 43.3993 469.141 43.082 469.57 42.858C470.009 42.634 470.513 42.522 471.082 42.522C471.913 42.522 472.59 42.774 473.112 43.278C473.635 43.7727 473.896 44.4167 473.896 45.21C473.896 45.6673 473.812 46.1013 473.644 46.512C473.476 46.9227 473.131 47.4733 472.608 48.164C472.095 48.8453 471.316 49.7553 470.27 50.894ZM475.19 42.69H478.116V52H476.968V43.754H475.19V42.69ZM480.441 46.694V45.21H481.799V46.694H480.441ZM480.441 52V50.516H481.799V52H480.441ZM487.137 52.168C486.036 52.168 485.159 51.734 484.505 50.866C483.861 49.998 483.539 48.822 483.539 47.338C483.539 45.854 483.861 44.6827 484.505 43.824C485.149 42.956 486.027 42.522 487.137 42.522C488.248 42.522 489.125 42.956 489.769 43.824C490.413 44.6827 490.735 45.854 490.735 47.338C490.735 48.822 490.409 49.998 489.755 50.866C489.111 51.734 488.239 52.168 487.137 52.168ZM487.137 51.062C487.893 51.062 488.486 50.7353 488.915 50.082C489.354 49.4193 489.573 48.5047 489.573 47.338C489.573 46.1807 489.354 45.2753 488.915 44.622C488.486 43.9593 487.893 43.628 487.137 43.628C486.643 43.628 486.209 43.7773 485.835 44.076C485.471 44.3653 485.191 44.79 484.995 45.35C484.799 45.91 484.701 46.5727 484.701 47.338C484.701 48.5047 484.916 49.4193 485.345 50.082C485.784 50.7353 486.381 51.062 487.137 51.062ZM495.846 52.168C494.745 52.168 493.868 51.734 493.214 50.866C492.57 49.998 492.248 48.822 492.248 47.338C492.248 45.854 492.57 44.6827 493.214 43.824C493.858 42.956 494.736 42.522 495.846 42.522C496.957 42.522 497.834 42.956 498.478 43.824C499.122 44.6827 499.444 45.854 499.444 47.338C499.444 48.822 499.118 49.998 498.464 50.866C497.82 51.734 496.948 52.168 495.846 52.168ZM495.846 51.062C496.602 51.062 497.195 50.7353 497.624 50.082C498.063 49.4193 498.282 48.5047 498.282 47.338C498.282 46.1807 498.063 45.2753 497.624 44.622C497.195 43.9593 496.602 43.628 495.846 43.628C495.352 43.628 494.918 43.7773 494.544 44.076C494.18 44.3653 493.9 44.79 493.704 45.35C493.508 45.91 493.41 46.5727 493.41 47.338C493.41 48.5047 493.625 49.4193 494.054 50.082C494.493 50.7353 495.09 51.062 495.846 51.062Z" fill="#959A9D"/>
<circle cx="363" cy="48" r="4" fill="#20FF87"/>
<path d="M61.51 36.67C62.1633 36.67 62.7 36.8733 63.12 37.28C63.54 37.68 63.75 38.1933 63.75 38.82C63.75 39.4533 63.5367 39.9767 63.11 40.39C62.6833 40.7967 62.1433 41 61.49 41H58.96V34H63.24V34.83H59.83V36.67H61.51ZM61.43 40.14C61.8433 40.14 62.1833 40.0167 62.45 39.77C62.7167 39.5233 62.85 39.21 62.85 38.83C62.85 38.4433 62.7167 38.13 62.45 37.89C62.19 37.65 61.8533 37.53 61.44 37.53H59.83V40.14H61.43ZM70.0428 38.32C70.0428 38.3933 70.0361 38.4967 70.0228 38.63H65.4128C65.4795 39.13 65.6861 39.5333 66.0328 39.84C66.3795 40.14 66.8061 40.29 67.3128 40.29C67.6861 40.29 68.0161 40.21 68.3028 40.05C68.5961 39.8833 68.8295 39.65 69.0028 39.35H69.8928C69.6661 39.91 69.3261 40.3467 68.8728 40.66C68.4195 40.9667 67.8995 41.12 67.3128 41.12C66.5328 41.12 65.8795 40.85 65.3528 40.31C64.8261 39.77 64.5628 39.1 64.5628 38.3C64.5628 37.4933 64.8261 36.8233 65.3528 36.29C65.8795 35.75 66.5328 35.48 67.3128 35.48C68.1195 35.48 68.7761 35.7533 69.2828 36.3C69.7895 36.8467 70.0428 37.52 70.0428 38.32ZM67.3128 36.29C66.9928 36.29 66.6995 36.3533 66.4328 36.48C66.1728 36.6067 65.9561 36.79 65.7828 37.03C65.6095 37.2633 65.4928 37.5333 65.4328 37.84H69.1828C69.1228 37.5267 69.0061 37.2533 68.8328 37.02C68.6595 36.78 68.4428 36.6 68.1828 36.48C67.9228 36.3533 67.6328 36.29 67.3128 36.29ZM74.1712 35.48C74.9778 35.48 75.6412 35.7467 76.1612 36.28C76.6878 36.8133 76.9512 37.4867 76.9512 38.3C76.9512 39.1067 76.6878 39.78 76.1612 40.32C75.6412 40.8533 74.9778 41.12 74.1712 41.12C73.3578 41.12 72.6878 40.84 72.1612 40.28V42.93H71.3112V35.6H71.8912L72.0612 36.43C72.3145 36.13 72.6212 35.8967 72.9812 35.73C73.3478 35.5633 73.7445 35.48 74.1712 35.48ZM74.1112 40.3C74.6845 40.3 75.1578 40.11 75.5312 39.73C75.9045 39.35 76.0912 38.8733 76.0912 38.3C76.0912 37.7267 75.9045 37.25 75.5312 36.87C75.1578 36.49 74.6845 36.3 74.1112 36.3C73.5378 36.3 73.0612 36.4933 72.6812 36.88C72.3078 37.26 72.1212 37.7333 72.1212 38.3C72.1212 38.6733 72.2045 39.0133 72.3712 39.32C72.5445 39.6267 72.7845 39.8667 73.0912 40.04C73.3978 40.2133 73.7378 40.3 74.1112 40.3ZM83.2948 38.32C83.2948 38.3933 83.2881 38.4967 83.2748 38.63H78.6648C78.7314 39.13 78.9381 39.5333 79.2848 39.84C79.6314 40.14 80.0581 40.29 80.5648 40.29C80.9381 40.29 81.2681 40.21 81.5548 40.05C81.8481 39.8833 82.0814 39.65 82.2548 39.35H83.1448C82.9181 39.91 82.5781 40.3467 82.1248 40.66C81.6714 40.9667 81.1514 41.12 80.5648 41.12C79.7848 41.12 79.1314 40.85 78.6048 40.31C78.0781 39.77 77.8148 39.1 77.8148 38.3C77.8148 37.4933 78.0781 36.8233 78.6048 36.29C79.1314 35.75 79.7848 35.48 80.5648 35.48C81.3714 35.48 82.0281 35.7533 82.5348 36.3C83.0414 36.8467 83.2948 37.52 83.2948 38.32ZM80.5648 36.29C80.2448 36.29 79.9514 36.3533 79.6848 36.48C79.4248 36.6067 79.2081 36.79 79.0348 37.03C78.8614 37.2633 78.7448 37.5333 78.6848 37.84H82.4348C82.3748 37.5267 82.2581 37.2533 82.0848 37.02C81.9114 36.78 81.6948 36.6 81.4348 36.48C81.1748 36.3533 80.8848 36.29 80.5648 36.29ZM90.4973 41L88.6773 38.58H87.9573V41H87.1373V38.58H86.4173L84.5973 41H83.5573L85.6873 38.15L83.7573 35.6H84.7473L86.4173 37.82H87.1373V35.6H87.9573V37.82H88.6773L90.3473 35.6H91.3373L89.4073 38.15L91.5373 41H90.4973ZM96.1445 35.6H96.9745V41H96.1445V38.61H93.2545V41H92.4245V35.6H93.2545V37.81H96.1445V35.6ZM103.294 35.6H103.974V41H103.264L103.174 40.18C102.921 40.48 102.611 40.7133 102.244 40.88C101.884 41.04 101.487 41.12 101.054 41.12C100.261 41.12 99.5973 40.8533 99.064 40.32C98.5307 39.78 98.264 39.1067 98.264 38.3C98.264 37.4933 98.5307 36.8233 99.064 36.29C99.5973 35.75 100.261 35.48 101.054 35.48C101.494 35.48 101.894 35.5633 102.254 35.73C102.621 35.8967 102.931 36.13 103.184 36.43L103.294 35.6ZM99.694 39.73C100.074 40.11 100.551 40.3 101.124 40.3C101.697 40.3 102.171 40.11 102.544 39.73C102.917 39.35 103.104 38.8733 103.104 38.3C103.104 37.7267 102.917 37.25 102.544 36.87C102.171 36.49 101.697 36.3 101.124 36.3C100.551 36.3 100.074 36.4933 99.694 36.88C99.3207 37.26 99.134 37.7333 99.134 38.3C99.134 38.8667 99.3207 39.3433 99.694 39.73ZM107.096 35.6H109.576V41H108.736V38.93H107.386L106.106 41H105.166L106.516 38.81C106.163 38.6967 105.883 38.5033 105.676 38.23C105.47 37.9567 105.366 37.6367 105.366 37.27C105.366 36.79 105.53 36.3933 105.856 36.08C106.183 35.76 106.596 35.6 107.096 35.6ZM107.166 38.11H108.736V36.42H107.166C106.886 36.42 106.66 36.5 106.486 36.66C106.313 36.8133 106.226 37.0167 106.226 37.27C106.226 37.5167 106.313 37.72 106.486 37.88C106.66 38.0333 106.886 38.11 107.166 38.11ZM117.839 35.6H118.749L116.179 41.22C115.979 41.66 115.782 42 115.589 42.24C115.396 42.48 115.179 42.6533 114.939 42.76C114.699 42.8733 114.406 42.93 114.059 42.93H113.549V42.16H113.989C114.349 42.16 114.619 42.0867 114.799 41.94C114.979 41.7933 115.179 41.4933 115.399 41.04L115.589 40.63L113.189 35.6H114.119L116.039 39.69L117.839 35.6ZM122.369 35.88C123.136 35.88 123.766 36.1233 124.259 36.61C124.753 37.09 124.999 37.7067 124.999 38.46C124.999 39.24 124.743 39.88 124.229 40.38C123.716 40.8733 123.056 41.12 122.249 41.12C121.403 41.12 120.726 40.8533 120.219 40.32C119.719 39.78 119.469 39.06 119.469 38.16C119.469 36.7733 119.719 35.7367 120.219 35.05C120.719 34.3633 121.586 33.87 122.819 33.57L124.419 33.19V34.03L122.839 34.41C122.139 34.57 121.593 34.8333 121.199 35.2C120.806 35.5667 120.553 36.0533 120.439 36.66C120.913 36.14 121.556 35.88 122.369 35.88ZM122.249 40.3C122.783 40.3 123.229 40.1267 123.589 39.78C123.949 39.4267 124.129 38.99 124.129 38.47C124.129 37.9433 123.949 37.5033 123.589 37.15C123.229 36.7967 122.783 36.62 122.249 36.62C121.709 36.62 121.259 36.7967 120.899 37.15C120.539 37.4967 120.359 37.9333 120.359 38.46C120.359 38.72 120.406 38.9633 120.499 39.19C120.599 39.4167 120.733 39.61 120.899 39.77C121.066 39.93 121.266 40.06 121.499 40.16C121.733 40.2533 121.983 40.3 122.249 40.3ZM128.731 41.12C128.198 41.12 127.711 41 127.271 40.76C126.831 40.5133 126.488 40.1767 126.241 39.75C125.995 39.3167 125.871 38.8333 125.871 38.3C125.871 37.4867 126.141 36.8133 126.681 36.28C127.228 35.7467 127.911 35.48 128.731 35.48C129.271 35.48 129.758 35.6033 130.191 35.85C130.631 36.09 130.975 36.4267 131.221 36.86C131.475 37.2867 131.601 37.7667 131.601 38.3C131.601 39.1067 131.328 39.78 130.781 40.32C130.235 40.8533 129.551 41.12 128.731 41.12ZM127.301 39.74C127.681 40.1133 128.158 40.3 128.731 40.3C129.311 40.3 129.788 40.1133 130.161 39.74C130.541 39.36 130.731 38.88 130.731 38.3C130.731 37.72 130.541 37.2433 130.161 36.87C129.788 36.49 129.311 36.3 128.731 36.3C128.158 36.3 127.681 36.49 127.301 36.87C126.928 37.2433 126.741 37.72 126.741 38.3C126.741 38.88 126.928 39.36 127.301 39.74ZM135.753 35.48C136.56 35.48 137.223 35.7467 137.743 36.28C138.27 36.8133 138.533 37.4867 138.533 38.3C138.533 39.1067 138.27 39.78 137.743 40.32C137.223 40.8533 136.56 41.12 135.753 41.12C134.94 41.12 134.27 40.84 133.743 40.28V42.93H132.893V35.6H133.473L133.643 36.43C133.897 36.13 134.203 35.8967 134.563 35.73C134.93 35.5633 135.327 35.48 135.753 35.48ZM135.693 40.3C136.267 40.3 136.74 40.11 137.113 39.73C137.487 39.35 137.673 38.8733 137.673 38.3C137.673 37.7267 137.487 37.25 137.113 36.87C136.74 36.49 136.267 36.3 135.693 36.3C135.12 36.3 134.643 36.4933 134.263 36.88C133.89 37.26 133.703 37.7333 133.703 38.3C133.703 38.6733 133.787 39.0133 133.953 39.32C134.127 39.6267 134.367 39.8667 134.673 40.04C134.98 40.2133 135.32 40.3 135.693 40.3ZM143.297 41L141.447 38.58H140.677V41H139.827V35.6H140.677V37.79H141.457L143.127 35.6H144.157L142.187 38.19L144.357 41H143.297ZM149.681 35.6H150.361V41H149.651L149.561 40.18C149.307 40.48 148.997 40.7133 148.631 40.88C148.271 41.04 147.874 41.12 147.441 41.12C146.647 41.12 145.984 40.8533 145.451 40.32C144.917 39.78 144.651 39.1067 144.651 38.3C144.651 37.4933 144.917 36.8233 145.451 36.29C145.984 35.75 146.647 35.48 147.441 35.48C147.881 35.48 148.281 35.5633 148.641 35.73C149.007 35.8967 149.317 36.13 149.571 36.43L149.681 35.6ZM146.081 39.73C146.461 40.11 146.937 40.3 147.511 40.3C148.084 40.3 148.557 40.11 148.931 39.73C149.304 39.35 149.491 38.8733 149.491 38.3C149.491 37.7267 149.304 37.25 148.931 36.87C148.557 36.49 148.084 36.3 147.511 36.3C146.937 36.3 146.461 36.4933 146.081 36.88C145.707 37.26 145.521 37.7333 145.521 38.3C145.521 38.8667 145.707 39.3433 146.081 39.73ZM58.86 49.6H63.44V55H62.6V50.38H59.71V55H58.86V49.6ZM67.5888 55.12C67.0555 55.12 66.5688 55 66.1288 54.76C65.6888 54.5133 65.3455 54.1767 65.0988 53.75C64.8522 53.3167 64.7288 52.8333 64.7288 52.3C64.7288 51.4867 64.9988 50.8133 65.5388 50.28C66.0855 49.7467 66.7688 49.48 67.5888 49.48C68.1288 49.48 68.6155 49.6033 69.0488 49.85C69.4888 50.09 69.8322 50.4267 70.0788 50.86C70.3322 51.2867 70.4588 51.7667 70.4588 52.3C70.4588 53.1067 70.1855 53.78 69.6388 54.32C69.0922 54.8533 68.4088 55.12 67.5888 55.12ZM66.1588 53.74C66.5388 54.1133 67.0155 54.3 67.5888 54.3C68.1688 54.3 68.6455 54.1133 69.0188 53.74C69.3988 53.36 69.5888 52.88 69.5888 52.3C69.5888 51.72 69.3988 51.2433 69.0188 50.87C68.6455 50.49 68.1688 50.3 67.5888 50.3C67.0155 50.3 66.5388 50.49 66.1588 50.87C65.7855 51.2433 65.5988 51.72 65.5988 52.3C65.5988 52.88 65.7855 53.36 66.1588 53.74ZM78.4216 55H77.6016L76.8316 50.99L74.9216 54.89H74.7316L72.8316 50.99L72.0616 55H71.2416L72.2716 49.6H72.9816L74.8316 53.38L76.6716 49.6H77.3816L78.4216 55ZM84.6815 52.32C84.6815 52.3933 84.6748 52.4967 84.6615 52.63H80.0515C80.1182 53.13 80.3248 53.5333 80.6715 53.84C81.0182 54.14 81.4448 54.29 81.9515 54.29C82.3248 54.29 82.6548 54.21 82.9415 54.05C83.2348 53.8833 83.4682 53.65 83.6415 53.35H84.5315C84.3048 53.91 83.9648 54.3467 83.5115 54.66C83.0582 54.9667 82.5382 55.12 81.9515 55.12C81.1715 55.12 80.5182 54.85 79.9915 54.31C79.4648 53.77 79.2015 53.1 79.2015 52.3C79.2015 51.4933 79.4648 50.8233 79.9915 50.29C80.5182 49.75 81.1715 49.48 81.9515 49.48C82.7582 49.48 83.4148 49.7533 83.9215 50.3C84.4282 50.8467 84.6815 51.52 84.6815 52.32ZM81.9515 50.29C81.6315 50.29 81.3382 50.3533 81.0715 50.48C80.8115 50.6067 80.5948 50.79 80.4215 51.03C80.2482 51.2633 80.1315 51.5333 80.0715 51.84H83.8215C83.7615 51.5267 83.6448 51.2533 83.4715 51.02C83.2982 50.78 83.0815 50.6 82.8215 50.48C82.5615 50.3533 82.2715 50.29 81.9515 50.29ZM92.6698 54.21H93.4198V56.43H92.6398V55H85.9498V49.6H86.7798V54.21H88.8998V49.6H89.7198V54.21H91.8298V49.6H92.6698V54.21ZM99.6034 52.32C99.6034 52.3933 99.5967 52.4967 99.5834 52.63H94.9734C95.04 53.13 95.2467 53.5333 95.5934 53.84C95.94 54.14 96.3667 54.29 96.8734 54.29C97.2467 54.29 97.5767 54.21 97.8634 54.05C98.1567 53.8833 98.39 53.65 98.5634 53.35H99.4534C99.2267 53.91 98.8867 54.3467 98.4334 54.66C97.98 54.9667 97.46 55.12 96.8734 55.12C96.0934 55.12 95.44 54.85 94.9134 54.31C94.3867 53.77 94.1234 53.1 94.1234 52.3C94.1234 51.4933 94.3867 50.8233 94.9134 50.29C95.44 49.75 96.0934 49.48 96.8734 49.48C97.68 49.48 98.3367 49.7533 98.8434 50.3C99.35 50.8467 99.6034 51.52 99.6034 52.32ZM96.8734 50.29C96.5534 50.29 96.26 50.3533 95.9934 50.48C95.7334 50.6067 95.5167 50.79 95.3434 51.03C95.17 51.2633 95.0534 51.5333 94.9934 51.84H98.7434C98.6834 51.5267 98.5667 51.2533 98.3934 51.02C98.22 50.78 98.0034 50.6 97.7434 50.48C97.4834 50.3533 97.1934 50.29 96.8734 50.29ZM104.592 49.6H105.422V55H104.592V52.61H101.702V55H100.872V49.6H101.702V51.81H104.592V49.6ZM111.111 49.6H111.581V55H110.781V51.14L107.631 55H107.141V49.6H107.951V53.43L111.111 49.6ZM116.843 47.87V48.51H114.223V47.87H116.843ZM117.273 49.6H117.743V55H116.943V51.14L113.793 55H113.303V49.6H114.113V53.43L117.273 49.6ZM125.293 55.11C124.253 55.11 123.393 54.77 122.713 54.09C122.039 53.41 121.703 52.5467 121.703 51.5C121.703 50.4533 122.039 49.59 122.713 48.91C123.393 48.23 124.253 47.89 125.293 47.89C125.826 47.89 126.319 47.9933 126.773 48.2C127.233 48.4 127.619 48.6867 127.933 49.06C128.253 49.4333 128.476 49.87 128.603 50.37H127.713C127.526 49.8633 127.219 49.4667 126.793 49.18C126.366 48.8933 125.866 48.75 125.293 48.75C124.506 48.75 123.859 49.01 123.353 49.53C122.853 50.0433 122.603 50.7033 122.603 51.51C122.603 52.31 122.853 52.9667 123.353 53.48C123.859 53.9933 124.506 54.25 125.293 54.25C125.879 54.25 126.389 54.1 126.823 53.8C127.256 53.4933 127.563 53.07 127.743 52.53H128.643C128.443 53.3233 128.039 53.9533 127.433 54.42C126.833 54.88 126.119 55.11 125.293 55.11ZM129.946 48H135.046V55H134.156V48.82H130.816V55H129.946V48ZM139.508 50.67C140.161 50.67 140.698 50.8733 141.118 51.28C141.538 51.68 141.748 52.1933 141.748 52.82C141.748 53.4533 141.535 53.9767 141.108 54.39C140.681 54.7967 140.141 55 139.488 55H136.958V48H141.238V48.83H137.828V50.67H139.508ZM139.428 54.14C139.841 54.14 140.181 54.0167 140.448 53.77C140.715 53.5233 140.848 53.21 140.848 52.83C140.848 52.4433 140.715 52.13 140.448 51.89C140.188 51.65 139.851 51.53 139.438 51.53H137.828V54.14H139.428Z" fill="#959A9D"/>
<path d="M62.312 26.154C61.5747 26.154 60.926 26.0233 60.366 25.762C59.8153 25.5007 59.386 25.1273 59.078 24.642C58.77 24.1473 58.616 23.5733 58.616 22.92H60.24C60.24 23.4427 60.4313 23.858 60.814 24.166C61.206 24.4647 61.7007 24.614 62.298 24.614C62.8393 24.614 63.2967 24.4833 63.67 24.222C64.0433 23.9513 64.23 23.6013 64.23 23.172C64.23 23.0133 64.202 22.8687 64.146 22.738C64.0993 22.6073 64.0153 22.4953 63.894 22.402C63.782 22.3087 63.67 22.2293 63.558 22.164C63.4553 22.0893 63.2967 22.0193 63.082 21.954C62.8767 21.8887 62.7087 21.842 62.578 21.814C62.4473 21.7767 62.2513 21.7253 61.99 21.66C61.7007 21.5947 61.4813 21.5433 61.332 21.506C61.1827 21.4593 60.9727 21.394 60.702 21.31C60.4407 21.2167 60.2353 21.128 60.086 21.044C59.946 20.96 59.778 20.848 59.582 20.708C59.386 20.5587 59.2367 20.4047 59.134 20.246C59.0407 20.078 58.9567 19.8773 58.882 19.644C58.8073 19.4107 58.77 19.1493 58.77 18.86C58.77 17.9827 59.078 17.2967 59.694 16.802C60.3193 16.3073 61.1547 16.06 62.2 16.06C63.264 16.06 64.0947 16.3307 64.692 16.872C65.2893 17.404 65.588 18.132 65.588 19.056H63.992C63.992 18.5893 63.8193 18.2253 63.474 17.964C63.138 17.6933 62.704 17.558 62.172 17.558C61.6587 17.558 61.2293 17.67 60.884 17.894C60.548 18.1087 60.38 18.412 60.38 18.804C60.38 18.972 60.422 19.126 60.506 19.266C60.59 19.406 60.688 19.5227 60.8 19.616C60.912 19.7 61.08 19.784 61.304 19.868C61.528 19.952 61.7147 20.0173 61.864 20.064C62.0227 20.1013 62.2513 20.1573 62.55 20.232C62.7833 20.288 62.956 20.33 63.068 20.358C63.1893 20.386 63.362 20.4373 63.586 20.512C63.81 20.5773 63.9827 20.638 64.104 20.694C64.2253 20.7407 64.3793 20.8107 64.566 20.904C64.7527 20.9973 64.8973 21.0907 65 21.184C65.1027 21.2773 65.2147 21.394 65.336 21.534C65.4667 21.674 65.5647 21.8233 65.63 21.982C65.6953 22.1313 65.7513 22.3087 65.798 22.514C65.8447 22.71 65.868 22.92 65.868 23.144C65.868 24.096 65.532 24.838 64.86 25.37C64.188 25.8927 63.3387 26.154 62.312 26.154ZM73.9662 25.062C73.2009 25.8087 72.2396 26.182 71.0822 26.182C69.9249 26.182 68.9589 25.8087 68.1842 25.062C67.4189 24.306 67.0362 23.3587 67.0362 22.22C67.0362 21.4733 67.2089 20.7967 67.5542 20.19C67.9089 19.5833 68.3942 19.112 69.0102 18.776C69.6356 18.4307 70.3262 18.258 71.0822 18.258C71.8382 18.258 72.5242 18.4307 73.1402 18.776C73.7656 19.112 74.2509 19.5833 74.5962 20.19C74.9509 20.7967 75.1282 21.4733 75.1282 22.22C75.1282 23.3587 74.7409 24.306 73.9662 25.062ZM71.0822 24.698C71.5582 24.698 71.9829 24.5953 72.3562 24.39C72.7296 24.1753 73.0189 23.8813 73.2242 23.508C73.4389 23.1253 73.5462 22.696 73.5462 22.22C73.5462 21.5013 73.3129 20.9087 72.8462 20.442C72.3889 19.9753 71.8009 19.742 71.0822 19.742C70.3636 19.742 69.7709 19.9753 69.3042 20.442C68.8469 20.9087 68.6182 21.5013 68.6182 22.22C68.6182 22.9387 68.8469 23.5313 69.3042 23.998C69.7709 24.4647 70.3636 24.698 71.0822 24.698ZM85.3827 24.558H86.2647V26H85.1867C84.3187 26 83.6327 25.748 83.1287 25.244C82.634 24.74 82.3867 24.0587 82.3867 23.2V19.798H78.8167V26H77.2627V19.798H75.8487V18.51H77.2627V17.866C77.2627 16.27 78.0654 15.472 79.6707 15.472H80.9307V16.718H79.9787C79.5494 16.718 79.2367 16.8113 79.0407 16.998C78.854 17.1847 78.7607 17.488 78.7607 17.908V18.51H82.3867V16.284H83.9267V18.51H86.2507V19.798H83.9267V23.116C83.9267 23.5827 84.0527 23.942 84.3047 24.194C84.5567 24.4367 84.916 24.558 85.3827 24.558ZM95.8669 26.168C94.4203 26.168 93.2163 25.692 92.2549 24.74C91.3029 23.7787 90.8269 22.5653 90.8269 21.1C90.8269 19.6347 91.3029 18.426 92.2549 17.474C93.2163 16.5127 94.4203 16.032 95.8669 16.032C96.6323 16.032 97.3416 16.1813 97.9949 16.48C98.6483 16.7787 99.1943 17.2033 99.6329 17.754C100.081 18.3047 100.389 18.944 100.557 19.672H98.9329C98.6996 19.0187 98.3123 18.51 97.7709 18.146C97.2296 17.7727 96.5949 17.586 95.8669 17.586C94.8869 17.586 94.0749 17.9173 93.4309 18.58C92.7869 19.2427 92.4649 20.0873 92.4649 21.114C92.4649 22.1313 92.7869 22.9713 93.4309 23.634C94.0749 24.2873 94.8869 24.614 95.8669 24.614C96.6136 24.614 97.2623 24.418 97.8129 24.026C98.3636 23.6247 98.7463 23.0787 98.9609 22.388H100.599C100.347 23.536 99.7916 24.4553 98.9329 25.146C98.0743 25.8273 97.0523 26.168 95.8669 26.168ZM102.159 26V15.724H103.713V26H102.159ZM113.101 22.234C113.101 22.374 113.091 22.5467 113.073 22.752H106.941C107.034 23.3587 107.286 23.8393 107.697 24.194C108.117 24.5487 108.635 24.726 109.251 24.726C109.549 24.726 109.829 24.684 110.091 24.6C110.352 24.5067 110.581 24.3807 110.777 24.222C110.982 24.054 111.15 23.8533 111.281 23.62H112.919C112.62 24.4227 112.144 25.0527 111.491 25.51C110.837 25.958 110.091 26.182 109.251 26.182C108.14 26.182 107.211 25.804 106.465 25.048C105.727 24.292 105.359 23.3493 105.359 22.22C105.359 21.0907 105.727 20.148 106.465 19.392C107.211 18.636 108.14 18.258 109.251 18.258C110.007 18.258 110.679 18.44 111.267 18.804C111.855 19.1587 112.307 19.6393 112.625 20.246C112.942 20.8433 113.101 21.506 113.101 22.234ZM109.251 19.658C108.672 19.658 108.177 19.8213 107.767 20.148C107.365 20.4747 107.099 20.9227 106.969 21.492H111.547C111.453 21.1093 111.299 20.7827 111.085 20.512C110.87 20.232 110.604 20.022 110.287 19.882C109.979 19.7327 109.633 19.658 109.251 19.658ZM121.079 18.44H122.283V26H121.023L120.869 25.076C120.141 25.8133 119.231 26.182 118.139 26.182C117.009 26.182 116.067 25.804 115.311 25.048C114.564 24.292 114.191 23.3493 114.191 22.22C114.191 21.0813 114.564 20.1387 115.311 19.392C116.067 18.636 117.009 18.258 118.139 18.258C119.249 18.258 120.169 18.6313 120.897 19.378L121.079 18.44ZM116.473 23.998C116.949 24.4647 117.541 24.698 118.251 24.698C118.969 24.698 119.557 24.4647 120.015 23.998C120.481 23.522 120.715 22.9293 120.715 22.22C120.715 21.5013 120.481 20.9087 120.015 20.442C119.557 19.9753 118.969 19.742 118.251 19.742C117.784 19.742 117.359 19.8493 116.977 20.064C116.603 20.2787 116.309 20.5773 116.095 20.96C115.88 21.3333 115.773 21.7533 115.773 22.22C115.773 22.9293 116.006 23.522 116.473 23.998ZM128.503 18.272C129.38 18.272 130.075 18.566 130.589 19.154C131.111 19.742 131.373 20.5073 131.373 21.45V26H129.819V21.758C129.819 21.0767 129.669 20.5587 129.371 20.204C129.081 19.84 128.652 19.658 128.083 19.658C127.495 19.658 127.009 19.8727 126.627 20.302C126.244 20.7313 126.053 21.282 126.053 21.954V26H124.499V18.44H125.577L125.885 19.49C126.174 19.1073 126.543 18.8087 126.991 18.594C127.448 18.3793 127.952 18.272 128.503 18.272Z" fill="#43AAFF"/>
<path d="M10.5683 51.6076C6.07186 40.6497 11.9436 30.2778 16.6597 21.9434C18.293 19.0509 19.8447 16.3194 20.6662 14.0535C21.3195 12.2436 21.6421 10.58 21.616 8.97485C19.1979 13.7699 15.2004 17.4271 11.1318 21.0453C6.74069 24.9505 2.29159 29.2668 0.648487 34.8949C-0.595271 39.1584 -0.0309658 43.9161 2.17807 47.7716C4.29646 51.4719 7.99752 53.5638 12.1094 54.7065C11.5216 53.7117 11.0066 52.6761 10.5683 51.6076Z" fill="#FFC24D"/>
<path d="M23.3661 0C26.5338 5.07949 27.0067 9.97693 24.9651 15.5993C21.5956 24.8781 9.6937 37.4525 14.7986 49.8903C17.2257 55.8045 21.4208 58.6124 25.9115 59.4512C19.7507 54.5903 18.8965 47.748 21.3383 42.4507C24.2709 36.0977 31.7 31.5749 35.165 24.8302C39.8354 31.8407 45.7749 49.0492 36.8677 58.1142C39.2744 57.1113 41.3283 55.72 42.7313 54.2229C55.6237 40.4734 43.1927 10.8587 23.3661 0Z" fill="#43AAFF"/>
<path d="M35 35.1598C35.6362 38.9658 37.7603 55.8654 25.1904 62.1168C32.0666 54.9503 34.1744 42.9635 35 35.1598Z" fill="#43AAFF"/>
<defs>
<clipPath id="clip0_4_60">
<rect width="32" height="32" fill="white" transform="translate(704 19)"/>
</clipPath>
<clipPath id="clip1_4_60">
<rect width="28" height="28" fill="white" transform="translate(746 21)"/>
</clipPath>
</defs>
</svg>
