<svg width="650" height="203" viewBox="0 0 650 203" fill="none" xmlns="http://www.w3.org/2000/svg">
<rect y="106.477" width="650" height="96" rx="48" fill="#FFC24D"/>
<path d="M56.5362 144.763C54.2042 144.763 52.2682 144.008 50.7282 142.497C49.1882 140.972 48.4182 139.065 48.4182 136.777C48.4182 134.489 49.1882 132.59 50.7282 131.079C52.2682 129.554 54.2042 128.791 56.5362 128.791C58.8682 128.791 60.8042 129.554 62.3442 131.079C63.8842 132.59 64.6542 134.489 64.6542 136.777C64.6542 138.273 64.3022 139.637 63.5982 140.869C62.9089 142.087 61.9409 143.04 60.6942 143.729C59.4622 144.419 58.0762 144.763 56.5362 144.763ZM52.5762 140.759C53.6322 141.815 54.9522 142.343 56.5362 142.343C58.1349 142.343 59.4549 141.815 60.4962 140.759C61.5522 139.689 62.0802 138.361 62.0802 136.777C62.0802 135.193 61.5522 133.873 60.4962 132.817C59.4549 131.747 58.1349 131.211 56.5362 131.211C54.9522 131.211 53.6322 131.747 52.5762 132.817C51.5202 133.873 50.9922 135.193 50.9922 136.777C50.9922 138.361 51.5202 139.689 52.5762 140.759ZM73.414 133.169C75.13 133.169 76.5233 133.697 77.594 134.753C78.6793 135.809 79.222 137.181 79.222 138.867C79.222 140.613 78.65 142.035 77.506 143.135C76.3766 144.221 74.8953 144.763 73.062 144.763C71.126 144.763 69.6006 144.162 68.486 142.959C67.386 141.742 66.836 140.077 66.836 137.965C66.836 135.076 67.386 132.883 68.486 131.387C69.6006 129.877 71.456 128.806 74.052 128.175L77.77 127.273V129.693L74.096 130.573C71.5586 131.175 70.0553 132.502 69.586 134.555C70.6126 133.631 71.8886 133.169 73.414 133.169ZM73.062 142.453C74.118 142.453 74.9906 142.116 75.68 141.441C76.384 140.752 76.736 139.894 76.736 138.867C76.736 138.178 76.5746 137.562 76.252 137.019C75.9293 136.462 75.4893 136.029 74.932 135.721C74.3746 135.399 73.7513 135.237 73.062 135.237C72.3726 135.237 71.742 135.399 71.17 135.721C70.6126 136.029 70.1726 136.462 69.85 137.019C69.542 137.562 69.388 138.178 69.388 138.867C69.388 139.894 69.7326 140.752 70.422 141.441C71.126 142.116 72.006 142.453 73.062 142.453ZM88.2244 132.311C89.3978 132.311 90.4538 132.583 91.3924 133.125C92.3311 133.653 93.0644 134.394 93.5924 135.347C94.1204 136.301 94.3844 137.364 94.3844 138.537C94.3844 140.327 93.7978 141.815 92.6244 143.003C91.4658 144.177 89.9991 144.763 88.2244 144.763C86.6991 144.763 85.3864 144.287 84.2864 143.333V148.745H81.8444V132.597H83.4944L83.9564 134.049C85.1004 132.891 86.5231 132.311 88.2244 132.311ZM85.2544 141.331C85.9878 142.065 86.9118 142.431 88.0264 142.431C89.1558 142.431 90.0871 142.065 90.8204 141.331C91.5538 140.583 91.9204 139.652 91.9204 138.537C91.9204 137.423 91.5538 136.499 90.8204 135.765C90.0871 135.017 89.1631 134.643 88.0484 134.643C87.3151 134.643 86.6478 134.812 86.0464 135.149C85.4451 135.487 84.9758 135.956 84.6384 136.557C84.3158 137.144 84.1544 137.804 84.1544 138.537C84.1544 139.652 84.5211 140.583 85.2544 141.331ZM106.956 132.597H108.848V144.477H106.868L106.626 143.025C105.482 144.184 104.052 144.763 102.336 144.763C100.562 144.763 99.0804 144.169 97.8924 142.981C96.7191 141.793 96.1324 140.312 96.1324 138.537C96.1324 136.748 96.7191 135.267 97.8924 134.093C99.0804 132.905 100.562 132.311 102.336 132.311C104.082 132.311 105.526 132.898 106.67 134.071L106.956 132.597ZM99.7184 141.331C100.466 142.065 101.398 142.431 102.512 142.431C103.642 142.431 104.566 142.065 105.284 141.331C106.018 140.583 106.384 139.652 106.384 138.537C106.384 137.408 106.018 136.477 105.284 135.743C104.566 135.01 103.642 134.643 102.512 134.643C101.779 134.643 101.112 134.812 100.51 135.149C99.9237 135.487 99.4617 135.956 99.1244 136.557C98.7871 137.144 98.6184 137.804 98.6184 138.537C98.6184 139.652 98.9851 140.583 99.7184 141.331ZM127.401 142.233H129.007V147.469H126.785V144.477H112.331V132.597H114.729V142.233H118.711V132.597H121.043V142.233H125.003V132.597H127.401V142.233ZM141.31 132.597H143.202V144.477H141.222L140.98 143.025C139.836 144.184 138.406 144.763 136.69 144.763C134.915 144.763 133.434 144.169 132.246 142.981C131.073 141.793 130.486 140.312 130.486 138.537C130.486 136.748 131.073 135.267 132.246 134.093C133.434 132.905 134.915 132.311 136.69 132.311C138.435 132.311 139.88 132.898 141.024 134.071L141.31 132.597ZM134.072 141.331C134.82 142.065 135.751 142.431 136.866 142.431C137.995 142.431 138.919 142.065 139.638 141.331C140.371 140.583 140.738 139.652 140.738 138.537C140.738 137.408 140.371 136.477 139.638 135.743C138.919 135.01 137.995 134.643 136.866 134.643C136.133 134.643 135.465 134.812 134.864 135.149C134.277 135.487 133.815 135.956 133.478 136.557C133.141 137.144 132.972 137.804 132.972 138.537C132.972 139.652 133.339 140.583 134.072 141.331ZM150.006 132.597H155.682V144.477H153.306V140.121H150.82L148.224 144.477H145.562L148.4 139.725C147.682 139.432 147.117 138.992 146.706 138.405C146.296 137.819 146.09 137.137 146.09 136.359C146.09 135.289 146.464 134.394 147.212 133.675C147.96 132.957 148.892 132.597 150.006 132.597ZM150.336 137.987H153.306V134.753H150.336C149.984 134.753 149.669 134.827 149.39 134.973C149.126 135.105 148.921 135.296 148.774 135.545C148.628 135.78 148.554 136.059 148.554 136.381C148.554 136.851 148.716 137.239 149.038 137.547C149.361 137.841 149.794 137.987 150.336 137.987ZM164.513 144.763C162.753 144.763 161.271 144.169 160.069 142.981C158.881 141.779 158.287 140.297 158.287 138.537C158.287 136.763 158.881 135.281 160.069 134.093C161.271 132.905 162.76 132.311 164.535 132.311C165.987 132.311 167.248 132.722 168.319 133.543C169.389 134.365 170.086 135.457 170.409 136.821H167.989C167.681 136.147 167.219 135.619 166.603 135.237C165.987 134.841 165.29 134.643 164.513 134.643C163.823 134.643 163.193 134.812 162.621 135.149C162.049 135.487 161.594 135.956 161.257 136.557C160.934 137.144 160.773 137.804 160.773 138.537C160.773 139.637 161.132 140.561 161.851 141.309C162.569 142.057 163.457 142.431 164.513 142.431C165.29 142.431 165.979 142.233 166.581 141.837C167.197 141.441 167.666 140.877 167.989 140.143H170.453C170.115 141.537 169.404 142.659 168.319 143.509C167.248 144.345 165.979 144.763 164.513 144.763ZM177.78 136.117C179.086 136.117 180.142 136.506 180.948 137.283C181.755 138.061 182.158 139.073 182.158 140.319C182.158 141.551 181.755 142.556 180.948 143.333C180.142 144.096 179.086 144.477 177.78 144.477H172.852V132.597H175.25V136.117H177.78ZM177.494 142.365C178.154 142.365 178.69 142.182 179.1 141.815C179.511 141.434 179.716 140.935 179.716 140.319C179.716 139.909 179.621 139.549 179.43 139.241C179.254 138.919 178.998 138.669 178.66 138.493C178.323 138.317 177.934 138.229 177.494 138.229H175.25V142.365H177.494ZM196.168 138.163C197.209 138.779 197.73 139.74 197.73 141.045C197.73 142.145 197.29 143.04 196.41 143.729C195.53 144.419 194.401 144.763 193.022 144.763C191.687 144.763 190.595 144.419 189.744 143.729C188.908 143.025 188.453 142.087 188.38 140.913H190.602C190.69 141.427 190.947 141.83 191.372 142.123C191.797 142.417 192.347 142.563 193.022 142.563C193.711 142.563 194.269 142.409 194.694 142.101C195.119 141.779 195.332 141.368 195.332 140.869C195.332 140.385 195.141 139.989 194.76 139.681C194.393 139.373 193.902 139.219 193.286 139.219H191.746V137.327H193.286C193.843 137.327 194.283 137.203 194.606 136.953C194.929 136.689 195.09 136.337 195.09 135.897C195.09 135.428 194.899 135.054 194.518 134.775C194.137 134.497 193.631 134.357 193 134.357C192.428 134.357 191.951 134.489 191.57 134.753C191.203 135.017 190.983 135.384 190.91 135.853H188.688C188.747 134.797 189.179 133.947 189.986 133.301C190.807 132.641 191.834 132.311 193.066 132.311C194.327 132.311 195.361 132.634 196.168 133.279C196.989 133.925 197.4 134.739 197.4 135.721C197.4 136.777 196.989 137.591 196.168 138.163ZM210.339 132.597H212.231V144.477H210.251L210.009 143.025C208.865 144.184 207.435 144.763 205.719 144.763C203.945 144.763 202.463 144.169 201.275 142.981C200.102 141.793 199.515 140.312 199.515 138.537C199.515 136.748 200.102 135.267 201.275 134.093C202.463 132.905 203.945 132.311 205.719 132.311C207.465 132.311 208.909 132.898 210.053 134.071L210.339 132.597ZM203.101 141.331C203.849 142.065 204.781 142.431 205.895 142.431C207.025 142.431 207.949 142.065 208.667 141.331C209.401 140.583 209.767 139.652 209.767 138.537C209.767 137.408 209.401 136.477 208.667 135.743C207.949 135.01 207.025 134.643 205.895 134.643C205.162 134.643 204.495 134.812 203.893 135.149C203.307 135.487 202.845 135.956 202.507 136.557C202.17 137.144 202.001 137.804 202.001 138.537C202.001 139.652 202.368 140.583 203.101 141.331ZM221.257 132.597H231.619V144.477H229.199V134.819H223.699V144.477H221.257V132.597ZM245.102 143.003C243.9 144.177 242.389 144.763 240.57 144.763C238.752 144.763 237.234 144.177 236.016 143.003C234.814 141.815 234.212 140.327 234.212 138.537C234.212 137.364 234.484 136.301 235.026 135.347C235.584 134.394 236.346 133.653 237.314 133.125C238.297 132.583 239.382 132.311 240.57 132.311C241.758 132.311 242.836 132.583 243.804 133.125C244.787 133.653 245.55 134.394 246.092 135.347C246.65 136.301 246.928 137.364 246.928 138.537C246.928 140.327 246.32 141.815 245.102 143.003ZM240.57 142.431C241.318 142.431 241.986 142.27 242.572 141.947C243.159 141.61 243.614 141.148 243.936 140.561C244.274 139.96 244.442 139.285 244.442 138.537C244.442 137.408 244.076 136.477 243.342 135.743C242.624 135.01 241.7 134.643 240.57 134.643C239.441 134.643 238.51 135.01 237.776 135.743C237.058 136.477 236.698 137.408 236.698 138.537C236.698 139.667 237.058 140.598 237.776 141.331C238.51 142.065 239.441 142.431 240.57 142.431ZM264.514 144.477H262.16L260.73 136.381L256.748 144.345H256.242L252.282 136.381L250.852 144.477H248.498L250.632 132.597H252.7L256.506 140.187L260.334 132.597H262.38L264.514 144.477ZM276.964 143.003C275.761 144.177 274.25 144.763 272.432 144.763C270.613 144.763 269.095 144.177 267.878 143.003C266.675 141.815 266.074 140.327 266.074 138.537C266.074 137.364 266.345 136.301 266.888 135.347C267.445 134.394 268.208 133.653 269.176 133.125C270.158 132.583 271.244 132.311 272.432 132.311C273.62 132.311 274.698 132.583 275.666 133.125C276.648 133.653 277.411 134.394 277.954 135.347C278.511 136.301 278.79 137.364 278.79 138.537C278.79 140.327 278.181 141.815 276.964 143.003ZM272.432 142.431C273.18 142.431 273.847 142.27 274.434 141.947C275.02 141.61 275.475 141.148 275.798 140.561C276.135 139.96 276.304 139.285 276.304 138.537C276.304 137.408 275.937 136.477 275.204 135.743C274.485 135.01 273.561 134.643 272.432 134.643C271.302 134.643 270.371 135.01 269.638 135.743C268.919 136.477 268.56 137.408 268.56 138.537C268.56 139.667 268.919 140.598 269.638 141.331C270.371 142.065 271.302 142.431 272.432 142.431ZM296.461 142.233H298.067V147.469H295.845V144.477H281.391V132.597H283.789V142.233H287.771V132.597H290.103V142.233H294.063V132.597H296.461V142.233ZM305.569 136.117C306.875 136.117 307.931 136.506 308.737 137.283C309.544 138.061 309.947 139.073 309.947 140.319C309.947 141.551 309.544 142.556 308.737 143.333C307.931 144.096 306.875 144.477 305.569 144.477H300.641V132.597H303.039V136.117H305.569ZM305.283 142.365C305.943 142.365 306.479 142.182 306.889 141.815C307.3 141.434 307.505 140.935 307.505 140.319C307.505 139.909 307.41 139.549 307.219 139.241C307.043 138.919 306.787 138.669 306.449 138.493C306.112 138.317 305.723 138.229 305.283 138.229H303.039V142.365H305.283ZM322.516 132.311C324.291 132.311 325.757 132.905 326.916 134.093C328.089 135.267 328.676 136.755 328.676 138.559C328.676 140.349 328.097 141.83 326.938 143.003C325.779 144.177 324.305 144.763 322.516 144.763C321.475 144.763 320.521 144.551 319.656 144.125C318.791 143.7 318.087 143.106 317.544 142.343C317.001 141.566 316.649 140.679 316.488 139.681H314.706V144.499H312.286V132.597H314.706V137.393H316.488C316.737 135.883 317.412 134.658 318.512 133.719C319.627 132.781 320.961 132.311 322.516 132.311ZM319.876 141.331C320.58 142.065 321.46 142.431 322.516 142.431C323.572 142.431 324.452 142.065 325.156 141.331C325.86 140.598 326.212 139.674 326.212 138.559C326.212 137.43 325.86 136.499 325.156 135.765C324.452 135.017 323.572 134.643 322.516 134.643C321.46 134.643 320.58 135.017 319.876 135.765C319.172 136.499 318.82 137.43 318.82 138.559C318.82 139.674 319.172 140.598 319.876 141.331ZM344.322 144.477L340.758 139.417H339.284V144.477H336.842V132.597H339.284V137.195H340.78L344.014 132.597H346.896L342.87 138.295L347.336 144.477H344.322ZM362.487 132.597H364.885V144.477H362.487V139.505H356.987V144.477H354.567V132.597H356.987V137.261H362.487V132.597ZM378.304 132.597H380.196V144.477H378.216L377.974 143.025C376.83 144.184 375.4 144.763 373.684 144.763C371.909 144.763 370.428 144.169 369.24 142.981C368.067 141.793 367.48 140.312 367.48 138.537C367.48 136.748 368.067 135.267 369.24 134.093C370.428 132.905 371.909 132.311 373.684 132.311C375.429 132.311 376.874 132.898 378.018 134.071L378.304 132.597ZM371.066 141.331C371.814 142.065 372.745 142.431 373.86 142.431C374.989 142.431 375.913 142.065 376.632 141.331C377.365 140.583 377.732 139.652 377.732 138.537C377.732 137.408 377.365 136.477 376.632 135.743C375.913 135.01 374.989 134.643 373.86 134.643C373.127 134.643 372.459 134.812 371.858 135.149C371.271 135.487 370.809 135.956 370.472 136.557C370.135 137.144 369.966 137.804 369.966 138.537C369.966 139.652 370.333 140.583 371.066 141.331ZM398.748 144.477H396.394L394.964 136.381L390.982 144.345H390.476L386.516 136.381L385.086 144.477H382.732L384.866 132.597H386.934L390.74 140.187L394.568 132.597H396.614L398.748 144.477ZM401.12 147.645V146.369C402.029 146.149 402.484 145.519 402.484 144.477H400.988V141.683H403.76V144.279C403.76 145.218 403.525 145.973 403.056 146.545C402.587 147.117 401.941 147.484 401.12 147.645ZM420.541 138.273C420.82 138.391 421.069 138.545 421.289 138.735C421.524 138.911 421.722 139.124 421.883 139.373C422.044 139.608 422.169 139.872 422.257 140.165C422.345 140.459 422.389 140.759 422.389 141.067C422.389 142.035 422.037 142.849 421.333 143.509C420.629 144.155 419.749 144.477 418.693 144.477H412.489V132.597H418.605C419.602 132.597 420.416 132.883 421.047 133.455C421.692 134.013 422.015 134.739 422.015 135.633C422.015 136.191 421.883 136.704 421.619 137.173C421.355 137.643 420.996 138.009 420.541 138.273ZM419.595 136.029C419.595 135.619 419.456 135.289 419.177 135.039C418.913 134.79 418.561 134.665 418.121 134.665H414.887V137.393H418.121C418.561 137.393 418.913 137.269 419.177 137.019C419.456 136.77 419.595 136.44 419.595 136.029ZM418.253 142.343C418.737 142.343 419.126 142.204 419.419 141.925C419.727 141.647 419.881 141.295 419.881 140.869C419.881 140.429 419.727 140.07 419.419 139.791C419.111 139.513 418.715 139.373 418.231 139.373H414.887V142.343H418.253ZM430.071 136.117C431.377 136.117 432.433 136.506 433.239 137.283C434.046 138.061 434.449 139.073 434.449 140.319C434.449 141.551 434.046 142.556 433.239 143.333C432.433 144.096 431.377 144.477 430.071 144.477H425.143V132.597H427.541V136.117H430.071ZM436.517 132.597H438.959V144.477H436.517V132.597ZM429.785 142.365C430.445 142.365 430.981 142.182 431.391 141.815C431.802 141.434 432.007 140.935 432.007 140.319C432.007 139.909 431.912 139.549 431.721 139.241C431.545 138.919 431.289 138.669 430.951 138.493C430.614 138.317 430.225 138.229 429.785 138.229H427.541V142.365H429.785ZM463.051 144.477H460.697L459.267 136.381L455.285 144.345H454.779L450.819 136.381L449.389 144.477H447.035L449.169 132.597H451.237L455.043 140.187L458.871 132.597H460.917L463.051 144.477ZM475.501 143.003C474.298 144.177 472.788 144.763 470.969 144.763C469.15 144.763 467.632 144.177 466.415 143.003C465.212 141.815 464.611 140.327 464.611 138.537C464.611 137.364 464.882 136.301 465.425 135.347C465.982 134.394 466.745 133.653 467.713 133.125C468.696 132.583 469.781 132.311 470.969 132.311C472.157 132.311 473.235 132.583 474.203 133.125C475.186 133.653 475.948 134.394 476.491 135.347C477.048 136.301 477.327 137.364 477.327 138.537C477.327 140.327 476.718 141.815 475.501 143.003ZM470.969 142.431C471.717 142.431 472.384 142.27 472.971 141.947C473.558 141.61 474.012 141.148 474.335 140.561C474.672 139.96 474.841 139.285 474.841 138.537C474.841 137.408 474.474 136.477 473.741 135.743C473.022 135.01 472.098 134.643 470.969 134.643C469.84 134.643 468.908 135.01 468.175 135.743C467.456 136.477 467.097 137.408 467.097 138.537C467.097 139.667 467.456 140.598 468.175 141.331C468.908 142.065 469.84 142.431 470.969 142.431ZM492.874 144.477L489.398 139.417H487.99V144.477H485.636V139.417H484.206L480.752 144.477H477.782L482.182 138.229L478.222 132.597H481.016L484.228 137.239H485.636V132.597H487.99V137.239H489.398L492.588 132.597H495.404L491.444 138.229L495.844 144.477H492.874ZM508.445 138.559C508.445 138.779 508.43 139.051 508.401 139.373H498.765C498.912 140.327 499.308 141.082 499.953 141.639C500.613 142.197 501.427 142.475 502.395 142.475C502.864 142.475 503.304 142.409 503.715 142.277C504.126 142.131 504.485 141.933 504.793 141.683C505.116 141.419 505.38 141.104 505.585 140.737H508.159C507.69 141.999 506.942 142.989 505.915 143.707C504.888 144.411 503.715 144.763 502.395 144.763C500.65 144.763 499.19 144.169 498.017 142.981C496.858 141.793 496.279 140.312 496.279 138.537C496.279 136.763 496.858 135.281 498.017 134.093C499.19 132.905 500.65 132.311 502.395 132.311C503.583 132.311 504.639 132.597 505.563 133.169C506.487 133.727 507.198 134.482 507.697 135.435C508.196 136.374 508.445 137.415 508.445 138.559ZM502.395 134.511C501.486 134.511 500.708 134.768 500.063 135.281C499.432 135.795 499.014 136.499 498.809 137.393H506.003C505.856 136.792 505.614 136.279 505.277 135.853C504.94 135.413 504.522 135.083 504.023 134.863C503.539 134.629 502.996 134.511 502.395 134.511ZM520.11 132.597V134.797H515.93V144.477H513.554V134.797H509.352V132.597H520.11ZM533.195 138.559C533.195 138.779 533.18 139.051 533.151 139.373H523.515C523.662 140.327 524.058 141.082 524.703 141.639C525.363 142.197 526.177 142.475 527.145 142.475C527.614 142.475 528.054 142.409 528.465 142.277C528.876 142.131 529.235 141.933 529.543 141.683C529.866 141.419 530.13 141.104 530.335 140.737H532.909C532.44 141.999 531.692 142.989 530.665 143.707C529.638 144.411 528.465 144.763 527.145 144.763C525.4 144.763 523.94 144.169 522.767 142.981C521.608 141.793 521.029 140.312 521.029 138.537C521.029 136.763 521.608 135.281 522.767 134.093C523.94 132.905 525.4 132.311 527.145 132.311C528.333 132.311 529.389 132.597 530.313 133.169C531.237 133.727 531.948 134.482 532.447 135.435C532.946 136.374 533.195 137.415 533.195 138.559ZM527.145 134.511C526.236 134.511 525.458 134.768 524.813 135.281C524.182 135.795 523.764 136.499 523.559 137.393H530.753C530.606 136.792 530.364 136.279 530.027 135.853C529.69 135.413 529.272 135.083 528.773 134.863C528.289 134.629 527.746 134.511 527.145 134.511ZM547.381 133.169C549.097 133.169 550.49 133.697 551.561 134.753C552.646 135.809 553.189 137.181 553.189 138.867C553.189 140.613 552.617 142.035 551.473 143.135C550.343 144.221 548.862 144.763 547.029 144.763C545.093 144.763 543.567 144.162 542.453 142.959C541.353 141.742 540.803 140.077 540.803 137.965C540.803 135.076 541.353 132.883 542.453 131.387C543.567 129.877 545.423 128.806 548.019 128.175L551.737 127.273V129.693L548.063 130.573C545.525 131.175 544.022 132.502 543.553 134.555C544.579 133.631 545.855 133.169 547.381 133.169ZM547.029 142.453C548.085 142.453 548.957 142.116 549.647 141.441C550.351 140.752 550.703 139.894 550.703 138.867C550.703 138.178 550.541 137.562 550.219 137.019C549.896 136.462 549.456 136.029 548.899 135.721C548.341 135.399 547.718 135.237 547.029 135.237C546.339 135.237 545.709 135.399 545.137 135.721C544.579 136.029 544.139 136.462 543.817 137.019C543.509 137.562 543.355 138.178 543.355 138.867C543.355 139.894 543.699 140.752 544.389 141.441C545.093 142.116 545.973 142.453 547.029 142.453ZM560.739 136.117C562.045 136.117 563.101 136.506 563.907 137.283C564.714 138.061 565.117 139.073 565.117 140.319C565.117 141.551 564.714 142.556 563.907 143.333C563.101 144.096 562.045 144.477 560.739 144.477H555.811V132.597H558.209V136.117H560.739ZM567.185 132.597H569.627V144.477H567.185V132.597ZM560.453 142.365C561.113 142.365 561.649 142.182 562.059 141.815C562.47 141.434 562.675 140.935 562.675 140.319C562.675 139.909 562.58 139.549 562.389 139.241C562.213 138.919 561.957 138.669 561.619 138.493C561.282 138.317 560.893 138.229 560.453 138.229H558.209V142.365H560.453ZM582.5 132.597V134.797H578.32V144.477H575.944V134.797H571.742V132.597H582.5ZM589.571 136.117C590.877 136.117 591.933 136.506 592.739 137.283C593.546 138.061 593.949 139.073 593.949 140.319C593.949 141.551 593.546 142.556 592.739 143.333C591.933 144.096 590.877 144.477 589.571 144.477H584.643V132.597H587.041V136.117H589.571ZM589.285 142.365C589.945 142.365 590.481 142.182 590.891 141.815C591.302 141.434 591.507 140.935 591.507 140.319C591.507 139.909 591.412 139.549 591.221 139.241C591.045 138.919 590.789 138.669 590.451 138.493C590.114 138.317 589.725 138.229 589.285 138.229H587.041V142.365H589.285ZM111.554 177.763C109.794 177.763 108.312 177.169 107.11 175.981C105.922 174.779 105.328 173.297 105.328 171.537C105.328 169.763 105.922 168.281 107.11 167.093C108.312 165.905 109.801 165.311 111.576 165.311C113.028 165.311 114.289 165.722 115.36 166.543C116.43 167.365 117.127 168.457 117.45 169.821H115.03C114.722 169.147 114.26 168.619 113.644 168.237C113.028 167.841 112.331 167.643 111.554 167.643C110.864 167.643 110.234 167.812 109.662 168.149C109.09 168.487 108.635 168.956 108.298 169.557C107.975 170.144 107.814 170.804 107.814 171.537C107.814 172.637 108.173 173.561 108.892 174.309C109.61 175.057 110.498 175.431 111.554 175.431C112.331 175.431 113.02 175.233 113.622 174.837C114.238 174.441 114.707 173.877 115.03 173.143H117.494C117.156 174.537 116.445 175.659 115.36 176.509C114.289 177.345 113.02 177.763 111.554 177.763ZM119.893 165.597H130.255V177.477H127.835V167.819H122.335V177.477H119.893V165.597ZM143.739 176.003C142.537 177.177 141.026 177.763 139.207 177.763C137.389 177.763 135.871 177.177 134.653 176.003C133.451 174.815 132.849 173.327 132.849 171.537C132.849 170.364 133.121 169.301 133.663 168.347C134.221 167.394 134.983 166.653 135.951 166.125C136.934 165.583 138.019 165.311 139.207 165.311C140.395 165.311 141.473 165.583 142.441 166.125C143.424 166.653 144.187 167.394 144.729 168.347C145.287 169.301 145.565 170.364 145.565 171.537C145.565 173.327 144.957 174.815 143.739 176.003ZM139.207 175.431C139.955 175.431 140.623 175.27 141.209 174.947C141.796 174.61 142.251 174.148 142.573 173.561C142.911 172.96 143.079 172.285 143.079 171.537C143.079 170.408 142.713 169.477 141.979 168.743C141.261 168.01 140.337 167.643 139.207 167.643C138.078 167.643 137.147 168.01 136.413 168.743C135.695 169.477 135.335 170.408 135.335 171.537C135.335 172.667 135.695 173.598 136.413 174.331C137.147 175.065 138.078 175.431 139.207 175.431ZM155.647 177.477L152.083 172.417H150.609V177.477H148.167V165.597H150.609V170.195H152.105L155.339 165.597H158.221L154.195 171.295L158.661 177.477H155.647ZM169.972 176.003C168.769 177.177 167.258 177.763 165.44 177.763C163.621 177.763 162.103 177.177 160.886 176.003C159.683 174.815 159.082 173.327 159.082 171.537C159.082 170.364 159.353 169.301 159.896 168.347C160.453 167.394 161.216 166.653 162.184 166.125C163.166 165.583 164.252 165.311 165.44 165.311C166.628 165.311 167.706 165.583 168.674 166.125C169.656 166.653 170.419 167.394 170.962 168.347C171.519 169.301 171.798 170.364 171.798 171.537C171.798 173.327 171.189 174.815 169.972 176.003ZM165.44 175.431C166.188 175.431 166.855 175.27 167.442 174.947C168.028 174.61 168.483 174.148 168.806 173.561C169.143 172.96 169.312 172.285 169.312 171.537C169.312 170.408 168.945 169.477 168.212 168.743C167.493 168.01 166.569 167.643 165.44 167.643C164.31 167.643 163.379 168.01 162.646 168.743C161.927 169.477 161.568 170.408 161.568 171.537C161.568 172.667 161.927 173.598 162.646 174.331C163.379 175.065 164.31 175.431 165.44 175.431ZM182.473 161.681V163.507H176.577V161.681H182.473ZM183.111 165.597H184.475V177.477H182.143V169.931L175.807 177.477H174.399V165.597H176.753V173.077L183.111 165.597ZM195.876 165.597H198.274V177.477H195.876V172.505H190.376V177.477H187.956V165.597H190.376V170.261H195.876V165.597ZM206.677 169.117C207.982 169.117 209.038 169.506 209.845 170.283C210.651 171.061 211.055 172.073 211.055 173.319C211.055 174.551 210.651 175.556 209.845 176.333C209.038 177.096 207.982 177.477 206.677 177.477H201.749V165.597H204.147V169.117H206.677ZM213.123 165.597H215.565V177.477H213.123V165.597ZM206.391 175.365C207.051 175.365 207.586 175.182 207.997 174.815C208.407 174.434 208.613 173.935 208.613 173.319C208.613 172.909 208.517 172.549 208.327 172.241C208.151 171.919 207.894 171.669 207.557 171.493C207.219 171.317 206.831 171.229 206.391 171.229H204.147V175.365H206.391ZM231.231 171.163C232.272 171.779 232.793 172.74 232.793 174.045C232.793 175.145 232.353 176.04 231.473 176.729C230.593 177.419 229.463 177.763 228.085 177.763C226.75 177.763 225.657 177.419 224.807 176.729C223.971 176.025 223.516 175.087 223.443 173.913H225.665C225.753 174.427 226.009 174.83 226.435 175.123C226.86 175.417 227.41 175.563 228.085 175.563C228.774 175.563 229.331 175.409 229.757 175.101C230.182 174.779 230.395 174.368 230.395 173.869C230.395 173.385 230.204 172.989 229.823 172.681C229.456 172.373 228.965 172.219 228.349 172.219H226.809V170.327H228.349C228.906 170.327 229.346 170.203 229.669 169.953C229.991 169.689 230.153 169.337 230.153 168.897C230.153 168.428 229.962 168.054 229.581 167.775C229.199 167.497 228.693 167.357 228.063 167.357C227.491 167.357 227.014 167.489 226.633 167.753C226.266 168.017 226.046 168.384 225.973 168.853H223.751C223.809 167.797 224.242 166.947 225.049 166.301C225.87 165.641 226.897 165.311 228.129 165.311C229.39 165.311 230.424 165.634 231.231 166.279C232.052 166.925 232.463 167.739 232.463 168.721C232.463 169.777 232.052 170.591 231.231 171.163ZM245.402 165.597H247.294V177.477H245.314L245.072 176.025C243.928 177.184 242.498 177.763 240.782 177.763C239.007 177.763 237.526 177.169 236.338 175.981C235.164 174.793 234.578 173.312 234.578 171.537C234.578 169.748 235.164 168.267 236.338 167.093C237.526 165.905 239.007 165.311 240.782 165.311C242.527 165.311 243.972 165.898 245.116 167.071L245.402 165.597ZM238.164 174.331C238.912 175.065 239.843 175.431 240.958 175.431C242.087 175.431 243.011 175.065 243.73 174.331C244.463 173.583 244.83 172.652 244.83 171.537C244.83 170.408 244.463 169.477 243.73 168.743C243.011 168.01 242.087 167.643 240.958 167.643C240.224 167.643 239.557 167.812 238.956 168.149C238.369 168.487 237.907 168.956 237.57 169.557C237.232 170.144 237.064 170.804 237.064 171.537C237.064 172.652 237.43 173.583 238.164 174.331ZM263.799 177.477L260.235 172.417H258.761V177.477H256.319V165.597H258.761V170.195H260.257L263.491 165.597H266.373L262.347 171.295L266.813 177.477H263.799ZM278.058 165.597H279.95V177.477H277.97L277.728 176.025C276.584 177.184 275.154 177.763 273.438 177.763C271.663 177.763 270.182 177.169 268.994 175.981C267.821 174.793 267.234 173.312 267.234 171.537C267.234 169.748 267.821 168.267 268.994 167.093C270.182 165.905 271.663 165.311 273.438 165.311C275.183 165.311 276.628 165.898 277.772 167.071L278.058 165.597ZM270.82 174.331C271.568 175.065 272.499 175.431 273.614 175.431C274.743 175.431 275.667 175.065 276.386 174.331C277.119 173.583 277.486 172.652 277.486 171.537C277.486 170.408 277.119 169.477 276.386 168.743C275.667 168.01 274.743 167.643 273.614 167.643C272.881 167.643 272.213 167.812 271.612 168.149C271.025 168.487 270.563 168.956 270.226 169.557C269.889 170.144 269.72 170.804 269.72 171.537C269.72 172.652 270.087 173.583 270.82 174.331ZM289.9 165.597H292.276V177.477H289.9V173.231C289.094 173.525 288.243 173.671 287.348 173.671C285.896 173.671 284.73 173.246 283.85 172.395C282.97 171.545 282.53 170.371 282.53 168.875V165.597H284.928V168.787C284.928 169.638 285.148 170.291 285.588 170.745C286.043 171.2 286.696 171.427 287.546 171.427C288.397 171.427 289.182 171.237 289.9 170.855V165.597ZM307.029 171.559C307.029 171.779 307.014 172.051 306.985 172.373H297.349C297.496 173.327 297.892 174.082 298.537 174.639C299.197 175.197 300.011 175.475 300.979 175.475C301.448 175.475 301.888 175.409 302.299 175.277C302.71 175.131 303.069 174.933 303.377 174.683C303.7 174.419 303.964 174.104 304.169 173.737H306.743C306.274 174.999 305.526 175.989 304.499 176.707C303.472 177.411 302.299 177.763 300.979 177.763C299.234 177.763 297.774 177.169 296.601 175.981C295.442 174.793 294.863 173.312 294.863 171.537C294.863 169.763 295.442 168.281 296.601 167.093C297.774 165.905 299.234 165.311 300.979 165.311C302.167 165.311 303.223 165.597 304.147 166.169C305.071 166.727 305.782 167.482 306.281 168.435C306.78 169.374 307.029 170.415 307.029 171.559ZM300.979 167.511C300.07 167.511 299.292 167.768 298.647 168.281C298.016 168.795 297.598 169.499 297.393 170.393H304.587C304.44 169.792 304.198 169.279 303.861 168.853C303.524 168.413 303.106 168.083 302.607 167.863C302.123 167.629 301.58 167.511 300.979 167.511ZM314.968 177.763C313.208 177.763 311.726 177.169 310.524 175.981C309.336 174.779 308.742 173.297 308.742 171.537C308.742 169.763 309.336 168.281 310.524 167.093C311.726 165.905 313.215 165.311 314.99 165.311C316.442 165.311 317.703 165.722 318.774 166.543C319.844 167.365 320.541 168.457 320.864 169.821H318.444C318.136 169.147 317.674 168.619 317.058 168.237C316.442 167.841 315.745 167.643 314.968 167.643C314.278 167.643 313.648 167.812 313.076 168.149C312.504 168.487 312.049 168.956 311.712 169.557C311.389 170.144 311.228 170.804 311.228 171.537C311.228 172.637 311.587 173.561 312.306 174.309C313.024 175.057 313.912 175.431 314.968 175.431C315.745 175.431 316.434 175.233 317.036 174.837C317.652 174.441 318.121 173.877 318.444 173.143H320.908C320.57 174.537 319.859 175.659 318.774 176.509C317.703 177.345 316.434 177.763 314.968 177.763ZM332.594 165.597V167.797H328.414V177.477H326.038V167.797H321.836V165.597H332.594ZM342.789 171.273C343.068 171.391 343.317 171.545 343.537 171.735C343.772 171.911 343.97 172.124 344.131 172.373C344.292 172.608 344.417 172.872 344.505 173.165C344.593 173.459 344.637 173.759 344.637 174.067C344.637 175.035 344.285 175.849 343.581 176.509C342.877 177.155 341.997 177.477 340.941 177.477H334.737V165.597H340.853C341.85 165.597 342.664 165.883 343.295 166.455C343.94 167.013 344.263 167.739 344.263 168.633C344.263 169.191 344.131 169.704 343.867 170.173C343.603 170.643 343.244 171.009 342.789 171.273ZM341.843 169.029C341.843 168.619 341.704 168.289 341.425 168.039C341.161 167.79 340.809 167.665 340.369 167.665H337.135V170.393H340.369C340.809 170.393 341.161 170.269 341.425 170.019C341.704 169.77 341.843 169.44 341.843 169.029ZM340.501 175.343C340.985 175.343 341.374 175.204 341.667 174.925C341.975 174.647 342.129 174.295 342.129 173.869C342.129 173.429 341.975 173.07 341.667 172.791C341.359 172.513 340.963 172.373 340.479 172.373H337.135V175.343H340.501ZM357.401 176.003C356.199 177.177 354.688 177.763 352.869 177.763C351.051 177.763 349.533 177.177 348.315 176.003C347.113 174.815 346.511 173.327 346.511 171.537C346.511 170.364 346.783 169.301 347.325 168.347C347.883 167.394 348.645 166.653 349.613 166.125C350.596 165.583 351.681 165.311 352.869 165.311C354.057 165.311 355.135 165.583 356.103 166.125C357.086 166.653 357.849 167.394 358.391 168.347C358.949 169.301 359.227 170.364 359.227 171.537C359.227 173.327 358.619 174.815 357.401 176.003ZM352.869 175.431C353.617 175.431 354.285 175.27 354.871 174.947C355.458 174.61 355.913 174.148 356.235 173.561C356.573 172.96 356.741 172.285 356.741 171.537C356.741 170.408 356.375 169.477 355.641 168.743C354.923 168.01 353.999 167.643 352.869 167.643C351.74 167.643 350.809 168.01 350.075 168.743C349.357 169.477 348.997 170.408 348.997 171.537C348.997 172.667 349.357 173.598 350.075 174.331C350.809 175.065 351.74 175.431 352.869 175.431ZM376.084 165.597H377.448V177.477H375.116V169.931L368.78 177.477H367.372V165.597H369.726V173.077L376.084 165.597ZM394.523 171.273C394.802 171.391 395.051 171.545 395.271 171.735C395.506 171.911 395.704 172.124 395.865 172.373C396.027 172.608 396.151 172.872 396.239 173.165C396.327 173.459 396.371 173.759 396.371 174.067C396.371 175.035 396.019 175.849 395.315 176.509C394.611 177.155 393.731 177.477 392.675 177.477H386.471V165.597H392.587C393.585 165.597 394.399 165.883 395.029 166.455C395.675 167.013 395.997 167.739 395.997 168.633C395.997 169.191 395.865 169.704 395.601 170.173C395.337 170.643 394.978 171.009 394.523 171.273ZM393.577 169.029C393.577 168.619 393.438 168.289 393.159 168.039C392.895 167.79 392.543 167.665 392.103 167.665H388.869V170.393H392.103C392.543 170.393 392.895 170.269 393.159 170.019C393.438 169.77 393.577 169.44 393.577 169.029ZM392.235 175.343C392.719 175.343 393.108 175.204 393.401 174.925C393.709 174.647 393.863 174.295 393.863 173.869C393.863 173.429 393.709 173.07 393.401 172.791C393.093 172.513 392.697 172.373 392.213 172.373H388.869V175.343H392.235ZM409.07 165.597H410.962V177.477H408.982L408.74 176.025C407.596 177.184 406.166 177.763 404.45 177.763C402.675 177.763 401.194 177.169 400.006 175.981C398.832 174.793 398.246 173.312 398.246 171.537C398.246 169.748 398.832 168.267 400.006 167.093C401.194 165.905 402.675 165.311 404.45 165.311C406.195 165.311 407.64 165.898 408.784 167.071L409.07 165.597ZM401.832 174.331C402.58 175.065 403.511 175.431 404.626 175.431C405.755 175.431 406.679 175.065 407.398 174.331C408.131 173.583 408.498 172.652 408.498 171.537C408.498 170.408 408.131 169.477 407.398 168.743C406.679 168.01 405.755 167.643 404.626 167.643C403.892 167.643 403.225 167.812 402.624 168.149C402.037 168.487 401.575 168.956 401.238 169.557C400.9 170.144 400.732 170.804 400.732 171.537C400.732 172.652 401.098 173.583 401.832 174.331ZM427.116 165.597H429.514V177.477H414.444V165.597H416.842V175.233H420.824V165.597H423.156V175.233H427.116V165.597ZM446.008 177.477L442.444 172.417H440.97V177.477H438.528V165.597H440.97V170.195H442.466L445.7 165.597H448.582L444.556 171.295L449.022 177.477H446.008ZM460.333 176.003C459.13 177.177 457.62 177.763 455.801 177.763C453.982 177.763 452.464 177.177 451.247 176.003C450.044 174.815 449.443 173.327 449.443 171.537C449.443 170.364 449.714 169.301 450.257 168.347C450.814 167.394 451.577 166.653 452.545 166.125C453.528 165.583 454.613 165.311 455.801 165.311C456.989 165.311 458.067 165.583 459.035 166.125C460.018 166.653 460.78 167.394 461.323 168.347C461.88 169.301 462.159 170.364 462.159 171.537C462.159 173.327 461.55 174.815 460.333 176.003ZM455.801 175.431C456.549 175.431 457.216 175.27 457.803 174.947C458.39 174.61 458.844 174.148 459.167 173.561C459.504 172.96 459.673 172.285 459.673 171.537C459.673 170.408 459.306 169.477 458.573 168.743C457.854 168.01 456.93 167.643 455.801 167.643C454.672 167.643 453.74 168.01 453.007 168.743C452.288 169.477 451.929 170.408 451.929 171.537C451.929 172.667 452.288 173.598 453.007 174.331C453.74 175.065 454.672 175.431 455.801 175.431ZM479.745 177.477H477.391L475.961 169.381L471.979 177.345H471.473L467.513 169.381L466.083 177.477H463.729L465.863 165.597H467.931L471.737 173.187L475.565 165.597H477.611L479.745 177.477ZM495.868 171.581C495.868 173.327 495.289 174.771 494.13 175.915C492.986 177.059 491.527 177.675 489.752 177.763V181.217H487.42V177.763C485.646 177.675 484.179 177.059 483.02 175.915C481.876 174.771 481.304 173.327 481.304 171.581C481.304 169.836 481.884 168.377 483.042 167.203C484.201 166.03 485.66 165.399 487.42 165.311V161.989H489.752V165.311C491.512 165.399 492.972 166.03 494.13 167.203C495.289 168.362 495.868 169.821 495.868 171.581ZM483.702 171.559C483.702 172.645 484.047 173.554 484.736 174.287C485.44 175.021 486.342 175.424 487.442 175.497V167.577C486.342 167.651 485.44 168.061 484.736 168.809C484.047 169.557 483.702 170.474 483.702 171.559ZM489.73 175.497C490.83 175.424 491.725 175.021 492.414 174.287C493.118 173.554 493.47 172.645 493.47 171.559C493.47 170.474 493.118 169.557 492.414 168.809C491.71 168.061 490.816 167.651 489.73 167.577V175.497ZM508.479 176.003C507.277 177.177 505.766 177.763 503.947 177.763C502.129 177.763 500.611 177.177 499.393 176.003C498.191 174.815 497.589 173.327 497.589 171.537C497.589 170.364 497.861 169.301 498.403 168.347C498.961 167.394 499.723 166.653 500.691 166.125C501.674 165.583 502.759 165.311 503.947 165.311C505.135 165.311 506.213 165.583 507.181 166.125C508.164 166.653 508.927 167.394 509.469 168.347C510.027 169.301 510.305 170.364 510.305 171.537C510.305 173.327 509.697 174.815 508.479 176.003ZM503.947 175.431C504.695 175.431 505.363 175.27 505.949 174.947C506.536 174.61 506.991 174.148 507.313 173.561C507.651 172.96 507.819 172.285 507.819 171.537C507.819 170.408 507.453 169.477 506.719 168.743C506.001 168.01 505.077 167.643 503.947 167.643C502.818 167.643 501.887 168.01 501.153 168.743C500.435 169.477 500.075 170.408 500.075 171.537C500.075 172.667 500.435 173.598 501.153 174.331C501.887 175.065 502.818 175.431 503.947 175.431ZM519.287 165.311C520.46 165.311 521.516 165.583 522.455 166.125C523.394 166.653 524.127 167.394 524.655 168.347C525.183 169.301 525.447 170.364 525.447 171.537C525.447 173.327 524.86 174.815 523.687 176.003C522.528 177.177 521.062 177.763 519.287 177.763C517.762 177.763 516.449 177.287 515.349 176.333V181.745H512.907V165.597H514.557L515.019 167.049C516.163 165.891 517.586 165.311 519.287 165.311ZM516.317 174.331C517.05 175.065 517.974 175.431 519.089 175.431C520.218 175.431 521.15 175.065 521.883 174.331C522.616 173.583 522.983 172.652 522.983 171.537C522.983 170.423 522.616 169.499 521.883 168.765C521.15 168.017 520.226 167.643 519.111 167.643C518.378 167.643 517.71 167.812 517.109 168.149C516.508 168.487 516.038 168.956 515.701 169.557C515.378 170.144 515.217 170.804 515.217 171.537C515.217 172.652 515.584 173.583 516.317 174.331ZM537.125 165.597V167.797H532.945V177.477H530.569V167.797H526.367V165.597H537.125Z" fill="white"/>
<path d="M141.003 10H144.453V31H141.003V21.85H131.403V31H127.953V10H131.403V18.58H141.003V10ZM162.805 14.8H165.385V31H162.685L162.355 29.02C160.795 30.6 158.845 31.39 156.505 31.39C154.085 31.39 152.065 30.58 150.445 28.96C148.845 27.34 148.045 25.32 148.045 22.9C148.045 20.46 148.845 18.44 150.445 16.84C152.065 15.22 154.085 14.41 156.505 14.41C158.885 14.41 160.855 15.21 162.415 16.81L162.805 14.8ZM152.935 26.71C153.955 27.71 155.225 28.21 156.745 28.21C158.285 28.21 159.545 27.71 160.525 26.71C161.525 25.69 162.025 24.42 162.025 22.9C162.025 21.36 161.525 20.09 160.525 19.09C159.545 18.09 158.285 17.59 156.745 17.59C155.745 17.59 154.835 17.82 154.015 18.28C153.215 18.74 152.585 19.38 152.125 20.2C151.665 21 151.435 21.9 151.435 22.9C151.435 24.42 151.935 25.69 152.935 26.71ZM187.414 14.8H190.684V31H170.134V14.8H173.404V27.94H178.834V14.8H182.014V27.94H187.414V14.8ZM208.977 14.8H211.557V31H208.857L208.527 29.02C206.967 30.6 205.017 31.39 202.677 31.39C200.257 31.39 198.237 30.58 196.617 28.96C195.017 27.34 194.217 25.32 194.217 22.9C194.217 20.46 195.017 18.44 196.617 16.84C198.237 15.22 200.257 14.41 202.677 14.41C205.057 14.41 207.027 15.21 208.587 16.81L208.977 14.8ZM199.107 26.71C200.127 27.71 201.397 28.21 202.917 28.21C204.457 28.21 205.717 27.71 206.697 26.71C207.697 25.69 208.197 24.42 208.197 22.9C208.197 21.36 207.697 20.09 206.697 19.09C205.717 18.09 204.457 17.59 202.917 17.59C201.917 17.59 201.007 17.82 200.187 18.28C199.387 18.74 198.757 19.38 198.297 20.2C197.837 21 197.607 21.9 197.607 22.9C197.607 24.42 198.107 25.69 199.107 26.71ZM232.564 14.41C234.164 14.41 235.604 14.78 236.884 15.52C238.164 16.24 239.164 17.25 239.884 18.55C240.604 19.85 240.964 21.3 240.964 22.9C240.964 25.34 240.164 27.37 238.564 28.99C236.984 30.59 234.984 31.39 232.564 31.39C230.484 31.39 228.694 30.74 227.194 29.44V36.82H223.864V14.8H226.114L226.744 16.78C228.304 15.2 230.244 14.41 232.564 14.41ZM228.514 26.71C229.514 27.71 230.774 28.21 232.294 28.21C233.834 28.21 235.104 27.71 236.104 26.71C237.104 25.69 237.604 24.42 237.604 22.9C237.604 21.38 237.104 20.12 236.104 19.12C235.104 18.1 233.844 17.59 232.324 17.59C231.324 17.59 230.414 17.82 229.594 18.28C228.774 18.74 228.134 19.38 227.674 20.2C227.234 21 227.014 21.9 227.014 22.9C227.014 24.42 227.514 25.69 228.514 26.71ZM258.108 14.8H260.688V31H257.988L257.658 29.02C256.098 30.6 254.148 31.39 251.808 31.39C249.388 31.39 247.368 30.58 245.748 28.96C244.148 27.34 243.348 25.32 243.348 22.9C243.348 20.46 244.148 18.44 245.748 16.84C247.368 15.22 249.388 14.41 251.808 14.41C254.188 14.41 256.158 15.21 257.718 16.81L258.108 14.8ZM248.238 26.71C249.258 27.71 250.528 28.21 252.048 28.21C253.588 28.21 254.848 27.71 255.828 26.71C256.828 25.69 257.328 24.42 257.328 22.9C257.328 21.36 256.828 20.09 255.828 19.09C254.848 18.09 253.588 17.59 252.048 17.59C251.048 17.59 250.138 17.82 249.318 18.28C248.518 18.74 247.888 19.38 247.428 20.2C246.968 21 246.738 21.9 246.738 22.9C246.738 24.42 247.238 25.69 248.238 26.71ZM273.686 15.58C276.026 15.58 277.926 16.3 279.386 17.74C280.866 19.18 281.606 21.05 281.606 23.35C281.606 25.73 280.826 27.67 279.266 29.17C277.726 30.65 275.706 31.39 273.206 31.39C270.566 31.39 268.486 30.57 266.966 28.93C265.466 27.27 264.716 25 264.716 22.12C264.716 18.18 265.466 15.19 266.966 13.15C268.486 11.09 271.016 9.63 274.556 8.77L279.626 7.54V10.84L274.616 12.04C271.156 12.86 269.106 14.67 268.466 17.47C269.866 16.21 271.606 15.58 273.686 15.58ZM273.206 28.24C274.646 28.24 275.836 27.78 276.776 26.86C277.736 25.92 278.216 24.75 278.216 23.35C278.216 22.41 277.996 21.57 277.556 20.83C277.116 20.07 276.516 19.48 275.756 19.06C274.996 18.62 274.146 18.4 273.206 18.4C272.266 18.4 271.406 18.62 270.626 19.06C269.866 19.48 269.266 20.07 268.826 20.83C268.406 21.57 268.196 22.41 268.196 23.35C268.196 24.75 268.666 25.92 269.606 26.86C270.566 27.78 271.766 28.24 273.206 28.24ZM298.833 28.99C297.193 30.59 295.133 31.39 292.653 31.39C290.173 31.39 288.103 30.59 286.443 28.99C284.803 27.37 283.983 25.34 283.983 22.9C283.983 21.3 284.353 19.85 285.093 18.55C285.853 17.25 286.893 16.24 288.213 15.52C289.553 14.78 291.033 14.41 292.653 14.41C294.273 14.41 295.743 14.78 297.063 15.52C298.403 16.24 299.443 17.25 300.183 18.55C300.943 19.85 301.323 21.3 301.323 22.9C301.323 25.34 300.493 27.37 298.833 28.99ZM292.653 28.21C293.673 28.21 294.583 27.99 295.383 27.55C296.183 27.09 296.803 26.46 297.243 25.66C297.703 24.84 297.933 23.92 297.933 22.9C297.933 21.36 297.433 20.09 296.433 19.09C295.453 18.09 294.193 17.59 292.653 17.59C291.113 17.59 289.843 18.09 288.843 19.09C287.863 20.09 287.373 21.36 287.373 22.9C287.373 24.44 287.863 25.71 288.843 26.71C289.843 27.71 291.113 28.21 292.653 28.21ZM317.211 14.8V17.8H311.511V31H308.271V17.8H302.541V14.8H317.211ZM333.225 14.8H335.805V31H333.105L332.775 29.02C331.215 30.6 329.265 31.39 326.925 31.39C324.505 31.39 322.485 30.58 320.865 28.96C319.265 27.34 318.465 25.32 318.465 22.9C318.465 20.46 319.265 18.44 320.865 16.84C322.485 15.22 324.505 14.41 326.925 14.41C329.305 14.41 331.275 15.21 332.835 16.81L333.225 14.8ZM323.355 26.71C324.375 27.71 325.645 28.21 327.165 28.21C328.705 28.21 329.965 27.71 330.945 26.71C331.945 25.69 332.445 24.42 332.445 22.9C332.445 21.36 331.945 20.09 330.945 19.09C329.965 18.09 328.705 17.59 327.165 17.59C326.165 17.59 325.255 17.82 324.435 18.28C323.635 18.74 323.005 19.38 322.545 20.2C322.085 21 321.855 21.9 321.855 22.9C321.855 24.42 322.355 25.69 323.355 26.71ZM348.112 14.8H362.242V31H358.942V17.83H351.442V31H348.112V14.8ZM380.629 28.99C378.989 30.59 376.929 31.39 374.449 31.39C371.969 31.39 369.899 30.59 368.239 28.99C366.599 27.37 365.779 25.34 365.779 22.9C365.779 21.3 366.149 19.85 366.889 18.55C367.649 17.25 368.689 16.24 370.009 15.52C371.349 14.78 372.829 14.41 374.449 14.41C376.069 14.41 377.539 14.78 378.859 15.52C380.199 16.24 381.239 17.25 381.979 18.55C382.739 19.85 383.119 21.3 383.119 22.9C383.119 25.34 382.289 27.37 380.629 28.99ZM374.449 28.21C375.469 28.21 376.379 27.99 377.179 27.55C377.979 27.09 378.599 26.46 379.039 25.66C379.499 24.84 379.729 23.92 379.729 22.9C379.729 21.36 379.229 20.09 378.229 19.09C377.249 18.09 375.989 17.59 374.449 17.59C372.909 17.59 371.639 18.09 370.639 19.09C369.659 20.09 369.169 21.36 369.169 22.9C369.169 24.44 369.659 25.71 370.639 26.71C371.639 27.71 372.909 28.21 374.449 28.21ZM393.957 31.39C391.557 31.39 389.537 30.58 387.897 28.96C386.277 27.32 385.467 25.3 385.467 22.9C385.467 20.48 386.277 18.46 387.897 16.84C389.537 15.22 391.567 14.41 393.987 14.41C395.967 14.41 397.687 14.97 399.147 16.09C400.607 17.21 401.557 18.7 401.997 20.56H398.697C398.277 19.64 397.647 18.92 396.807 18.4C395.967 17.86 395.017 17.59 393.957 17.59C393.017 17.59 392.157 17.82 391.377 18.28C390.597 18.74 389.977 19.38 389.517 20.2C389.077 21 388.857 21.9 388.857 22.9C388.857 24.4 389.347 25.66 390.327 26.68C391.307 27.7 392.517 28.21 393.957 28.21C395.017 28.21 395.957 27.94 396.777 27.4C397.617 26.86 398.257 26.09 398.697 25.09H402.057C401.597 26.99 400.627 28.52 399.147 29.68C397.687 30.82 395.957 31.39 393.957 31.39ZM417.993 14.8V17.8H412.293V31H409.053V17.8H403.323V14.8H417.993ZM429.615 14.41C431.215 14.41 432.655 14.78 433.935 15.52C435.215 16.24 436.215 17.25 436.935 18.55C437.655 19.85 438.015 21.3 438.015 22.9C438.015 25.34 437.215 27.37 435.615 28.99C434.035 30.59 432.035 31.39 429.615 31.39C427.535 31.39 425.745 30.74 424.245 29.44V36.82H420.915V14.8H423.165L423.795 16.78C425.355 15.2 427.295 14.41 429.615 14.41ZM425.565 26.71C426.565 27.71 427.825 28.21 429.345 28.21C430.885 28.21 432.155 27.71 433.155 26.71C434.155 25.69 434.655 24.42 434.655 22.9C434.655 21.38 434.155 20.12 433.155 19.12C432.155 18.1 430.895 17.59 429.375 17.59C428.375 17.59 427.465 17.82 426.645 18.28C425.825 18.74 425.185 19.38 424.725 20.2C424.285 21 424.065 21.9 424.065 22.9C424.065 24.42 424.565 25.69 425.565 26.71ZM455.249 28.99C453.609 30.59 451.549 31.39 449.069 31.39C446.589 31.39 444.519 30.59 442.859 28.99C441.219 27.37 440.399 25.34 440.399 22.9C440.399 21.3 440.769 19.85 441.509 18.55C442.269 17.25 443.309 16.24 444.629 15.52C445.969 14.78 447.449 14.41 449.069 14.41C450.689 14.41 452.159 14.78 453.479 15.52C454.819 16.24 455.859 17.25 456.599 18.55C457.359 19.85 457.739 21.3 457.739 22.9C457.739 25.34 456.909 27.37 455.249 28.99ZM449.069 28.21C450.089 28.21 450.999 27.99 451.799 27.55C452.599 27.09 453.219 26.46 453.659 25.66C454.119 24.84 454.349 23.92 454.349 22.9C454.349 21.36 453.849 20.09 452.849 19.09C451.869 18.09 450.609 17.59 449.069 17.59C447.529 17.59 446.259 18.09 445.259 19.09C444.279 20.09 443.789 21.36 443.789 22.9C443.789 24.44 444.279 25.71 445.259 26.71C446.259 27.71 447.529 28.21 449.069 28.21ZM476.676 22.93C476.676 23.23 476.656 23.6 476.616 24.04H463.476C463.676 25.34 464.216 26.37 465.096 27.13C465.996 27.89 467.106 28.27 468.426 28.27C469.066 28.27 469.666 28.18 470.226 28C470.786 27.8 471.276 27.53 471.696 27.19C472.136 26.83 472.496 26.4 472.776 25.9H476.286C475.646 27.62 474.626 28.97 473.226 29.95C471.826 30.91 470.226 31.39 468.426 31.39C466.046 31.39 464.056 30.58 462.456 28.96C460.876 27.34 460.086 25.32 460.086 22.9C460.086 20.48 460.876 18.46 462.456 16.84C464.056 15.22 466.046 14.41 468.426 14.41C470.046 14.41 471.486 14.8 472.746 15.58C474.006 16.34 474.976 17.37 475.656 18.67C476.336 19.95 476.676 21.37 476.676 22.93ZM468.426 17.41C467.186 17.41 466.126 17.76 465.246 18.46C464.386 19.16 463.816 20.12 463.536 21.34H473.346C473.146 20.52 472.816 19.82 472.356 19.24C471.896 18.64 471.326 18.19 470.646 17.89C469.986 17.57 469.246 17.41 468.426 17.41ZM491.012 14.8H494.282V31H491.012V24.22H483.512V31H480.212V14.8H483.512V21.16H491.012V14.8ZM512.58 14.8H515.16V31H512.46L512.13 29.02C510.57 30.6 508.62 31.39 506.28 31.39C503.86 31.39 501.84 30.58 500.22 28.96C498.62 27.34 497.82 25.32 497.82 22.9C497.82 20.46 498.62 18.44 500.22 16.84C501.84 15.22 503.86 14.41 506.28 14.41C508.66 14.41 510.63 15.21 512.19 16.81L512.58 14.8ZM502.71 26.71C503.73 27.71 505 28.21 506.52 28.21C508.06 28.21 509.32 27.71 510.3 26.71C511.3 25.69 511.8 24.42 511.8 22.9C511.8 21.36 511.3 20.09 510.3 19.09C509.32 18.09 508.06 17.59 506.52 17.59C505.52 17.59 504.61 17.82 503.79 18.28C502.99 18.74 502.36 19.38 501.9 20.2C501.44 21 501.21 21.9 501.21 22.9C501.21 24.42 501.71 25.69 502.71 26.71ZM61.4274 59.8H65.8074V76H61.4274V69.79H55.5474V76H51.1674V59.8H55.5474V65.8H61.4274V59.8ZM83.2353 59.77H86.5053V75.97H83.0553L82.6953 74.53C81.2153 75.81 79.4653 76.45 77.4453 76.45C75.0053 76.45 72.9753 75.64 71.3553 74.02C69.7553 72.38 68.9553 70.33 68.9553 67.87C68.9553 65.43 69.7553 63.4 71.3553 61.78C72.9753 60.16 75.0053 59.35 77.4453 59.35C79.5053 59.35 81.2753 60.01 82.7553 61.33L83.2353 59.77ZM74.6253 71.05C75.4653 71.89 76.5153 72.31 77.7753 72.31C79.0553 72.31 80.1153 71.89 80.9553 71.05C81.7953 70.21 82.2153 69.15 82.2153 67.87C82.2153 66.59 81.7953 65.53 80.9553 64.69C80.1153 63.85 79.0653 63.43 77.8053 63.43C76.9653 63.43 76.2053 63.63 75.5253 64.03C74.8653 64.41 74.3453 64.94 73.9653 65.62C73.5853 66.28 73.3953 67.03 73.3953 67.87C73.3953 69.15 73.8053 70.21 74.6253 71.05ZM97.8959 59.8H112.536V76H108.186V63.76H102.246V76H97.8959V59.8ZM125.584 59.35C128.024 59.35 130.044 60.16 131.644 61.78C133.264 63.4 134.074 65.44 134.074 67.9C134.074 70.36 133.264 72.41 131.644 74.05C130.024 75.67 128.004 76.48 125.584 76.48C123.924 76.48 122.434 76.03 121.114 75.13V81.85H116.734V59.8H119.644L120.394 61.27C121.834 59.99 123.564 59.35 125.584 59.35ZM122.044 71.08C122.884 71.92 123.934 72.34 125.194 72.34C126.474 72.34 127.534 71.92 128.374 71.08C129.214 70.24 129.634 69.18 129.634 67.9C129.634 67.06 129.444 66.3 129.064 65.62C128.684 64.94 128.154 64.41 127.474 64.03C126.814 63.65 126.064 63.46 125.224 63.46C124.384 63.46 123.624 63.65 122.944 64.03C122.264 64.41 121.734 64.94 121.354 65.62C120.994 66.3 120.814 67.06 120.814 67.9C120.814 69.18 121.224 70.24 122.044 71.08ZM144.893 76.45C143.233 76.45 141.733 76.08 140.393 75.34C139.053 74.6 138.003 73.58 137.243 72.28C136.503 70.96 136.133 69.5 136.133 67.9C136.133 65.44 136.963 63.4 138.623 61.78C140.283 60.16 142.373 59.35 144.893 59.35C147.393 59.35 149.473 60.16 151.133 61.78C152.793 63.4 153.623 65.44 153.623 67.9C153.623 70.34 152.783 72.38 151.103 74.02C149.443 75.64 147.373 76.45 144.893 76.45ZM144.893 72.34C146.153 72.34 147.183 71.93 147.983 71.11C148.783 70.27 149.183 69.2 149.183 67.9C149.183 66.6 148.783 65.54 147.983 64.72C147.183 63.88 146.143 63.46 144.863 63.46C143.603 63.46 142.573 63.88 141.773 64.72C140.973 65.54 140.573 66.6 140.573 67.9C140.573 68.54 140.673 69.14 140.873 69.7C141.093 70.26 141.393 70.73 141.773 71.11C142.153 71.49 142.603 71.79 143.123 72.01C143.663 72.23 144.253 72.34 144.893 72.34ZM176.193 67.93C176.193 69.49 175.833 70.91 175.113 72.19C174.413 73.45 173.433 74.46 172.173 75.22C170.933 75.96 169.523 76.37 167.943 76.45V81.1H163.983V76.45C162.403 76.37 160.983 75.96 159.723 75.22C158.463 74.46 157.483 73.45 156.783 72.19C156.083 70.91 155.733 69.49 155.733 67.93C155.733 65.57 156.513 63.58 158.073 61.96C159.633 60.34 161.603 59.47 163.983 59.35V54.85H167.943V59.35C170.303 59.49 172.263 60.37 173.823 61.99C175.403 63.59 176.193 65.57 176.193 67.93ZM159.963 67.93C159.963 69.23 160.343 70.33 161.103 71.23C161.863 72.13 162.833 72.64 164.013 72.76V63.07C162.833 63.19 161.863 63.71 161.103 64.63C160.343 65.55 159.963 66.65 159.963 67.93ZM167.853 72.76C168.653 72.68 169.363 72.42 169.983 71.98C170.603 71.54 171.083 70.97 171.423 70.27C171.783 69.55 171.963 68.77 171.963 67.93C171.963 66.65 171.573 65.55 170.793 64.63C170.013 63.71 169.033 63.19 167.853 63.07V72.76ZM195.032 67.84C195.032 68.26 195.002 68.69 194.942 69.13H182.702C182.882 70.23 183.312 71.08 183.992 71.68C184.692 72.26 185.582 72.55 186.662 72.55C187.402 72.55 188.072 72.39 188.672 72.07C189.272 71.73 189.742 71.27 190.082 70.69H194.702C194.102 72.45 193.082 73.85 191.642 74.89C190.202 75.93 188.542 76.45 186.662 76.45C184.262 76.45 182.262 75.63 180.662 73.99C179.062 72.35 178.262 70.32 178.262 67.9C178.262 66.94 178.392 66.02 178.652 65.14C178.932 64.26 179.322 63.47 179.822 62.77C180.342 62.07 180.942 61.47 181.622 60.97C182.302 60.45 183.072 60.05 183.932 59.77C184.792 59.49 185.702 59.35 186.662 59.35C188.282 59.35 189.732 59.73 191.012 60.49C192.312 61.25 193.302 62.28 193.982 63.58C194.682 64.88 195.032 66.3 195.032 67.84ZM186.662 63.07C185.682 63.07 184.852 63.34 184.172 63.88C183.512 64.42 183.062 65.17 182.822 66.13H190.652C190.452 65.47 190.162 64.92 189.782 64.48C189.402 64.02 188.942 63.67 188.402 63.43C187.882 63.19 187.302 63.07 186.662 63.07ZM205.68 76.45C204.08 76.45 202.62 76.08 201.3 75.34C200 74.58 198.97 73.54 198.21 72.22C197.47 70.9 197.1 69.44 197.1 67.84C197.1 65.42 197.92 63.4 199.56 61.78C201.2 60.16 203.25 59.35 205.71 59.35C207.81 59.35 209.61 59.96 211.11 61.18C212.61 62.38 213.56 63.98 213.96 65.98H209.61C209.25 65.2 208.72 64.59 208.02 64.15C207.34 63.69 206.56 63.46 205.68 63.46C204.5 63.46 203.51 63.88 202.71 64.72C201.93 65.56 201.54 66.61 201.54 67.87C201.54 69.13 201.94 70.19 202.74 71.05C203.54 71.91 204.52 72.34 205.68 72.34C206.56 72.34 207.34 72.11 208.02 71.65C208.7 71.17 209.23 70.49 209.61 69.61H214.02C213.62 71.67 212.66 73.33 211.14 74.59C209.62 75.83 207.8 76.45 205.68 76.45ZM224.43 76.45C222.83 76.45 221.37 76.08 220.05 75.34C218.75 74.58 217.72 73.54 216.96 72.22C216.22 70.9 215.85 69.44 215.85 67.84C215.85 65.42 216.67 63.4 218.31 61.78C219.95 60.16 222 59.35 224.46 59.35C226.56 59.35 228.36 59.96 229.86 61.18C231.36 62.38 232.31 63.98 232.71 65.98H228.36C228 65.2 227.47 64.59 226.77 64.15C226.09 63.69 225.31 63.46 224.43 63.46C223.25 63.46 222.26 63.88 221.46 64.72C220.68 65.56 220.29 66.61 220.29 67.87C220.29 69.13 220.69 70.19 221.49 71.05C222.29 71.91 223.27 72.34 224.43 72.34C225.31 72.34 226.09 72.11 226.77 71.65C227.45 71.17 227.98 70.49 228.36 69.61H232.77C232.37 71.67 231.41 73.33 229.89 74.59C228.37 75.83 226.55 76.45 224.43 76.45ZM247.44 59.8H249.9V76H245.67V67.42L238.14 76H235.65V59.8H239.88V68.29L247.44 59.8ZM261.817 76.45C260.157 76.45 258.657 76.08 257.317 75.34C255.977 74.6 254.927 73.58 254.167 72.28C253.427 70.96 253.057 69.5 253.057 67.9C253.057 65.44 253.887 63.4 255.547 61.78C257.207 60.16 259.297 59.35 261.817 59.35C264.317 59.35 266.397 60.16 268.057 61.78C269.717 63.4 270.547 65.44 270.547 67.9C270.547 70.34 269.707 72.38 268.027 74.02C266.367 75.64 264.297 76.45 261.817 76.45ZM261.817 72.34C263.077 72.34 264.107 71.93 264.907 71.11C265.707 70.27 266.107 69.2 266.107 67.9C266.107 66.6 265.707 65.54 264.907 64.72C264.107 63.88 263.067 63.46 261.787 63.46C260.527 63.46 259.497 63.88 258.697 64.72C257.897 65.54 257.497 66.6 257.497 67.9C257.497 68.54 257.597 69.14 257.797 69.7C258.017 70.26 258.317 70.73 258.697 71.11C259.077 71.49 259.527 71.79 260.047 72.01C260.587 72.23 261.177 72.34 261.817 72.34ZM283.966 59.8H288.346V76H283.966V69.79H278.086V76H273.706V59.8H278.086V65.8H283.966V59.8ZM305.774 59.77H309.044V75.97H305.594L305.234 74.53C303.754 75.81 302.004 76.45 299.984 76.45C297.544 76.45 295.514 75.64 293.894 74.02C292.294 72.38 291.494 70.33 291.494 67.87C291.494 65.43 292.294 63.4 293.894 61.78C295.514 60.16 297.544 59.35 299.984 59.35C302.044 59.35 303.814 60.01 305.294 61.33L305.774 59.77ZM297.164 71.05C298.004 71.89 299.054 72.31 300.314 72.31C301.594 72.31 302.654 71.89 303.494 71.05C304.334 70.21 304.754 69.15 304.754 67.87C304.754 66.59 304.334 65.53 303.494 64.69C302.654 63.85 301.604 63.43 300.344 63.43C299.504 63.43 298.744 63.63 298.064 64.03C297.404 64.41 296.884 64.94 296.504 65.62C296.124 66.28 295.934 67.03 295.934 67.87C295.934 69.15 296.344 70.21 297.164 71.05ZM316.167 59.8H327.747V76H323.457V63.61H319.737L319.197 69.37C318.957 71.81 318.307 73.54 317.247 74.56C316.187 75.58 314.597 76.09 312.477 76.09H311.757V72.13H312.837C313.437 72.13 313.937 71.92 314.337 71.5C314.737 71.08 314.977 70.48 315.057 69.7L316.167 59.8ZM343.739 59.8H346.199V76H341.969V67.42L334.439 76H331.949V59.8H336.179V68.29L343.739 59.8ZM360.186 67.3C361.586 68.18 362.286 69.48 362.286 71.2C362.286 72.74 361.666 74 360.426 74.98C359.186 75.96 357.596 76.45 355.656 76.45C353.656 76.45 352.056 75.92 350.856 74.86C349.656 73.8 349.046 72.38 349.026 70.6H352.986C353.006 70.86 353.056 71.11 353.136 71.35C353.236 71.57 353.356 71.76 353.496 71.92C353.656 72.08 353.836 72.22 354.036 72.34C354.256 72.46 354.496 72.55 354.756 72.61C355.036 72.67 355.336 72.7 355.656 72.7C356.376 72.7 356.946 72.54 357.366 72.22C357.786 71.9 357.996 71.47 357.996 70.93C357.996 70.57 357.896 70.26 357.696 70C357.516 69.72 357.246 69.51 356.886 69.37C356.546 69.23 356.136 69.16 355.656 69.16H353.916V65.98H355.656C356.296 65.98 356.786 65.85 357.126 65.59C357.466 65.31 357.636 64.92 357.636 64.42C357.636 63.92 357.446 63.53 357.066 63.25C356.706 62.95 356.206 62.8 355.566 62.8C354.926 62.8 354.406 62.96 354.006 63.28C353.626 63.6 353.416 64.05 353.376 64.63H349.386C349.426 63.07 350.026 61.8 351.186 60.82C352.346 59.84 353.836 59.35 355.656 59.35C357.456 59.35 358.926 59.81 360.066 60.73C361.226 61.63 361.806 62.79 361.806 64.21C361.806 65.45 361.266 66.48 360.186 67.3ZM386.614 76H382.384L380.884 66.25L375.874 76.03H375.034L370.024 66.25L368.524 76H364.294L366.994 59.8H370.744L375.454 68.98L380.224 59.8H383.944L386.614 76ZM405.237 67.84C405.237 68.26 405.207 68.69 405.147 69.13H392.907C393.087 70.23 393.517 71.08 394.197 71.68C394.897 72.26 395.787 72.55 396.867 72.55C397.607 72.55 398.277 72.39 398.877 72.07C399.477 71.73 399.947 71.27 400.287 70.69H404.907C404.307 72.45 403.287 73.85 401.847 74.89C400.407 75.93 398.747 76.45 396.867 76.45C394.467 76.45 392.467 75.63 390.867 73.99C389.267 72.35 388.467 70.32 388.467 67.9C388.467 66.94 388.597 66.02 388.857 65.14C389.137 64.26 389.527 63.47 390.027 62.77C390.547 62.07 391.147 61.47 391.827 60.97C392.507 60.45 393.277 60.05 394.137 59.77C394.997 59.49 395.907 59.35 396.867 59.35C398.487 59.35 399.937 59.73 401.217 60.49C402.517 61.25 403.507 62.28 404.187 63.58C404.887 64.88 405.237 66.3 405.237 67.84ZM396.867 63.07C395.887 63.07 395.057 63.34 394.377 63.88C393.717 64.42 393.267 65.17 393.027 66.13H400.857C400.657 65.47 400.367 64.92 399.987 64.48C399.607 64.02 399.147 63.67 398.607 63.43C398.087 63.19 397.507 63.07 396.867 63.07ZM427.323 59.8H429.783V76H425.553V67.42L418.023 76H415.533V59.8H419.763V68.29L427.323 59.8ZM449.867 59.8H454.127V76H449.867V70.75C448.947 71.05 447.967 71.2 446.927 71.2C444.847 71.2 443.187 70.59 441.947 69.37C440.727 68.13 440.117 66.46 440.117 64.36V59.8H444.407V64.42C444.407 66.4 445.357 67.39 447.257 67.39C448.257 67.39 449.127 67.18 449.867 66.76V59.8ZM474.055 67.84C474.055 68.26 474.025 68.69 473.965 69.13H461.725C461.905 70.23 462.335 71.08 463.015 71.68C463.715 72.26 464.605 72.55 465.685 72.55C466.425 72.55 467.095 72.39 467.695 72.07C468.295 71.73 468.765 71.27 469.105 70.69H473.725C473.125 72.45 472.105 73.85 470.665 74.89C469.225 75.93 467.565 76.45 465.685 76.45C463.285 76.45 461.285 75.63 459.685 73.99C458.085 72.35 457.285 70.32 457.285 67.9C457.285 66.94 457.415 66.02 457.675 65.14C457.955 64.26 458.345 63.47 458.845 62.77C459.365 62.07 459.965 61.47 460.645 60.97C461.325 60.45 462.095 60.05 462.955 59.77C463.815 59.49 464.725 59.35 465.685 59.35C467.305 59.35 468.755 59.73 470.035 60.49C471.335 61.25 472.325 62.28 473.005 63.58C473.705 64.88 474.055 66.3 474.055 67.84ZM465.685 63.07C464.705 63.07 463.875 63.34 463.195 63.88C462.535 64.42 462.085 65.17 461.845 66.13H469.675C469.475 65.47 469.185 64.92 468.805 64.48C468.425 64.02 467.965 63.67 467.425 63.43C466.905 63.19 466.325 63.07 465.685 63.07ZM484.703 76.45C483.103 76.45 481.643 76.08 480.323 75.34C479.023 74.58 477.993 73.54 477.233 72.22C476.493 70.9 476.123 69.44 476.123 67.84C476.123 65.42 476.943 63.4 478.583 61.78C480.223 60.16 482.273 59.35 484.733 59.35C486.833 59.35 488.633 59.96 490.133 61.18C491.633 62.38 492.583 63.98 492.983 65.98H488.633C488.273 65.2 487.743 64.59 487.043 64.15C486.363 63.69 485.583 63.46 484.703 63.46C483.523 63.46 482.533 63.88 481.733 64.72C480.953 65.56 480.563 66.61 480.563 67.87C480.563 69.13 480.963 70.19 481.763 71.05C482.563 71.91 483.543 72.34 484.703 72.34C485.583 72.34 486.363 72.11 487.043 71.65C487.723 71.17 488.253 70.49 488.633 69.61H493.043C492.643 71.67 491.683 73.33 490.163 74.59C488.643 75.83 486.823 76.45 484.703 76.45ZM509.008 59.8V63.73H503.728V76H499.438V63.73H494.158V59.8H509.008ZM521.916 59.8H526.296V76H521.916V69.79H516.036V76H511.656V59.8H516.036V65.8H521.916V59.8ZM538.204 76.45C536.544 76.45 535.044 76.08 533.704 75.34C532.364 74.6 531.314 73.58 530.554 72.28C529.814 70.96 529.444 69.5 529.444 67.9C529.444 65.44 530.274 63.4 531.934 61.78C533.594 60.16 535.684 59.35 538.204 59.35C540.704 59.35 542.784 60.16 544.444 61.78C546.104 63.4 546.934 65.44 546.934 67.9C546.934 70.34 546.094 72.38 544.414 74.02C542.754 75.64 540.684 76.45 538.204 76.45ZM538.204 72.34C539.464 72.34 540.494 71.93 541.294 71.11C542.094 70.27 542.494 69.2 542.494 67.9C542.494 66.6 542.094 65.54 541.294 64.72C540.494 63.88 539.454 63.46 538.174 63.46C536.914 63.46 535.884 63.88 535.084 64.72C534.284 65.54 533.884 66.6 533.884 67.9C533.884 68.54 533.984 69.14 534.184 69.7C534.404 70.26 534.704 70.73 535.084 71.11C535.464 71.49 535.914 71.79 536.434 72.01C536.974 72.23 537.564 72.34 538.204 72.34ZM557.623 76.45C556.023 76.45 554.563 76.08 553.243 75.34C551.943 74.58 550.913 73.54 550.153 72.22C549.413 70.9 549.043 69.44 549.043 67.84C549.043 65.42 549.863 63.4 551.503 61.78C553.143 60.16 555.193 59.35 557.653 59.35C559.753 59.35 561.553 59.96 563.053 61.18C564.553 62.38 565.503 63.98 565.903 65.98H561.553C561.193 65.2 560.663 64.59 559.963 64.15C559.283 63.69 558.503 63.46 557.623 63.46C556.443 63.46 555.453 63.88 554.653 64.72C553.873 65.56 553.483 66.61 553.483 67.87C553.483 69.13 553.883 70.19 554.683 71.05C555.483 71.91 556.463 72.34 557.623 72.34C558.503 72.34 559.283 72.11 559.963 71.65C560.643 71.17 561.173 70.49 561.553 69.61H565.963C565.563 71.67 564.603 73.33 563.083 74.59C561.563 75.83 559.743 76.45 557.623 76.45ZM581.928 59.8V63.73H576.648V76H572.358V63.73H567.078V59.8H581.928ZM596.366 59.8H598.826V76H594.596V67.42L587.066 76H584.576V59.8H588.806V68.29L596.366 59.8Z" fill="#4B5258"/>
</svg>
